<?xml version="1.0" encoding="utf-8" ?>
<svg xmlns="http://www.w3.org/2000/svg" xmlns:xlink="http://www.w3.org/1999/xlink" width="25" height="35">
	<path fill="rgb(0,255,255)" stroke="none" d="M21.25 0L20 7L22.5 17.5L20 28L25 31.5L0 31.5L5 28L2.5 17.5L5 7L3.75 0L21.25 0ZM0 31.5L25 31.5L25 35L0 35L0 31.5Z"/>
	<path fill="none" stroke="rgb(0,0,0)" stroke-width="1" stroke-miterlimit="4" d="M21.25 0L20 7L22.5 17.5L20 28L25 31.5L0 31.5L5 28L2.5 17.5L5 7L3.75 0L21.25 0ZM0 31.5L25 31.5L25 35L0 35L0 31.5Z"/>
</svg>
