<?xml version="1.0" encoding="utf-8" ?>
<svg xmlns="http://www.w3.org/2000/svg" xmlns:xlink="http://www.w3.org/1999/xlink" width="25" height="20">
	<path fill="rgb(0,255,255)" stroke="none" d="M13.75 10Q13.75 10.0491 13.744 10.098Q13.738 10.1469 13.726 10.1951Q13.714 10.2433 13.6962 10.2903Q13.6783 10.3373 13.6548 10.3827Q13.6313 10.4281 13.6024 10.4714Q13.5735 10.5147 13.5393 10.5556Q13.5052 10.5964 13.4663 10.6344Q13.4273 10.6724 13.3839 10.7071Q13.3405 10.7418 13.293 10.773Q13.2455 10.8042 13.1945 10.8315Q13.1434 10.8588 13.0892 10.8819Q13.0351 10.9051 12.9784 10.9239Q12.9216 10.9427 12.8629 10.9569Q12.8041 10.9712 12.7439 10.9808Q12.6836 10.9904 12.6225 10.9952Q12.5614 11 12.5 11Q12.4386 11 12.3775 10.9952Q12.3164 10.9904 12.2561 10.9808Q12.1959 10.9712 12.1371 10.9569Q12.0784 10.9427 12.0216 10.9239Q11.9649 10.9051 11.9108 10.8819Q11.8566 10.8588 11.8055 10.8315Q11.7545 10.8042 11.707 10.773Q11.6595 10.7418 11.6161 10.7071Q11.5727 10.6724 11.5337 10.6344Q11.4948 10.5964 11.4607 10.5556Q11.4265 10.5147 11.3976 10.4714Q11.3687 10.4281 11.3451 10.3827Q11.3217 10.3373 11.3038 10.2903Q11.286 10.2433 11.274 10.1951Q11.262 10.1469 11.256 10.098Q11.25 10.0491 11.25 10M11.25 10Q11.25 9.90175 11.262 9.80397Q11.2741 9.70619 11.298 9.60982Q11.322 9.51345 11.3576 9.41943Q11.3933 9.32541 11.4403 9.23463Q11.4873 9.14386 11.5452 9.05721Q11.6031 8.97055 11.6713 8.88886Q11.7396 8.80716 11.8175 8.73121Q11.8954 8.65526 11.9822 8.58579Q12.0691 8.51631 12.164 8.45398Q12.259 8.39165 12.3611 8.33706Q12.4632 8.28247 12.5715 8.23616Q12.6798 8.18984 12.7933 8.15224Q12.9068 8.11464 13.0243 8.08612Q13.1418 8.0576 13.2623 8.03843Q13.3827 8.01926 13.505 8.00963Q13.6272 8 13.75 8Q13.8728 8 13.995 8.00963Q14.1173 8.01926 14.2377 8.03843Q14.3582 8.0576 14.4757 8.08612Q14.5932 8.11464 14.7067 8.15224Q14.8202 8.18984 14.9285 8.23616Q15.0368 8.28247 15.1389 8.33706Q15.241 8.39165 15.336 8.45398Q15.4309 8.51631 15.5178 8.58579Q15.6046 8.65526 15.6825 8.73121Q15.7604 8.80716 15.8287 8.88886Q15.8969 8.97056 15.9548 9.05721Q16.0127 9.14386 16.0597 9.23463Q16.1067 9.32541 16.1424 9.41943Q16.178 9.51345 16.202 9.60982Q16.2259 9.70619 16.238 9.80397Q16.25 9.90175 16.25 10M16.25 10Q16.25 10.1474 16.2319 10.2941Q16.2139 10.4407 16.1779 10.5853Q16.142 10.7298 16.0885 10.8709Q16.035 11.0119 15.9645 11.148Q15.894 11.2842 15.8072 11.4142Q15.7204 11.5442 15.618 11.6667Q15.5157 11.7893 15.3988 11.9032Q15.2819 12.0171 15.1517 12.1213Q15.0214 12.2255 14.879 12.319Q14.7366 12.4125 14.5834 12.4944Q14.4302 12.5763 14.2677 12.6458Q14.1053 12.7152 13.9351 12.7716Q13.7649 12.828 13.5886 12.8708Q13.4123 12.9136 13.2316 12.9424Q13.0509 12.9711 12.8676 12.9856Q12.6842 13 12.5 13Q12.3158 13 12.1324 12.9856Q11.9491 12.9711 11.7684 12.9424Q11.5877 12.9136 11.4114 12.8708Q11.2351 12.828 11.0649 12.7716Q10.8947 12.7152 10.7323 12.6458Q10.5698 12.5763 10.4166 12.4944Q10.2634 12.4125 10.121 12.319Q9.97862 12.2255 9.84835 12.1213Q9.71808 12.0171 9.60121 11.9032Q9.48434 11.7893 9.38199 11.6667Q9.27964 11.5442 9.19279 11.4142Q9.10595 11.2842 9.03545 11.148Q8.96495 11.0119 8.91147 10.8709Q8.858 10.7298 8.82205 10.5853Q8.78611 10.4407 8.76806 10.2941Q8.75 10.1474 8.75 10M8.75 10Q8.75 9.9018 8.75602 9.80373Q8.76205 9.70565 8.77408 9.60793Q8.78611 9.51021 8.80412 9.41308Q8.82213 9.31595 8.84607 9.21964Q8.87002 9.12333 8.89984 9.02808Q8.92967 8.93283 8.9653 8.83886Q9.00093 8.74489 9.04228 8.65244Q9.08363 8.55999 9.1306 8.46927Q9.17757 8.37855 9.23005 8.28978Q9.28253 8.20101 9.34039 8.11441Q9.39825 8.02781 9.46136 7.94359Q9.52446 7.85936 9.59265 7.77772Q9.66084 7.69607 9.73396 7.6172Q9.80708 7.53833 9.88495 7.46243Q9.96281 7.38652 10.0452 7.31376Q10.1277 7.24101 10.2145 7.17157Q10.3013 7.10214 10.3922 7.03619Q10.4832 6.97025 10.578 6.90796Q10.6729 6.84566 10.7715 6.78717Q10.8701 6.72867 10.9721 6.67412Q11.0742 6.61957 11.1795 6.56909Q11.2848 6.5186 11.393 6.47232Q11.5013 6.42603 11.6122 6.38404Q11.7232 6.34206 11.8366 6.30448Q11.95 6.2669 12.0655 6.23382Q12.1811 6.20074 12.2986 6.17224Q12.416 6.14373 12.5351 6.11987Q12.6542 6.09602 12.7745 6.07686Q12.8949 6.0577 13.0163 6.04329Q13.1378 6.02889 13.2599 6.01926Q13.3821 6.00964 13.5047 6.00482Q13.6273 6 13.75 6Q13.8727 6 13.9953 6.00482Q14.1179 6.00964 14.2401 6.01926Q14.3622 6.02889 14.4837 6.04329Q14.6051 6.0577 14.7255 6.07686Q14.8458 6.09602 14.9649 6.11987Q15.084 6.14373 15.2014 6.17224Q15.3189 6.20074 15.4344 6.23382Q15.55 6.2669 15.6634 6.30448Q15.7768 6.34206 15.8878 6.38404Q15.9987 6.42603 16.107 6.47232Q16.2152 6.5186 16.3205 6.56909Q16.4258 6.61957 16.5278 6.67412Q16.6299 6.72867 16.7285 6.78717Q16.8271 6.84566 16.922 6.90796Q17.0168 6.97025 17.1078 7.03619Q17.1987 7.10214 17.2855 7.17157Q17.3723 7.24101 17.4548 7.31376Q17.5372 7.38652 17.6151 7.46243Q17.6929 7.53833 17.766 7.6172Q17.8392 7.69607 17.9073 7.77772Q17.9755 7.85936 18.0386 7.94359Q18.1017 8.02781 18.1596 8.11441Q18.2175 8.20101 18.2699 8.28978Q18.3224 8.37855 18.3694 8.46927Q18.4164 8.55999 18.4577 8.65244Q18.4991 8.74489 18.5347 8.83886Q18.5703 8.93283 18.6002 9.02808Q18.63 9.12333 18.6539 9.21964Q18.6779 9.31595 18.6959 9.41308Q18.7139 9.51021 18.7259 9.60793Q18.738 9.70565 18.744 9.80373Q18.75 9.9018 18.75 10M18.75 10Q18.75 10.1227 18.7425 10.2453Q18.7349 10.3679 18.7199 10.4901Q18.7049 10.6122 18.6824 10.7337Q18.6598 10.8551 18.6299 10.9755Q18.6 11.0958 18.5627 11.2149Q18.5254 11.334 18.4809 11.4514Q18.4363 11.5689 18.3846 11.6844Q18.333 11.8 18.2742 11.9134Q18.2155 12.0268 18.1499 12.1378Q18.0843 12.2487 18.012 12.357Q17.9397 12.4652 17.8608 12.5705Q17.7819 12.6758 17.6967 12.7779Q17.6114 12.8799 17.52 12.9785Q17.4286 13.0771 17.3313 13.172Q17.234 13.2668 17.1309 13.3578Q17.0279 13.4487 16.9194 13.5355Q16.8109 13.6223 16.6972 13.7048Q16.5836 13.7872 16.465 13.8651Q16.3464 13.9429 16.2231 14.016Q16.0999 14.0892 15.9723 14.1573Q15.8447 14.2255 15.7131 14.2886Q15.5815 14.3517 15.4462 14.4096Q15.3109 14.4675 15.1722 14.5199Q15.0335 14.5724 14.8918 14.6194Q14.75 14.6664 14.6056 14.7077Q14.4611 14.7491 14.3143 14.7847Q14.1675 14.8203 14.0186 14.8502Q13.8698 14.88 13.7193 14.9039Q13.5688 14.9279 13.4171 14.9459Q13.2653 14.9639 13.1126 14.9759Q12.9599 14.988 12.8067 14.994Q12.6534 15 12.5 15Q12.3466 15 12.1933 14.994Q12.0401 14.988 11.8874 14.9759Q11.7347 14.9639 11.5829 14.9459Q11.4312 14.9279 11.2807 14.9039Q11.1302 14.88 10.9814 14.8502Q10.8325 14.8203 10.6857 14.7847Q10.5389 14.7491 10.3944 14.7077Q10.25 14.6664 10.1082 14.6194Q9.96648 14.5724 9.82778 14.5199Q9.68908 14.4675 9.55377 14.4096Q9.41846 14.3517 9.28686 14.2886Q9.15526 14.2255 9.02769 14.1573Q8.90011 14.0892 8.77688 14.016Q8.65364 13.9429 8.53504 13.8651Q8.41644 13.7872 8.30276 13.7048Q8.18907 13.6223 8.08058 13.5355Q7.97209 13.4487 7.86905 13.3578Q7.76602 13.2668 7.66868 13.172Q7.57135 13.0771 7.47995 12.9785Q7.38855 12.8799 7.30331 12.7778Q7.21807 12.6758 7.13919 12.5705Q7.06032 12.4652 6.98799 12.357Q6.91566 12.2487 6.85007 12.1378Q6.78447 12.0268 6.72575 11.9134Q6.66704 11.8 6.61535 11.6844Q6.56366 11.5689 6.51912 11.4514Q6.47458 11.334 6.4373 11.2149Q6.40002 11.0958 6.37009 10.9755Q6.34016 10.8551 6.31765 10.7337Q6.29513 10.6122 6.2801 10.4901Q6.26506 10.3679 6.25753 10.2453Q6.25 10.1227 6.25 10M6.25 10Q6.25 9.85271 6.25903 9.70559Q6.26807 9.55848 6.28611 9.4119Q6.30416 9.26532 6.33118 9.11962Q6.35819 8.97392 6.39411 8.82946Q6.43003 8.685 6.47477 8.54212Q6.5195 8.39924 6.57295 8.25829Q6.62639 8.11734 6.68842 7.97866Q6.75044 7.83998 6.8209 7.7039Q6.89136 7.56782 6.97008 7.43467Q7.0488 7.30152 7.13559 7.17162Q7.22238 7.04172 7.31703 6.91538Q7.41169 6.78905 7.51398 6.66658Q7.61627 6.54411 7.72594 6.4258Q7.83562 6.3075 7.95242 6.19364Q8.06922 6.07978 8.19287 5.97065Q8.31651 5.86151 8.4467 5.75736Q8.57689 5.65321 8.71331 5.55429Q8.84973 5.45538 8.99205 5.36194Q9.13437 5.2685 9.28226 5.18075Q9.43014 5.09301 9.58322 5.01118Q9.73631 4.92935 9.89423 4.85363Q10.0521 4.7779 10.2145 4.70847Q10.3769 4.63904 10.5433 4.57606Q10.7098 4.51309 10.8799 4.45672Q11.05 4.40036 11.2233 4.35074Q11.3967 4.30111 11.5729 4.25836Q11.7491 4.2156 11.9276 4.17981Q12.1062 4.14402 12.2868 4.11529Q12.4674 4.08655 12.6495 4.06494Q12.8316 4.04333 13.0149 4.02889Q13.1981 4.01445 13.382 4.00723Q13.5659 4 13.75 4Q13.9341 4 14.118 4.00723Q14.3019 4.01445 14.4851 4.02889Q14.6684 4.04333 14.8505 4.06494Q15.0326 4.08655 15.2132 4.11529Q15.3938 4.14402 15.5724 4.17981Q15.7509 4.2156 15.9271 4.25836Q16.1033 4.30111 16.2767 4.35074Q16.45 4.40036 16.6201 4.45672Q16.7902 4.51309 16.9567 4.57606Q17.1231 4.63904 17.2855 4.70847Q17.4478 4.7779 17.6058 4.85363Q17.7637 4.92935 17.9168 5.01118Q18.0699 5.09301 18.2177 5.18075Q18.3656 5.2685 18.5079 5.36194Q18.6503 5.45538 18.7867 5.55429Q18.9231 5.65321 19.0533 5.75736Q19.1835 5.86151 19.3071 5.97065Q19.4308 6.07978 19.5476 6.19364Q19.6644 6.3075 19.7741 6.4258Q19.8837 6.54411 19.986 6.66658Q20.0883 6.78905 20.183 6.91538Q20.2776 7.04172 20.3644 7.17162Q20.4512 7.30152 20.5299 7.43467Q20.6086 7.56782 20.6791 7.7039Q20.7496 7.83998 20.8116 7.97866Q20.8736 8.11734 20.9271 8.25829Q20.9805 8.39924 21.0252 8.54212Q21.07 8.685 21.1059 8.82946Q21.1418 8.97392 21.1688 9.11962Q21.1958 9.26532 21.2139 9.4119Q21.2319 9.55848 21.241 9.70559Q21.25 9.85271 21.25 10M21.25 10Q21.25 10.1718 21.2395 10.3435Q21.2289 10.5151 21.2079 10.6861Q21.1868 10.8571 21.1553 11.0271Q21.1238 11.1971 21.0819 11.3656Q21.04 11.5342 20.9878 11.7009Q20.9356 11.8676 20.8732 12.032Q20.8109 12.1964 20.7385 12.3582Q20.6661 12.52 20.5839 12.6788Q20.5017 12.8375 20.4099 12.9929Q20.3181 13.1482 20.2168 13.2998Q20.1156 13.4513 20.0051 13.5987Q19.8947 13.7461 19.7754 13.889Q19.656 14.0319 19.5281 14.1699Q19.4001 14.3079 19.2638 14.4408Q19.1276 14.5736 18.9833 14.7009Q18.8391 14.8282 18.6872 14.9497Q18.5353 15.0713 18.3761 15.1867Q18.217 15.3021 18.0509 15.4111Q17.8849 15.5201 17.7124 15.6225Q17.5398 15.7248 17.3612 15.8203Q17.1826 15.9158 16.9984 16.0041Q16.8142 16.0924 16.6247 16.1734Q16.4353 16.2545 16.2411 16.3279Q16.0469 16.4014 15.8485 16.4672Q15.65 16.5329 15.4478 16.5908Q15.2455 16.6487 15.04 16.6986Q14.8344 16.7485 14.6261 16.7902Q14.4177 16.832 14.207 16.8655Q13.9964 16.899 13.7839 16.9242Q13.5714 16.9494 13.3576 16.9663Q13.1439 16.9831 12.9293 16.9916Q12.7148 17 12.5 17Q12.2852 17 12.0707 16.9916Q11.8561 16.9831 11.6424 16.9663Q11.4286 16.9494 11.2161 16.9242Q11.0036 16.899 10.793 16.8655Q10.5823 16.832 10.3739 16.7902Q10.1656 16.7485 9.96001 16.6986Q9.75446 16.6487 9.55221 16.5908Q9.34997 16.5329 9.15152 16.4672Q8.95307 16.4014 8.75889 16.3279Q8.56472 16.2545 8.37528 16.1734Q8.18584 16.0924 8.0016 16.0041Q7.81736 15.9158 7.63876 15.8203Q7.46016 15.7248 7.28763 15.6225Q7.1151 15.5201 6.94906 15.4111Q6.78301 15.3021 6.62386 15.1867Q6.4647 15.0713 6.31282 14.9497Q6.16093 14.8282 6.01668 14.7009Q5.87243 14.5736 5.73616 14.4408Q5.59989 14.3079 5.47193 14.1699Q5.34398 14.0319 5.22464 13.889Q5.1053 13.7461 4.99487 13.5987Q4.88444 13.4513 4.78319 13.2998Q4.68193 13.1482 4.59009 12.9929Q4.49825 12.8375 4.41605 12.6788Q4.33385 12.52 4.26149 12.3582Q4.18912 12.1964 4.12677 12.032Q4.06442 11.8676 4.01223 11.7009Q3.96003 11.5342 3.91813 11.3656Q3.87622 11.1971 3.84471 11.0271Q3.81319 10.8571 3.79213 10.6861Q3.77108 10.5151 3.76054 10.3435Q3.75 10.1718 3.75 10M3.75 10Q3.75 9.80361 3.76205 9.60746Q3.77409 9.41131 3.79815 9.21586Q3.82221 9.02042 3.85823 8.82615Q3.89425 8.63189 3.94215 8.43928Q3.99004 8.24666 4.04969 8.05616Q4.10934 7.86565 4.1806 7.67772Q4.25186 7.48979 4.33456 7.30488Q4.41726 7.11997 4.5112 6.93853Q4.60515 6.75709 4.71011 6.57956Q4.81507 6.40202 4.93079 6.22883Q5.04651 6.05562 5.17271 5.88718Q5.29892 5.71873 5.4353 5.55544Q5.57169 5.39215 5.71792 5.2344Q5.86416 5.07666 6.0199 4.92485Q6.17563 4.77304 6.34049 4.62753Q6.50535 4.48201 6.67893 4.34315Q6.85252 4.20428 7.03441 4.07239Q7.2163 3.9405 7.40607 3.81592Q7.59583 3.69133 7.79301 3.57434Q7.99018 3.45735 8.1943 3.34824Q8.39841 3.23913 8.60897 3.13817Q8.81953 3.03721 9.03603 2.94463Q9.25253 2.85205 9.47445 2.76809Q9.69636 2.68412 9.92316 2.60896Q10.15 2.53381 10.3811 2.46765Q10.6122 2.40149 10.8472 2.34448Q11.0821 2.28747 11.3202 2.23975Q11.5583 2.19203 11.7991 2.15372Q12.0399 2.1154 12.2827 2.08659Q12.5255 2.05777 12.7698 2.03852Q13.0141 2.01927 13.2593 2.00964Q13.5045 2 13.75 2Q13.9955 2 14.2407 2.00964Q14.4859 2.01927 14.7302 2.03852Q14.9745 2.05777 15.2173 2.08659Q15.4601 2.1154 15.7009 2.15372Q15.9417 2.19203 16.1798 2.23975Q16.4179 2.28747 16.6528 2.34448Q16.8878 2.40149 17.1189 2.46765Q17.35 2.53381 17.5768 2.60896Q17.8036 2.68412 18.0256 2.76809Q18.2475 2.85205 18.464 2.94463Q18.6805 3.03721 18.891 3.13817Q19.1016 3.23913 19.3057 3.34824Q19.5098 3.45735 19.707 3.57434Q19.9042 3.69133 20.0939 3.81592Q20.2837 3.9405 20.4656 4.07239Q20.6475 4.20428 20.8211 4.34315Q20.9946 4.48201 21.1595 4.62753Q21.3244 4.77304 21.4801 4.92485Q21.6358 5.07666 21.7821 5.2344Q21.9283 5.39215 22.0647 5.55544Q22.2011 5.71873 22.3273 5.88718Q22.4535 6.05562 22.5692 6.22883Q22.6849 6.40202 22.7899 6.57956Q22.8948 6.75709 22.9888 6.93853Q23.0827 7.11997 23.1654 7.30488Q23.2481 7.48979 23.3194 7.67772Q23.3907 7.86565 23.4503 8.05616Q23.51 8.24666 23.5579 8.43928Q23.6057 8.63189 23.6418 8.82616Q23.6778 9.02042 23.7018 9.21586Q23.7259 9.41131 23.738 9.60746Q23.75 9.80361 23.75 10L25 13L23.75 14"/>
	<path fill="none" stroke="rgb(0,0,0)" stroke-width="1" stroke-miterlimit="4" d="M13.75 10Q13.75 10.0491 13.744 10.098Q13.738 10.1469 13.726 10.1951Q13.714 10.2433 13.6962 10.2903Q13.6783 10.3373 13.6548 10.3827Q13.6313 10.4281 13.6024 10.4714Q13.5735 10.5147 13.5393 10.5556Q13.5052 10.5964 13.4663 10.6344Q13.4273 10.6724 13.3839 10.7071Q13.3405 10.7418 13.293 10.773Q13.2455 10.8042 13.1945 10.8315Q13.1434 10.8588 13.0892 10.8819Q13.0351 10.9051 12.9784 10.9239Q12.9216 10.9427 12.8629 10.9569Q12.8041 10.9712 12.7439 10.9808Q12.6836 10.9904 12.6225 10.9952Q12.5614 11 12.5 11Q12.4386 11 12.3775 10.9952Q12.3164 10.9904 12.2561 10.9808Q12.1959 10.9712 12.1371 10.9569Q12.0784 10.9427 12.0216 10.9239Q11.9649 10.9051 11.9108 10.8819Q11.8566 10.8588 11.8055 10.8315Q11.7545 10.8042 11.707 10.773Q11.6595 10.7418 11.6161 10.7071Q11.5727 10.6724 11.5337 10.6344Q11.4948 10.5964 11.4607 10.5556Q11.4265 10.5147 11.3976 10.4714Q11.3687 10.4281 11.3451 10.3827Q11.3217 10.3373 11.3038 10.2903Q11.286 10.2433 11.274 10.1951Q11.262 10.1469 11.256 10.098Q11.25 10.0491 11.25 10M11.25 10Q11.25 9.90175 11.262 9.80397Q11.2741 9.70619 11.298 9.60982Q11.322 9.51345 11.3576 9.41943Q11.3933 9.32541 11.4403 9.23463Q11.4873 9.14386 11.5452 9.05721Q11.6031 8.97055 11.6713 8.88886Q11.7396 8.80716 11.8175 8.73121Q11.8954 8.65526 11.9822 8.58579Q12.0691 8.51631 12.164 8.45398Q12.259 8.39165 12.3611 8.33706Q12.4632 8.28247 12.5715 8.23616Q12.6798 8.18984 12.7933 8.15224Q12.9068 8.11464 13.0243 8.08612Q13.1418 8.0576 13.2623 8.03843Q13.3827 8.01926 13.505 8.00963Q13.6272 8 13.75 8Q13.8728 8 13.995 8.00963Q14.1173 8.01926 14.2377 8.03843Q14.3582 8.0576 14.4757 8.08612Q14.5932 8.11464 14.7067 8.15224Q14.8202 8.18984 14.9285 8.23616Q15.0368 8.28247 15.1389 8.33706Q15.241 8.39165 15.336 8.45398Q15.4309 8.51631 15.5178 8.58579Q15.6046 8.65526 15.6825 8.73121Q15.7604 8.80716 15.8287 8.88886Q15.8969 8.97056 15.9548 9.05721Q16.0127 9.14386 16.0597 9.23463Q16.1067 9.32541 16.1424 9.41943Q16.178 9.51345 16.202 9.60982Q16.2259 9.70619 16.238 9.80397Q16.25 9.90175 16.25 10M16.25 10Q16.25 10.1474 16.2319 10.2941Q16.2139 10.4407 16.1779 10.5853Q16.142 10.7298 16.0885 10.8709Q16.035 11.0119 15.9645 11.148Q15.894 11.2842 15.8072 11.4142Q15.7204 11.5442 15.618 11.6667Q15.5157 11.7893 15.3988 11.9032Q15.2819 12.0171 15.1517 12.1213Q15.0214 12.2255 14.879 12.319Q14.7366 12.4125 14.5834 12.4944Q14.4302 12.5763 14.2677 12.6458Q14.1053 12.7152 13.9351 12.7716Q13.7649 12.828 13.5886 12.8708Q13.4123 12.9136 13.2316 12.9424Q13.0509 12.9711 12.8676 12.9856Q12.6842 13 12.5 13Q12.3158 13 12.1324 12.9856Q11.9491 12.9711 11.7684 12.9424Q11.5877 12.9136 11.4114 12.8708Q11.2351 12.828 11.0649 12.7716Q10.8947 12.7152 10.7323 12.6458Q10.5698 12.5763 10.4166 12.4944Q10.2634 12.4125 10.121 12.319Q9.97862 12.2255 9.84835 12.1213Q9.71808 12.0171 9.60121 11.9032Q9.48434 11.7893 9.38199 11.6667Q9.27964 11.5442 9.19279 11.4142Q9.10595 11.2842 9.03545 11.148Q8.96495 11.0119 8.91147 10.8709Q8.858 10.7298 8.82205 10.5853Q8.78611 10.4407 8.76806 10.2941Q8.75 10.1474 8.75 10M8.75 10Q8.75 9.9018 8.75602 9.80373Q8.76205 9.70565 8.77408 9.60793Q8.78611 9.51021 8.80412 9.41308Q8.82213 9.31595 8.84607 9.21964Q8.87002 9.12333 8.89984 9.02808Q8.92967 8.93283 8.9653 8.83886Q9.00093 8.74489 9.04228 8.65244Q9.08363 8.55999 9.1306 8.46927Q9.17757 8.37855 9.23005 8.28978Q9.28253 8.20101 9.34039 8.11441Q9.39825 8.02781 9.46136 7.94359Q9.52446 7.85936 9.59265 7.77772Q9.66084 7.69607 9.73396 7.6172Q9.80708 7.53833 9.88495 7.46243Q9.96281 7.38652 10.0452 7.31376Q10.1277 7.24101 10.2145 7.17157Q10.3013 7.10214 10.3922 7.03619Q10.4832 6.97025 10.578 6.90796Q10.6729 6.84566 10.7715 6.78717Q10.8701 6.72867 10.9721 6.67412Q11.0742 6.61957 11.1795 6.56909Q11.2848 6.5186 11.393 6.47232Q11.5013 6.42603 11.6122 6.38404Q11.7232 6.34206 11.8366 6.30448Q11.95 6.2669 12.0655 6.23382Q12.1811 6.20074 12.2986 6.17224Q12.416 6.14373 12.5351 6.11987Q12.6542 6.09602 12.7745 6.07686Q12.8949 6.0577 13.0163 6.04329Q13.1378 6.02889 13.2599 6.01926Q13.3821 6.00964 13.5047 6.00482Q13.6273 6 13.75 6Q13.8727 6 13.9953 6.00482Q14.1179 6.00964 14.2401 6.01926Q14.3622 6.02889 14.4837 6.04329Q14.6051 6.0577 14.7255 6.07686Q14.8458 6.09602 14.9649 6.11987Q15.084 6.14373 15.2014 6.17224Q15.3189 6.20074 15.4344 6.23382Q15.55 6.2669 15.6634 6.30448Q15.7768 6.34206 15.8878 6.38404Q15.9987 6.42603 16.107 6.47232Q16.2152 6.5186 16.3205 6.56909Q16.4258 6.61957 16.5278 6.67412Q16.6299 6.72867 16.7285 6.78717Q16.8271 6.84566 16.922 6.90796Q17.0168 6.97025 17.1078 7.03619Q17.1987 7.10214 17.2855 7.17157Q17.3723 7.24101 17.4548 7.31376Q17.5372 7.38652 17.6151 7.46243Q17.6929 7.53833 17.766 7.6172Q17.8392 7.69607 17.9073 7.77772Q17.9755 7.85936 18.0386 7.94359Q18.1017 8.02781 18.1596 8.11441Q18.2175 8.20101 18.2699 8.28978Q18.3224 8.37855 18.3694 8.46927Q18.4164 8.55999 18.4577 8.65244Q18.4991 8.74489 18.5347 8.83886Q18.5703 8.93283 18.6002 9.02808Q18.63 9.12333 18.6539 9.21964Q18.6779 9.31595 18.6959 9.41308Q18.7139 9.51021 18.7259 9.60793Q18.738 9.70565 18.744 9.80373Q18.75 9.9018 18.75 10M18.75 10Q18.75 10.1227 18.7425 10.2453Q18.7349 10.3679 18.7199 10.4901Q18.7049 10.6122 18.6824 10.7337Q18.6598 10.8551 18.6299 10.9755Q18.6 11.0958 18.5627 11.2149Q18.5254 11.334 18.4809 11.4514Q18.4363 11.5689 18.3846 11.6844Q18.333 11.8 18.2742 11.9134Q18.2155 12.0268 18.1499 12.1378Q18.0843 12.2487 18.012 12.357Q17.9397 12.4652 17.8608 12.5705Q17.7819 12.6758 17.6967 12.7779Q17.6114 12.8799 17.52 12.9785Q17.4286 13.0771 17.3313 13.172Q17.234 13.2668 17.1309 13.3578Q17.0279 13.4487 16.9194 13.5355Q16.8109 13.6223 16.6972 13.7048Q16.5836 13.7872 16.465 13.8651Q16.3464 13.9429 16.2231 14.016Q16.0999 14.0892 15.9723 14.1573Q15.8447 14.2255 15.7131 14.2886Q15.5815 14.3517 15.4462 14.4096Q15.3109 14.4675 15.1722 14.5199Q15.0335 14.5724 14.8918 14.6194Q14.75 14.6664 14.6056 14.7077Q14.4611 14.7491 14.3143 14.7847Q14.1675 14.8203 14.0186 14.8502Q13.8698 14.88 13.7193 14.9039Q13.5688 14.9279 13.4171 14.9459Q13.2653 14.9639 13.1126 14.9759Q12.9599 14.988 12.8067 14.994Q12.6534 15 12.5 15Q12.3466 15 12.1933 14.994Q12.0401 14.988 11.8874 14.9759Q11.7347 14.9639 11.5829 14.9459Q11.4312 14.9279 11.2807 14.9039Q11.1302 14.88 10.9814 14.8502Q10.8325 14.8203 10.6857 14.7847Q10.5389 14.7491 10.3944 14.7077Q10.25 14.6664 10.1082 14.6194Q9.96648 14.5724 9.82778 14.5199Q9.68908 14.4675 9.55377 14.4096Q9.41846 14.3517 9.28686 14.2886Q9.15526 14.2255 9.02769 14.1573Q8.90011 14.0892 8.77688 14.016Q8.65364 13.9429 8.53504 13.8651Q8.41644 13.7872 8.30276 13.7048Q8.18907 13.6223 8.08058 13.5355Q7.97209 13.4487 7.86905 13.3578Q7.76602 13.2668 7.66868 13.172Q7.57135 13.0771 7.47995 12.9785Q7.38855 12.8799 7.30331 12.7778Q7.21807 12.6758 7.13919 12.5705Q7.06032 12.4652 6.98799 12.357Q6.91566 12.2487 6.85007 12.1378Q6.78447 12.0268 6.72575 11.9134Q6.66704 11.8 6.61535 11.6844Q6.56366 11.5689 6.51912 11.4514Q6.47458 11.334 6.4373 11.2149Q6.40002 11.0958 6.37009 10.9755Q6.34016 10.8551 6.31765 10.7337Q6.29513 10.6122 6.2801 10.4901Q6.26506 10.3679 6.25753 10.2453Q6.25 10.1227 6.25 10M6.25 10Q6.25 9.85271 6.25903 9.70559Q6.26807 9.55848 6.28611 9.4119Q6.30416 9.26532 6.33118 9.11962Q6.35819 8.97392 6.39411 8.82946Q6.43003 8.685 6.47477 8.54212Q6.5195 8.39924 6.57295 8.25829Q6.62639 8.11734 6.68842 7.97866Q6.75044 7.83998 6.8209 7.7039Q6.89136 7.56782 6.97008 7.43467Q7.0488 7.30152 7.13559 7.17162Q7.22238 7.04172 7.31703 6.91538Q7.41169 6.78905 7.51398 6.66658Q7.61627 6.54411 7.72594 6.4258Q7.83562 6.3075 7.95242 6.19364Q8.06922 6.07978 8.19287 5.97065Q8.31651 5.86151 8.4467 5.75736Q8.57689 5.65321 8.71331 5.55429Q8.84973 5.45538 8.99205 5.36194Q9.13437 5.2685 9.28226 5.18075Q9.43014 5.09301 9.58322 5.01118Q9.73631 4.92935 9.89423 4.85363Q10.0521 4.7779 10.2145 4.70847Q10.3769 4.63904 10.5433 4.57606Q10.7098 4.51309 10.8799 4.45672Q11.05 4.40036 11.2233 4.35074Q11.3967 4.30111 11.5729 4.25836Q11.7491 4.2156 11.9276 4.17981Q12.1062 4.14402 12.2868 4.11529Q12.4674 4.08655 12.6495 4.06494Q12.8316 4.04333 13.0149 4.02889Q13.1981 4.01445 13.382 4.00723Q13.5659 4 13.75 4Q13.9341 4 14.118 4.00723Q14.3019 4.01445 14.4851 4.02889Q14.6684 4.04333 14.8505 4.06494Q15.0326 4.08655 15.2132 4.11529Q15.3938 4.14402 15.5724 4.17981Q15.7509 4.2156 15.9271 4.25836Q16.1033 4.30111 16.2767 4.35074Q16.45 4.40036 16.6201 4.45672Q16.7902 4.51309 16.9567 4.57606Q17.1231 4.63904 17.2855 4.70847Q17.4478 4.7779 17.6058 4.85363Q17.7637 4.92935 17.9168 5.01118Q18.0699 5.09301 18.2177 5.18075Q18.3656 5.2685 18.5079 5.36194Q18.6503 5.45538 18.7867 5.55429Q18.9231 5.65321 19.0533 5.75736Q19.1835 5.86151 19.3071 5.97065Q19.4308 6.07978 19.5476 6.19364Q19.6644 6.3075 19.7741 6.4258Q19.8837 6.54411 19.986 6.66658Q20.0883 6.78905 20.183 6.91538Q20.2776 7.04172 20.3644 7.17162Q20.4512 7.30152 20.5299 7.43467Q20.6086 7.56782 20.6791 7.7039Q20.7496 7.83998 20.8116 7.97866Q20.8736 8.11734 20.9271 8.25829Q20.9805 8.39924 21.0252 8.54212Q21.07 8.685 21.1059 8.82946Q21.1418 8.97392 21.1688 9.11962Q21.1958 9.26532 21.2139 9.4119Q21.2319 9.55848 21.241 9.70559Q21.25 9.85271 21.25 10M21.25 10Q21.25 10.1718 21.2395 10.3435Q21.2289 10.5151 21.2079 10.6861Q21.1868 10.8571 21.1553 11.0271Q21.1238 11.1971 21.0819 11.3656Q21.04 11.5342 20.9878 11.7009Q20.9356 11.8676 20.8732 12.032Q20.8109 12.1964 20.7385 12.3582Q20.6661 12.52 20.5839 12.6788Q20.5017 12.8375 20.4099 12.9929Q20.3181 13.1482 20.2168 13.2998Q20.1156 13.4513 20.0051 13.5987Q19.8947 13.7461 19.7754 13.889Q19.656 14.0319 19.5281 14.1699Q19.4001 14.3079 19.2638 14.4408Q19.1276 14.5736 18.9833 14.7009Q18.8391 14.8282 18.6872 14.9497Q18.5353 15.0713 18.3761 15.1867Q18.217 15.3021 18.0509 15.4111Q17.8849 15.5201 17.7124 15.6225Q17.5398 15.7248 17.3612 15.8203Q17.1826 15.9158 16.9984 16.0041Q16.8142 16.0924 16.6247 16.1734Q16.4353 16.2545 16.2411 16.3279Q16.0469 16.4014 15.8485 16.4672Q15.65 16.5329 15.4478 16.5908Q15.2455 16.6487 15.04 16.6986Q14.8344 16.7485 14.6261 16.7902Q14.4177 16.832 14.207 16.8655Q13.9964 16.899 13.7839 16.9242Q13.5714 16.9494 13.3576 16.9663Q13.1439 16.9831 12.9293 16.9916Q12.7148 17 12.5 17Q12.2852 17 12.0707 16.9916Q11.8561 16.9831 11.6424 16.9663Q11.4286 16.9494 11.2161 16.9242Q11.0036 16.899 10.793 16.8655Q10.5823 16.832 10.3739 16.7902Q10.1656 16.7485 9.96001 16.6986Q9.75446 16.6487 9.55221 16.5908Q9.34997 16.5329 9.15152 16.4672Q8.95307 16.4014 8.75889 16.3279Q8.56472 16.2545 8.37528 16.1734Q8.18584 16.0924 8.0016 16.0041Q7.81736 15.9158 7.63876 15.8203Q7.46016 15.7248 7.28763 15.6225Q7.1151 15.5201 6.94906 15.4111Q6.78301 15.3021 6.62386 15.1867Q6.4647 15.0713 6.31282 14.9497Q6.16093 14.8282 6.01668 14.7009Q5.87243 14.5736 5.73616 14.4408Q5.59989 14.3079 5.47193 14.1699Q5.34398 14.0319 5.22464 13.889Q5.1053 13.7461 4.99487 13.5987Q4.88444 13.4513 4.78319 13.2998Q4.68193 13.1482 4.59009 12.9929Q4.49825 12.8375 4.41605 12.6788Q4.33385 12.52 4.26149 12.3582Q4.18912 12.1964 4.12677 12.032Q4.06442 11.8676 4.01223 11.7009Q3.96003 11.5342 3.91813 11.3656Q3.87622 11.1971 3.84471 11.0271Q3.81319 10.8571 3.79213 10.6861Q3.77108 10.5151 3.76054 10.3435Q3.75 10.1718 3.75 10M3.75 10Q3.75 9.80361 3.76205 9.60746Q3.77409 9.41131 3.79815 9.21586Q3.82221 9.02042 3.85823 8.82615Q3.89425 8.63189 3.94215 8.43928Q3.99004 8.24666 4.04969 8.05616Q4.10934 7.86565 4.1806 7.67772Q4.25186 7.48979 4.33456 7.30488Q4.41726 7.11997 4.5112 6.93853Q4.60515 6.75709 4.71011 6.57956Q4.81507 6.40202 4.93079 6.22883Q5.04651 6.05562 5.17271 5.88718Q5.29892 5.71873 5.4353 5.55544Q5.57169 5.39215 5.71792 5.2344Q5.86416 5.07666 6.0199 4.92485Q6.17563 4.77304 6.34049 4.62753Q6.50535 4.48201 6.67893 4.34315Q6.85252 4.20428 7.03441 4.07239Q7.2163 3.9405 7.40607 3.81592Q7.59583 3.69133 7.79301 3.57434Q7.99018 3.45735 8.1943 3.34824Q8.39841 3.23913 8.60897 3.13817Q8.81953 3.03721 9.03603 2.94463Q9.25253 2.85205 9.47445 2.76809Q9.69636 2.68412 9.92316 2.60896Q10.15 2.53381 10.3811 2.46765Q10.6122 2.40149 10.8472 2.34448Q11.0821 2.28747 11.3202 2.23975Q11.5583 2.19203 11.7991 2.15372Q12.0399 2.1154 12.2827 2.08659Q12.5255 2.05777 12.7698 2.03852Q13.0141 2.01927 13.2593 2.00964Q13.5045 2 13.75 2Q13.9955 2 14.2407 2.00964Q14.4859 2.01927 14.7302 2.03852Q14.9745 2.05777 15.2173 2.08659Q15.4601 2.1154 15.7009 2.15372Q15.9417 2.19203 16.1798 2.23975Q16.4179 2.28747 16.6528 2.34448Q16.8878 2.40149 17.1189 2.46765Q17.35 2.53381 17.5768 2.60896Q17.8036 2.68412 18.0256 2.76809Q18.2475 2.85205 18.464 2.94463Q18.6805 3.03721 18.891 3.13817Q19.1016 3.23913 19.3057 3.34824Q19.5098 3.45735 19.707 3.57434Q19.9042 3.69133 20.0939 3.81592Q20.2837 3.9405 20.4656 4.07239Q20.6475 4.20428 20.8211 4.34315Q20.9946 4.48201 21.1595 4.62753Q21.3244 4.77304 21.4801 4.92485Q21.6358 5.07666 21.7821 5.2344Q21.9283 5.39215 22.0647 5.55544Q22.2011 5.71873 22.3273 5.88718Q22.4535 6.05562 22.5692 6.22883Q22.6849 6.40202 22.7899 6.57956Q22.8948 6.75709 22.9888 6.93853Q23.0827 7.11997 23.1654 7.30488Q23.2481 7.48979 23.3194 7.67772Q23.3907 7.86565 23.4503 8.05616Q23.51 8.24666 23.5579 8.43928Q23.6057 8.63189 23.6418 8.82616Q23.6778 9.02042 23.7018 9.21586Q23.7259 9.41131 23.738 9.60746Q23.75 9.80361 23.75 10L25 13L23.75 14"/>
</svg>
