<?xml version="1.0" encoding="utf-8" ?>
<svg xmlns="http://www.w3.org/2000/svg" xmlns:xlink="http://www.w3.org/1999/xlink" width="100" height="100">
	<path fill="rgb(255,140,0)" stroke="none" d="M50 0L75 75Q74.2914 75.8182 73.5698 76.5896Q72.8483 77.361 72.1144 78.0847Q71.3806 78.8085 70.6353 79.4838Q69.8901 80.1592 69.1342 80.7854Q68.3783 81.4116 67.6125 81.988Q66.8467 82.5645 66.072 83.0905Q65.2972 83.6165 64.5142 84.0915Q63.7313 84.5665 62.941 84.9901Q62.1506 85.4136 61.3538 85.7852Q60.557 86.1567 59.7545 86.476Q58.952 86.7952 58.1448 87.0618Q57.3375 87.3284 56.5263 87.5419Q55.7151 87.7555 54.9009 87.9159Q54.0866 88.0763 53.2702 88.1834Q52.4537 88.2904 51.636 88.3439Q50.8182 88.3975 50 88.3975Q49.1818 88.3975 48.364 88.3439Q47.5463 88.2904 46.7298 88.1833Q45.9134 88.0763 45.0991 87.9159Q44.2849 87.7555 43.4737 87.5419Q42.6625 87.3284 41.8552 87.0618Q41.048 86.7952 40.2455 86.476Q39.443 86.1567 38.6462 85.7852Q37.8494 85.4136 37.0591 84.9901Q36.2687 84.5665 35.4858 84.0915Q34.7028 83.6165 33.928 83.0905Q33.1533 82.5645 32.3875 81.9881Q31.6217 81.4116 30.8658 80.7854Q30.1099 80.1592 29.3646 79.4839Q28.6194 78.8085 27.8856 78.0847Q27.1517 77.361 26.4302 76.5896Q25.7086 75.8182 25 75L50 0Z"/>
	<path fill="none" stroke="rgb(0,0,0)" stroke-width="1" stroke-miterlimit="4" d="M50 0L75 75Q74.2914 75.8182 73.5698 76.5896Q72.8483 77.361 72.1144 78.0847Q71.3806 78.8085 70.6353 79.4838Q69.8901 80.1592 69.1342 80.7854Q68.3783 81.4116 67.6125 81.988Q66.8467 82.5645 66.072 83.0905Q65.2972 83.6165 64.5142 84.0915Q63.7313 84.5665 62.941 84.9901Q62.1506 85.4136 61.3538 85.7852Q60.557 86.1567 59.7545 86.476Q58.952 86.7952 58.1448 87.0618Q57.3375 87.3284 56.5263 87.5419Q55.7151 87.7555 54.9009 87.9159Q54.0866 88.0763 53.2702 88.1834Q52.4537 88.2904 51.636 88.3439Q50.8182 88.3975 50 88.3975Q49.1818 88.3975 48.364 88.3439Q47.5463 88.2904 46.7298 88.1833Q45.9134 88.0763 45.0991 87.9159Q44.2849 87.7555 43.4737 87.5419Q42.6625 87.3284 41.8552 87.0618Q41.048 86.7952 40.2455 86.476Q39.443 86.1567 38.6462 85.7852Q37.8494 85.4136 37.0591 84.9901Q36.2687 84.5665 35.4858 84.0915Q34.7028 83.6165 33.928 83.0905Q33.1533 82.5645 32.3875 81.9881Q31.6217 81.4116 30.8658 80.7854Q30.1099 80.1592 29.3646 79.4839Q28.6194 78.8085 27.8856 78.0847Q27.1517 77.361 26.4302 76.5896Q25.7086 75.8182 25 75L50 0Z"/>
</svg>
