<?xml version="1.0" encoding="utf-8" ?>
<svg xmlns="http://www.w3.org/2000/svg" xmlns:xlink="http://www.w3.org/1999/xlink" width="100" height="100">
	<path fill="rgb(0,0,255)" stroke="none" d="M0 25L50 0L100 25L100 75L50 100L0 75L0 25Z"/>
	<path fill="none" stroke="rgb(0,0,0)" stroke-width="1" stroke-miterlimit="4" d="M0 25L50 0L100 25L100 75L50 100L0 75L0 25Z"/>
	<path fill="none" stroke="rgb(0,0,0)" stroke-width="1" stroke-miterlimit="4" d="M0 25L50 50L50 100L0 75"/>
	<path fill="rgb(255,255,255)" fill-opacity="0.39215687" stroke="none" d="M0 25L50 0L100 25L50 50L0 25Z"/>
	<path fill="none" stroke="rgb(0,0,0)" stroke-width="1" stroke-miterlimit="4" d="M0 25L50 0L100 25L50 50L0 25Z"/>
	<path fill="rgb(0,0,0)" fill-opacity="0.58823532" stroke="none" d="M100 25L100 75L50 100L50 50L100 25Z"/>
	<path fill="none" stroke="rgb(0,0,0)" stroke-width="1" stroke-miterlimit="4" d="M100 25L100 75L50 100L50 50L100 25Z"/>
</svg>
