<?xml version="1.0" encoding="UTF-8" standalone="no"?>
<svg
   xmlns="http://www.w3.org/2000/svg"
   viewBox="0 0 210 297"
   >
  <path
       style="fill: blue;"
       d="M 385.72461 238.0332 C 350.47865 238.0412 326.32631 259.34519 315.98633 283.89844 C 305.64495 308.45565 305.78033 335.70901 311.45508 356.88672 L 311.20117 355.92969 C 319.6593 397.68711 326.27829 427.39316 329.18555 449.80859 C 332.09455 472.22399 331.4594 486.66249 326.49609 500.91992 C 314.42486 535.57815 282.3574 593.36076 268.82031 672.59961 C 255.28322 751.83843 260.63358 853.31828 320.44727 977.60547 C 322.23433 981.31274 325.43003 984.15117 329.32227 985.48828 C 329.32227 985.48828 350.88725 992.7207 385.73242 992.7207 C 420.57706 992.7207 442.10742 985.48828 442.10742 985.48828 C 445.99673 984.14938 449.18936 981.31118 450.97461 977.60547 C 510.78828 853.31828 516.14625 751.83843 502.60938 672.59961 C 489.07247 593.36076 457.00465 535.57815 444.93359 500.91992 C 439.96994 486.66109 439.33689 472.22384 442.24414 449.80859 C 445.14965 427.39354 451.76446 397.68639 460.2207 355.92969 L 459.97656 356.88672 C 465.65303 335.70322 465.79171 308.45286 455.44336 283.89844 C 445.09849 259.34818 420.96893 238.04071 385.74219 238.0332 L 385.73438 238.0332 L 385.72461 238.0332 z M 339.12109 415.89258 C 346.93491 416.77776 364.45896 418.46289 385.73242 418.46289 C 407.00286 418.46289 424.51533 416.77737 432.33008 415.89258 C 429.69723 429.60401 427.66067 441.55786 426.44922 452.19141 C 419.01024 452.88254 406.55629 453.60547 385.72656 453.60547 L 385.71875 453.60547 L 385.71094 453.60547 C 364.89117 453.60547 352.4452 452.88063 345.00391 452.19141 C 343.79135 441.55789 341.75486 429.60398 339.12109 415.89258 z M 345.74414 484.46289 C 347.79216 484.9613 359.13542 487.42721 385.72461 487.42773 L 385.73242 487.42773 C 412.32607 487.42721 423.66515 484.96319 425.71289 484.46484 C 426.3575 490.93686 427.57516 497.07483 429.46094 503.11719 C 429.50854 503.26964 429.56095 503.42188 429.60938 503.57422 C 429.85953 504.37612 430.11513 505.17747 430.39258 505.97656 C 430.22374 505.49261 430.07658 505.00635 429.91992 504.52148 C 430.07986 505.00644 430.22983 505.49237 430.39844 505.97656 C 432.0171 510.62441 433.91433 515.55377 436.01953 520.76562 C 434.07844 521.17094 422.35092 523.29297 385.73047 523.29297 L 385.72266 523.29297 C 349.11853 523.29297 337.38543 521.17212 335.4375 520.76562 C 337.54281 515.55352 339.44181 510.62462 341.06055 505.97656 C 343.48841 499.00423 344.99841 491.95817 345.74414 484.46289 z "
       transform="scale(0.26458333)"
       id="path991" />
  
</svg>
