<?xml version="1.0" encoding="utf-8" ?>
<svg xmlns="http://www.w3.org/2000/svg" xmlns:xlink="http://www.w3.org/1999/xlink" width="55" height="72">
	<path fill="none" stroke="rgb(0,0,0)" stroke-width="1" stroke-miterlimit="4" d="M21 29L34 29L41 36L50 36L50 45L6 45L6 36L14 36L21 29Z"/>
	<path fill="rgb(255,255,255)" stroke="none" d="M18.3333 45Q18.3333 45.1125 18.3278 45.2249Q18.3223 45.3373 18.3113 45.4492Q18.3002 45.5612 18.2837 45.6725Q18.2672 45.7838 18.2453 45.8942Q18.2233 46.0045 18.196 46.1137Q18.1686 46.2228 18.136 46.3305Q18.1033 46.4381 18.0654 46.5441Q18.0275 46.65 17.9844 46.754Q17.9414 46.8579 17.8933 46.9596Q17.8452 47.0613 17.7921 47.1606Q17.7391 47.2598 17.6813 47.3563Q17.6234 47.4528 17.5609 47.5464Q17.4984 47.6399 17.4314 47.7303Q17.3643 47.8207 17.293 47.9076Q17.2216 47.9946 17.146 48.078Q17.0705 48.1613 16.9909 48.2409Q16.9113 48.3205 16.828 48.396Q16.7446 48.4716 16.6576 48.543Q16.5707 48.6143 16.4803 48.6814Q16.3899 48.7484 16.2964 48.8109Q16.2028 48.8734 16.1063 48.9313Q16.0098 48.9891 15.9106 49.0421Q15.8113 49.0952 15.7096 49.1433Q15.6079 49.1914 15.504 49.2344Q15.4 49.2775 15.2941 49.3154Q15.1881 49.3533 15.0805 49.386Q14.9728 49.4186 14.8637 49.446Q14.7545 49.4733 14.6442 49.4953Q14.5338 49.5172 14.4225 49.5337Q14.3112 49.5502 14.1992 49.5613Q14.0873 49.5723 13.9749 49.5778Q13.8625 49.5833 13.75 49.5833Q13.6375 49.5833 13.5251 49.5778Q13.4127 49.5723 13.3008 49.5613Q13.1888 49.5502 13.0775 49.5337Q12.9662 49.5172 12.8558 49.4953Q12.7455 49.4733 12.6363 49.446Q12.5272 49.4186 12.4195 49.386Q12.3119 49.3533 12.2059 49.3154Q12.1 49.2775 11.996 49.2344Q11.8921 49.1914 11.7904 49.1433Q11.6887 49.0952 11.5894 49.0421Q11.4902 48.9891 11.3937 48.9313Q11.2972 48.8734 11.2036 48.8109Q11.1101 48.7484 11.0197 48.6814Q10.9293 48.6143 10.8424 48.543Q10.7554 48.4716 10.672 48.396Q10.5887 48.3205 10.5091 48.2409Q10.4295 48.1613 10.354 48.078Q10.2784 47.9946 10.207 47.9076Q10.1357 47.8207 10.0686 47.7303Q10.0016 47.6399 9.9391 47.5464Q9.87659 47.4528 9.81874 47.3563Q9.7609 47.2598 9.70786 47.1606Q9.65482 47.0613 9.60672 46.9596Q9.55861 46.8579 9.51555 46.754Q9.47249 46.65 9.43459 46.5441Q9.39668 46.4381 9.36402 46.3305Q9.33136 46.2228 9.30402 46.1137Q9.27668 46.0045 9.25473 45.8942Q9.23278 45.7838 9.21627 45.6725Q9.19976 45.5612 9.18874 45.4492Q9.17771 45.3373 9.17219 45.2249Q9.16667 45.1125 9.16667 45Q9.16667 44.8875 9.17219 44.7751Q9.17771 44.6627 9.18874 44.5508Q9.19976 44.4388 9.21627 44.3275Q9.23278 44.2162 9.25473 44.1058Q9.27668 43.9955 9.30402 43.8863Q9.33136 43.7772 9.36402 43.6695Q9.39668 43.5619 9.43459 43.4559Q9.47249 43.35 9.51555 43.246Q9.55861 43.1421 9.60671 43.0404Q9.65482 42.9387 9.70786 42.8394Q9.7609 42.7402 9.81874 42.6437Q9.87659 42.5472 9.9391 42.4536Q10.0016 42.3601 10.0686 42.2697Q10.1357 42.1793 10.207 42.0924Q10.2784 42.0054 10.354 41.922Q10.4295 41.8386 10.5091 41.7591Q10.5887 41.6795 10.672 41.604Q10.7554 41.5284 10.8424 41.457Q10.9293 41.3857 11.0197 41.3186Q11.1101 41.2516 11.2036 41.1891Q11.2972 41.1266 11.3937 41.0687Q11.4902 41.0109 11.5894 40.9579Q11.6887 40.9048 11.7904 40.8567Q11.8921 40.8086 11.996 40.7656Q12.1 40.7225 12.2059 40.6846Q12.3119 40.6467 12.4195 40.614Q12.5272 40.5814 12.6363 40.554Q12.7455 40.5267 12.8558 40.5047Q12.9662 40.4828 13.0775 40.4663Q13.1888 40.4498 13.3008 40.4387Q13.4127 40.4277 13.5251 40.4222Q13.6375 40.4167 13.75 40.4167Q13.8625 40.4167 13.9749 40.4222Q14.0873 40.4277 14.1992 40.4387Q14.3112 40.4498 14.4225 40.4663Q14.5338 40.4828 14.6442 40.5047Q14.7545 40.5267 14.8637 40.554Q14.9728 40.5814 15.0805 40.614Q15.1881 40.6467 15.2941 40.6846Q15.4 40.7225 15.504 40.7656Q15.6079 40.8086 15.7096 40.8567Q15.8113 40.9048 15.9106 40.9579Q16.0098 41.0109 16.1063 41.0687Q16.2028 41.1266 16.2964 41.1891Q16.3899 41.2516 16.4803 41.3186Q16.5707 41.3857 16.6576 41.457Q16.7446 41.5284 16.828 41.604Q16.9113 41.6795 16.9909 41.7591Q17.0705 41.8386 17.146 41.922Q17.2216 42.0054 17.293 42.0924Q17.3643 42.1793 17.4314 42.2697Q17.4984 42.3601 17.5609 42.4536Q17.6234 42.5472 17.6813 42.6437Q17.7391 42.7402 17.7921 42.8394Q17.8452 42.9387 17.8933 43.0404Q17.9414 43.1421 17.9844 43.246Q18.0275 43.35 18.0654 43.4559Q18.1033 43.5619 18.136 43.6695Q18.1686 43.7772 18.196 43.8863Q18.2233 43.9955 18.2453 44.1058Q18.2672 44.2162 18.2837 44.3275Q18.3002 44.4388 18.3113 44.5508Q18.3223 44.6627 18.3278 44.7751Q18.3333 44.8875 18.3333 45Z"/>
	<path fill="none" stroke="rgb(0,0,0)" stroke-width="1" stroke-miterlimit="4" d="M18.3333 45Q18.3333 45.1125 18.3278 45.2249Q18.3223 45.3373 18.3113 45.4492Q18.3002 45.5612 18.2837 45.6725Q18.2672 45.7838 18.2453 45.8942Q18.2233 46.0045 18.196 46.1137Q18.1686 46.2228 18.136 46.3305Q18.1033 46.4381 18.0654 46.5441Q18.0275 46.65 17.9844 46.754Q17.9414 46.8579 17.8933 46.9596Q17.8452 47.0613 17.7921 47.1606Q17.7391 47.2598 17.6813 47.3563Q17.6234 47.4528 17.5609 47.5464Q17.4984 47.6399 17.4314 47.7303Q17.3643 47.8207 17.293 47.9076Q17.2216 47.9946 17.146 48.078Q17.0705 48.1613 16.9909 48.2409Q16.9113 48.3205 16.828 48.396Q16.7446 48.4716 16.6576 48.543Q16.5707 48.6143 16.4803 48.6814Q16.3899 48.7484 16.2964 48.8109Q16.2028 48.8734 16.1063 48.9313Q16.0098 48.9891 15.9106 49.0421Q15.8113 49.0952 15.7096 49.1433Q15.6079 49.1914 15.504 49.2344Q15.4 49.2775 15.2941 49.3154Q15.1881 49.3533 15.0805 49.386Q14.9728 49.4186 14.8637 49.446Q14.7545 49.4733 14.6442 49.4953Q14.5338 49.5172 14.4225 49.5337Q14.3112 49.5502 14.1992 49.5613Q14.0873 49.5723 13.9749 49.5778Q13.8625 49.5833 13.75 49.5833Q13.6375 49.5833 13.5251 49.5778Q13.4127 49.5723 13.3008 49.5613Q13.1888 49.5502 13.0775 49.5337Q12.9662 49.5172 12.8558 49.4953Q12.7455 49.4733 12.6363 49.446Q12.5272 49.4186 12.4195 49.386Q12.3119 49.3533 12.2059 49.3154Q12.1 49.2775 11.996 49.2344Q11.8921 49.1914 11.7904 49.1433Q11.6887 49.0952 11.5894 49.0421Q11.4902 48.9891 11.3937 48.9313Q11.2972 48.8734 11.2036 48.8109Q11.1101 48.7484 11.0197 48.6814Q10.9293 48.6143 10.8424 48.543Q10.7554 48.4716 10.672 48.396Q10.5887 48.3205 10.5091 48.2409Q10.4295 48.1613 10.354 48.078Q10.2784 47.9946 10.207 47.9076Q10.1357 47.8207 10.0686 47.7303Q10.0016 47.6399 9.9391 47.5464Q9.87659 47.4528 9.81874 47.3563Q9.7609 47.2598 9.70786 47.1606Q9.65482 47.0613 9.60672 46.9596Q9.55861 46.8579 9.51555 46.754Q9.47249 46.65 9.43459 46.5441Q9.39668 46.4381 9.36402 46.3305Q9.33136 46.2228 9.30402 46.1137Q9.27668 46.0045 9.25473 45.8942Q9.23278 45.7838 9.21627 45.6725Q9.19976 45.5612 9.18874 45.4492Q9.17771 45.3373 9.17219 45.2249Q9.16667 45.1125 9.16667 45Q9.16667 44.8875 9.17219 44.7751Q9.17771 44.6627 9.18874 44.5508Q9.19976 44.4388 9.21627 44.3275Q9.23278 44.2162 9.25473 44.1058Q9.27668 43.9955 9.30402 43.8863Q9.33136 43.7772 9.36402 43.6695Q9.39668 43.5619 9.43459 43.4559Q9.47249 43.35 9.51555 43.246Q9.55861 43.1421 9.60671 43.0404Q9.65482 42.9387 9.70786 42.8394Q9.7609 42.7402 9.81874 42.6437Q9.87659 42.5472 9.9391 42.4536Q10.0016 42.3601 10.0686 42.2697Q10.1357 42.1793 10.207 42.0924Q10.2784 42.0054 10.354 41.922Q10.4295 41.8386 10.5091 41.7591Q10.5887 41.6795 10.672 41.604Q10.7554 41.5284 10.8424 41.457Q10.9293 41.3857 11.0197 41.3186Q11.1101 41.2516 11.2036 41.1891Q11.2972 41.1266 11.3937 41.0687Q11.4902 41.0109 11.5894 40.9579Q11.6887 40.9048 11.7904 40.8567Q11.8921 40.8086 11.996 40.7656Q12.1 40.7225 12.2059 40.6846Q12.3119 40.6467 12.4195 40.614Q12.5272 40.5814 12.6363 40.554Q12.7455 40.5267 12.8558 40.5047Q12.9662 40.4828 13.0775 40.4663Q13.1888 40.4498 13.3008 40.4387Q13.4127 40.4277 13.5251 40.4222Q13.6375 40.4167 13.75 40.4167Q13.8625 40.4167 13.9749 40.4222Q14.0873 40.4277 14.1992 40.4387Q14.3112 40.4498 14.4225 40.4663Q14.5338 40.4828 14.6442 40.5047Q14.7545 40.5267 14.8637 40.554Q14.9728 40.5814 15.0805 40.614Q15.1881 40.6467 15.2941 40.6846Q15.4 40.7225 15.504 40.7656Q15.6079 40.8086 15.7096 40.8567Q15.8113 40.9048 15.9106 40.9579Q16.0098 41.0109 16.1063 41.0687Q16.2028 41.1266 16.2964 41.1891Q16.3899 41.2516 16.4803 41.3186Q16.5707 41.3857 16.6576 41.457Q16.7446 41.5284 16.828 41.604Q16.9113 41.6795 16.9909 41.7591Q17.0705 41.8386 17.146 41.922Q17.2216 42.0054 17.293 42.0924Q17.3643 42.1793 17.4314 42.2697Q17.4984 42.3601 17.5609 42.4536Q17.6234 42.5472 17.6813 42.6437Q17.7391 42.7402 17.7921 42.8394Q17.8452 42.9387 17.8933 43.0404Q17.9414 43.1421 17.9844 43.246Q18.0275 43.35 18.0654 43.4559Q18.1033 43.5619 18.136 43.6695Q18.1686 43.7772 18.196 43.8863Q18.2233 43.9955 18.2453 44.1058Q18.2672 44.2162 18.2837 44.3275Q18.3002 44.4388 18.3113 44.5508Q18.3223 44.6627 18.3278 44.7751Q18.3333 44.8875 18.3333 45Z"/>
	<path fill="rgb(255,255,255)" stroke="none" d="M45.8333 45Q45.8333 45.1125 45.8278 45.2249Q45.8223 45.3373 45.8113 45.4492Q45.8002 45.5612 45.7837 45.6725Q45.7672 45.7838 45.7453 45.8942Q45.7233 46.0045 45.696 46.1137Q45.6686 46.2228 45.636 46.3305Q45.6033 46.4381 45.5654 46.5441Q45.5275 46.65 45.4844 46.754Q45.4414 46.8579 45.3933 46.9596Q45.3452 47.0613 45.2921 47.1606Q45.2391 47.2598 45.1813 47.3563Q45.1234 47.4528 45.0609 47.5464Q44.9984 47.6399 44.9314 47.7303Q44.8643 47.8207 44.793 47.9076Q44.7216 47.9946 44.646 48.078Q44.5705 48.1613 44.4909 48.2409Q44.4113 48.3205 44.328 48.396Q44.2446 48.4716 44.1576 48.543Q44.0707 48.6143 43.9803 48.6814Q43.8899 48.7484 43.7964 48.8109Q43.7028 48.8734 43.6063 48.9313Q43.5098 48.9891 43.4106 49.0421Q43.3113 49.0952 43.2096 49.1433Q43.1079 49.1914 43.004 49.2344Q42.9 49.2775 42.7941 49.3154Q42.6881 49.3533 42.5805 49.386Q42.4728 49.4186 42.3637 49.446Q42.2545 49.4733 42.1442 49.4953Q42.0338 49.5172 41.9225 49.5337Q41.8112 49.5502 41.6992 49.5613Q41.5873 49.5723 41.4749 49.5778Q41.3625 49.5833 41.25 49.5833Q41.1375 49.5833 41.0251 49.5778Q40.9127 49.5723 40.8008 49.5613Q40.6888 49.5502 40.5775 49.5337Q40.4662 49.5172 40.3558 49.4953Q40.2455 49.4733 40.1363 49.446Q40.0272 49.4186 39.9195 49.386Q39.8119 49.3533 39.7059 49.3154Q39.6 49.2775 39.496 49.2344Q39.3921 49.1914 39.2904 49.1433Q39.1887 49.0952 39.0894 49.0421Q38.9902 48.9891 38.8937 48.9313Q38.7972 48.8734 38.7036 48.8109Q38.6101 48.7484 38.5197 48.6814Q38.4293 48.6143 38.3424 48.543Q38.2554 48.4716 38.172 48.396Q38.0886 48.3205 38.0091 48.2409Q37.9295 48.1613 37.854 48.078Q37.7784 47.9946 37.707 47.9076Q37.6357 47.8207 37.5686 47.7303Q37.5016 47.6399 37.4391 47.5464Q37.3766 47.4528 37.3187 47.3563Q37.2609 47.2598 37.2079 47.1606Q37.1548 47.0613 37.1067 46.9596Q37.0586 46.8579 37.0155 46.754Q36.9725 46.65 36.9346 46.5441Q36.8967 46.4381 36.864 46.3305Q36.8314 46.2228 36.804 46.1137Q36.7767 46.0045 36.7547 45.8942Q36.7328 45.7838 36.7163 45.6725Q36.6998 45.5612 36.6887 45.4492Q36.6777 45.3373 36.6722 45.2249Q36.6667 45.1125 36.6667 45Q36.6667 44.8875 36.6722 44.7751Q36.6777 44.6627 36.6887 44.5508Q36.6998 44.4388 36.7163 44.3275Q36.7328 44.2162 36.7547 44.1058Q36.7767 43.9955 36.804 43.8863Q36.8314 43.7772 36.864 43.6695Q36.8967 43.5619 36.9346 43.4559Q36.9725 43.35 37.0155 43.246Q37.0586 43.1421 37.1067 43.0404Q37.1548 42.9387 37.2079 42.8394Q37.2609 42.7402 37.3187 42.6437Q37.3766 42.5472 37.4391 42.4536Q37.5016 42.3601 37.5686 42.2697Q37.6357 42.1793 37.707 42.0924Q37.7784 42.0054 37.854 41.922Q37.9295 41.8386 38.0091 41.7591Q38.0886 41.6795 38.172 41.604Q38.2554 41.5284 38.3424 41.457Q38.4293 41.3857 38.5197 41.3186Q38.6101 41.2516 38.7036 41.1891Q38.7972 41.1266 38.8937 41.0687Q38.9902 41.0109 39.0894 40.9579Q39.1887 40.9048 39.2904 40.8567Q39.3921 40.8086 39.496 40.7656Q39.6 40.7225 39.7059 40.6846Q39.8119 40.6467 39.9195 40.614Q40.0272 40.5814 40.1363 40.554Q40.2455 40.5267 40.3558 40.5047Q40.4662 40.4828 40.5775 40.4663Q40.6888 40.4498 40.8008 40.4387Q40.9127 40.4277 41.0251 40.4222Q41.1375 40.4167 41.25 40.4167Q41.3625 40.4167 41.4749 40.4222Q41.5873 40.4277 41.6992 40.4387Q41.8112 40.4498 41.9225 40.4663Q42.0338 40.4828 42.1442 40.5047Q42.2545 40.5267 42.3637 40.554Q42.4728 40.5814 42.5805 40.614Q42.6881 40.6467 42.7941 40.6846Q42.9 40.7225 43.004 40.7656Q43.1079 40.8086 43.2096 40.8567Q43.3113 40.9048 43.4106 40.9579Q43.5098 41.0109 43.6063 41.0687Q43.7028 41.1266 43.7964 41.1891Q43.8899 41.2516 43.9803 41.3186Q44.0707 41.3857 44.1576 41.457Q44.2446 41.5284 44.328 41.604Q44.4113 41.6795 44.4909 41.7591Q44.5705 41.8386 44.646 41.922Q44.7216 42.0054 44.793 42.0924Q44.8643 42.1793 44.9314 42.2697Q44.9984 42.3601 45.0609 42.4536Q45.1234 42.5472 45.1813 42.6437Q45.2391 42.7402 45.2921 42.8394Q45.3452 42.9387 45.3933 43.0404Q45.4414 43.1421 45.4844 43.246Q45.5275 43.35 45.5654 43.4559Q45.6033 43.5619 45.636 43.6695Q45.6686 43.7772 45.696 43.8863Q45.7233 43.9955 45.7453 44.1058Q45.7672 44.2162 45.7837 44.3275Q45.8002 44.4388 45.8113 44.5508Q45.8223 44.6627 45.8278 44.7751Q45.8333 44.8875 45.8333 45Z"/>
	<path fill="none" stroke="rgb(0,0,0)" stroke-width="1" stroke-miterlimit="4" d="M45.8333 45Q45.8333 45.1125 45.8278 45.2249Q45.8223 45.3373 45.8113 45.4492Q45.8002 45.5612 45.7837 45.6725Q45.7672 45.7838 45.7453 45.8942Q45.7233 46.0045 45.696 46.1137Q45.6686 46.2228 45.636 46.3305Q45.6033 46.4381 45.5654 46.5441Q45.5275 46.65 45.4844 46.754Q45.4414 46.8579 45.3933 46.9596Q45.3452 47.0613 45.2921 47.1606Q45.2391 47.2598 45.1813 47.3563Q45.1234 47.4528 45.0609 47.5464Q44.9984 47.6399 44.9314 47.7303Q44.8643 47.8207 44.793 47.9076Q44.7216 47.9946 44.646 48.078Q44.5705 48.1613 44.4909 48.2409Q44.4113 48.3205 44.328 48.396Q44.2446 48.4716 44.1576 48.543Q44.0707 48.6143 43.9803 48.6814Q43.8899 48.7484 43.7964 48.8109Q43.7028 48.8734 43.6063 48.9313Q43.5098 48.9891 43.4106 49.0421Q43.3113 49.0952 43.2096 49.1433Q43.1079 49.1914 43.004 49.2344Q42.9 49.2775 42.7941 49.3154Q42.6881 49.3533 42.5805 49.386Q42.4728 49.4186 42.3637 49.446Q42.2545 49.4733 42.1442 49.4953Q42.0338 49.5172 41.9225 49.5337Q41.8112 49.5502 41.6992 49.5613Q41.5873 49.5723 41.4749 49.5778Q41.3625 49.5833 41.25 49.5833Q41.1375 49.5833 41.0251 49.5778Q40.9127 49.5723 40.8008 49.5613Q40.6888 49.5502 40.5775 49.5337Q40.4662 49.5172 40.3558 49.4953Q40.2455 49.4733 40.1363 49.446Q40.0272 49.4186 39.9195 49.386Q39.8119 49.3533 39.7059 49.3154Q39.6 49.2775 39.496 49.2344Q39.3921 49.1914 39.2904 49.1433Q39.1887 49.0952 39.0894 49.0421Q38.9902 48.9891 38.8937 48.9313Q38.7972 48.8734 38.7036 48.8109Q38.6101 48.7484 38.5197 48.6814Q38.4293 48.6143 38.3424 48.543Q38.2554 48.4716 38.172 48.396Q38.0886 48.3205 38.0091 48.2409Q37.9295 48.1613 37.854 48.078Q37.7784 47.9946 37.707 47.9076Q37.6357 47.8207 37.5686 47.7303Q37.5016 47.6399 37.4391 47.5464Q37.3766 47.4528 37.3187 47.3563Q37.2609 47.2598 37.2079 47.1606Q37.1548 47.0613 37.1067 46.9596Q37.0586 46.8579 37.0155 46.754Q36.9725 46.65 36.9346 46.5441Q36.8967 46.4381 36.864 46.3305Q36.8314 46.2228 36.804 46.1137Q36.7767 46.0045 36.7547 45.8942Q36.7328 45.7838 36.7163 45.6725Q36.6998 45.5612 36.6887 45.4492Q36.6777 45.3373 36.6722 45.2249Q36.6667 45.1125 36.6667 45Q36.6667 44.8875 36.6722 44.7751Q36.6777 44.6627 36.6887 44.5508Q36.6998 44.4388 36.7163 44.3275Q36.7328 44.2162 36.7547 44.1058Q36.7767 43.9955 36.804 43.8863Q36.8314 43.7772 36.864 43.6695Q36.8967 43.5619 36.9346 43.4559Q36.9725 43.35 37.0155 43.246Q37.0586 43.1421 37.1067 43.0404Q37.1548 42.9387 37.2079 42.8394Q37.2609 42.7402 37.3187 42.6437Q37.3766 42.5472 37.4391 42.4536Q37.5016 42.3601 37.5686 42.2697Q37.6357 42.1793 37.707 42.0924Q37.7784 42.0054 37.854 41.922Q37.9295 41.8386 38.0091 41.7591Q38.0886 41.6795 38.172 41.604Q38.2554 41.5284 38.3424 41.457Q38.4293 41.3857 38.5197 41.3186Q38.6101 41.2516 38.7036 41.1891Q38.7972 41.1266 38.8937 41.0687Q38.9902 41.0109 39.0894 40.9579Q39.1887 40.9048 39.2904 40.8567Q39.3921 40.8086 39.496 40.7656Q39.6 40.7225 39.7059 40.6846Q39.8119 40.6467 39.9195 40.614Q40.0272 40.5814 40.1363 40.554Q40.2455 40.5267 40.3558 40.5047Q40.4662 40.4828 40.5775 40.4663Q40.6888 40.4498 40.8008 40.4387Q40.9127 40.4277 41.0251 40.4222Q41.1375 40.4167 41.25 40.4167Q41.3625 40.4167 41.4749 40.4222Q41.5873 40.4277 41.6992 40.4387Q41.8112 40.4498 41.9225 40.4663Q42.0338 40.4828 42.1442 40.5047Q42.2545 40.5267 42.3637 40.554Q42.4728 40.5814 42.5805 40.614Q42.6881 40.6467 42.7941 40.6846Q42.9 40.7225 43.004 40.7656Q43.1079 40.8086 43.2096 40.8567Q43.3113 40.9048 43.4106 40.9579Q43.5098 41.0109 43.6063 41.0687Q43.7028 41.1266 43.7964 41.1891Q43.8899 41.2516 43.9803 41.3186Q44.0707 41.3857 44.1576 41.457Q44.2446 41.5284 44.328 41.604Q44.4113 41.6795 44.4909 41.7591Q44.5705 41.8386 44.646 41.922Q44.7216 42.0054 44.793 42.0924Q44.8643 42.1793 44.9314 42.2697Q44.9984 42.3601 45.0609 42.4536Q45.1234 42.5472 45.1813 42.6437Q45.2391 42.7402 45.2921 42.8394Q45.3452 42.9387 45.3933 43.0404Q45.4414 43.1421 45.4844 43.246Q45.5275 43.35 45.5654 43.4559Q45.6033 43.5619 45.636 43.6695Q45.6686 43.7772 45.696 43.8863Q45.7233 43.9955 45.7453 44.1058Q45.7672 44.2162 45.7837 44.3275Q45.8002 44.4388 45.8113 44.5508Q45.8223 44.6627 45.8278 44.7751Q45.8333 44.8875 45.8333 45Z"/>
	<path fill="none" stroke="rgb(255,0,0)" stroke-width="1.8333334" stroke-miterlimit="4" d="M41 36L52 43"/>
	<path fill="none" stroke="rgb(255,0,0)" stroke-width="1.8333334" stroke-miterlimit="4" d="M41 43L52 36"/>
</svg>
