<?xml version="1.0" encoding="utf-8" ?>
<svg xmlns="http://www.w3.org/2000/svg" xmlns:xlink="http://www.w3.org/1999/xlink" width="55" height="72">
	<path fill="none" stroke="rgb(0,0,255)" stroke-width="2.75" stroke-miterlimit="4" d="M49.5 36Q49.5 36.5401 49.4735 37.0795Q49.447 37.6189 49.3941 38.1564Q49.3411 38.6938 49.2619 39.2281Q49.1826 39.7623 49.0773 40.292Q48.9719 40.8217 48.8407 41.3456Q48.7095 41.8694 48.5527 42.3863Q48.3959 42.9031 48.214 43.4116Q48.032 43.9201 47.8253 44.419Q47.6187 44.918 47.3878 45.4062Q47.1569 45.8944 46.9023 46.3707Q46.6477 46.847 46.37 47.3103Q46.0924 47.7735 45.7923 48.2225Q45.4923 48.6716 45.1706 49.1054Q44.8488 49.5392 44.5062 49.9567Q44.1636 50.3741 43.8009 50.7743Q43.4382 51.1745 43.0563 51.5563Q42.6745 51.9382 42.2743 52.3009Q41.8741 52.6636 41.4566 53.0062Q41.0392 53.3488 40.6054 53.6706Q40.1716 53.9923 39.7225 54.2923Q39.2735 54.5924 38.8103 54.87Q38.347 55.1477 37.8707 55.4023Q37.3944 55.6568 36.9062 55.8878Q36.418 56.1187 35.919 56.3253Q35.4201 56.532 34.9116 56.714Q34.4031 56.8959 33.8863 57.0527Q33.3694 57.2095 32.8456 57.3407Q32.3217 57.4719 31.792 57.5773Q31.2623 57.6826 30.7281 57.7619Q30.1938 57.8411 29.6564 57.8941Q29.1189 57.947 28.5795 57.9735Q28.0401 58 27.5 58Q26.9599 58 26.4205 57.9735Q25.8811 57.947 25.3436 57.8941Q24.8062 57.8411 24.2719 57.7619Q23.7377 57.6826 23.208 57.5773Q22.6783 57.4719 22.1544 57.3407Q21.6306 57.2095 21.1137 57.0527Q20.5969 56.8959 20.0884 56.714Q19.5799 56.532 19.081 56.3253Q18.582 56.1187 18.0938 55.8878Q17.6056 55.6568 17.1293 55.4023Q16.653 55.1477 16.1897 54.87Q15.7265 54.5924 15.2775 54.2923Q14.8284 53.9923 14.3946 53.6706Q13.9608 53.3488 13.5433 53.0062Q13.1259 52.6636 12.7257 52.3009Q12.3255 51.9382 11.9437 51.5563Q11.5618 51.1745 11.1991 50.7743Q10.8364 50.3741 10.4938 49.9566Q10.1512 49.5392 9.82943 49.1054Q9.50771 48.6716 9.20767 48.2225Q8.90762 47.7735 8.62997 47.3103Q8.35232 46.847 8.09773 46.3707Q7.84314 45.8944 7.61223 45.4062Q7.38133 44.918 7.17465 44.419Q6.96797 43.9201 6.78603 43.4116Q6.60409 42.9031 6.44731 42.3863Q6.29054 41.8694 6.15931 41.3456Q6.02809 40.8217 5.92272 40.292Q5.81736 39.7623 5.73812 39.2281Q5.65887 38.6938 5.60594 38.1564Q5.553 37.6189 5.5265 37.0795Q5.5 36.5401 5.5 36Q5.5 35.4599 5.5265 34.9205Q5.553 34.3811 5.60594 33.8436Q5.65887 33.3062 5.73812 32.7719Q5.81736 32.2377 5.92272 31.708Q6.02809 31.1783 6.15931 30.6544Q6.29054 30.1306 6.44731 29.6137Q6.60409 29.0969 6.78603 28.5884Q6.96797 28.0799 7.17465 27.581Q7.38133 27.082 7.61224 26.5938Q7.84314 26.1056 8.09773 25.6293Q8.35232 25.153 8.62997 24.6897Q8.90762 24.2265 9.20767 23.7775Q9.50771 23.3284 9.82943 22.8946Q10.1512 22.4608 10.4938 22.0433Q10.8364 21.6259 11.1991 21.2257Q11.5618 20.8255 11.9437 20.4436Q12.3255 20.0618 12.7257 19.6991Q13.1259 19.3364 13.5433 18.9938Q13.9608 18.6512 14.3946 18.3294Q14.8284 18.0077 15.2775 17.7077Q15.7265 17.4076 16.1897 17.13Q16.653 16.8523 17.1293 16.5977Q17.6056 16.3431 18.0938 16.1122Q18.582 15.8813 19.081 15.6746Q19.5799 15.468 20.0884 15.286Q20.5969 15.1041 21.1137 14.9473Q21.6306 14.7905 22.1544 14.6593Q22.6783 14.5281 23.208 14.4227Q23.7377 14.3174 24.2719 14.2381Q24.8062 14.1589 25.3436 14.1059Q25.8811 14.053 26.4205 14.0265Q26.9599 14 27.5 14Q28.0401 14 28.5795 14.0265Q29.1189 14.053 29.6564 14.1059Q30.1938 14.1589 30.7281 14.2381Q31.2623 14.3174 31.792 14.4227Q32.3217 14.5281 32.8456 14.6593Q33.3694 14.7905 33.8863 14.9473Q34.4031 15.1041 34.9116 15.286Q35.4201 15.468 35.919 15.6746Q36.418 15.8813 36.9062 16.1122Q37.3944 16.3431 37.8707 16.5977Q38.347 16.8523 38.8103 17.13Q39.2735 17.4076 39.7225 17.7077Q40.1716 18.0077 40.6054 18.3294Q41.0392 18.6512 41.4566 18.9938Q41.8741 19.3364 42.2743 19.6991Q42.6745 20.0618 43.0563 20.4436Q43.4382 20.8255 43.8009 21.2257Q44.1636 21.6259 44.5062 22.0433Q44.8488 22.4608 45.1706 22.8946Q45.4923 23.3284 45.7923 23.7775Q46.0924 24.2265 46.37 24.6897Q46.6477 25.153 46.9023 25.6293Q47.1568 26.1056 47.3878 26.5938Q47.6187 27.082 47.8253 27.581Q48.032 28.0799 48.214 28.5884Q48.3959 29.0969 48.5527 29.6137Q48.7095 30.1306 48.8407 30.6544Q48.9719 31.1783 49.0773 31.708Q49.1826 32.2377 49.2619 32.7719Q49.3411 33.3062 49.3941 33.8436Q49.447 34.3811 49.4735 34.9205Q49.5 35.4599 49.5 36Z"/>
	<path fill="rgb(0,0,255)" stroke="none" d="M25 58L24 36L31 36L30 58L25 58Z"/>
	<path fill="rgb(0,0,255)" stroke="none" d="M10.1738 23.6599L29.7263 33.7939L26.2263 39.8561L7.67375 27.9901L10.1738 23.6599Z"/>
	<path fill="rgb(0,0,255)" stroke="none" d="M47.3263 27.9901L28.7737 39.8561L25.2737 33.7939L44.8263 23.6599L47.3263 27.9901Z"/>
	<path fill="rgb(255,255,255)" stroke="none" d="M34.375 36Q34.375 36.1688 34.3667 36.3373Q34.3584 36.5059 34.3419 36.6739Q34.3254 36.8418 34.3006 37.0088Q34.2758 37.1757 34.2429 37.3412Q34.21 37.5068 34.169 37.6705Q34.128 37.8342 34.079 37.9957Q34.03 38.1572 33.9731 38.3161Q33.9163 38.475 33.8517 38.6309Q33.7871 38.7869 33.7149 38.9394Q33.6428 39.092 33.5632 39.2408Q33.4836 39.3897 33.3969 39.5345Q33.3101 39.6792 33.2164 39.8195Q33.1226 39.9599 33.0221 40.0954Q32.9215 40.231 32.8144 40.3615Q32.7074 40.4919 32.594 40.617Q32.4807 40.742 32.3614 40.8614Q32.242 40.9807 32.117 41.094Q31.9919 41.2074 31.8615 41.3144Q31.731 41.4215 31.5954 41.522Q31.4599 41.6226 31.3195 41.7163Q31.1792 41.8101 31.0344 41.8969Q30.8897 41.9836 30.7408 42.0632Q30.592 42.1428 30.4394 42.2149Q30.2869 42.2871 30.1309 42.3517Q29.975 42.4163 29.8161 42.4731Q29.6572 42.53 29.4957 42.579Q29.3342 42.628 29.1705 42.669Q29.0068 42.71 28.8412 42.7429Q28.6757 42.7758 28.5088 42.8006Q28.3418 42.8253 28.1739 42.8419Q28.0059 42.8584 27.8373 42.8667Q27.6688 42.875 27.5 42.875Q27.3312 42.875 27.1627 42.8667Q26.9941 42.8584 26.8261 42.8419Q26.6582 42.8253 26.4912 42.8006Q26.3243 42.7758 26.1588 42.7429Q25.9932 42.71 25.8295 42.669Q25.6658 42.628 25.5043 42.579Q25.3428 42.53 25.1839 42.4731Q25.025 42.4163 24.869 42.3517Q24.7131 42.2871 24.5606 42.2149Q24.408 42.1428 24.2591 42.0632Q24.1103 41.9836 23.9655 41.8969Q23.8208 41.8101 23.6805 41.7163Q23.5401 41.6226 23.4046 41.522Q23.269 41.4215 23.1385 41.3144Q23.0081 41.2074 22.883 41.094Q22.758 40.9807 22.6386 40.8614Q22.5193 40.742 22.406 40.617Q22.2926 40.4919 22.1855 40.3615Q22.0785 40.231 21.9779 40.0954Q21.8774 39.9599 21.7836 39.8195Q21.6899 39.6792 21.6031 39.5345Q21.5163 39.3897 21.4368 39.2408Q21.3572 39.092 21.2851 38.9394Q21.2129 38.7869 21.1483 38.6309Q21.0837 38.475 21.0269 38.3161Q20.97 38.1572 20.921 37.9957Q20.872 37.8342 20.831 37.6705Q20.79 37.5068 20.7571 37.3412Q20.7242 37.1757 20.6994 37.0088Q20.6746 36.8418 20.6581 36.6739Q20.6416 36.5059 20.6333 36.3373Q20.625 36.1688 20.625 36Q20.625 35.8312 20.6333 35.6627Q20.6416 35.4941 20.6581 35.3261Q20.6746 35.1582 20.6994 34.9912Q20.7242 34.8243 20.7571 34.6588Q20.79 34.4932 20.831 34.3295Q20.872 34.1658 20.921 34.0043Q20.97 33.8428 21.0269 33.6839Q21.0837 33.525 21.1483 33.369Q21.2129 33.2131 21.2851 33.0606Q21.3572 32.908 21.4368 32.7591Q21.5163 32.6103 21.6031 32.4655Q21.6899 32.3208 21.7836 32.1805Q21.8774 32.0401 21.9779 31.9046Q22.0785 31.769 22.1856 31.6385Q22.2926 31.5081 22.406 31.383Q22.5193 31.258 22.6386 31.1386Q22.758 31.0193 22.883 30.906Q23.0081 30.7926 23.1385 30.6856Q23.269 30.5785 23.4046 30.4779Q23.5401 30.3774 23.6805 30.2836Q23.8208 30.1899 23.9655 30.1031Q24.1103 30.0163 24.2591 29.9368Q24.408 29.8572 24.5606 29.7851Q24.7131 29.7129 24.869 29.6483Q25.025 29.5837 25.1839 29.5269Q25.3428 29.47 25.5043 29.421Q25.6658 29.372 25.8295 29.331Q25.9932 29.29 26.1588 29.2571Q26.3243 29.2242 26.4912 29.1994Q26.6582 29.1746 26.8261 29.1581Q26.9941 29.1416 27.1627 29.1333Q27.3312 29.125 27.5 29.125Q27.6688 29.125 27.8373 29.1333Q28.0059 29.1416 28.1739 29.1581Q28.3418 29.1746 28.5088 29.1994Q28.6757 29.2242 28.8412 29.2571Q29.0068 29.29 29.1705 29.331Q29.3342 29.372 29.4957 29.421Q29.6572 29.47 29.8161 29.5269Q29.975 29.5837 30.1309 29.6483Q30.2869 29.7129 30.4394 29.7851Q30.592 29.8572 30.7409 29.9368Q30.8897 30.0163 31.0345 30.1031Q31.1792 30.1899 31.3195 30.2836Q31.4599 30.3774 31.5954 30.4779Q31.731 30.5785 31.8615 30.6856Q31.9919 30.7926 32.117 30.906Q32.242 31.0193 32.3614 31.1386Q32.4807 31.258 32.594 31.383Q32.7074 31.5081 32.8144 31.6385Q32.9215 31.769 33.022 31.9046Q33.1226 32.0401 33.2164 32.1805Q33.3101 32.3208 33.3969 32.4655Q33.4836 32.6103 33.5632 32.7591Q33.6428 32.908 33.7149 33.0606Q33.7871 33.2131 33.8517 33.369Q33.9163 33.525 33.9731 33.6839Q34.03 33.8428 34.079 34.0043Q34.128 34.1658 34.169 34.3295Q34.21 34.4932 34.2429 34.6588Q34.2758 34.8243 34.3006 34.9912Q34.3254 35.1582 34.3419 35.3261Q34.3584 35.4941 34.3667 35.6627Q34.375 35.8312 34.375 36Z"/>
	<path fill="none" stroke="rgb(0,0,255)" stroke-width="2.75" stroke-miterlimit="4" d="M34.375 36Q34.375 36.1688 34.3667 36.3373Q34.3584 36.5059 34.3419 36.6739Q34.3254 36.8418 34.3006 37.0088Q34.2758 37.1757 34.2429 37.3412Q34.21 37.5068 34.169 37.6705Q34.128 37.8342 34.079 37.9957Q34.03 38.1572 33.9731 38.3161Q33.9163 38.475 33.8517 38.6309Q33.7871 38.7869 33.7149 38.9394Q33.6428 39.092 33.5632 39.2408Q33.4836 39.3897 33.3969 39.5345Q33.3101 39.6792 33.2164 39.8195Q33.1226 39.9599 33.0221 40.0954Q32.9215 40.231 32.8144 40.3615Q32.7074 40.4919 32.594 40.617Q32.4807 40.742 32.3614 40.8614Q32.242 40.9807 32.117 41.094Q31.9919 41.2074 31.8615 41.3144Q31.731 41.4215 31.5954 41.522Q31.4599 41.6226 31.3195 41.7163Q31.1792 41.8101 31.0344 41.8969Q30.8897 41.9836 30.7408 42.0632Q30.592 42.1428 30.4394 42.2149Q30.2869 42.2871 30.1309 42.3517Q29.975 42.4163 29.8161 42.4731Q29.6572 42.53 29.4957 42.579Q29.3342 42.628 29.1705 42.669Q29.0068 42.71 28.8412 42.7429Q28.6757 42.7758 28.5088 42.8006Q28.3418 42.8253 28.1739 42.8419Q28.0059 42.8584 27.8373 42.8667Q27.6688 42.875 27.5 42.875Q27.3312 42.875 27.1627 42.8667Q26.9941 42.8584 26.8261 42.8419Q26.6582 42.8253 26.4912 42.8006Q26.3243 42.7758 26.1588 42.7429Q25.9932 42.71 25.8295 42.669Q25.6658 42.628 25.5043 42.579Q25.3428 42.53 25.1839 42.4731Q25.025 42.4163 24.869 42.3517Q24.7131 42.2871 24.5606 42.2149Q24.408 42.1428 24.2591 42.0632Q24.1103 41.9836 23.9655 41.8969Q23.8208 41.8101 23.6805 41.7163Q23.5401 41.6226 23.4046 41.522Q23.269 41.4215 23.1385 41.3144Q23.0081 41.2074 22.883 41.094Q22.758 40.9807 22.6386 40.8614Q22.5193 40.742 22.406 40.617Q22.2926 40.4919 22.1855 40.3615Q22.0785 40.231 21.9779 40.0954Q21.8774 39.9599 21.7836 39.8195Q21.6899 39.6792 21.6031 39.5345Q21.5163 39.3897 21.4368 39.2408Q21.3572 39.092 21.2851 38.9394Q21.2129 38.7869 21.1483 38.6309Q21.0837 38.475 21.0269 38.3161Q20.97 38.1572 20.921 37.9957Q20.872 37.8342 20.831 37.6705Q20.79 37.5068 20.7571 37.3412Q20.7242 37.1757 20.6994 37.0088Q20.6746 36.8418 20.6581 36.6739Q20.6416 36.5059 20.6333 36.3373Q20.625 36.1688 20.625 36Q20.625 35.8312 20.6333 35.6627Q20.6416 35.4941 20.6581 35.3261Q20.6746 35.1582 20.6994 34.9912Q20.7242 34.8243 20.7571 34.6588Q20.79 34.4932 20.831 34.3295Q20.872 34.1658 20.921 34.0043Q20.97 33.8428 21.0269 33.6839Q21.0837 33.525 21.1483 33.369Q21.2129 33.2131 21.2851 33.0606Q21.3572 32.908 21.4368 32.7591Q21.5163 32.6103 21.6031 32.4655Q21.6899 32.3208 21.7836 32.1805Q21.8774 32.0401 21.9779 31.9046Q22.0785 31.769 22.1856 31.6385Q22.2926 31.5081 22.406 31.383Q22.5193 31.258 22.6386 31.1386Q22.758 31.0193 22.883 30.906Q23.0081 30.7926 23.1385 30.6856Q23.269 30.5785 23.4046 30.4779Q23.5401 30.3774 23.6805 30.2836Q23.8208 30.1899 23.9655 30.1031Q24.1103 30.0163 24.2591 29.9368Q24.408 29.8572 24.5606 29.7851Q24.7131 29.7129 24.869 29.6483Q25.025 29.5837 25.1839 29.5269Q25.3428 29.47 25.5043 29.421Q25.6658 29.372 25.8295 29.331Q25.9932 29.29 26.1588 29.2571Q26.3243 29.2242 26.4912 29.1994Q26.6582 29.1746 26.8261 29.1581Q26.9941 29.1416 27.1627 29.1333Q27.3312 29.125 27.5 29.125Q27.6688 29.125 27.8373 29.1333Q28.0059 29.1416 28.1739 29.1581Q28.3418 29.1746 28.5088 29.1994Q28.6757 29.2242 28.8412 29.2571Q29.0068 29.29 29.1705 29.331Q29.3342 29.372 29.4957 29.421Q29.6572 29.47 29.8161 29.5269Q29.975 29.5837 30.1309 29.6483Q30.2869 29.7129 30.4394 29.7851Q30.592 29.8572 30.7409 29.9368Q30.8897 30.0163 31.0345 30.1031Q31.1792 30.1899 31.3195 30.2836Q31.4599 30.3774 31.5954 30.4779Q31.731 30.5785 31.8615 30.6856Q31.9919 30.7926 32.117 30.906Q32.242 31.0193 32.3614 31.1386Q32.4807 31.258 32.594 31.383Q32.7074 31.5081 32.8144 31.6385Q32.9215 31.769 33.022 31.9046Q33.1226 32.0401 33.2164 32.1805Q33.3101 32.3208 33.3969 32.4655Q33.4836 32.6103 33.5632 32.7591Q33.6428 32.908 33.7149 33.0606Q33.7871 33.2131 33.8517 33.369Q33.9163 33.525 33.9731 33.6839Q34.03 33.8428 34.079 34.0043Q34.128 34.1658 34.169 34.3295Q34.21 34.4932 34.2429 34.6588Q34.2758 34.8243 34.3006 34.9912Q34.3254 35.1582 34.3419 35.3261Q34.3584 35.4941 34.3667 35.6627Q34.375 35.8312 34.375 36Z"/>
</svg>
