<?xml version="1.0" encoding="utf-8" ?>
<svg xmlns="http://www.w3.org/2000/svg" xmlns:xlink="http://www.w3.org/1999/xlink" width="55" height="72">
	<path fill="rgb(128,128,128)" stroke="none" d="M25.1719 39.4453Q25.1719 40.7789 24.7437 41.9207Q24.3135 43.0678 23.537 43.907Q22.7431 44.7639 21.5721 45.2523Q20.4071 45.7383 18.9727 45.7383Q17.6767 45.7383 16.4228 45.4536Q15.1658 45.1682 14.2346 44.7026L14.0273 44.5989L14.0273 41.5195L14.69 41.5195L14.7893 41.593Q15.0327 41.7729 15.5075 42.0103Q15.9924 42.2527 16.5818 42.4681Q17.2506 42.7061 17.8044 42.8361Q18.3364 42.9609 19.0078 42.9609Q19.6426 42.9609 20.2466 42.7331Q20.8243 42.5152 21.2422 42.026Q21.6275 41.5678 21.8334 40.9448Q22.043 40.3107 22.043 39.4336Q22.043 38.5836 21.8205 38.0558Q21.6053 37.5453 21.1985 37.2179L21.1917 37.2125L21.1853 37.2068Q20.7502 36.8223 20.107 36.6628Q19.419 36.4922 18.5625 36.4922Q17.6417 36.4922 16.7089 36.6344Q15.7608 36.7789 15.1993 36.905L14.7422 37.0076L14.7422 27.1758L25.0664 27.1758L25.0664 29.9766L17.3789 29.9766L17.3789 29.6016L17.7539 29.6016L17.7539 34.2422L17.3789 34.2422L17.3375 33.8695Q17.7694 33.8215 18.1895 33.7975Q18.6104 33.7734 18.9609 33.7734Q20.3413 33.7734 21.3103 34.0065Q22.3119 34.2474 23.2296 34.9388Q24.1711 35.6513 24.6733 36.7193Q25.1719 37.7795 25.1719 39.4453ZM24.4219 39.4453Q24.4219 37.9471 23.9946 37.0385Q23.5711 36.1378 22.7783 35.5378Q21.985 34.9401 21.135 34.7357Q20.2524 34.5234 18.9609 34.5234Q18.6318 34.5234 18.2323 34.5463Q17.8322 34.5691 17.4203 34.6149L17.0039 34.6612L17.0039 29.2266L24.6914 29.2266L24.6914 29.6016L24.3164 29.6016L24.3164 27.5508L24.6914 27.5508L24.6914 27.9258L15.1172 27.9258L15.1172 27.5508L15.4922 27.5508L15.4922 36.5391L15.1172 36.5391L15.035 36.1732Q15.622 36.0414 16.5958 35.893Q17.5849 35.7422 18.5625 35.7422Q19.5106 35.7422 20.2875 35.9349Q21.1091 36.1386 21.6819 36.6448L21.4336 36.9258L21.6687 36.6337Q22.2229 37.0797 22.5116 37.7645Q22.793 38.432 22.793 39.4336Q22.793 40.4315 22.5455 41.1802Q22.2944 41.9401 21.8125 42.5131Q21.2694 43.1489 20.5113 43.4349Q19.7793 43.7109 19.0078 43.7109Q18.2496 43.7109 17.6331 43.5663Q17.0385 43.4267 16.3244 43.1725Q15.6951 42.9426 15.1721 42.6811Q14.6392 42.4146 14.3435 42.1961L14.5664 41.8945L14.5664 42.2695L14.4023 42.2695L14.4023 41.8945L14.7773 41.8945L14.7773 44.3672L14.4023 44.3672L14.57 44.0318Q15.4202 44.4568 16.5889 44.7222Q17.7608 44.9883 18.9727 44.9883Q20.257 44.9883 21.2834 44.5602Q22.3038 44.1345 22.9865 43.3976Q23.663 42.6666 24.0415 41.6574Q24.4219 40.6429 24.4219 39.4453ZM24.7969 39.4453Q24.7969 40.7109 24.3926 41.7891Q23.9883 42.8672 23.2617 43.6523Q22.5234 44.4492 21.4277 44.9063Q20.332 45.3633 18.9727 45.3633Q17.7188 45.3633 16.5059 45.0879Q15.293 44.8125 14.4023 44.3672L14.4023 41.8945L14.5664 41.8945Q14.8359 42.0938 15.3398 42.3457Q15.8438 42.5977 16.4531 42.8203Q17.1445 43.0664 17.7188 43.2012Q18.293 43.3359 19.0078 43.3359Q19.7109 43.3359 20.3789 43.084Q21.0469 42.832 21.5273 42.2695Q21.9609 41.7539 22.1895 41.0625Q22.418 40.3711 22.418 39.4336Q22.418 38.5078 22.166 37.9102Q21.9141 37.3125 21.4336 36.9258Q20.9297 36.4805 20.1973 36.2988Q19.4648 36.1172 18.5625 36.1172Q17.6133 36.1172 16.6523 36.2637Q15.6914 36.4102 15.1172 36.5391L15.1172 27.5508L24.6914 27.5508L24.6914 29.6016L17.3789 29.6016L17.3789 34.2422Q17.8008 34.1953 18.2109 34.1719Q18.6211 34.1484 18.9609 34.1484Q20.2969 34.1484 21.2227 34.3711Q22.1484 34.5938 23.0039 35.2383Q23.8711 35.8945 24.334 36.8789Q24.7969 37.8633 24.7969 39.4453ZM38.5547 36.2695Q38.5547 41.0758 37.133 43.3639Q35.6577 45.7383 32.6016 45.7383Q29.5068 45.7383 28.0498 43.3184Q26.6484 40.9909 26.6484 36.293Q26.6484 31.4628 28.0706 29.1861Q29.546 26.8242 32.6016 26.8242Q35.6975 26.8242 37.1542 29.269Q38.5547 31.6194 38.5547 36.2695ZM37.8047 36.2695Q37.8047 31.8259 36.5099 29.6529Q35.2713 27.5742 32.6016 27.5742Q29.9618 27.5742 28.7067 29.5834Q27.3984 31.6778 27.3984 36.293Q27.3984 40.7825 28.6924 42.9316Q29.9307 44.9883 32.6016 44.9883Q35.2407 44.9883 36.4959 42.9681Q37.8047 40.8617 37.8047 36.2695ZM34.8305 41.453Q35.152 40.6328 35.2873 39.3588Q35.4258 38.0544 35.4258 36.2695Q35.4258 34.4964 35.2873 33.1919Q35.1521 31.9193 34.8198 31.0885Q34.5064 30.2947 33.9757 29.8954Q33.4606 29.5078 32.6016 29.5078Q31.7523 29.5078 31.2247 29.8974Q30.6839 30.2966 30.3602 31.1112Q30.0285 31.9516 29.9046 33.2581Q29.7773 34.5998 29.7773 36.293Q29.7773 38.1042 29.8871 39.3178Q29.9938 40.496 30.3499 41.4198Q30.6534 42.2257 31.1966 42.6471Q31.7221 43.0547 32.6016 43.0547Q33.4508 43.0547 33.9784 42.6651Q34.5174 42.2672 34.8297 41.4552L34.8305 41.453ZM35.5297 41.7245Q35.1389 42.7406 34.4239 43.2685Q33.6977 43.8047 32.6016 43.8047Q31.4654 43.8047 30.737 43.2397Q30.0263 42.6884 29.6501 41.6896Q29.2562 40.668 29.1402 39.3854Q29.0273 38.138 29.0273 36.293Q29.0273 34.5643 29.1579 33.1873Q29.2918 31.775 29.6632 30.8342Q30.0661 29.8205 30.7792 29.294Q31.5055 28.7578 32.6016 28.7578Q33.7113 28.7578 34.4266 29.296Q35.1264 29.8225 35.5161 30.8099Q35.887 31.737 36.0331 33.1127Q36.1758 34.4567 36.1758 36.2695Q36.1758 38.0941 36.0331 39.438Q35.8871 40.8125 35.5288 41.7267L35.5297 41.7245ZM38.1797 36.2695Q38.1797 40.9688 36.8145 43.166Q35.4492 45.3633 32.6016 45.3633Q29.7188 45.3633 28.3711 43.125Q27.0234 40.8867 27.0234 36.293Q27.0234 31.5703 28.3887 29.3848Q29.7539 27.1992 32.6016 27.1992Q35.4844 27.1992 36.832 29.4609Q38.1797 31.7227 38.1797 36.2695ZM35.1797 41.5898Q35.5195 40.7227 35.6602 39.3984Q35.8008 38.0742 35.8008 36.2695Q35.8008 34.4766 35.6602 33.1523Q35.5195 31.8281 35.168 30.9492Q34.8164 30.0586 34.2012 29.5957Q33.5859 29.1328 32.6016 29.1328Q31.6289 29.1328 31.002 29.5957Q30.375 30.0586 30.0117 30.9727Q29.6602 31.8633 29.5313 33.2227Q29.4023 34.582 29.4023 36.293Q29.4023 38.1211 29.5137 39.3516Q29.625 40.582 30 41.5547Q30.3398 42.457 30.9668 42.9434Q31.5938 43.4297 32.6016 43.4297Q33.5742 43.4297 34.2012 42.9668Q34.8281 42.5039 35.1797 41.5898Z"/>
	<path fill="none" stroke="rgb(0,0,0)" stroke-width="1" stroke-miterlimit="4" d="M25.1719 39.4453Q25.1719 40.7789 24.7437 41.9207Q24.3135 43.0678 23.537 43.907Q22.7431 44.7639 21.5721 45.2523Q20.4071 45.7383 18.9727 45.7383Q17.6767 45.7383 16.4228 45.4536Q15.1658 45.1682 14.2346 44.7026L14.0273 44.5989L14.0273 41.5195L14.69 41.5195L14.7893 41.593Q15.0327 41.7729 15.5075 42.0103Q15.9924 42.2527 16.5818 42.4681Q17.2506 42.7061 17.8044 42.8361Q18.3364 42.9609 19.0078 42.9609Q19.6426 42.9609 20.2466 42.7331Q20.8243 42.5152 21.2422 42.026Q21.6275 41.5678 21.8334 40.9448Q22.043 40.3107 22.043 39.4336Q22.043 38.5836 21.8205 38.0558Q21.6053 37.5453 21.1985 37.2179L21.1917 37.2125L21.1853 37.2068Q20.7502 36.8223 20.107 36.6628Q19.419 36.4922 18.5625 36.4922Q17.6417 36.4922 16.7089 36.6344Q15.7608 36.7789 15.1993 36.905L14.7422 37.0076L14.7422 27.1758L25.0664 27.1758L25.0664 29.9766L17.3789 29.9766L17.3789 29.6016L17.7539 29.6016L17.7539 34.2422L17.3789 34.2422L17.3375 33.8695Q17.7694 33.8215 18.1895 33.7975Q18.6104 33.7734 18.9609 33.7734Q20.3413 33.7734 21.3103 34.0065Q22.3119 34.2474 23.2296 34.9388Q24.1711 35.6513 24.6733 36.7193Q25.1719 37.7795 25.1719 39.4453ZM24.4219 39.4453Q24.4219 37.9471 23.9946 37.0385Q23.5711 36.1378 22.7783 35.5378Q21.985 34.9401 21.135 34.7357Q20.2524 34.5234 18.9609 34.5234Q18.6318 34.5234 18.2323 34.5463Q17.8322 34.5691 17.4203 34.6149L17.0039 34.6612L17.0039 29.2266L24.6914 29.2266L24.6914 29.6016L24.3164 29.6016L24.3164 27.5508L24.6914 27.5508L24.6914 27.9258L15.1172 27.9258L15.1172 27.5508L15.4922 27.5508L15.4922 36.5391L15.1172 36.5391L15.035 36.1732Q15.622 36.0414 16.5958 35.893Q17.5849 35.7422 18.5625 35.7422Q19.5106 35.7422 20.2875 35.9349Q21.1091 36.1386 21.6819 36.6448L21.4336 36.9258L21.6687 36.6337Q22.2229 37.0797 22.5116 37.7645Q22.793 38.432 22.793 39.4336Q22.793 40.4315 22.5455 41.1802Q22.2944 41.9401 21.8125 42.5131Q21.2694 43.1489 20.5113 43.4349Q19.7793 43.7109 19.0078 43.7109Q18.2496 43.7109 17.6331 43.5663Q17.0385 43.4267 16.3244 43.1725Q15.6951 42.9426 15.1721 42.6811Q14.6392 42.4146 14.3435 42.1961L14.5664 41.8945L14.5664 42.2695L14.4023 42.2695L14.4023 41.8945L14.7773 41.8945L14.7773 44.3672L14.4023 44.3672L14.57 44.0318Q15.4202 44.4568 16.5889 44.7222Q17.7608 44.9883 18.9727 44.9883Q20.257 44.9883 21.2834 44.5602Q22.3038 44.1345 22.9865 43.3976Q23.663 42.6666 24.0415 41.6574Q24.4219 40.6429 24.4219 39.4453ZM24.7969 39.4453Q24.7969 40.7109 24.3926 41.7891Q23.9883 42.8672 23.2617 43.6523Q22.5234 44.4492 21.4277 44.9063Q20.332 45.3633 18.9727 45.3633Q17.7188 45.3633 16.5059 45.0879Q15.293 44.8125 14.4023 44.3672L14.4023 41.8945L14.5664 41.8945Q14.8359 42.0938 15.3398 42.3457Q15.8438 42.5977 16.4531 42.8203Q17.1445 43.0664 17.7188 43.2012Q18.293 43.3359 19.0078 43.3359Q19.7109 43.3359 20.3789 43.084Q21.0469 42.832 21.5273 42.2695Q21.9609 41.7539 22.1895 41.0625Q22.418 40.3711 22.418 39.4336Q22.418 38.5078 22.166 37.9102Q21.9141 37.3125 21.4336 36.9258Q20.9297 36.4805 20.1973 36.2988Q19.4648 36.1172 18.5625 36.1172Q17.6133 36.1172 16.6523 36.2637Q15.6914 36.4102 15.1172 36.5391L15.1172 27.5508L24.6914 27.5508L24.6914 29.6016L17.3789 29.6016L17.3789 34.2422Q17.8008 34.1953 18.2109 34.1719Q18.6211 34.1484 18.9609 34.1484Q20.2969 34.1484 21.2227 34.3711Q22.1484 34.5938 23.0039 35.2383Q23.8711 35.8945 24.334 36.8789Q24.7969 37.8633 24.7969 39.4453ZM38.5547 36.2695Q38.5547 41.0758 37.133 43.3639Q35.6577 45.7383 32.6016 45.7383Q29.5068 45.7383 28.0498 43.3184Q26.6484 40.9909 26.6484 36.293Q26.6484 31.4628 28.0706 29.1861Q29.546 26.8242 32.6016 26.8242Q35.6975 26.8242 37.1542 29.269Q38.5547 31.6194 38.5547 36.2695ZM37.8047 36.2695Q37.8047 31.8259 36.5099 29.6529Q35.2713 27.5742 32.6016 27.5742Q29.9618 27.5742 28.7067 29.5834Q27.3984 31.6778 27.3984 36.293Q27.3984 40.7825 28.6924 42.9316Q29.9307 44.9883 32.6016 44.9883Q35.2407 44.9883 36.4959 42.9681Q37.8047 40.8617 37.8047 36.2695ZM34.8305 41.453Q35.152 40.6328 35.2873 39.3588Q35.4258 38.0544 35.4258 36.2695Q35.4258 34.4964 35.2873 33.1919Q35.1521 31.9193 34.8198 31.0885Q34.5064 30.2947 33.9757 29.8954Q33.4606 29.5078 32.6016 29.5078Q31.7523 29.5078 31.2247 29.8974Q30.6839 30.2966 30.3602 31.1112Q30.0285 31.9516 29.9046 33.2581Q29.7773 34.5998 29.7773 36.293Q29.7773 38.1042 29.8871 39.3178Q29.9938 40.496 30.3499 41.4198Q30.6534 42.2257 31.1966 42.6471Q31.7221 43.0547 32.6016 43.0547Q33.4508 43.0547 33.9784 42.6651Q34.5174 42.2672 34.8297 41.4552L34.8305 41.453ZM35.5297 41.7245Q35.1389 42.7406 34.4239 43.2685Q33.6977 43.8047 32.6016 43.8047Q31.4654 43.8047 30.737 43.2397Q30.0263 42.6884 29.6501 41.6896Q29.2562 40.668 29.1402 39.3854Q29.0273 38.138 29.0273 36.293Q29.0273 34.5643 29.1579 33.1873Q29.2918 31.775 29.6632 30.8342Q30.0661 29.8205 30.7792 29.294Q31.5055 28.7578 32.6016 28.7578Q33.7113 28.7578 34.4266 29.296Q35.1264 29.8225 35.5161 30.8099Q35.887 31.737 36.0331 33.1127Q36.1758 34.4567 36.1758 36.2695Q36.1758 38.0941 36.0331 39.438Q35.8871 40.8125 35.5288 41.7267L35.5297 41.7245ZM38.1797 36.2695Q38.1797 40.9688 36.8145 43.166Q35.4492 45.3633 32.6016 45.3633Q29.7188 45.3633 28.3711 43.125Q27.0234 40.8867 27.0234 36.293Q27.0234 31.5703 28.3887 29.3848Q29.7539 27.1992 32.6016 27.1992Q35.4844 27.1992 36.832 29.4609Q38.1797 31.7227 38.1797 36.2695ZM35.1797 41.5898Q35.5195 40.7227 35.6602 39.3984Q35.8008 38.0742 35.8008 36.2695Q35.8008 34.4766 35.6602 33.1523Q35.5195 31.8281 35.168 30.9492Q34.8164 30.0586 34.2012 29.5957Q33.5859 29.1328 32.6016 29.1328Q31.6289 29.1328 31.002 29.5957Q30.375 30.0586 30.0117 30.9727Q29.6602 31.8633 29.5313 33.2227Q29.4023 34.582 29.4023 36.293Q29.4023 38.1211 29.5137 39.3516Q29.625 40.582 30 41.5547Q30.3398 42.457 30.9668 42.9434Q31.5938 43.4297 32.6016 43.4297Q33.5742 43.4297 34.2012 42.9668Q34.8281 42.5039 35.1797 41.5898Z"/>
	<path fill="none" stroke="rgb(0,128,0)" stroke-width="5.5" stroke-miterlimit="4" d="M48.125 36Q48.125 36.5063 48.1002 37.012Q48.0753 37.5177 48.0257 38.0216Q47.9761 38.5255 47.9018 39.0263Q47.8275 39.5271 47.7287 40.0237Q47.6299 40.5203 47.5069 41.0115Q47.3839 41.5026 47.2369 41.9871Q47.0899 42.4716 46.9193 42.9483Q46.7488 43.4251 46.555 43.8928Q46.3613 44.3606 46.1448 44.8183Q45.9283 45.276 45.6896 45.7225Q45.4509 46.1691 45.1906 46.6034Q44.9303 47.0376 44.6491 47.4586Q44.3678 47.8796 44.0662 48.2863Q43.7645 48.693 43.4433 49.0844Q43.1221 49.4757 42.7821 49.8509Q42.4421 50.2261 42.0841 50.5841Q41.7261 50.9421 41.3509 51.2821Q40.9757 51.6221 40.5844 51.9433Q40.193 52.2645 39.7863 52.5661Q39.3796 52.8678 38.9586 53.1491Q38.5376 53.4303 38.1034 53.6906Q37.6691 53.9509 37.2226 54.1896Q36.776 54.4283 36.3183 54.6448Q35.8606 54.8612 35.3928 55.055Q34.9251 55.2488 34.4483 55.4193Q33.9716 55.5899 33.4871 55.7369Q33.0026 55.8839 32.5115 56.0069Q32.0203 56.1299 31.5237 56.2287Q31.0271 56.3275 30.5263 56.4018Q30.0255 56.4761 29.5216 56.5257Q29.0177 56.5753 28.512 56.6002Q28.0063 56.625 27.5 56.625Q26.9937 56.625 26.488 56.6002Q25.9823 56.5753 25.4784 56.5257Q24.9745 56.476 24.4737 56.4018Q23.9728 56.3275 23.4763 56.2287Q22.9797 56.1299 22.4885 56.0069Q21.9974 55.8839 21.5129 55.7369Q21.0284 55.5899 20.5516 55.4193Q20.0749 55.2488 19.6072 55.055Q19.1394 54.8612 18.6817 54.6448Q18.224 54.4283 17.7774 54.1896Q17.3309 53.9509 16.8966 53.6906Q16.4623 53.4303 16.0414 53.1491Q15.6204 52.8678 15.2137 52.5662Q14.807 52.2645 14.4156 51.9433Q14.0243 51.6221 13.6491 51.2821Q13.2739 50.9421 12.9159 50.5841Q12.5579 50.2261 12.2179 49.8509Q11.8779 49.4757 11.5567 49.0844Q11.2355 48.693 10.9338 48.2863Q10.6322 47.8796 10.3509 47.4586Q10.0696 47.0376 9.80935 46.6034Q9.54905 46.1691 9.31037 45.7225Q9.0717 45.276 8.85522 44.8183Q8.63874 44.3606 8.44498 43.8928Q8.25122 43.4251 8.08065 42.9483Q7.91008 42.4716 7.7631 41.9871Q7.61613 41.5026 7.4931 41.0115Q7.37008 40.5203 7.2713 40.0237Q7.17253 39.5271 7.09823 39.0263Q7.02394 38.5255 6.97432 38.0216Q6.92469 37.5177 6.89984 37.012Q6.875 36.5063 6.875 36Q6.875 35.4937 6.89984 34.988Q6.92469 34.4823 6.97432 33.9784Q7.02394 33.4745 7.09823 32.9737Q7.17253 32.4728 7.2713 31.9763Q7.37008 31.4797 7.4931 30.9885Q7.61613 30.4974 7.7631 30.0129Q7.91008 29.5284 8.08065 29.0516Q8.25122 28.5749 8.44498 28.1072Q8.63874 27.6394 8.85522 27.1817Q9.0717 26.724 9.31037 26.2774Q9.54905 25.8309 9.80935 25.3966Q10.0696 24.9623 10.3509 24.5414Q10.6322 24.1204 10.9338 23.7137Q11.2355 23.307 11.5567 22.9156Q11.8779 22.5242 12.2179 22.1491Q12.5579 21.7739 12.9159 21.4159Q13.2739 21.0579 13.6491 20.7179Q14.0243 20.3779 14.4156 20.0567Q14.807 19.7355 15.2137 19.4338Q15.6204 19.1322 16.0414 18.8509Q16.4623 18.5696 16.8966 18.3093Q17.3309 18.049 17.7774 17.8104Q18.224 17.5717 18.6817 17.3552Q19.1394 17.1387 19.6072 16.945Q20.0749 16.7512 20.5516 16.5807Q21.0284 16.4101 21.5129 16.2631Q21.9974 16.1161 22.4885 15.9931Q22.9797 15.8701 23.4763 15.7713Q23.9728 15.6725 24.4737 15.5982Q24.9745 15.5239 25.4784 15.4743Q25.9823 15.4247 26.488 15.3998Q26.9937 15.375 27.5 15.375Q28.0063 15.375 28.512 15.3998Q29.0177 15.4247 29.5216 15.4743Q30.0255 15.5239 30.5263 15.5982Q31.0271 15.6725 31.5237 15.7713Q32.0203 15.8701 32.5115 15.9931Q33.0026 16.1161 33.4871 16.2631Q33.9716 16.4101 34.4483 16.5806Q34.9251 16.7512 35.3928 16.945Q35.8606 17.1387 36.3183 17.3552Q36.776 17.5717 37.2226 17.8104Q37.6691 18.049 38.1034 18.3093Q38.5376 18.5696 38.9586 18.8509Q39.3796 19.1322 39.7863 19.4338Q40.193 19.7355 40.5844 20.0567Q40.9757 20.3779 41.3509 20.7179Q41.7261 21.0579 42.0841 21.4159Q42.4421 21.7739 42.7821 22.1491Q43.1221 22.5242 43.4433 22.9156Q43.7645 23.307 44.0662 23.7137Q44.3678 24.1204 44.6491 24.5414Q44.9303 24.9623 45.1906 25.3966Q45.451 25.8309 45.6896 26.2774Q45.9283 26.724 46.1448 27.1817Q46.3613 27.6394 46.555 28.1072Q46.7488 28.5749 46.9193 29.0516Q47.0899 29.5284 47.2369 30.0129Q47.3839 30.4974 47.5069 30.9885Q47.6299 31.4797 47.7287 31.9763Q47.8275 32.4728 47.9018 32.9737Q47.9761 33.4745 48.0257 33.9784Q48.0753 34.4823 48.1002 34.988Q48.125 35.4937 48.125 36Z"/>
	<path fill="none" stroke="rgb(0,128,0)" stroke-width="5.5" stroke-miterlimit="4" d="M43.0917 21.6654L13.3932 51.3639"/>
</svg>
