<?xml version="1.0" encoding="utf-8" ?>
<svg xmlns="http://www.w3.org/2000/svg" xmlns:xlink="http://www.w3.org/1999/xlink" width="55" height="72">
	<path fill="none" stroke="rgb(0,0,0)" stroke-width="1.8" stroke-miterlimit="4" d="M8.55456 32.0546Q9.03192 31.5772 9.53213 31.1238Q10.0323 30.6705 10.5542 30.2422Q11.076 29.8139 11.6183 29.4118Q12.1605 29.0096 12.7218 28.6346Q13.2831 28.2595 13.8622 27.9125Q14.4412 27.5654 15.0366 27.2472Q15.632 26.9289 16.2422 26.6403Q16.8525 26.3517 17.4762 26.0933Q18.0999 25.835 18.7355 25.6075Q19.3712 25.3801 20.0172 25.1841Q20.6632 24.9882 21.318 24.8241Q21.9729 24.6601 22.635 24.5284Q23.2971 24.3967 23.9649 24.2976Q24.6327 24.1986 25.3045 24.1324Q25.9764 24.0663 26.6506 24.0331Q27.3249 24 28 24Q28.6751 24 29.3494 24.0331Q30.0236 24.0663 30.6955 24.1324Q31.3673 24.1986 32.0351 24.2976Q32.7029 24.3967 33.365 24.5284Q34.0271 24.6601 34.6819 24.8241Q35.3368 24.9882 35.9828 25.1841Q36.6288 25.3801 37.2645 25.6075Q37.9001 25.835 38.5238 26.0933Q39.1475 26.3517 39.7578 26.6403Q40.368 26.9289 40.9634 27.2472Q41.5588 27.5654 42.1378 27.9125Q42.7169 28.2595 43.2782 28.6346Q43.8395 29.0096 44.3817 29.4118Q44.924 29.8139 45.4458 30.2422Q45.9677 30.6705 46.4679 31.1238Q46.9681 31.5772 47.4454 32.0546"/>
	<path fill="none" stroke="rgb(255,0,0)" stroke-width="1.8" stroke-linecap="round" stroke-miterlimit="4" d="M27.5 51L15.7143 33.3333"/>
	<text fill="rgb(255,0,0)" stroke="none" font-size="18" font-family="Segoe UI" x="5.5" y="24">
			E
	</text>
	<text fill="rgb(0,0,0)" stroke="none" font-size="18" font-family="Segoe UI" x="41.25" y="24">
			F
	</text>
</svg>
