<?xml version="1.0" encoding="utf-8" ?>
<svg xmlns="http://www.w3.org/2000/svg" xmlns:xlink="http://www.w3.org/1999/xlink" width="55" height="72">
	<path fill="rgb(128,128,128)" stroke="none" d="M36.6667 36Q36.6667 36.225 36.6556 36.4498Q36.6446 36.6745 36.6225 36.8985Q36.6005 37.1224 36.5674 37.345Q36.5344 37.5676 36.4905 37.7883Q36.4466 38.009 36.3919 38.2273Q36.3373 38.4456 36.2719 38.6609Q36.2066 38.8763 36.1308 39.0882Q36.055 39.3 35.9689 39.5079Q35.8828 39.7158 35.7866 39.9192Q35.6904 40.1227 35.5843 40.3211Q35.4782 40.5196 35.3625 40.7126Q35.2468 40.9056 35.1218 41.0927Q34.9968 41.2798 34.8627 41.4606Q34.7287 41.6413 34.5859 41.8153Q34.4432 41.9892 34.292 42.1559Q34.1409 42.3227 33.9818 42.4818Q33.8227 42.6409 33.6559 42.792Q33.4892 42.9432 33.3153 43.0859Q33.1413 43.2287 32.9606 43.3627Q32.7798 43.4968 32.5927 43.6218Q32.4056 43.7468 32.2126 43.8625Q32.0196 43.9782 31.8211 44.0843Q31.6227 44.1903 31.4193 44.2866Q31.2158 44.3828 31.0079 44.4689Q30.8 44.555 30.5882 44.6308Q30.3763 44.7066 30.1609 44.7719Q29.9456 44.8373 29.7273 44.8919Q29.509 44.9466 29.2883 44.9905Q29.0676 45.0344 28.845 45.0674Q28.6224 45.1005 28.3985 45.1225Q28.1745 45.1446 27.9498 45.1556Q27.725 45.1667 27.5 45.1667Q27.275 45.1667 27.0502 45.1556Q26.8255 45.1446 26.6015 45.1225Q26.3776 45.1005 26.155 45.0674Q25.9324 45.0344 25.7117 44.9905Q25.491 44.9466 25.2727 44.8919Q25.0544 44.8373 24.8391 44.7719Q24.6237 44.7066 24.4118 44.6308Q24.2 44.555 23.9921 44.4689Q23.7842 44.3828 23.5807 44.2866Q23.3773 44.1903 23.1789 44.0843Q22.9804 43.9782 22.7874 43.8625Q22.5944 43.7468 22.4073 43.6218Q22.2202 43.4968 22.0394 43.3627Q21.8587 43.2287 21.6847 43.0859Q21.5108 42.9432 21.344 42.792Q21.1773 42.6409 21.0182 42.4818Q20.8591 42.3227 20.7079 42.1559Q20.5568 41.9892 20.4141 41.8153Q20.2713 41.6413 20.1373 41.4606Q20.0032 41.2798 19.8782 41.0927Q19.7532 40.9056 19.6375 40.7126Q19.5218 40.5196 19.4157 40.3211Q19.3096 40.1227 19.2134 39.9192Q19.1172 39.7158 19.0311 39.5079Q18.945 39.3 18.8692 39.0882Q18.7934 38.8763 18.728 38.6609Q18.6627 38.4456 18.608 38.2273Q18.5534 38.009 18.5095 37.7883Q18.4656 37.5676 18.4325 37.345Q18.3995 37.1224 18.3775 36.8985Q18.3554 36.6745 18.3444 36.4498Q18.3333 36.225 18.3333 36Q18.3333 35.775 18.3444 35.5502Q18.3554 35.3255 18.3775 35.1015Q18.3995 34.8776 18.4325 34.655Q18.4656 34.4324 18.5095 34.2117Q18.5534 33.991 18.608 33.7727Q18.6627 33.5544 18.728 33.3391Q18.7934 33.1237 18.8692 32.9118Q18.945 32.7 19.0311 32.4921Q19.1172 32.2842 19.2134 32.0807Q19.3096 31.8773 19.4157 31.6789Q19.5218 31.4804 19.6375 31.2874Q19.7532 31.0944 19.8782 30.9073Q20.0032 30.7202 20.1373 30.5394Q20.2713 30.3587 20.4141 30.1847Q20.5568 30.0108 20.7079 29.844Q20.8591 29.6773 21.0182 29.5182Q21.1773 29.3591 21.344 29.2079Q21.5108 29.0568 21.6847 28.9141Q21.8587 28.7713 22.0394 28.6373Q22.2202 28.5032 22.4073 28.3782Q22.5944 28.2532 22.7874 28.1375Q22.9804 28.0218 23.1789 27.9157Q23.3773 27.8096 23.5807 27.7134Q23.7842 27.6172 23.9921 27.5311Q24.2 27.445 24.4118 27.3692Q24.6237 27.2934 24.8391 27.228Q25.0544 27.1627 25.2727 27.108Q25.491 27.0534 25.7117 27.0095Q25.9324 26.9656 26.155 26.9325Q26.3776 26.8995 26.6015 26.8775Q26.8255 26.8554 27.0502 26.8444Q27.275 26.8333 27.5 26.8333Q27.725 26.8333 27.9498 26.8444Q28.1745 26.8554 28.3985 26.8775Q28.6224 26.8995 28.845 26.9325Q29.0676 26.9656 29.2883 27.0095Q29.509 27.0534 29.7273 27.108Q29.9456 27.1627 30.1609 27.228Q30.3763 27.2934 30.5882 27.3692Q30.8 27.445 31.0079 27.5311Q31.2158 27.6172 31.4192 27.7134Q31.6227 27.8096 31.8211 27.9157Q32.0196 28.0218 32.2126 28.1375Q32.4056 28.2532 32.5927 28.3782Q32.7798 28.5032 32.9606 28.6373Q33.1413 28.7713 33.3153 28.9141Q33.4892 29.0568 33.656 29.2079Q33.8227 29.3591 33.9818 29.5182Q34.1409 29.6773 34.292 29.844Q34.4432 30.0108 34.5859 30.1847Q34.7287 30.3587 34.8627 30.5394Q34.9968 30.7202 35.1218 30.9073Q35.2468 31.0944 35.3625 31.2874Q35.4782 31.4804 35.5843 31.6789Q35.6904 31.8773 35.7866 32.0807Q35.8828 32.2842 35.9689 32.4921Q36.055 32.7 36.1308 32.9118Q36.2066 33.1237 36.2719 33.3391Q36.3373 33.5544 36.3919 33.7727Q36.4466 33.991 36.4905 34.2117Q36.5344 34.4324 36.5674 34.655Q36.6005 34.8776 36.6225 35.1015Q36.6446 35.3255 36.6556 35.5502Q36.6667 35.775 36.6667 36Z"/>
	<path fill="rgb(128,128,128)" stroke="none" d="M36.6667 57.1538Q36.6667 57.3789 36.6556 57.6036Q36.6446 57.8284 36.6225 58.0523Q36.6005 58.2763 36.5674 58.4989Q36.5344 58.7215 36.4905 58.9422Q36.4466 59.1629 36.3919 59.3812Q36.3373 59.5994 36.2719 59.8148Q36.2066 60.0301 36.1308 60.242Q36.055 60.4539 35.9689 60.6618Q35.8828 60.8697 35.7866 61.0731Q35.6904 61.2765 35.5843 61.475Q35.4782 61.6734 35.3625 61.8664Q35.2468 62.0595 35.1218 62.2466Q34.9968 62.4337 34.8627 62.6144Q34.7287 62.7952 34.5859 62.9691Q34.4432 63.1431 34.292 63.3098Q34.1409 63.4765 33.9818 63.6357Q33.8227 63.7948 33.6559 63.9459Q33.4892 64.097 33.3153 64.2398Q33.1413 64.3825 32.9606 64.5166Q32.7798 64.6506 32.5927 64.7756Q32.4056 64.9007 32.2126 65.0163Q32.0196 65.132 31.8211 65.2381Q31.6227 65.3442 31.4193 65.4404Q31.2158 65.5366 31.0079 65.6227Q30.8 65.7088 30.5882 65.7847Q30.3763 65.8605 30.1609 65.9258Q29.9456 65.9911 29.7273 66.0458Q29.509 66.1005 29.2883 66.1444Q29.0676 66.1883 28.845 66.2213Q28.6224 66.2543 28.3985 66.2764Q28.1745 66.2984 27.9498 66.3095Q27.725 66.3205 27.5 66.3205Q27.275 66.3205 27.0502 66.3095Q26.8255 66.2984 26.6015 66.2764Q26.3776 66.2543 26.155 66.2213Q25.9324 66.1883 25.7117 66.1444Q25.491 66.1005 25.2727 66.0458Q25.0544 65.9911 24.8391 65.9258Q24.6237 65.8605 24.4118 65.7847Q24.2 65.7088 23.9921 65.6227Q23.7842 65.5366 23.5807 65.4404Q23.3773 65.3442 23.1789 65.2381Q22.9804 65.132 22.7874 65.0163Q22.5944 64.9007 22.4073 64.7756Q22.2202 64.6506 22.0394 64.5166Q21.8587 64.3825 21.6847 64.2398Q21.5108 64.097 21.344 63.9459Q21.1773 63.7948 21.0182 63.6357Q20.8591 63.4765 20.7079 63.3098Q20.5568 63.1431 20.4141 62.9691Q20.2713 62.7952 20.1373 62.6144Q20.0032 62.4337 19.8782 62.2466Q19.7532 62.0595 19.6375 61.8664Q19.5218 61.6734 19.4157 61.475Q19.3096 61.2765 19.2134 61.0731Q19.1172 60.8697 19.0311 60.6618Q18.945 60.4539 18.8692 60.242Q18.7934 60.0301 18.728 59.8148Q18.6627 59.5994 18.608 59.3812Q18.5534 59.1629 18.5095 58.9422Q18.4656 58.7215 18.4325 58.4989Q18.3995 58.2763 18.3775 58.0523Q18.3554 57.8284 18.3444 57.6036Q18.3333 57.3789 18.3333 57.1538Q18.3333 56.9288 18.3444 56.7041Q18.3554 56.4793 18.3775 56.2554Q18.3995 56.0314 18.4325 55.8088Q18.4656 55.5862 18.5095 55.3655Q18.5534 55.1448 18.608 54.9265Q18.6627 54.7082 18.728 54.4929Q18.7934 54.2776 18.8692 54.0657Q18.945 53.8538 19.0311 53.6459Q19.1172 53.438 19.2134 53.2346Q19.3096 53.0312 19.4157 52.8327Q19.5218 52.6342 19.6375 52.4412Q19.7532 52.2482 19.8782 52.0611Q20.0032 51.874 20.1373 51.6933Q20.2713 51.5125 20.4141 51.3386Q20.5568 51.1646 20.7079 50.9979Q20.8591 50.8312 21.0182 50.672Q21.1773 50.5129 21.344 50.3618Q21.5108 50.2107 21.6847 50.0679Q21.8587 49.9252 22.0394 49.7911Q22.2202 49.6571 22.4073 49.532Q22.5944 49.407 22.7874 49.2913Q22.9804 49.1756 23.1789 49.0696Q23.3773 48.9635 23.5807 48.8673Q23.7842 48.7711 23.9921 48.6849Q24.2 48.5988 24.4118 48.523Q24.6237 48.4472 24.8391 48.3819Q25.0544 48.3166 25.2727 48.2619Q25.491 48.2072 25.7117 48.1633Q25.9324 48.1194 26.155 48.0864Q26.3776 48.0534 26.6015 48.0313Q26.8255 48.0093 27.0502 47.9982Q27.275 47.9872 27.5 47.9872Q27.725 47.9872 27.9498 47.9982Q28.1745 48.0093 28.3985 48.0313Q28.6224 48.0534 28.845 48.0864Q29.0676 48.1194 29.2883 48.1633Q29.509 48.2072 29.7273 48.2619Q29.9456 48.3166 30.1609 48.3819Q30.3763 48.4472 30.5882 48.523Q30.8 48.5988 31.0079 48.6849Q31.2158 48.7711 31.4192 48.8673Q31.6227 48.9635 31.8211 49.0696Q32.0196 49.1756 32.2126 49.2913Q32.4056 49.407 32.5927 49.532Q32.7798 49.6571 32.9606 49.7911Q33.1413 49.9252 33.3153 50.0679Q33.4892 50.2107 33.656 50.3618Q33.8227 50.5129 33.9818 50.672Q34.1409 50.8312 34.292 50.9979Q34.4432 51.1646 34.5859 51.3386Q34.7287 51.5125 34.8627 51.6933Q34.9968 51.874 35.1218 52.0611Q35.2468 52.2482 35.3625 52.4412Q35.4782 52.6342 35.5843 52.8327Q35.6904 53.0312 35.7866 53.2346Q35.8828 53.438 35.9689 53.6459Q36.055 53.8538 36.1308 54.0657Q36.2066 54.2776 36.2719 54.4929Q36.3373 54.7082 36.3919 54.9265Q36.4466 55.1448 36.4905 55.3655Q36.5344 55.5862 36.5674 55.8088Q36.6005 56.0314 36.6225 56.2554Q36.6446 56.4793 36.6556 56.7041Q36.6667 56.9288 36.6667 57.1538Z"/>
	<path fill="rgb(255,0,0)" stroke="none" d="M36.6667 14.8462Q36.6667 15.0712 36.6556 15.2959Q36.6446 15.5207 36.6225 15.7446Q36.6005 15.9686 36.5674 16.1912Q36.5344 16.4138 36.4905 16.6345Q36.4466 16.8552 36.3919 17.0735Q36.3373 17.2918 36.2719 17.5071Q36.2066 17.7224 36.1308 17.9343Q36.055 18.1462 35.9689 18.3541Q35.8828 18.562 35.7866 18.7654Q35.6904 18.9688 35.5843 19.1673Q35.4782 19.3657 35.3625 19.5588Q35.2468 19.7518 35.1218 19.9389Q34.9968 20.126 34.8627 20.3067Q34.7287 20.4875 34.5859 20.6614Q34.4432 20.8354 34.292 21.0021Q34.1409 21.1688 33.9818 21.328Q33.8227 21.4871 33.6559 21.6382Q33.4892 21.7893 33.3153 21.9321Q33.1413 22.0748 32.9606 22.2089Q32.7798 22.3429 32.5927 22.468Q32.4056 22.593 32.2126 22.7087Q32.0196 22.8244 31.8211 22.9304Q31.6227 23.0365 31.4193 23.1327Q31.2158 23.2289 31.0079 23.315Q30.8 23.4012 30.5882 23.477Q30.3763 23.5528 30.1609 23.6181Q29.9456 23.6834 29.7273 23.7381Q29.509 23.7928 29.2883 23.8367Q29.0676 23.8806 28.845 23.9136Q28.6224 23.9466 28.3985 23.9687Q28.1745 23.9907 27.9498 24.0018Q27.725 24.0128 27.5 24.0128Q27.275 24.0128 27.0502 24.0018Q26.8255 23.9907 26.6015 23.9687Q26.3776 23.9466 26.155 23.9136Q25.9324 23.8806 25.7117 23.8367Q25.491 23.7928 25.2727 23.7381Q25.0544 23.6834 24.8391 23.6181Q24.6237 23.5528 24.4118 23.477Q24.2 23.4012 23.9921 23.315Q23.7842 23.2289 23.5807 23.1327Q23.3773 23.0365 23.1789 22.9304Q22.9804 22.8244 22.7874 22.7087Q22.5944 22.593 22.4073 22.468Q22.2202 22.3429 22.0394 22.2089Q21.8587 22.0748 21.6847 21.9321Q21.5108 21.7893 21.344 21.6382Q21.1773 21.4871 21.0182 21.328Q20.8591 21.1688 20.7079 21.0021Q20.5568 20.8354 20.4141 20.6614Q20.2713 20.4875 20.1373 20.3067Q20.0032 20.126 19.8782 19.9389Q19.7532 19.7518 19.6375 19.5588Q19.5218 19.3657 19.4157 19.1673Q19.3096 18.9688 19.2134 18.7654Q19.1172 18.562 19.0311 18.3541Q18.945 18.1462 18.8692 17.9343Q18.7934 17.7224 18.728 17.5071Q18.6627 17.2918 18.608 17.0735Q18.5534 16.8552 18.5095 16.6345Q18.4656 16.4138 18.4325 16.1912Q18.3995 15.9686 18.3775 15.7446Q18.3554 15.5207 18.3444 15.2959Q18.3333 15.0712 18.3333 14.8462Q18.3333 14.6211 18.3444 14.3964Q18.3554 14.1716 18.3775 13.9477Q18.3995 13.7237 18.4325 13.5011Q18.4656 13.2785 18.5095 13.0578Q18.5534 12.8371 18.608 12.6188Q18.6627 12.4005 18.728 12.1852Q18.7934 11.9699 18.8692 11.758Q18.945 11.5461 19.0311 11.3382Q19.1172 11.1303 19.2134 10.9269Q19.3096 10.7235 19.4157 10.525Q19.5218 10.3266 19.6375 10.1335Q19.7532 9.94053 19.8782 9.75342Q20.0032 9.56632 20.1373 9.38557Q20.2713 9.20483 20.4141 9.03088Q20.5568 8.85693 20.7079 8.6902Q20.8591 8.52346 21.0182 8.36434Q21.1773 8.20522 21.344 8.0541Q21.5108 7.90298 21.6847 7.76022Q21.8587 7.61747 22.0394 7.48342Q22.2202 7.34937 22.4073 7.22435Q22.5944 7.09933 22.7874 6.98364Q22.9804 6.86795 23.1789 6.76187Q23.3773 6.6558 23.5807 6.55958Q23.7842 6.46337 23.9921 6.37726Q24.2 6.29114 24.4118 6.21533Q24.6237 6.13952 24.8391 6.0742Q25.0544 6.00888 25.2727 5.9542Q25.491 5.89952 25.7117 5.85562Q25.9324 5.81172 26.155 5.7787Q26.3776 5.74568 26.6015 5.72363Q26.8255 5.70157 27.0502 5.69053Q27.275 5.67949 27.5 5.67949Q27.725 5.67949 27.9498 5.69053Q28.1745 5.70157 28.3985 5.72363Q28.6224 5.74568 28.845 5.7787Q29.0676 5.81172 29.2883 5.85562Q29.509 5.89952 29.7273 5.9542Q29.9456 6.00888 30.1609 6.0742Q30.3763 6.13952 30.5882 6.21533Q30.8 6.29114 31.0079 6.37726Q31.2158 6.46337 31.4192 6.55958Q31.6227 6.6558 31.8211 6.76187Q32.0196 6.86795 32.2126 6.98364Q32.4056 7.09933 32.5927 7.22435Q32.7798 7.34937 32.9606 7.48342Q33.1413 7.61747 33.3153 7.76022Q33.4892 7.90298 33.656 8.0541Q33.8227 8.20522 33.9818 8.36434Q34.1409 8.52346 34.292 8.6902Q34.4432 8.85693 34.5859 9.03088Q34.7287 9.20483 34.8627 9.38557Q34.9968 9.56632 35.1218 9.75342Q35.2468 9.94053 35.3625 10.1335Q35.4782 10.3266 35.5843 10.525Q35.6904 10.7235 35.7866 10.9269Q35.8828 11.1303 35.9689 11.3382Q36.055 11.5461 36.1308 11.758Q36.2066 11.9699 36.2719 12.1852Q36.3373 12.4005 36.3919 12.6188Q36.4466 12.8371 36.4905 13.0578Q36.5344 13.2785 36.5674 13.5011Q36.6005 13.7237 36.6225 13.9477Q36.6446 14.1716 36.6556 14.3964Q36.6667 14.6211 36.6667 14.8462Z"/>
</svg>
