<?xml version="1.0" encoding="utf-8" ?>
<svg xmlns="http://www.w3.org/2000/svg" xmlns:xlink="http://www.w3.org/1999/xlink" width="136" height="176">
	<rect fill="rgb(0,0,0)" fill-opacity="0" stroke="none" width="136" height="176"/>
	<path fill="none" stroke="rgb(255,0,0)" stroke-width="1" stroke-miterlimit="4" d="M85.8182 17.6L74.1818 30.6581L54.5455 38.6065L70.9091 40.3097L78.9091 48.8258L71.6364 63.0194L46.9091 56.2065L40.7273 66.4258L49.4545 91.4064L67.6364 94.2452L86.5455 81.7548L88.7273 64.1548L80.7273 56.2065L78.9091 77.2129L78.1818 62.4516L70.1818 65.2903L69.4545 82.3226L67.2727 66.4258L62.1818 66.4258L62.5455 78.9161L59.6364 65.2903L49.0909 60.7484L85.8182 17.6Z"/>
	<path fill="rgb(255,0,0)" stroke="none" d="M56.3636 64.1548L51.2727 70.9677L51.6364 88.5677L29.4545 103.897L40.3636 92.5419L35.6364 72.1032L44.3636 54.5032L56.3636 64.1548Z"/>
	<path fill="none" stroke="rgb(255,0,0)" stroke-width="1" stroke-miterlimit="4" d="M23.2727 34.6323L36.7273 37.471L47.6364 45.9871L23.2727 34.6323Z"/>
	<ellipse fill="rgb(255,0,0)" stroke="none" cx="63.527271" cy="53.354836" rx="6.7999992" ry="6.8000011"/>
	<path fill="none" stroke="rgb(0,100,0)" stroke-width="1" stroke-miterlimit="4" d="M116.727 75.5097L127.636 74.9419L122.909 63.5871L109.818 70.9677L93.0909 91.4064L89.0909 97.6516L89.0909 111.277L86.1818 119.794L87.6364 111.845L87.2727 97.0839L80.7273 101.058L81.8182 110.71L77.4546 101.626L71.6364 104.465L73.4545 109.006L77.8182 118.09L73.4545 112.981L69.4545 104.465L63.2727 107.303L66.1818 114.684L76 127.742L66.9091 118.09L60.7273 106.168L54.1818 108.439L62.5455 131.148L79.2727 146.477L94.5455 156.697L78.5455 147.045L61.8182 130.013L53.8182 111.277L44 112.413L47.2727 123.2L40 112.981L35.6364 114.684L20.7273 115.819L7.27273 127.174L18.1818 120.929L16.3636 133.419L23.6364 123.768L24.3636 132.284L33.0909 118.658L116.727 75.5097Z"/>
</svg>
