<?xml version="1.0" encoding="utf-8" ?>
<svg xmlns="http://www.w3.org/2000/svg" xmlns:xlink="http://www.w3.org/1999/xlink" width="136" height="176">
	<rect fill="rgb(0,0,0)" fill-opacity="0" stroke="none" width="136" height="176"/>
	<path fill="rgb(255,0,0)" stroke="none" d="M54.4 15.4L62.56 8.8L73.44 8.8L81.6 15.4L73.44 22L62.56 22L54.4 15.4Z"/>
	<path fill="rgb(255,0,0)" stroke="none" d="M54.4 34.4667L62.56 27.8667L73.44 27.8667L81.6 34.4667L73.44 41.0667L62.56 41.0667L54.4 34.4667Z"/>
	<path fill="rgb(255,0,0)" stroke="none" d="M54.4 53.5333L62.56 46.9333L73.44 46.9333L81.6 53.5333L73.44 60.1333L62.56 60.1333L54.4 53.5333Z"/>
	<rect fill="rgb(255,255,255)" stroke="none" x="62.560005" y="8.8000002" width="10.880005" height="44"/>
	<rect fill="none" stroke="rgb(255,0,0)" stroke-width="1" stroke-miterlimit="4" x="62.560005" y="8.8000002" width="10.880005" height="44"/>
	<path fill="none" stroke="rgb(255,0,0)" stroke-width="1" stroke-miterlimit="4" d="M54.4 34.4667L62.56 27.8667L73.44 27.8667L81.6 34.4667L73.44 41.0667L62.56 41.0667L54.4 34.4667Z"/>
	<path fill="rgb(0,0,139)" stroke="none" d="M13.6 71.72L21.76 65.12L32.64 65.12L40.8 71.72L32.64 78.32L21.76 78.32L13.6 71.72Z"/>
	<path fill="rgb(0,0,139)" stroke="none" d="M13.6 90.7867L21.76 84.1867L32.64 84.1867L40.8 90.7867L32.64 97.3867L21.76 97.3867L13.6 90.7867Z"/>
	<path fill="rgb(0,0,139)" stroke="none" d="M13.6 109.853L21.76 103.253L32.64 103.253L40.8 109.853L32.64 116.453L21.76 116.453L13.6 109.853Z"/>
	<rect fill="rgb(255,255,255)" stroke="none" x="21.759998" y="65.120003" width="10.880001" height="44"/>
	<rect fill="none" stroke="rgb(0,0,139)" stroke-width="1" stroke-miterlimit="4" x="21.759998" y="65.120003" width="10.880001" height="44"/>
	<path fill="none" stroke="rgb(0,0,139)" stroke-width="1" stroke-miterlimit="4" d="M13.6 90.7867L21.76 84.1867L32.64 84.1867L40.8 90.7867L32.64 97.3867L21.76 97.3867L13.6 90.7867Z"/>
	<path fill="rgb(0,0,139)" stroke="none" d="M54.4 71.72L62.56 65.12L73.44 65.12L81.6 71.72L73.44 78.32L62.56 78.32L54.4 71.72Z"/>
	<path fill="rgb(0,0,139)" stroke="none" d="M54.4 90.7867L62.56 84.1867L73.44 84.1867L81.6 90.7867L73.44 97.3867L62.56 97.3867L54.4 90.7867Z"/>
	<path fill="rgb(0,0,139)" stroke="none" d="M54.4 109.853L62.56 103.253L73.44 103.253L81.6 109.853L73.44 116.453L62.56 116.453L54.4 109.853Z"/>
	<rect fill="rgb(255,255,255)" stroke="none" x="62.560005" y="65.120003" width="10.880005" height="44"/>
	<rect fill="none" stroke="rgb(0,0,139)" stroke-width="1" stroke-miterlimit="4" x="62.560005" y="65.120003" width="10.880005" height="44"/>
	<path fill="none" stroke="rgb(0,0,139)" stroke-width="1" stroke-miterlimit="4" d="M54.4 90.7867L62.56 84.1867L73.44 84.1867L81.6 90.7867L73.44 97.3867L62.56 97.3867L54.4 90.7867Z"/>
	<path fill="rgb(0,0,139)" stroke="none" d="M95.2 71.72L103.36 65.12L114.24 65.12L122.4 71.72L114.24 78.32L103.36 78.32L95.2 71.72Z"/>
	<path fill="rgb(0,0,139)" stroke="none" d="M95.2 90.7867L103.36 84.1867L114.24 84.1867L122.4 90.7867L114.24 97.3867L103.36 97.3867L95.2 90.7867Z"/>
	<path fill="rgb(0,0,139)" stroke="none" d="M95.2 109.853L103.36 103.253L114.24 103.253L122.4 109.853L114.24 116.453L103.36 116.453L95.2 109.853Z"/>
	<rect fill="rgb(255,255,255)" stroke="none" x="103.36" y="65.120003" width="10.879997" height="44"/>
	<rect fill="none" stroke="rgb(0,0,139)" stroke-width="1" stroke-miterlimit="4" x="103.36" y="65.120003" width="10.879997" height="44"/>
	<path fill="none" stroke="rgb(0,0,139)" stroke-width="1" stroke-miterlimit="4" d="M95.2 90.7867L103.36 84.1867L114.24 84.1867L122.4 90.7867L114.24 97.3867L103.36 97.3867L95.2 90.7867Z"/>
	<path fill="rgb(0,0,139)" stroke="none" d="M13.6 129.8L21.76 123.2L32.64 123.2L40.8 129.8L32.64 136.4L21.76 136.4L13.6 129.8Z"/>
	<path fill="rgb(0,0,139)" stroke="none" d="M13.6 148.867L21.76 142.267L32.64 142.267L40.8 148.867L32.64 155.467L21.76 155.467L13.6 148.867Z"/>
	<path fill="rgb(0,0,139)" stroke="none" d="M13.6 167.933L21.76 161.333L32.64 161.333L40.8 167.933L32.64 174.533L21.76 174.533L13.6 167.933Z"/>
	<rect fill="rgb(255,255,255)" stroke="none" x="21.759998" y="123.2" width="10.880001" height="44"/>
	<rect fill="none" stroke="rgb(0,0,139)" stroke-width="1" stroke-miterlimit="4" x="21.759998" y="123.2" width="10.880001" height="44"/>
	<path fill="none" stroke="rgb(0,0,139)" stroke-width="1" stroke-miterlimit="4" d="M13.6 148.867L21.76 142.267L32.64 142.267L40.8 148.867L32.64 155.467L21.76 155.467L13.6 148.867Z"/>
	<path fill="rgb(0,0,139)" stroke="none" d="M54.4 129.8L62.56 123.2L73.44 123.2L81.6 129.8L73.44 136.4L62.56 136.4L54.4 129.8Z"/>
	<path fill="rgb(0,0,139)" stroke="none" d="M54.4 148.867L62.56 142.267L73.44 142.267L81.6 148.867L73.44 155.467L62.56 155.467L54.4 148.867Z"/>
	<path fill="rgb(0,0,139)" stroke="none" d="M54.4 167.933L62.56 161.333L73.44 161.333L81.6 167.933L73.44 174.533L62.56 174.533L54.4 167.933Z"/>
	<rect fill="rgb(255,255,255)" stroke="none" x="62.560005" y="123.2" width="10.880005" height="44"/>
	<rect fill="none" stroke="rgb(0,0,139)" stroke-width="1" stroke-miterlimit="4" x="62.560005" y="123.2" width="10.880005" height="44"/>
	<path fill="none" stroke="rgb(0,0,139)" stroke-width="1" stroke-miterlimit="4" d="M54.4 148.867L62.56 142.267L73.44 142.267L81.6 148.867L73.44 155.467L62.56 155.467L54.4 148.867Z"/>
	<path fill="rgb(0,0,139)" stroke="none" d="M95.2 129.8L103.36 123.2L114.24 123.2L122.4 129.8L114.24 136.4L103.36 136.4L95.2 129.8Z"/>
	<path fill="rgb(0,0,139)" stroke="none" d="M95.2 148.867L103.36 142.267L114.24 142.267L122.4 148.867L114.24 155.467L103.36 155.467L95.2 148.867Z"/>
	<path fill="rgb(0,0,139)" stroke="none" d="M95.2 167.933L103.36 161.333L114.24 161.333L122.4 167.933L114.24 174.533L103.36 174.533L95.2 167.933Z"/>
	<rect fill="rgb(255,255,255)" stroke="none" x="103.36" y="123.2" width="10.879997" height="44"/>
	<rect fill="none" stroke="rgb(0,0,139)" stroke-width="1" stroke-miterlimit="4" x="103.36" y="123.2" width="10.879997" height="44"/>
	<path fill="none" stroke="rgb(0,0,139)" stroke-width="1" stroke-miterlimit="4" d="M95.2 148.867L103.36 142.267L114.24 142.267L122.4 148.867L114.24 155.467L103.36 155.467L95.2 148.867Z"/>
</svg>
