<?xml version="1.0" encoding="utf-8" ?>
<svg xmlns="http://www.w3.org/2000/svg" xmlns:xlink="http://www.w3.org/1999/xlink" width="136" height="176">
	<rect fill="rgb(0,0,0)" fill-opacity="0" stroke="none" width="136" height="176"/>
	<path fill="none" stroke="rgb(255,0,0)" stroke-width="1" stroke-miterlimit="4" d="M60.8719 88.8302L60.8719 88.8302L67.6606 85.0943L70.6023 79.283L76.0333 85.9245L79.8802 86.7547L73.3178 94.6415L66.3028 99.6226L60.8719 100.453L60.6456 105.019L52.0466 102.528L51.3677 96.3019L46.6156 94.2264L46.8419 88.8302L46.8419 93.8113L51.3677 95.0566L51.594 103.358L41.1847 104.189L52.2729 103.358L60.8719 107.925L50.4626 113.321L59.9667 113.321L61.0982 118.302L55.2146 122.038L61.3245 123.283L65.624 127.019L64.0399 132.83L55.4409 132.83L41.8636 113.321L51.594 134.491L49.7837 139.887L36.4326 140.717L33.7171 136.566L26.4759 136.566L31.6805 136.981L33.2646 139.887L30.7754 144.453L16.7454 144.453L22.629 146.113L23.3078 150.679L23.9867 144.038L33.0383 147.358L32.5857 156.075L34.8486 148.604L45.4842 150.264L48.426 154.415L51.1414 154L52.2729 151.094L74.9018 151.094L75.5807 146.943L83.7271 145.283L85.0849 143.623L83.9534 157.736L75.1281 158.981L85.0849 160.642L87.3477 164.792L99.3411 163.132L108.393 151.509L93.9101 132.83L82.3694 131.585L80.5591 137.396L72.4126 136.981L69.6972 141.962L52.4992 140.302L59.7404 140.302L68.1131 128.679L77.1647 126.604L84.1797 120.377L83.0483 111.66L72.1864 107.925L65.3977 110.83L65.624 117.057L75.807 118.302L77.6173 123.283L67.208 126.189L65.624 118.717L66.5291 127.019L65.624 148.189L65.8503 126.604L63.3611 112.075L61.3245 100.453L69.9235 100.038L71.0549 106.264L71.2812 101.283L87.8003 99.6226L75.807 96.717L60.8719 88.8302Z"/>
	<path fill="rgb(255,0,0)" stroke="none" d="M87.1215 132.83L96.8519 141.132L100.473 151.925L92.5524 163.132L110.882 157.736L114.729 145.698L96.173 131.585L87.1215 132.83Z"/>
	<path fill="rgb(0,0,0)" stroke="none" d="M20.2408 70.566L33.8863 66.8302L48.8963 56.0377L52.7625 54.3774L52.99 43.5849L48.6689 39.8491L47.3043 32.7925L44.3478 24.0755L50.4883 26.9811L57.9933 28.6415L57.311 50.6415L86.4214 24.0755L111.438 25.3208L103.933 30.3019L87.3311 31.5472L64.1338 53.1321L71.6388 60.6038L78.4615 56.8679L95.7458 66.8302L88.6957 73.4717L69.3645 72.2264L57.0836 60.1887L46.8495 68.0755L35.2508 73.0566L28.2007 78.8679L20.2408 70.566Z"/>
	<path fill="none" stroke="rgb(0,0,0)" stroke-width="1" stroke-miterlimit="4" d="M20.2408 70.566L33.8863 66.8302L48.8963 56.0377L52.7625 54.3774L52.99 43.5849L48.6689 39.8491L47.3043 32.7925L44.3478 24.0755L50.4883 26.9811L57.9933 28.6415L57.311 50.6415L86.4214 24.0755L111.438 25.3208L103.933 30.3019L87.3311 31.5472L64.1338 53.1321L71.6388 60.6038L78.4615 56.8679L95.7458 66.8302L88.6957 73.4717L69.3645 72.2264L57.0836 60.1887L46.8495 68.0755L35.2508 73.0566L28.2007 78.8679L20.2408 70.566Z"/>
	<text fill="rgb(128,0,128)" stroke="none" font-size="70.400002" font-family="Tahoma" x="2" y="55">
			7
	</text>
</svg>
