<?xml version="1.0" encoding="utf-8" ?>
<svg xmlns="http://www.w3.org/2000/svg" xmlns:xlink="http://www.w3.org/1999/xlink" width="136" height="176">
	<rect fill="rgb(0,0,0)" fill-opacity="0" stroke="none" width="136" height="176"/>
	<path fill="rgb(0,0,0)" stroke="none" d="M20.1481 125.714L29.0774 121.943L53.8047 100.571L35.4882 82.9714L34.1145 65.7905L45.1044 65.3714L45.3333 68.7238L63.4209 57.4095L49.6835 55.3143L40.2963 48.1905L61.3603 45.6762L62.5051 24.3048L57.9259 23.0476L59.0707 18.8571L71.6633 18.019L77.1582 25.981L71.4343 32.2667L71.8923 41.4857L76.4714 41.0667L79.4478 36.8762L86.5455 37.2952L88.3771 43.1619L91.8114 44L89.064 49.4476L72.1212 51.1238L72.1212 57.8286L76.4714 60.7619L78.9899 56.1524L91.3535 56.1524L105.32 71.2381L101.886 86.3238L88.1481 97.6381L80.8215 93.0286L73.037 93.0286L71.4343 98.0571L81.5084 100.152L101.886 120.686L115.852 126.133L95.0168 129.905L88.1481 121.943L73.266 102.667L72.3502 141.219L63.4209 149.6L62.2761 140.381L46.7071 125.295L27.7037 128.648L20.1481 125.714Z"/>
	<path fill="rgb(255,255,255)" stroke="none" d="M49.4545 77.5238L53.5758 71.6571L62.5051 70.4L58.6128 77.9429L49.4545 77.5238Z"/>
	<path fill="rgb(255,255,255)" stroke="none" d="M72.3502 70.819L90.4377 71.2381L89.064 79.619L83.798 75.4286L72.3502 70.819Z"/>
	<path fill="rgb(255,255,255)" stroke="none" d="M72.5791 85.9048L87.4613 83.3905L86.0875 87.5809L74.1818 87.1619L72.5791 85.9048Z"/>
	<path fill="rgb(255,255,255)" stroke="none" d="M52.8889 83.8095L62.734 83.8095L62.5051 88L54.7205 88L52.8889 83.8095Z"/>
	<path fill="rgb(255,255,255)" stroke="none" d="M58.1549 94.2857L64.1077 92.1905L63.1919 96.381L59.7576 96.381L58.1549 94.2857Z"/>
	<path fill="rgb(255,255,255)" stroke="none" d="M48.0808 116.495L62.5051 107.695L62.5051 122.781L54.9495 124.876L48.0808 116.495Z"/>
	<text fill="rgb(0,0,255)" stroke="none" font-size="70.400002" font-family="Tahoma" x="2" y="55">
			E
	</text>
</svg>
