<?xml version="1.0" encoding="utf-8" ?>
<svg xmlns="http://www.w3.org/2000/svg" xmlns:xlink="http://www.w3.org/1999/xlink" width="136" height="176">
	<rect fill="rgb(0,0,0)" fill-opacity="0" stroke="none" width="136" height="176"/>
	<path fill="rgb(0,0,0)" stroke="none" d="M49.8286 22.7368L60.1143 24.8421L68.5714 34.1053L61.9429 39.1579L61.4857 50.5263L78.4 51.3684L78.4 60.2105L58.7429 60.2105L52.8 74.9474L57.6 80L59.2 76.6316L66.7429 73.6842L70.1714 66.1053L78.8571 72.8421L97.8286 74.5263L109.029 88.8421L100.114 130.105L87.5429 144.842L80.6857 134.316L66.5143 123.368L72.6857 122.105L88.2286 131.789L95.7714 102.316L87.0857 81.6842L74.2857 78.7368L70.8571 83.3684L68.8 84.6316L77.2571 88.8421L76.8 92.6316L65.6 93.0526L63.7714 100.211L81.1429 101.895L81.6 108.211L64.2286 110.316L65.3714 117.895L62.8571 131.789L58.9714 133.053L57.3714 113.263L44.5714 115.368L48.9143 109.053L57.6 102.316L56.9143 97.2632L45.7143 98.5263L51.2 93.8947L59.2 89.6842L62.6286 83.7895L61.2571 80.8421L57.1429 84.2105L48.9143 85.0526L42.5143 90.9474L37.9429 87.5789L33.8286 88L24.4571 93.4737L31.0857 104.842L36.1143 129.684L28.1143 136.421L19.4286 126.316L19.6571 99.3684L23.5429 94.7368L29.2571 85.8947L35.8857 73.6842L41.6 77.8947L49.1429 74.9474L49.1429 66.9474L34.0571 62.3158L35.8857 57.6842L52.5714 52.6316L53.0286 33.6842L50.2857 33.2632L49.8286 22.7368Z"/>
	<text fill="rgb(0,0,255)" stroke="none" font-size="70.400002" font-family="Tahoma" x="2" y="56">
			S
	</text>
</svg>
