<?xml version="1.0" encoding="utf-8" ?>
<svg xmlns="http://www.w3.org/2000/svg" xmlns:xlink="http://www.w3.org/1999/xlink" width="136" height="176">
	<rect fill="rgb(0,0,0)" fill-opacity="0" stroke="none" width="136" height="176"/>
	<path fill="rgb(0,0,0)" stroke="none" d="M16.0811 54.6062L63.1757 45.3652L83.8514 44.105L91.6622 36.9642L102.919 46.2052L114.176 49.9857L115.324 59.2267L93.5 59.6468L83.1622 70.148L81.7838 81.9093L101.311 87.3699L110.73 108.372L90.2838 128.955L78.1081 129.375L77.1892 118.874L58.1216 118.874L46.4054 130.215L19.9865 108.792L19.0676 97.8711L31.7027 96.611L42.7297 86.1098L38.3649 74.3484L32.6216 70.9881L41.5811 69.3079L47.3243 76.8687L53.7568 86.5298L63.4054 87.3699L62.9459 78.1289L66.3919 78.1289L68 84.0095L73.973 78.5489L68.2297 75.1885L67.7703 68.8878L73.2838 67.6277L73.7432 60.4869L67.0811 59.2267L70.0676 56.2864L80.6351 56.7064L83.8514 59.6468L91.4324 52.926L68.6892 51.2458L45.2568 55.4463L30.7838 59.2267L21.8243 64.6873L16.0811 54.6062Z"/>
	<path fill="rgb(255,255,255)" stroke="none" d="M34.2297 107.532L41.1216 95.7709L53.0676 113.413L40.2027 115.513L34.2297 107.532Z"/>
	<path fill="rgb(255,255,255)" stroke="none" d="M53.2973 93.6706L55.1351 102.072L58.1216 99.9714L57.8919 92.8306L53.2973 93.6706Z"/>
	<path fill="rgb(255,255,255)" stroke="none" d="M62.9459 94.0907L65.0135 110.893L72.8243 104.592L71.6757 92.4105L62.9459 94.0907Z"/>
	<path fill="rgb(255,255,255)" stroke="none" d="M82.7027 89.4702L82.2432 100.811L77.1892 108.372L96.9459 103.332L90.5135 93.2506L82.7027 89.4702Z"/>
	<text fill="rgb(0,0,255)" stroke="none" font-size="70.400002" font-family="Tahoma" x="2" y="55">
			W
	</text>
</svg>
