<?xml version="1.0" encoding="utf-8" ?>
<svg xmlns="http://www.w3.org/2000/svg" xmlns:xlink="http://www.w3.org/1999/xlink" width="136" height="176">
	<rect fill="rgb(0,0,0)" fill-opacity="0" stroke="none" width="136" height="176"/>
	<path fill="rgb(0,0,0)" stroke="none" d="M72.8081 105.349L73.266 112.874L89.7508 125.834L109.441 124.998L116.539 119.563L115.623 111.202L89.064 110.784L81.2795 105.767L82.1953 93.2257L90.4377 91.9715L116.31 82.7743L105.778 70.2328L93.4141 70.2328L91.8114 78.1758L83.569 83.6105L82.6532 71.0689L91.3535 61.8717L92.0404 51.8385L82.6532 51.8385L82.1953 46.4038L68.229 46.8219L68 54.3468L73.266 57.6912L72.5791 102.423L65.7104 102.841L62.0471 107.021L57.9259 105.349L57.0101 80.266L62.2761 78.1758L62.734 69.3967L52.8889 60.1995L48.5387 65.2161L38.9226 64.3801L38.9226 73.5772L46.7071 80.6841L43.7306 84.4466L21.7508 84.4466L19.9192 90.7173L27.0168 96.5701L38.4646 96.9881L41.899 92.3895L44.4175 85.2827L47.8519 83.1924L48.9966 107.857L43.2727 113.292L30.6801 116.637L24.0404 107.439L19.4613 119.563L14.6532 123.325L21.7508 130.432L33.4276 130.85L36.404 125.834L43.2727 126.252L48.0808 120.817L48.9966 130.014L53.3468 130.014L54.4916 122.071L58.6128 119.563L58.8418 111.62L72.8081 105.349Z"/>
	<text fill="rgb(0,0,255)" stroke="none" font-size="70.400002" font-family="Tahoma" x="2" y="55">
			N
	</text>
</svg>
