<?xml version="1.0" encoding="utf-8" ?>
<svg xmlns="http://www.w3.org/2000/svg" xmlns:xlink="http://www.w3.org/1999/xlink" width="136" height="176">
	<rect fill="rgb(0,0,0)" fill-opacity="0" stroke="none" width="136" height="176"/>
	<path fill="rgb(255,0,0)" stroke="none" d="M63.3143 51.1238L63.7714 151.695L72.6857 142.476L73.3714 44.4191L79.5429 36.0381L67.2 20.9524L62.4 26.819L53.2571 28.9143L62.6286 38.5524L63.3143 51.1238Z"/>
	<path fill="rgb(255,0,0)" stroke="none" d="M15.8246 58.6667L30.7319 84.2286L43.8044 98.4762L49.0793 85.0667L44.0337 76.6857L44.4924 71.2381L61.9224 66.6286L95.1771 60.3429L96.7825 72.4952L86.9207 83.3905L50.6847 84.2286L49.5379 86.7429L81.4165 89.2571L90.1315 97.6381L103.892 80.4571L109.855 84.2286L116.965 77.5238L116.277 62.0191L98.3879 49.4476L91.2782 55.3143L60.5464 57.4095L46.3272 64.5333L37.1535 69.9809L23.3929 55.7333L15.8246 58.6667Z"/>
</svg>
