<?xml version="1.0" encoding="utf-8" ?>
<svg xmlns="http://www.w3.org/2000/svg" xmlns:xlink="http://www.w3.org/1999/xlink" width="136" height="176">
	<rect fill="rgb(0,0,0)" fill-opacity="0" stroke="none" width="136" height="176"/>
	<path fill="rgb(0,128,0)" stroke="none" d="M41.0952 50.5843L52.6745 38.0428L59.9399 49.3302L40.6411 76.0855L57.8965 76.5036L61.7563 69.8147L66.7513 75.2494L67.4324 96.9881L45.6361 96.9881L41.7763 103.677L70.1569 104.095L72.2003 93.6437L77.4224 89.4632L76.5142 81.1021L72.6544 78.5938L71.9733 70.2328L76.0601 66.8884L66.9783 63.5439L66.9783 56.019L61.0751 56.019L62.2104 46.4038L70.611 43.4774L76.2871 40.9691L79.6928 31.772L86.9583 40.5511L100.808 48.4941L81.9633 61.8717L91.0451 68.1425L101.262 81.9382L115.112 82.7743L121.242 91.1354L108.755 93.6437L98.9917 99.0784L94.6778 88.209L84.9149 74.8314L82.8715 89.8812L91.7262 98.2423L79.9199 116.637L91.9533 126.252L101.262 128.76L103.76 142.556L91.2721 142.974L75.1519 124.162L69.2487 127.506L60.621 133.359L55.172 132.105L57.2154 125.416L68.5676 115.8L74.6978 114.128L74.4708 102.005L72.6544 111.62L62.6644 112.456L56.9883 118.309L46.0901 132.523L43.8197 138.793L26.3372 137.957L47.4524 119.563L48.8147 110.366L45.8631 110.366L37.4624 120.399L27.2454 114.128L34.0568 102.423L29.2888 97.4062L40.187 96.152L43.5927 88.209L60.1669 87.3729L54.7179 83.6105L36.3272 84.8646L18.1636 102.841L19.5259 88.209L32.9215 78.1758L33.3756 66.0523L28.8347 55.6009L35.6461 53.9287L39.7329 61.8717L50.177 53.9287L41.0952 50.5843Z"/>
</svg>
