<?xml version="1.0" encoding="utf-8" ?>
<svg xmlns="http://www.w3.org/2000/svg" xmlns:xlink="http://www.w3.org/1999/xlink" width="136" height="176">
	<rect fill="rgb(0,0,0)" fill-opacity="0" stroke="none" width="136" height="176"/>
	<path fill="none" stroke="rgb(0,0,0)" stroke-width="1" stroke-miterlimit="4" d="M35.4013 124.294L28.026 131.751L32.4512 147.164L68.1475 160.09L107.679 134.734L90.8633 79.0508L109.744 67.1186L116.824 31.8192L95.5835 18.3955L74.0477 18.3955L73.7527 22.8701L65.4924 22.8701L64.6074 18.8927L71.6876 18.8927L49.5618 14.4181L42.7766 11.9322L42.7766 22.8701L51.9219 24.8588L47.7918 30.8249L30.0911 29.3333L23.3059 20.3842L27.141 29.8305L48.3818 31.8192L41.5965 35.7966L59.0022 32.3164L69.6226 35.2994L91.1584 32.3164L100.894 41.7627L90.8633 55.6836L75.8178 60.1582L71.0976 54.6893L66.6724 54.6893L55.757 58.6667L69.0325 57.6723L70.2126 60.6554L53.102 62.1469L42.7766 71.5932L46.3167 85.017L71.9827 108.384L85.8482 118.328L85.2581 125.288L93.5184 134.734L82.603 123.299L66.9675 125.288L59.8872 125.288L57.5271 120.814L46.9067 125.785L52.2169 124.294L54.872 137.718L69.3276 131.254L77.2928 133.74L76.9978 142.192L58.1171 147.661L37.1714 134.237L35.4013 124.294Z"/>
	<path fill="rgb(255,255,255)" stroke="none" d="M90.1573 81.192L67.8472 75.6447L47.6764 80.6877L44.6202 98.3381L32.0899 86.7393L33.3124 81.192L26.2831 78.6705L15.2809 79.1748L22.6157 82.7049L12.2247 87.7478L23.8382 93.7994L37.8966 107.92L48.5933 110.441L53.1775 113.971L54.7056 92.7908L70.5978 91.7822L90.1573 81.192Z"/>
	<path fill="none" stroke="rgb(0,0,0)" stroke-width="1" stroke-miterlimit="4" d="M90.1573 81.192L67.8472 75.6447L47.6764 80.6877L44.6202 98.3381L32.0899 86.7393L33.3124 81.192L26.2831 78.6705L15.2809 79.1748L22.6157 82.7049L12.2247 87.7478L23.8382 93.7994L37.8966 107.92L48.5933 110.441L53.1775 113.971L54.7056 92.7908L70.5978 91.7822L90.1573 81.192Z"/>
</svg>
