<?xml version="1.0" encoding="utf-8" ?>
<svg xmlns="http://www.w3.org/2000/svg" xmlns:xlink="http://www.w3.org/1999/xlink" width="136" height="176">
	<rect fill="rgb(0,0,0)" fill-opacity="0" stroke="none" width="136" height="176"/>
	<path fill="rgb(0,128,0)" stroke="none" d="M111.386 131.34Q111.33 132.399 111.212 133.425Q111.094 134.451 110.913 135.443Q110.731 136.435 110.488 137.391Q110.244 138.347 109.938 139.265Q109.632 140.184 109.264 141.064Q108.896 141.945 108.467 142.785Q108.038 143.625 107.548 144.424Q107.059 145.222 106.509 145.979Q105.96 146.735 105.351 147.447Q104.743 148.16 104.077 148.827Q103.41 149.495 102.687 150.117Q101.963 150.739 101.184 151.314Q100.405 151.889 99.571 152.416Q98.7371 152.943 97.8497 153.422Q96.9624 153.901 96.0231 154.331Q95.0837 154.76 94.0938 155.14L68 118L111.386 131.34Z"/>
	<path fill="rgb(0,128,0)" stroke="none" d="M95.2587 154.294Q94.5917 155.118 93.8929 155.878Q93.1941 156.639 92.4645 157.335Q91.735 158.031 90.9758 158.661Q90.2166 159.291 89.4289 159.855Q88.6412 160.418 87.8263 160.914Q87.0113 161.41 86.1704 161.837Q85.3295 162.265 84.4639 162.623Q83.5982 162.981 82.7092 163.27Q81.8202 163.559 80.9092 163.778Q79.9983 163.997 79.0667 164.145Q78.1351 164.294 77.1844 164.372Q76.2336 164.449 75.2652 164.457Q74.2968 164.464 73.3122 164.4Q72.3276 164.337 71.3283 164.202Q70.329 164.068 69.3165 163.864Q68.3041 163.659 67.2801 163.384L68 118L95.2587 154.294Z"/>
	<path fill="rgb(0,128,0)" stroke="none" d="M68.7199 163.384Q67.6959 163.659 66.6835 163.864Q65.6711 164.068 64.6718 164.202Q63.6725 164.337 62.6879 164.4Q61.7033 164.464 60.7348 164.457Q59.7664 164.449 58.8157 164.372Q57.865 164.294 56.9334 164.145Q56.0018 163.997 55.0908 163.778Q54.1798 163.559 53.2908 163.27Q52.4018 162.981 51.5362 162.623Q50.6706 162.265 49.8296 161.837Q48.9887 161.41 48.1738 160.914Q47.3589 160.418 46.5712 159.855Q45.7835 159.291 45.0243 158.661Q44.2651 158.031 43.5355 157.335Q42.8059 156.639 42.1071 155.878Q41.4083 155.118 40.7414 154.294L68 118L68.7199 163.384Z"/>
	<path fill="rgb(0,128,0)" stroke="none" d="M41.9062 155.14Q40.9163 154.76 39.977 154.331Q39.0376 153.901 38.1503 153.422Q37.263 152.943 36.4291 152.416Q35.5951 151.889 34.8159 151.314Q34.0366 150.739 33.3132 150.117Q32.5898 149.495 31.9234 148.827Q31.257 148.16 30.6486 147.447Q30.0403 146.735 29.4908 145.979Q28.9414 145.222 28.4518 144.424Q27.9621 143.625 27.5331 142.785Q27.104 141.945 26.7362 141.064Q26.3683 140.184 26.0622 139.265Q25.7562 138.347 25.5124 137.391Q25.2686 136.435 25.0874 135.443Q24.9062 134.451 24.7879 133.425Q24.6697 132.399 24.6145 131.34L68 118L41.9062 155.14Z"/>
	<path fill="rgb(0,128,0)" stroke="none" d="M25.0594 132.709Q24.4817 131.82 23.9743 130.921Q23.4668 130.021 23.0304 129.112Q22.594 128.203 22.2293 127.286Q21.8646 126.37 21.5721 125.446Q21.2796 124.523 21.0599 123.595Q20.8402 122.667 20.6935 121.735Q20.5468 120.803 20.4734 119.869Q20.4 118.935 20.4 118Q20.4 117.065 20.4734 116.131Q20.5468 115.197 20.6935 114.265Q20.8402 113.334 21.0599 112.405Q21.2797 111.477 21.5721 110.554Q21.8646 109.631 22.2293 108.714Q22.594 107.797 23.0304 106.888Q23.4668 105.979 23.9743 105.079Q24.4817 104.18 25.0594 103.291L68 118L25.0594 132.709Z"/>
	<path fill="rgb(0,128,0)" stroke="none" d="M24.6145 104.66Q24.6697 103.601 24.7879 102.575Q24.9062 101.549 25.0874 100.557Q25.2685 99.5655 25.5123 98.6094Q25.7562 97.6534 26.0622 96.7346Q26.3683 95.8157 26.7361 94.9356Q27.104 94.0555 27.5331 93.2154Q27.9621 92.3753 28.4518 91.5765Q28.9414 90.7777 29.4908 90.0215Q30.0402 89.2652 30.6486 88.5527Q31.257 87.8403 31.9234 87.1726Q32.5898 86.5049 33.3132 85.8831Q34.0366 85.2612 34.8158 84.6862Q35.5951 84.1112 36.429 83.5839Q37.263 83.0566 38.1503 82.5778Q39.0376 82.099 39.977 81.6694Q40.9163 81.2398 41.9062 80.8602L68 118L24.6145 104.66Z"/>
	<path fill="rgb(0,128,0)" stroke="none" d="M40.7413 81.7065Q41.4083 80.8824 42.1071 80.1217Q42.8059 79.3611 43.5355 78.6652Q44.2651 77.9693 45.0243 77.3391Q45.7835 76.7089 46.5711 76.1455Q47.3588 75.5821 48.1737 75.0862Q48.9887 74.5904 49.8296 74.1629Q50.6705 73.7355 51.5362 73.377Q52.4018 73.0186 53.2908 72.7298Q54.1798 72.4409 55.0908 72.2221Q56.0018 72.0033 56.9333 71.8548Q57.8649 71.7063 58.8157 71.6285Q59.7664 71.5506 60.7348 71.5434Q61.7032 71.5363 62.6878 71.5998Q63.6725 71.6634 64.6718 71.7976Q65.6711 71.9318 66.6835 72.1364Q67.6959 72.341 68.7199 72.6157L68 118L40.7413 81.7065Z"/>
	<path fill="rgb(0,128,0)" stroke="none" d="M67.2801 72.6157Q68.3041 72.341 69.3165 72.1364Q70.3289 71.9318 71.3282 71.7976Q72.3275 71.6634 73.3121 71.5998Q74.2967 71.5363 75.2652 71.5434Q76.2336 71.5506 77.1843 71.6285Q78.135 71.7063 79.0666 71.8548Q79.9982 72.0033 80.9092 72.2221Q81.8202 72.4409 82.7092 72.7298Q83.5982 73.0186 84.4638 73.377Q85.3294 73.7355 86.1704 74.1629Q87.0113 74.5904 87.8262 75.0862Q88.6412 75.582 89.4288 76.1455Q90.2165 76.7089 90.9757 77.3391Q91.7349 77.9693 92.4645 78.6652Q93.1941 79.3611 93.8929 80.1217Q94.5917 80.8824 95.2586 81.7065L68 118L67.2801 72.6157Z"/>
	<path fill="rgb(0,128,0)" stroke="none" d="M94.0938 80.8602Q95.0837 81.2398 96.023 81.6694Q96.9624 82.0989 97.8497 82.5777Q98.737 83.0566 99.5709 83.5839Q100.405 84.1112 101.184 84.6862Q101.963 85.2612 102.687 85.883Q103.41 86.5049 104.077 87.1725Q104.743 87.8402 105.351 88.5527Q105.96 89.2652 106.509 90.0214Q107.059 90.7777 107.548 91.5764Q108.038 92.3752 108.467 93.2153Q108.896 94.0554 109.264 94.9356Q109.632 95.8157 109.938 96.7345Q110.244 97.6533 110.488 98.6094Q110.731 99.5655 110.913 100.557Q111.094 101.549 111.212 102.575Q111.33 103.601 111.385 104.66L68 118L94.0938 80.8602Z"/>
	<path fill="rgb(0,128,0)" stroke="none" d="M110.941 103.291Q111.518 104.18 112.026 105.079Q112.533 105.979 112.97 106.888Q113.406 107.797 113.771 108.714Q114.135 109.63 114.428 110.554Q114.72 111.477 114.94 112.405Q115.16 113.333 115.307 114.265Q115.453 115.197 115.527 116.131Q115.6 117.065 115.6 118Q115.6 118.935 115.527 119.869Q115.453 120.803 115.307 121.735Q115.16 122.666 114.94 123.595Q114.72 124.523 114.428 125.446Q114.135 126.369 113.771 127.286Q113.406 128.203 112.97 129.112Q112.533 130.021 112.026 130.921Q111.518 131.82 110.941 132.709L68 118L110.941 103.291Z"/>
	<path fill="rgb(0,128,0)" stroke="none" d="M111.385 131.34Q111.33 132.399 111.212 133.425Q111.094 134.451 110.913 135.443Q110.731 136.435 110.488 137.391Q110.244 138.347 109.938 139.265Q109.632 140.184 109.264 141.064Q108.896 141.945 108.467 142.785Q108.038 143.625 107.548 144.424Q107.059 145.222 106.509 145.979Q105.96 146.735 105.351 147.447Q104.743 148.16 104.077 148.827Q103.41 149.495 102.687 150.117Q101.963 150.739 101.184 151.314Q100.405 151.889 99.571 152.416Q98.737 152.943 97.8497 153.422Q96.9624 153.901 96.0231 154.331Q95.0837 154.76 94.0938 155.14L68 118L111.385 131.34Z"/>
	<path fill="none" stroke="rgb(255,255,255)" stroke-width="1" stroke-miterlimit="4" d="M95.2587 154.293Q94.5917 155.118 93.8929 155.878Q93.1941 156.639 92.4645 157.335Q91.735 158.031 90.9758 158.661Q90.2166 159.291 89.4289 159.855Q88.6412 160.418 87.8263 160.914Q87.0113 161.41 86.1704 161.837Q85.3295 162.265 84.4639 162.623Q83.5982 162.981 82.7092 163.27Q81.8202 163.559 80.9093 163.778Q79.9983 163.997 79.0667 164.145Q78.1351 164.294 77.1844 164.372Q76.2336 164.449 75.2652 164.457Q74.2968 164.464 73.3122 164.4Q72.3276 164.337 71.3283 164.202Q70.329 164.068 69.3165 163.864Q68.3041 163.659 67.2801 163.384L68 118L95.2587 154.293Z"/>
	<path fill="none" stroke="rgb(255,255,255)" stroke-width="1" stroke-miterlimit="4" d="M68.7199 163.384Q67.6959 163.659 66.6835 163.864Q65.6711 164.068 64.6718 164.202Q63.6725 164.337 62.6879 164.4Q61.7033 164.464 60.7349 164.457Q59.7664 164.449 58.8157 164.372Q57.865 164.294 56.9334 164.145Q56.0018 163.997 55.0908 163.778Q54.1798 163.559 53.2908 163.27Q52.4019 162.981 51.5362 162.623Q50.6706 162.265 49.8297 161.837Q48.9887 161.41 48.1738 160.914Q47.3589 160.418 46.5712 159.855Q45.7835 159.291 45.0243 158.661Q44.2651 158.031 43.5355 157.335Q42.806 156.639 42.1072 155.878Q41.4084 155.118 40.7414 154.294L68 118L68.7199 163.384Z"/>
	<path fill="none" stroke="rgb(255,255,255)" stroke-width="1" stroke-miterlimit="4" d="M41.9062 155.14Q40.9163 154.76 39.977 154.331Q39.0377 153.901 38.1503 153.422Q37.263 152.943 36.4291 152.416Q35.5951 151.889 34.8159 151.314Q34.0366 150.739 33.3132 150.117Q32.5899 149.495 31.9235 148.827Q31.2571 148.16 30.6487 147.447Q30.0403 146.735 29.4909 145.979Q28.9414 145.222 28.4518 144.424Q27.9622 143.625 27.5331 142.785Q27.104 141.945 26.7362 141.064Q26.3683 140.184 26.0623 139.265Q25.7562 138.347 25.5124 137.391Q25.2686 136.435 25.0874 135.443Q24.9062 134.451 24.788 133.425Q24.6697 132.399 24.6145 131.34L68 118L41.9062 155.14Z"/>
	<path fill="none" stroke="rgb(255,255,255)" stroke-width="1" stroke-miterlimit="4" d="M25.0595 132.709Q24.4818 131.82 23.9743 130.921Q23.4669 130.021 23.0304 129.112Q22.594 128.203 22.2293 127.286Q21.8646 126.37 21.5721 125.446Q21.2797 124.523 21.0599 123.595Q20.8402 122.667 20.6935 121.735Q20.5469 120.803 20.4735 119.869Q20.4001 118.935 20.4001 118Q20.4001 117.065 20.4735 116.131Q20.5469 115.197 20.6935 114.265Q20.8402 113.334 21.0599 112.405Q21.2797 111.477 21.5721 110.554Q21.8646 109.631 22.2293 108.714Q22.594 107.797 23.0304 106.888Q23.4669 105.979 23.9743 105.079Q24.4818 104.18 25.0595 103.291L68 118L25.0595 132.709Z"/>
	<path fill="none" stroke="rgb(255,255,255)" stroke-width="1" stroke-miterlimit="4" d="M24.6145 104.66Q24.6697 103.601 24.788 102.575Q24.9062 101.549 25.0874 100.557Q25.2686 99.5655 25.5124 98.6095Q25.7562 97.6534 26.0622 96.7346Q26.3683 95.8158 26.7362 94.9356Q27.104 94.0555 27.5331 93.2154Q27.9622 92.3753 28.4518 91.5765Q28.9414 90.7777 29.4908 90.0215Q30.0403 89.2653 30.6486 88.5528Q31.257 87.8403 31.9234 87.1726Q32.5898 86.5049 33.3132 85.8831Q34.0366 85.2613 34.8159 84.6862Q35.5951 84.1112 36.4291 83.5839Q37.263 83.0566 38.1503 82.5778Q39.0376 82.099 39.977 81.6694Q40.9163 81.2399 41.9062 80.8602L68 118L24.6145 104.66Z"/>
	<path fill="none" stroke="rgb(255,255,255)" stroke-width="1" stroke-miterlimit="4" d="M40.7414 81.7065Q41.4083 80.8824 42.1071 80.1218Q42.8059 79.3612 43.5355 78.6652Q44.2651 77.9693 45.0243 77.3391Q45.7835 76.709 46.5712 76.1455Q47.3588 75.5821 48.1738 75.0863Q48.9887 74.5904 49.8296 74.163Q50.6706 73.7355 51.5362 73.3771Q52.4018 73.0186 53.2908 72.7298Q54.1798 72.4409 55.0908 72.2221Q56.0018 72.0033 56.9333 71.8548Q57.8649 71.7064 58.8157 71.6285Q59.7664 71.5506 60.7348 71.5434Q61.7032 71.5363 62.6878 71.5999Q63.6725 71.6634 64.6718 71.7976Q65.6711 71.9318 66.6835 72.1364Q67.6959 72.341 68.7199 72.6157L68 118L40.7414 81.7065Z"/>
	<path fill="none" stroke="rgb(255,255,255)" stroke-width="1" stroke-miterlimit="4" d="M67.2801 72.6157Q68.3041 72.341 69.3165 72.1364Q70.3289 71.9318 71.3282 71.7976Q72.3275 71.6634 73.3121 71.5999Q74.2967 71.5363 75.2652 71.5434Q76.2336 71.5506 77.1843 71.6285Q78.135 71.7064 79.0666 71.8548Q79.9982 72.0033 80.9092 72.2221Q81.8202 72.4409 82.7092 72.7298Q83.5982 73.0186 84.4638 73.377Q85.3294 73.7355 86.1704 74.1629Q87.0113 74.5904 87.8262 75.0862Q88.6412 75.5821 89.4288 76.1455Q90.2165 76.7089 90.9757 77.3391Q91.7349 77.9693 92.4645 78.6652Q93.1941 79.3611 93.8929 80.1217Q94.5917 80.8824 95.2586 81.7065L68 118L67.2801 72.6157Z"/>
	<path fill="none" stroke="rgb(255,255,255)" stroke-width="1" stroke-miterlimit="4" d="M94.0938 80.8602Q95.0837 81.2398 96.023 81.6694Q96.9623 82.0989 97.8497 82.5778Q98.737 83.0566 99.5709 83.5839Q100.405 84.1112 101.184 84.6862Q101.963 85.2612 102.687 85.883Q103.41 86.5049 104.077 87.1726Q104.743 87.8402 105.351 88.5527Q105.96 89.2652 106.509 90.0214Q107.059 90.7777 107.548 91.5764Q108.038 92.3752 108.467 93.2153Q108.896 94.0554 109.264 94.9356Q109.632 95.8157 109.938 96.7345Q110.244 97.6533 110.488 98.6094Q110.731 99.5655 110.913 100.557Q111.094 101.549 111.212 102.575Q111.33 103.601 111.385 104.66L68 118L94.0938 80.8602Z"/>
	<path fill="none" stroke="rgb(255,255,255)" stroke-width="1" stroke-miterlimit="4" d="M110.941 103.291Q111.518 104.18 112.026 105.079Q112.533 105.979 112.97 106.888Q113.406 107.797 113.771 108.714Q114.135 109.63 114.428 110.554Q114.72 111.477 114.94 112.405Q115.16 113.333 115.306 114.265Q115.453 115.197 115.527 116.131Q115.6 117.065 115.6 118Q115.6 118.935 115.527 119.869Q115.453 120.803 115.306 121.735Q115.16 122.667 114.94 123.595Q114.72 124.523 114.428 125.446Q114.135 126.369 113.771 127.286Q113.406 128.203 112.97 129.112Q112.533 130.021 112.026 130.921Q111.518 131.82 110.941 132.709L68 118L110.941 103.291Z"/>
	<path fill="none" stroke="rgb(255,255,255)" stroke-width="1" stroke-miterlimit="4" d="M111.385 131.34Q111.33 132.399 111.212 133.425Q111.094 134.451 110.913 135.443Q110.731 136.435 110.488 137.391Q110.244 138.347 109.938 139.265Q109.632 140.184 109.264 141.064Q108.896 141.945 108.467 142.785Q108.038 143.625 107.548 144.424Q107.059 145.222 106.509 145.979Q105.96 146.735 105.351 147.447Q104.743 148.16 104.077 148.827Q103.41 149.495 102.687 150.117Q101.963 150.739 101.184 151.314Q100.405 151.889 99.571 152.416Q98.737 152.943 97.8497 153.422Q96.9624 153.901 96.023 154.331Q95.0837 154.76 94.0938 155.14L68 118L111.385 131.34Z"/>
	<path fill="none" stroke="rgb(255,255,255)" stroke-width="1" stroke-miterlimit="4" d="M95.2586 154.293Q94.5917 155.118 93.8929 155.878Q93.1941 156.639 92.4645 157.335Q91.7349 158.031 90.9757 158.661Q90.2165 159.291 89.4289 159.854Q88.6412 160.418 87.8262 160.914Q87.0113 161.41 86.1704 161.837Q85.3295 162.265 84.4638 162.623Q83.5982 162.981 82.7092 163.27Q81.8202 163.559 80.9092 163.778Q79.9983 163.997 79.0667 164.145Q78.1351 164.294 77.1844 164.372Q76.2336 164.449 75.2652 164.457Q74.2968 164.464 73.3122 164.4Q72.3276 164.337 71.3283 164.202Q70.329 164.068 69.3165 163.864Q68.3041 163.659 67.2801 163.384L68 118L95.2586 154.293Z"/>
	<ellipse fill="rgb(0,128,0)" stroke="none" cx="68" cy="118" rx="23.800001" ry="23.799999"/>
	<ellipse fill="none" stroke="rgb(255,255,255)" stroke-width="1" stroke-miterlimit="4" cx="68" cy="118" rx="23.800001" ry="23.799999"/>
	<text fill="rgb(0,0,0)" stroke="none" font-size="44" font-family="Tahoma" x="28.615234" y="36">
			SPR
	</text>
</svg>
