<?xml version="1.0" encoding="utf-8" ?>
<svg xmlns="http://www.w3.org/2000/svg" xmlns:xlink="http://www.w3.org/1999/xlink" width="136" height="176">
	<rect fill="rgb(0,0,0)" fill-opacity="0" stroke="none" width="136" height="176"/>
	<path fill="rgb(50,205,50)" stroke="none" d="M32.0539 82.7991L17.8586 64.0756L30.6801 68.6525L32.9697 56.1702L40.5253 57.4184L48.9966 74.0615L76.7003 50.7612L88.6061 57.8345L87.2323 68.6525L90.4377 89.0402L106.923 98.1939L90.6667 104.019L87.4613 128.151L114.02 114.421L113.791 150.619L29.7643 148.955L38.9226 141.882L19.2323 136.057L47.3939 130.648L18.5455 115.253L36.862 99.8582L17.6296 87.3759L32.0539 82.7991Z"/>
	<path fill="rgb(255,255,0)" stroke="none" d="M49.6835 82.5524L37.5488 82.5524L36.862 74.5905L27.7037 75.8476L25.4141 85.4857L30.2222 91.7714L26.5589 103.924L32.2828 105.181L39.6094 95.9619L51.5152 96.381L43.5017 103.505L40.0673 110.21L45.5623 123.2L84.2559 122.362L99.8249 107.276L89.064 95.1238L70.9764 92.6095L81.9663 85.9048L94.33 90.9333L100.512 95.5429L99.596 82.9714L95.0168 79.619L97.7643 69.1429L83.3401 69.1429L82.6532 76.6857L73.9529 82.1333L71.2054 78.3619L75.0976 54.8952L69.6027 49.0286L65.2525 56.1524L45.7912 51.5429L48.5387 62.8571L42.8148 63.6952L49.6835 82.5524Z"/>
	<path fill="rgb(218,165,32)" stroke="none" d="M64.1077 76.2667L49.9125 81.7143L49.2256 92.1905L60.6734 101.829L74.4108 101.41L73.4949 84.2286L64.1077 76.2667Z"/>
</svg>
