<?xml version="1.0" encoding="utf-8" ?>
<svg xmlns="http://www.w3.org/2000/svg" xmlns:xlink="http://www.w3.org/1999/xlink" width="136" height="176">
	<rect fill="rgb(0,0,0)" fill-opacity="0" stroke="none" width="136" height="176"/>
	<path fill="rgb(0,128,0)" stroke="none" d="M28.4007 150.369L82.6621 152.505L102.289 137.553L77.5823 139.689L72.9643 70.9126L90.5127 70.9126L113.141 89.7087L115.912 76.466L107.599 64.0777L84.0475 61.0874L96.9779 46.5631L84.0475 36.3107L79.6604 40.1553L72.0407 32.0388L66.961 43.1456L68.1154 53.3981L33.0187 43.5728L40.6384 61.5146L54.2615 84.5825L30.2479 82.4466L23.3209 88.4272L22.3973 107.65L46.18 115.34L41.1002 128.583L27.9389 130.291L28.4007 150.369Z"/>
	<path fill="rgb(250,128,114)" stroke="none" d="M37.0909 81.561L53.187 95.2976L42.6895 100.02L32.6587 109.463L35.9245 126.634L61.3516 134.361L70.9159 133.502L80.0137 144.234L87.4786 136.078L87.2453 128.78L96.343 126.634L114.305 105.171L102.875 93.1512L95.41 97.8732L69.9828 75.9805L62.7513 77.2683L58.319 68.6829L52.2539 78.5561L37.0909 81.561Z"/>
	<path fill="rgb(250,128,114)" stroke="none" d="M64.6175 43.7854L61.5849 42.9268L62.0515 32.6244L71.6158 31.3366L70.6827 34.7707L66.717 35.2L64.6175 43.7854Z"/>
	<path fill="rgb(250,128,114)" stroke="none" d="M86.0789 32.1951L86.0789 38.6341L90.0446 40.7805L92.6106 37.7756L92.3774 33.4829L89.8113 31.7659L86.0789 32.1951Z"/>
	<path fill="rgb(255,0,0)" stroke="none" d="M69.7436 94.439L71.6034 102.595L60.6769 105.171L68.5812 112.039L73.6957 121.483L61.1419 125.776L61.8393 132.644L71.8359 133.502L82.7624 116.761L76.0205 111.18L84.6222 97.8732L94.8513 100.449L91.1316 117.19L99.5009 121.483L110.427 104.312L103.453 93.1512L88.1094 89.2878L92.0615 84.9951L91.1316 75.9805L84.1573 72.9756L84.8547 83.278L69.7436 94.439Z"/>
	<path fill="rgb(0,128,0)" stroke="none" d="M65.3265 93.5805L60.9094 97.8732L65.559 100.449L67.4188 97.4439L65.3265 93.5805Z"/>
</svg>
