<?xml version="1.0" encoding="utf-8" ?>
<svg xmlns="http://www.w3.org/2000/svg" xmlns:xlink="http://www.w3.org/1999/xlink" width="136" height="176">
	<rect fill="rgb(0,0,0)" fill-opacity="0" stroke="none" width="136" height="176"/>
	<path fill="rgb(0,128,0)" stroke="none" d="M29.1757 146.806L40.4324 143.469L44.7973 139.299L38.8243 137.63L38.3649 120.114L51.6892 130.957L52.8378 112.607L58.8108 113.441L59.2703 120.114L66.8513 120.948L68.2297 127.621L62.9459 131.791L68.4595 133.46L68.9189 138.464L61.5676 139.299L62.027 144.303L68.9189 143.469L70.2973 147.64L82.473 134.711L76.7297 131.791L79.027 120.114L92.1216 119.28L92.5811 137.63L97.8649 137.63L96.9459 129.706L110.041 118.445L116.243 123.45L108.203 134.711L117.851 145.972L110.73 153.479L99.473 142.218L96.4865 144.303L97.4054 151.81L91.6622 151.81L90.7432 137.213L76.0405 152.227L58.1216 153.062L57.8919 143.469L60.6486 143.052L59.5 138.464L57.8919 137.63L57.2027 129.706L55.1351 131.791L45.7162 139.299L47.3243 142.635L39.0541 150.976L30.3243 150.976L29.1757 146.806Z"/>
	<path fill="rgb(70,130,180)" stroke="none" d="M42.1441 116.914L47.6114 113.143L46.2446 103.924L40.0938 108.533L36.4489 114.819L32.1206 110.21L38.2714 104.343L33.943 100.99L33.943 93.4476L39.1826 90.0952L33.7152 86.7429L35.9933 83.3905L41.6884 81.7143L42.5997 75.4286L39.6382 67.4667L33.2596 62.0191L34.6265 56.1524L44.6499 56.1524L44.8777 60.3429L48.067 54.4762L43.7387 44L38.727 32.2667L45.3333 33.1048L45.3333 39.3905L47.8392 38.9714L48.7504 29.3333L55.129 31.4286L54.9012 39.3905L57.6348 41.9048L58.3183 49.8667L54.4456 55.7333L53.7621 67.0476L51.7119 72.4952L43.9665 75.0095L44.1943 76.6857L56.7236 77.1048L57.1792 81.7143L45.3333 81.7143L42.5997 87.1619L44.6499 93.0286L50.3451 89.2571L56.7236 85.9048L62.6466 85.9048L67.4305 80.4571L66.0637 64.1143L58.3183 62.4381L58.3183 56.1524L64.9246 56.9905L67.2027 58.2476L64.0134 51.5429L69.0251 48.6095L69.2529 43.1619L72.2144 48.1905L77.6817 50.7048L72.2144 55.7333L72.4422 60.7619L82.9213 64.9524L81.3266 71.2381L75.8593 69.1429L71.531 69.1429L72.4422 73.3333L76.9983 76.6857L76.3149 80.4571L72.8978 82.1333L78.593 82.1333L78.593 88.8381L72.2144 92.1905L71.9866 97.2191L65.8358 92.6095L53.7621 91.3524L47.8392 95.9619L51.7119 100.152L60.1407 97.6381L69.2529 101.41L72.8978 105.6L64.9246 107.695L60.1407 116.495L42.1441 116.914Z"/>
</svg>
