<?xml version="1.0" encoding="utf-8"?>
<!-- Generator: Adobe Illustrator 24.3.0, SVG Export Plug-In . SVG Version: 6.00 Build 0)  -->
<svg version="1.1" id="Layer_1" xmlns="http://www.w3.org/2000/svg" xmlns:xlink="http://www.w3.org/1999/xlink" x="0px" y="0px"
	 viewBox="0 0 1417.3 1417.3" style="enable-background:new 0 0 1417.3 1417.3;" xml:space="preserve">
<g>
	<g>
		<path d="M1316,708.7c0-335.4-271.9-607.3-607.3-607.3c-170.6,0-324.8,70.4-435.1,183.6l0,0c0,0,0,0,0,0
			c-5.1,5.2-10.1,10.5-15,15.9c0,0,0,0,0,0c-3.3,3.7-6.6,7.4-9.8,11.1c-0.2,0.2-0.4,0.5-0.6,0.7c-3.1,3.6-6.1,7.2-9.1,10.8
			c-0.1,0.1-0.1,0.1-0.2,0.2c-6.3,7.7-12.4,15.5-18.4,23.5c0,0,0,0,0,0c-21.1,28.4-39.7,58.7-55.6,90.6c0,0.1-0.1,0.2-0.1,0.3
			c0,0,0,0,0,0c-6.8,13.7-13.1,27.6-18.9,41.9c0,0,0,0,0,0c-0.3,0.6-0.5,1.2-0.8,1.9c0,0,0,0,0,0c-1.2,3-2.4,6.1-3.6,9.2
			c0,0,0,0,0,0c-0.1,0.3-0.2,0.6-0.4,1c-1.4,3.7-2.8,7.4-4.1,11.1c0,0,0,0,0,0c-0.2,0.4-0.3,0.8-0.4,1.3c-1.9,5.2-3.6,10.5-5.4,15.7
			c0,0,0,0,0,0c-1.6,4.8-3.1,9.6-4.5,14.4c0,0,0,0,0,0c-0.5,1.6-1,3.2-1.4,4.8c0,0,0,0,0,0c-0.7,2.5-1.4,5-2.1,7.6c0,0,0,0,0,0
			c-0.5,1.9-1,3.8-1.5,5.7c0,0,0,0,0,0c-1.8,6.7-3.5,13.5-5,20.3c0,0,0,0,0,0c-0.2,1-0.4,2-0.7,3c-1.1,5-2.2,9.9-3.1,15c0,0,0,0,0,0
			c-0.5,2.7-1.1,5.4-1.5,8.1c0,0,0,0,0,0c-0.4,2-0.7,4-1.1,6c0,0,0,0,0,0c-0.5,2.6-0.9,5.3-1.3,7.9c0,0,0,0,0,0
			c-0.7,4.2-1.3,8.3-1.8,12.5c-0.1,0.7-0.2,1.4-0.3,2.1c0,0,0,0,0,0c-0.2,1.7-0.5,3.4-0.7,5.1v0c-0.6,4.5-1.1,9.1-1.6,13.6
			c0,0,0,0,0,0c-0.1,0.9-0.2,1.8-0.2,2.7c0,0,0,0,0,0c-0.3,2.9-0.5,5.7-0.8,8.6c-0.2,2.6-0.4,5.2-0.6,7.7v0
			c-0.2,3.2-0.4,6.3-0.6,9.5c0,0,0,0,0,0c-0.1,1.7-0.2,3.4-0.3,5.2c0,0,0,0,0,0c-0.2,3.3-0.3,6.6-0.4,9.9c0,0,0,0,0,0
			c-0.2,6.3-0.3,12.6-0.3,18.9c0,335.4,271.9,607.3,607.3,607.3c5.2,0,10.4-0.1,15.6-0.2c0,0,0,0,0,0c2-0.1,4.1-0.2,6.1-0.2
			c0.2,0,0.4,0,0.5,0c3-0.1,6-0.2,8.9-0.3c0,0,0,0,0,0c2.4-0.1,4.8-0.3,7.2-0.5c0,0,0.1,0,0.1,0c2.7-0.2,5.4-0.3,8.1-0.5
			c0,0,0,0,0,0c2.7-0.2,5.3-0.5,7.9-0.7c0,0,0,0,0,0c2.4-0.2,4.9-0.4,7.3-0.7c0,0,0,0,0,0c2.8-0.3,5.5-0.6,8.3-0.9
			c0.1,0,0.2,0,0.2,0c1.6-0.2,3.3-0.4,4.9-0.6c3.7-0.5,7.3-1,11-1.5c0,0,0.1,0,0.1,0c0.8-0.1,1.5-0.2,2.3-0.3
			c4.4-0.6,8.8-1.4,13.2-2.1c0,0,0,0,0,0c0.6-0.1,1.2-0.2,1.7-0.3c4.6-0.8,9.2-1.6,13.7-2.5c0,0,0.1,0,0.1,0c0.7-0.1,1.3-0.3,2-0.4
			c9.4-1.9,18.7-4,28-6.3c0,0,0.1,0,0.1,0c0.7-0.2,1.4-0.3,2.1-0.5c4.3-1.1,8.5-2.2,12.8-3.4c0,0,0,0,0.1,0c0.5-0.1,1-0.3,1.5-0.4
			c4.8-1.3,9.6-2.8,14.4-4.2c0.6-0.2,1.1-0.3,1.7-0.5c0,0,0,0,0,0c3.9-1.2,7.8-2.5,11.7-3.8c0,0,0,0,0,0c0.7-0.2,1.4-0.5,2.1-0.7
			c4.4-1.5,8.8-3,13.1-4.6c0.4-0.1,0.8-0.3,1.2-0.4c0,0,0,0,0,0c4.4-1.6,8.7-3.2,13-4.9c0.3-0.1,0.5-0.2,0.8-0.3c0,0,0,0,0,0
			c4.1-1.6,8.3-3.3,12.4-5c0,0,0,0,0,0c0.4-0.2,0.8-0.3,1.2-0.5c0,0,0,0,0,0c4.2-1.8,8.3-3.6,12.5-5.4c0,0,0,0,0,0
			c0.3-0.1,0.7-0.3,1-0.4c0,0,0,0,0,0c4.3-1.9,8.5-3.9,12.7-5.9c0,0,0,0,0,0c0,0,0.1,0,0.1-0.1c8.9-4.3,17.7-8.7,26.3-13.4
			c0,0,0,0,0,0c0.1,0,0.1-0.1,0.2-0.1c0,0,0,0,0,0c6-3.3,12-6.6,17.8-10.1c0.9-0.5,1.8-1.1,2.8-1.6c11.7-6.9,23.1-14.2,34.3-21.9
			c0.8-0.5,1.6-1.1,2.4-1.7c9.3-6.5,18.4-13.2,27.3-20.2c0.1,0,0.1,0,0.2,0c1.1-0.9,2.2-1.8,3.3-2.7c0.6-0.5,1.3-1,2-1.5
			c0.7-0.6,1.4-1.1,2.1-1.7c0.9-0.7,1.7-1.5,2.6-2.2c3.5-2.8,6.9-5.7,10.3-8.6c1.7-1.5,3.5-3,5.2-4.5c3.3-2.9,6.5-5.8,9.8-8.7
			c1-1,2.1-1.9,3.2-2.8c0.6-0.6,1.2-1.1,1.8-1.7c0.4-0.4,0.9-0.9,1.3-1.3c2.1-2,4.2-4,6.3-6c2.1-2,4.2-4.1,6.3-6.1
			c1.2-1.2,2.4-2.3,3.6-3.5c0,0,0,0,0-0.1C1248.6,1026.8,1316,875.6,1316,708.7z M237.4,371c11.8-15,22.7-31.1,36.5-44.2
			c0.1,0.7,0.3,1.4,0.3,2.2c2.1,19.2,8.5,38.4-9.6,46.9c-18.1,8.5-26.6,24.5-29.8-1.1c0-0.2-0.1-0.5-0.1-0.7
			C235.7,373.1,236.6,372.1,237.4,371z M214.3,430.6c2.2-5.9,6.1-11,9.9-15.9c2.5-3.3,5.3-6.7,9.2-8.2c2.6-1,5.5-0.9,8.2-0.9
			c1.9,0,3.9,0.1,5.6,1c2.4,1.3,3.5,4.1,4.2,6.7c2.3,8.9,1.2,18.4-0.8,27.4c-0.9,4.2-2,8.4-3.7,12.4c-3.1,7.2-11.7,20.1-20.5,21.2
			c-12.3,1.5-14.6-13.6-14.7-22.4C211.8,444.7,211.9,437.3,214.3,430.6z M212.4,621.2c1.4-3.1,3.2-6.3,6.3-7.7
			c4.7-2.2,10.4,0.9,13.1,5.2c4.6,7.2,4.5,17.1,6.9,25.2c2,6.7,6.7,13.1,8,19.9c3.1,16.3-11.6,25.8-26.2,22.2
			c-3.4-0.8-6.8-2.2-9.2-4.7c-3.4-3.5-4.3-8.7-4.9-13.5C204.8,651.9,206,635.6,212.4,621.2z M212.3,516.6c1.6-3.4,3.6-6.8,6.5-9.2
			c2.9-2.5,6.8-3.9,10.5-3.1c6.9,1.6,9.8,9.6,10.9,16.6c0.9,5.6,1.3,11.3,1.3,17l0.4-14.7c1.8,10.2,1,20.6,0.2,30.9
			c-0.6,7.1-1.4,14.9-6.3,20.1c-6.1,6.5-17.9,6.3-23.7-0.4c-2.9-3.3-4.2-7.6-5.2-11.9C203.7,546.8,205.6,530.6,212.3,516.6z
			 M205.5,416.2c-1.1,7.2-7.8,35.3-16.8,35.9c-1,0.1-1.7-0.2-2.2-0.6C192.4,439.6,198.8,427.8,205.5,416.2z M156.5,539.7
			c1.3-7.9,3.3-15.7,5.9-23.3c2.4-7.1,5.9-14.7,12.7-17.8c3.2-1.5,7.7-1.6,9.8,1.3c1.3,1.7,1.4,4,1.5,6.2
			c0.2,9.6,5.3,64.7-15.5,54.8c-3.7-1.8-6-5.5-9.1-8.2c-1.8-1.6-4-3.1-5-5.3C155.7,544.9,156,542.2,156.5,539.7z M159.3,650.3
			c-5-14-6.5-30.6,1.4-43.2c0.7-1.2,1.6-2.3,2.7-3.1c0.9-0.6,2.1-1,3.2-1.1c13.1-2.1,12.1,40.4,13.2,49.1c0.3,2.6,0.6,5.5-0.6,7.8
			c-2.2,4.2-8.4,4.6-12.3,2.1C163,659.3,160.9,654.8,159.3,650.3z M172.7,755c-6.4-12.4-8.3-27.1-5.1-40.6c0.6-2.4,1.3-4.9,2.9-6.8
			c10-12.1,14.9,19.4,17.4,24.7c3.5,7.3,8.7,19.6,4.7,27.7C186.8,771.8,176.8,763.1,172.7,755z M223.3,853.7
			c-6.2,23.5-32.6-13.3-34.9-21.8c-1.9-6.9-1.6-14.1-1.3-21.3c0.2-4.3,1.4-9.7,5.6-10.3c3.4-0.5,6.1,2.8,7.9,5.8
			c5.6,9.2,9.7,19.1,14.8,28.6C217.9,839.6,224.9,847.6,223.3,853.7z M226,771.1c-8.6-9.5-9.2-23.7-8.1-36.5
			c0.4-4.6,1.2-9.7,4.7-12.7c4.4-3.7,11.3-2.5,15.8,1.1c4.4,3.6,7,9,9.4,14.2c3.4,7.4,6.1,16.4,10.6,23c3.3,4.8,8.5,6.7,7.8,13.9
			c-0.5,4.9-4.3,9.3-9.1,10.6c-5.4,1.4-11-1-16-3.4C235.5,778.5,230,775.5,226,771.1z M316.6,602.3c-1.7,2.6-3.5,5.2-5.9,7.1
			c-6,4.8-14.5,4.4-22.1,3.8c-5.6-0.5-11.6-1.1-16-4.6c-3.6-2.9-5.6-7.2-7-11.6c-4.5-14.1-3.9-29.3-3-44.1
			c0.5-7.6,1.2-15.6,5.6-21.9c15.8-22.4,41.5,12.2,45.3,27.1c1.2,4.8,1.7,9.8,3.9,14.3c1.7,3.4,4.3,6.4,5.3,10.1
			C324.7,589.3,320.6,596.3,316.6,602.3z M334.6,696.5c2.3,9.9-1.2,21.9-10.5,26c-4.9,2.2-10.6,1.8-15.8,0.8
			c-6.5-1.3-12.8-3.7-18.6-6.9c-5.1-2.9-10-6.6-13.2-11.6c-2.2-3.4-3.6-7.3-4.9-11.2c-2.6-7.6-5.1-15.6-4.3-23.6
			c1.2-12,13.6-28.1,27.4-26c9.9,1.5,18.7,19.4,24.6,26.6C325.7,678.4,332.3,686.6,334.6,696.5z M274.4,945.6
			c-8.8,1.7-18.1-1.8-24.8-7.8c-6.7-6-11.1-14.1-14.3-22.5c-1.6-4.3-3-8.9-3-13.5c0-4.6,1.3-9.4,4.5-12.8c9.3,9.3,16.9,19.7,25.1,30
			C263.5,921,282.8,944,274.4,945.6z M283.1,861c-0.7,1.9-1.9,3.7-3.7,4.6c-1.2,0.6-2.6,0.6-3.9,0.6c-10.2-0.2-19.7-6.5-24.8-15.3
			c-5.1-8.8-6-19.7-3.6-29.6c0.8-3.5,2.1-7,4-10.1c0.5-0.7,1-1.5,1.8-1.8c4.7-2.1,15.3,19.2,18.7,23.4
			C277.7,840.7,287.1,850,283.1,861z M290.5,752.4c0.3-1,0.6-2,1.2-2.8c0.8-1,2-1.5,3.2-1.8c19.6-5.4,37.2,34.1,44.6,47.2
			c1.9,3.3,3.7,6.7,4.5,10.4c1.1,4.8,0.4,9.7-0.3,14.5c-0.3,1.9-0.6,3.9-1.8,5.3c-0.9,1.1-2.2,1.7-3.6,2.3c-7,2.8-15.1,2.8-22.2,0
			c-11.7-4.6-19.4-16-23.6-27.8C287.2,784.6,286.4,767.9,290.5,752.4z M337.6,1016.7c-3,0-5.9-1.1-8.6-2.4
			c-9.6-4.4-18.7-10.4-25.2-18.7c-6.5-8.3-10.1-19.3-8-29.7c0.3-1.3,0.7-2.7,1.7-3.6c1.8-1.7,4.7-1.2,6.6,0.3c1.9,1.5,3,3.7,4.3,5.8
			c6.7,10.9,18,18.8,27.2,27.5C340.3,1000.3,354.2,1016.6,337.6,1016.7z M352.1,918.9c-0.2,1.7-0.7,3.4-1.8,4.8
			c-0.8,1-1.8,1.8-2.9,2.5c-7,4.4-16.2,4.3-23.8,1.1c-7.6-3.2-13.8-9.2-18.5-16c-5.2-7.4-9-16-10-25c-1-9,0.7-18.4,5.7-26
			c1.4-2.1,3.7-4.4,6.2-3.8c1.6,0.4,2.7,1.7,3.6,3c8.9,11.5,17.4,23.4,26.8,34.5C343.9,901.7,353.7,907.3,352.1,918.9z M369.4,807.4
			c4.6-5,12.3-7.6,18.5-4.9c2.7,1.2,5,3.3,7.1,5.4c17,17.4,27.2,40.2,37.1,62.4c1,2.3,2.1,4.8,1.6,7.3c-0.4,2-1.9,3.7-3.3,5.2
			c-5.7,6-12.7,11.3-20.8,13c-15.7,3.3-31.6-8.1-38.8-22.5C362.7,857.2,355.7,822.5,369.4,807.4z M376.5,932.3
			c1.8-3.7,4.8-7.2,8.9-8c5.3-0.9,10,3.1,13.7,6.9c14.5,14.5,38.6,35,42.7,56.2c0.4,2.3,0.6,5-0.8,6.9c-0.8,1.1-1.9,1.8-3.1,2.4
			c-12.5,6.3-27.9,0.6-39.3-7.6c-9-6.5-17.1-14.6-21.7-24.7C372.4,954.4,371.6,942.2,376.5,932.3z M431.4,1166.7
			c-6.8-2-13.4-7-18.8-11.6c-3.6-3.1-7.1-6.8-8-11.4c-0.2-1-0.2-2.2,0.6-2.9c0.5-0.4,1.1-0.5,1.8-0.6c4.1-0.3,7.9,2,11.1,4.5
			C424,1149.1,436.6,1158.1,431.4,1166.7z M443.1,1086c-1.3,2.5-4.1,3.9-6.9,4.6c-6.5,1.7-13.6,0.3-19.7-2.5
			c-6.1-2.9-11.4-7.2-16.4-11.7c-5.3-4.8-10.3-10-13.6-16.3c-3.3-6.3-4.6-13.9-2.2-20.6c0.4-1.1,0.9-2.1,1.8-2.9
			c1.6-1.4,4-1.3,6.1-0.8c6.3,1.4,11.7,5.5,16.8,9.4c9.1,7,18.2,14.2,26.6,22c-0.4-0.7-0.7-1.4-1-2.2l8.1,9.2
			c-2.3-2.5-4.7-4.8-7.1-7.1c1.5,2.8,3.7,5.1,5.5,7.7C443.3,1078.2,444.9,1082.5,443.1,1086z M453.2,923.4
			c-2.7-8.2-2.8-17.1-2.8-25.7c0-7.5,0.3-15.9,5.5-21.3c2.6-2.6,6-4.2,9.4-5.4c21.7-8.1,27.7,5.1,40.4,19.3
			c12.4,13.9,34.3,31,32.5,51.8c-1,11.5-10.9,21.6-22.4,22.8c-7.1,0.7-14.2-1.6-20.8-4.3C477.1,953.3,459.3,941.7,453.2,923.4z
			 M472.5,997.6c0.8-1.6,1.7-3.3,3.2-4.3c4.2-2.8,9.7,0.5,13.6,3.7c12,9.9,23.5,21.1,36.8,29.2c7.8,4.8,17,7.8,19.2,17.7
			c8,35-47.6,18.7-61.2,6.2C470,1037,464.2,1014.9,472.5,997.6z M533.2,1225.1c-7.2-4.1-14.2-8.5-21.1-13.2
			c-2.7-1.9-5.5-3.8-7.2-6.6c-1.7-2.8-2.1-6.7-0.1-9.3c5-6.3,31.9,13.6,35.6,16.7C551.1,1221.7,548.1,1233.6,533.2,1225.1z
			 M529.9,1149.5c-10.5-1.9-21.1-4.8-29.7-11.1c-8.6-6.3-14.9-16.5-14.2-27.2c0.2-3.1,1.1-6.3,3.6-8.2c2.8-2.1,6.8-1.9,10-0.4
			c3.2,1.5,5.7,4,8.3,6.4c6,5.6,12.7,10.9,19.9,14.8c4.6,2.5,11.6,3.1,15.7,5.9C557.1,1139.3,542.2,1151.7,529.9,1149.5z
			 M574.6,1083.1c-2.1-9.5,2.1-21.1,11.4-24.2c6.3-2.1,13.3,0.1,19.5,2.5c12.9,5.1,25.3,11.6,37,19.2c5.1,3.4,10.2,7,13.8,12
			c10.3,14.1,0.2,27.5-15.2,30.5c-5.5,1.1-11.2,0.5-16.7-0.3c-7.9-1.2-15.9-3-22.8-7.1c-4-2.4-7.6-5.5-11-8.7
			C583.5,1100.4,576.7,1092.7,574.6,1083.1z M591.3,1164.3c0.1-3.2,0.9-6.7,3.5-8.8c2.8-2.3,7-2.1,10.3-0.7c3.3,1.4,6.1,3.8,9.2,5.8
			c11.8,7.7,53.3,13.3,45.5,35.4c-0.6,1.6-1.4,3.1-2.7,4.1c-1.2,1-2.7,1.4-4.2,1.9c-13.5,3.8-28.6,3.3-40.9-3.4
			C599.6,1191.8,590.7,1178.3,591.3,1164.3z M662,1261.7c-0.9,1-2.2,1.4-3.5,1.7c-11.1,2.7-25.7,1.5-36.1-3.7
			c-5.9-3-17.2-16.7-5.6-20.7c2.9-1,6.1,0.1,9,1.2c9.9,3.8,19.8,7.7,29.8,11.5c2.2,0.8,4.5,1.8,6,3.5
			C663.1,1257.1,663.6,1260,662,1261.7z M723.3,1280.7c-5.6-6-6.7-16,1.7-17c9.5-1.1,24.4,5.6,33.8,7.7c1.6,0.4,3.4,0.8,4.3,2.2
			C769.6,1283.2,731.3,1289.3,723.3,1280.7z M736.7,1234.6c-13.1,2-32.7-12.7-29.3-26.8c0.6-2.7,1.4-5.4,2.2-8
			c0.4-1.3,0.9-2.8,2.1-3.4c0.8-0.4,1.7-0.4,2.6-0.4c17.3,0.1,34.6,4.8,49.7,13.4c1.7,1,3.4,2.1,4.2,3.8
			C775.3,1228.1,745.5,1233.3,736.7,1234.6z M770.2,1150.9c-5.8,10.8-19.6,13.8-31.8,14.7c-14.1,1.1-29.8,0.6-40.4-8.8
			c-7.6-6.7-11.4-17.6-9.5-27.6c8.8-47.3,65.8-9.4,81,12.1c0.9,1.3,1.8,2.7,2,4.2C771.7,1147.3,771.1,1149.2,770.2,1150.9z
			 M834,1274.4c-0.2,1-1.1,1.6-2,2.1c-0.8,0.4-1.5,0.9-2.3,1.3c-5,1.1-10,2-15.1,3c-0.5-0.1-1.1-0.1-1.6-0.3
			c-0.9-0.2-1.7-0.5-2.3-1.2c-1.8-2,0.6-5,2.8-6.5c2.9-1.9,6.2-3.5,9.6-3.9c3.5-0.4,7.2,0.4,9.7,2.9
			C833.5,1272.6,834.2,1273.5,834,1274.4z M860,1245.5c-1,0.7-2.2,1-3.4,1.2c-18.4,4.1-49.8,7.5-52.5-19.4c-0.2-1.9-0.1-3.9,0.8-5.5
			c1.7-3,5.6-3.7,9-3.9c15.6-0.9,31.4,2.9,44.8,10.9c1.2,0.7,2.3,1.4,3.1,2.6c0.9,1.4,1,3.1,1.1,4.7
			C863,1239.5,862.8,1243.6,860,1245.5z M841.5,1191.7c-3.7,0.9-7.5,0.9-11.3,0.9c-4.5-0.1-9-0.2-13.4-0.5c-2.5-0.2-5-0.4-7.2-1.5
			c-2.1-1.1-3.8-2.9-5.4-4.7c-5.2-6.1-9.7-13.4-9.8-21.5c-0.1-8.7,5.5-17.3,13.5-20.6c3.5-1.5,7.3-2,11.1-2.1
			c15.4-0.6,35.7,6,43.4,20.6C869.4,1175.4,853.6,1188.7,841.5,1191.7z M919.1,1248.7c-10.6,3.1-36.9-2.5-29.9-18.7
			c2.8-6.5,11.2-8.2,18.3-8.7c7.5-0.5,15.1-0.7,22.4,0.8C949.3,1226.2,929.2,1245.8,919.1,1248.7z M945.7,1185.4
			c-4.2,16.1-37.4,23-50.6,17.2c-7.2-3.2-12.2-10.9-12.2-18.9c0-7.9,5.1-15.6,12.3-18.8c2.7-1.2,5.6-1.8,8.5-2.1
			C916.6,1161.2,951,1165.3,945.7,1185.4z M980.6,1221.8c-2.5,2.3-5.6,5.1-8.8,3.9c-2.9-1.2-3.4-5.1-2.9-8.2
			c0.7-4.2,2.6-8.2,5.4-11.5c1.1-1.2,2.3-2.5,2.5-4.1c0.3-2.6-2.4-4.5-5-5.2c-2.5-0.6-5.3-0.5-7.6-1.8c-4.2-2.5-4.5-8.6-2.8-13.2
			c0.9-2.3,2.2-4.6,4.2-6c3.1-2.3,7.2-2.5,11-2.6c5.2-0.1,10.3-0.3,15.5-0.4c5.1-0.1,10.9,0,14.3,3.8c0.4,0.5,0.8,1,0.7,1.6
			c0,0.6-0.4,1-0.8,1.4c-4,4.5-17.2,9.8-17.3,15.3c4.3,1.1,9.5-0.5,14.1-0.8c5.6-0.3,11.6,0.4,16.1,3.8
			C1007.9,1207.7,991.8,1211.5,980.6,1221.8z M1120,1120c-1.5,1.5-3,2.9-4.5,4.4c-2.9-0.5-5.8-0.8-8.7-1.2c-1.7-0.2-3.4-0.5-4.7-1.5
			c-5.3-4.4,3.6-13.6,0.1-19.6c-12.9,0.3-25.9,0.6-38.8,0.9c-1.4,0-2.8,0-3.9-0.8c-2.2-1.6-1.3-5-1.3-7.8c0.2-7.5-7.5-13.2-15-13.9
			c-7.5-0.7-14.8,2-22.1,3.9c-7.3,1.9-15.5,2.8-21.9-1.1c-7.7-4.7-10.4-14.9-17.4-20.6c-8.6-7.1-21.1-5.8-31.9-3.2
			c-10.8,2.6-22.2,6.3-32.7,2.8c-18.6-6.2-24.6-30.7-41.8-40.1c-15.9-8.7-35.5-1.6-52.2,5.5c-6.3,2.7-12.7,5.4-17.6,10.1
			c-6.1,5.8-11.2,17.4-0.1,19.2c10,1.7,24.3-3.4,34.8-3.4c7.2,0,14.7,0.5,20.7,4.4c4.8,3.1,8,8,11.7,12.3
			c9.1,10.5,22.8,18.2,36.6,15.9c4.3-0.7,8.5-2.4,12.8-3.1c6.1-1.1,12.4-0.4,18.5,0.3c7.8,0.9,16.1,2,22,7.1c2.4,2,4.2,4.6,6.6,6.5
			c7,5.5,16.7,4.5,25.6,4.6c21,0.3,41.8,8.7,57.1,23.2c-1.1,2.8,0,6.4,2.6,8.1c7.2-5.1,19.3-3.4,22.4,4.8c2.8,7.4-2.3,15.1-6.9,21.5
			c-2.1,2.9-4.1,6.1-5.4,9.5c-1.4,1.1-2.7,2.1-4,3.2c-4.3,0.5-8.1,0.5-11.4,0c-21.3-3.2-19.2,0-27.7-13.9
			c-8.5-13.9-21.3,4.3-38.4-6.4c-17.1-10.7-4.3-37.3-17.1-29.8c-12.8,7.5-53.3,34.1-64,20.3c-10.7-13.9-14.9-34.1-34.1-30.9
			c-19.2,3.2-59.7,17.1-69.3-1.1c-9.6-18.1-13.9-29.8-38.4-29.8c-24.5,0-49,11.7-68.2-14.9c-19.2-26.6-19.2-38.4-54.4-37.3
			c-35.2,1.1-73.5-14.9-82.1-45.8c-8.5-30.9,3.2-49,23.4-46.9c20.3,2.1,30.9,18.1,42.6,22.4c11.7,4.3,19.2,24.5,27.7,35.2
			c8.5,10.7,30.9,22.4,33-1.1c2.1-23.4,2.1-27.7-7.5-42.6c-9.6-14.9-5.3-34.1-32-35.2c-26.6-1.1-49,7.5-60.8,1.1
			c-11.7-6.4-21.3-29.8-28.8-44.8c-7.5-14.9-27.7-26.6-50.1-26.6c-22.4,0-33,1.1-45.8-21.3c-12.8-22.4-17.1-49-29.8-51.2
			c-12.8-2.1-28.8,13.9-45.8,1.1c-17.1-12.8-42.6-38.4-36.2-56.5c6.4-18.1,30.9-25.6,23.4-46.9c-7.5-21.3-30.9-29.8-32-48
			c-1.1-18.1-5.3-21.3,0-36.2c5.3-14.9,20.3-20.3,14.9-43.7c-5.3-23.4-26.6-27.7-24.5-40.5c2.1-12.8,3.2-13.9,18.1-41.6
			c14.9-27.7,4.3-53.3-5.3-60.8c-9.6-7.5-13.9-12.8-24.5,3.2c-10.7,16-10.7,16-2.1,27.7c8.5,11.7,19.2,22.4,10.7,43.7
			s-17.1,33-28.8,32c-11.7-1.1-52.2-29.8-28.8-61.8c23.4-32,21.3-43.7,17.1-53.3c-4.3-9.6-9.6-13.9,3.2-35.2
			c12.8-21.3,19.2-25.6,17.1-40.5c-2-14.2,6.5-10.1-6.5-17c109.8-109.7,255.8-170.1,411.1-170.1c155.4,0,301.5,60.5,411.4,170.4
			c109.9,109.9,170.4,256,170.4,411.4c0,1.5,0,2.9-0.1,4.4c-0.8-0.4-1.5-0.8-2.3-1.1c-1.1-0.4-2.3-0.9-3.4-0.5
			c-2,0.7-2.4,3.3-2.4,5.4c0,2.3-0.1,4.5-0.1,6.8c0,0.7,0,1.4,0.5,1.9c0.3,0.4,0.9,0.5,1.4,0.6c2,0.4,4,0.7,6.1,0.8
			c-2.9,94-28,184.1-72.7,264.4c-1.3,0.3-2.5,0.8-3.5,1.6c-1.5,1.2-2.5,2.8-4.2,3.7c-1,0.6-2.2,0.8-2.9,1.7c-1.4,1.5-0.7,4.1,1,5.2
			c0.6,0.5,1.3,0.7,2.1,0.9c-10.5,17.8-22.1,35.1-34.6,51.8c-0.7-6.5-4.1-11.5-11.7-11.8c-3.7-0.1-6.9,2.1-9.9,4.2
			c-6.7,4.8-13.4,9.5-20.1,14.3c-2,1.4-4.2,3.3-3.8,5.7c0.3,1.8,2,3,3.8,3.5c3.4,0.9,6.9-0.2,10.3-1c3.4-0.8,7.3-1,10,1.3
			c2,1.8,2.6,4.4,3,7.2C1145.2,1093.6,1133,1107.1,1120,1120z M340.4,308.4c-5.9,3.7-9.1,11.4-7.5,18.2c0.8,3.4,2.6,6.4,3.9,9.6
			c3.3,8,3.7,16.8,3.9,25.4c3.8,1.3,7.5-2.1,10.2-5.2c7.2-8.4,23.9-20.7,17.7-32.3C364,315.3,350.9,301.9,340.4,308.4z M428.4,363.2
			c1.9,5.1,0.1,14,5.6,17c2.9,1.6,6.6,0.5,9.2-1.4c8.2-5.9,9.3-17.5,8.9-27.6c-0.2-5.1-0.6-10.3-3.1-14.7c-2.6-4.6-7.3-7.7-12.4-9.1
			c-13.4-3.7-36.1,2-23,18.2C418.5,351.6,425.6,355.6,428.4,363.2z M392.5,240.1c-0.7-2.2-1.7-4.4-3.6-5.6
			c-11.1-6.7-31.2,16.2-20.4,27.5C384.3,278.4,397.6,255.5,392.5,240.1z M397.3,456.9c9.1,5.9,17.8,14.7,20.7,25.4
			c1.7,6.5,1.5,14.1,6.2,18.9c0.4,0.4,0.9,0.9,1.5,1c1,0.2,1.8-0.5,2.6-1.1c5.7-5.2,8.2-12.9,10-20.3c1.7-6.9,3.1-13.9,2.7-20.9
			c-0.4-7.1-2.8-14.2-7.7-19.3c-9.3-9.6-25.2-9.3-37.3-3.8C381.7,443.2,388.1,450.9,397.3,456.9z M413.9,545.4
			c-20.4-4.4-53.6,21.6-19.5,27c8.2,1.3,16.1,5.8,20.6,12.8c7,10.7,5.3,25,10.1,36.8c1.3,3.3,4.3,7,7.8,6c2.2-0.6,3.4-2.8,4.4-4.9
			c6.6-14.1,10.2-30.1,6.8-45.3C440.5,562.6,429.1,548.6,413.9,545.4z M440.7,673.9c-5.8-6.3-12.6-12.6-21-14.1
			c-6.9-1.3-13.9,0.7-20.4,3c-8.7,3.1-18.1,7.8-21.1,16.6c-0.7,2.1-1,4.5,0,6.6c2,4,7.3,4.4,11.7,4.9c9.5,1.3,18.7,6.3,23.9,14.4
			c5.3,8.2,6,18.5,5.7,28.2c-0.2,6.9-0.4,16.8,6.2,21.1c5.9,3.8,14.7,1.7,18.8-3.6c3.9-5,4.2-13.2,5.7-19.2
			c2.8-10.9,7.4-21.6,5.2-33.1C453.6,689.1,447.3,681,440.7,673.9z M511,717.8c-8.5-1.3-26.4-0.7-28.3,10.3
			c-1.8,10,12.6,20.3,19.1,25.6c11.5,9.3,21,18.7,23.5,33.9c1,6.2,1.4,13.8,7,16.7c4.1,2.2,9.4,0.5,12.6-2.8s4.8-7.8,5.9-12.3
			c4.5-18.7,1.7-39.7-10.4-54.7C533.2,725.6,522.4,719.5,511,717.8z M599.5,795.6c-5.8,4.6-10.2,9.4-2.8,13.5c5.4,3,13.1,2,19.1,5.4
			c5.9,3.4,10.9,8.3,15.7,13.1c5.3,5.2,10.9,10.8,12.4,18.1c1.1,5.1,0.3,11.2,4.1,14.7c3.6,3.2,9.6,2.1,13-1.2
			c3.5-3.3,4.9-8.2,5.8-12.9c2.4-13.1,0.9-27.8-6.1-39.3C648.3,786.8,618.3,780.7,599.5,795.6z M717.8,875.8
			c10.6,4.1,22.6,0.5,32.5,7.6c9.7,6.9,12.1,20.1,18.6,30.1c1.2,1.9,2.7,3.7,4.6,4.7c4.8,2.5,11-0.6,13.7-5.4
			c2.7-4.7,2.7-10.5,2.7-15.9c-0.1-9.3-0.5-19.2-5.5-27c-4.2-6.5-11.2-10.9-18.6-13.2c-7.4-2.3-15.3-2.7-23-2.7
			c-6.4,0-13,0.3-18.9,2.7C714.6,860.3,705.5,871.1,717.8,875.8z M772.1,983.9c-6.7-4.1-13.6-8.1-21.1-10.2
			c-20-5.6-43.2,3.7-53.9,21.5c-0.6,1-1.2,2.1-1,3.2c0.3,3,4.5,3.3,7.5,3c16.4-1.8,34.5,2.9,44.5,16c8.7,11.3,17.6,41.5,37.4,28.4
			c15.3-10.2,13.9-35.8,3.3-48.5C784.2,991.7,778.2,987.6,772.1,983.9z M1113.5,1023.1c-7.8,0.3-13.5,5.6-20,9.2
			c-3.7,2.1-16.4,4.1-17.9,7.5c-3.3,7.2,25.9,3.3,31.3,7.7c1.6,1.3,2.8,3,4.5,4.3c3.8,2.9,9.4,2.8,13.4,0.1c4-2.7,6.2-7.5,6.1-12.3
			C1130.8,1030.8,1122.4,1022.8,1113.5,1023.1z M1071.5,994.4c-4.2-5.6-12.1-6.9-19-5.9c-6.9,1-13.4,4-20.2,5.5
			c-6.1,1.3-13.7,2.3-16,8.1c-0.7,1.9-0.6,4.3,1,5.5c0.9,0.7,2.1,0.9,3.2,1c5.3,0.4,10.6-0.5,15.9-0.1c5.3,0.4,10.9,2.5,13.4,7.2
			c3.1,6,1.5,14.8,10.1,16.8c6.7,1.6,11.4-4.1,13.2-10c1.7-5.5,2.4-11.3,1.9-17.1C1074.8,1001.5,1073.9,997.5,1071.5,994.4z
			 M953.9,954c-9.1,2-17.9,7.1-22.2,15.4c-0.5,1-1,2.2-0.7,3.3c0.4,1.9,2.6,2.7,4.5,3.1c6.3,1.3,12.8,1,19.2,1.6
			c6.4,0.6,13,2.4,17.6,6.9c3.8,3.8,5.7,9.2,9.3,13.4c8.3,9.8,15.2,3.1,16.9-6.7c1.6-9.3-1.3-19.4-7.7-26.3
			C981.7,954.8,966.9,951.2,953.9,954z M896.3,928.4c-8-11.5-19.9-20.7-33.7-23c-11.6-1.9-25.2,1.7-33,10.9
			c-5.9,7-7.6,13.7,2.1,15.2c9.5,1.4,18.4-3.3,28.1,0.4c12.4,4.8,20.1,18.6,23.6,30.7c0.7,2.3,1.4,4.9,3.4,6.1
			c2.2,1.3,5.1,0.5,7-1.1c1.9-1.7,3-4.1,4-6.4c2.5-5.7,5-11.7,4.6-17.9C902,937.9,899.4,932.8,896.3,928.4z M1181.6,976.9
			c2.1,1.2,2.7,4,4.4,5.7c2.3,2.3,6.3,2.1,8.8,0.1c2.5-2,3.6-5.4,3.7-8.6l0.3,2.5c1.1-2.4,2.1-4.9,2.3-7.5c0.2-2.6-0.7-5.5-2.9-6.9
			c-1.3-0.9-2.9-1.2-4.5-1.2c-6.5-0.3-12.6,2.7-18.1,6.1c-1.5,0.9-3.1,1.9-4,3.4c-1,1.5-1.1,3.6,0,5
			C1173.8,977.9,1178.5,975.1,1181.6,976.9z M1111.8,942.7c1,0.7,2.2,0.9,3.4,1.1c7.7,1.4,14.6,6.3,18.4,13.1l-1.1-4.6
			c1.7,4.7,7.9,7,12.5,5.1c4.7-1.9,7.5-7.1,7.3-12.1c-0.2-5-2.9-9.7-6.8-13c-9.2-7.8-24.6-6.9-32.7,2
			C1110.8,936.7,1109.3,940.7,1111.8,942.7z M1054.6,897.5c9.1,3,16.9,9.2,21.1,17.9c1.1,2.3,3.1,5.2,5.4,4.2
			c0.7-0.3,1.2-0.8,1.6-1.4c7.8-9.9,5.5-26.1-4.7-33.4c-6-4.3-13.8-5.5-21.1-4.9c-3.3,0.3-6.7,1-9.4,2.9
			C1036.4,890.7,1048.3,895.4,1054.6,897.5z M999,845.7c-5.3-10.5-47.6-20.6-51-2.4c-1,5.5,4.5,10.1,10,11.4
			c5.4,1.2,11.2,0.5,16.6,2.1c4.7,1.4,8.8,4.7,11.2,9c3.7,6.7,3.3,15.1,7,21.8c0.4,0.7,0.9,1.5,1.7,1.8c1,0.4,2.2,0,3.2-0.6
			c6.9-3.9,9.9-12.7,9.3-20.6C1006.2,860.2,1002.5,852.8,999,845.7z M858.8,774.8c-4.8-0.6-10.1-0.5-14.1,2.3c-4,2.8-5.8,9-2.6,12.7
			c2,2.3,5.4,3,8.4,3.7c12,3,23.3,10.4,28.7,21.5c2.7,5.6,3.8,11.8,4.7,17.9c0.3,1.9,0.7,3.9,2.1,5.2c1.4,1.2,3.3,1.2,5,0.5
			c1.1,0.7,2.9-0.4,3.9-1.6c8.7-10.8,9.6-27.2,2.3-38.9c-1.7-2.7-3.7-5.1-5.9-7.3C882.5,782.1,870.9,776.4,858.8,774.8z M1243.2,903
			c1.9,2.4,4,4.7,6.3,6.7c1.6-2.9,2.6-6.2,2.9-9.5c-0.4-0.4-0.8-0.9-1.2-1.3l3.3,3.3c0.9-4-0.8-8.5-4.3-10.8
			c-3.4-2.3-8.2-2.3-11.6,0c-1,0.7-1.8,1.5-2.2,2.6c-0.4,1-0.4,2.1-0.4,3.2c0,3,0.1,5.9,0.1,8.9C1238.6,905.5,1241,904.4,1243.2,903
			z M1203.2,870.1c0.9,1.5,0.9,3.8,2.5,4.5c2,0.9,3.8-1.6,4.6-3.7l-2.3,7.1c1.5-3,3-6.1,3.4-9.4c0.4-3.3-0.6-7-3.2-9
			c-1.3-1-2.9-1.5-4.4-1.9c-2.2-0.6-4.6-1-6.8-0.2c-2.2,0.7-3.9,3-3.4,5.2C1194.6,866.8,1201.1,866.5,1203.2,870.1z M1131,820.9
			c7.8,1.4,7.5,4.7,13.2,8.2c3.9,2.4,3.7,4.5,6.5-1.2c5.4-11-8.8-19.9-18-18.1c-3.8,0.8-8.1,3.8-6.9,7.5
			C1126.4,819.4,1128.8,820.5,1131,820.9z M1062.2,758.1c-2.9-1-6.4-1.4-8.8,0.7c-6.7,5.9,3.4,12.5,7.5,15c3,1.9,12,10.4,14.7,10.2
			C1091.4,782.7,1067.6,760,1062.2,758.1z M960.9,704.9c-3.1,0.3-6.9,2.2-6.4,5.3c0.2,1,0.8,1.9,1.6,2.6c8.2,8.1,17.9,9.6,24,20.6
			c3.9,6.8,5.4,14,12,5C1005.9,719.8,976.6,703.2,960.9,704.9z M839.7,644c-0.3,7.1,4.7,14.1,11.5,16.1c2.2,0.6,4.5,0.8,6.7,1.5
			c5.4,1.7,9.3,6.2,12.8,10.5c3.4,4.2,6.9,8.8,7.7,14.2c0.6,4.1-0.2,9.1,3.1,11.7c2.9,2.3,7.4,1.1,9.8-1.7c2.5-2.7,3.4-6.5,4.2-10
			l-2,2.9c1.2-13.7-4.5-27.8-15-36.6C868.1,643.8,853.1,640.4,839.7,644z M730.5,597.8c8.2,2.7,16.5,8.3,21.5,15.4
			c3.9,5.6,4.7,17.8,11.8,20.3c3.6,1.2,7.6-1,9.5-4.2c1.9-3.3,2-7.2,1.6-11c-1.7-14.5-11.6-27.8-25.1-33.5c-5.2-2.2-10.9-3.3-16.6-3
			c-3.1,0.2-6.3,0.9-8.7,3c-2.4,2-3.6,5.7-2.1,8.4C724.1,595.9,727.5,596.8,730.5,597.8z M737.5,738.9c9.7,2.7,15.9,5.5,21,14.9
			c2.5,4.5,8.6,39.8,18.5,24.9c1.8-2.7,2.1-6,2.3-9.2c0.3-6.2,0.3-12.4-0.2-18.6c-0.3-4-0.7-8.1-2.4-11.7
			c-3.4-7.6-11-12.2-18.3-16.2c-10.7-6-28.1-13.9-37.9-1.6C711.3,733,728.8,736.5,737.5,738.9z M598.8,670.2
			c10.1,4.6,18,4.5,26.9,12.8c8.6,8,14.5,18.7,19,29.5c0.8,1.8,1.6,3.8,3.3,4.8c2,1.2,4.7,0.6,6.6-0.9c1.8-1.5,2.9-3.7,3.8-5.8
			c4.9-12.5,3.1-27.2-3.9-38.6c-7-11.5-18.8-19.6-31.7-23.1c-9.8-2.6-21.6-1.9-28.1,5.9c-1.3,1.6-2.3,3.4-2.6,5.4
			C591.7,664.5,595,668.4,598.8,670.2z M547.6,659.5C547.6,659.5,547.6,659.5,547.6,659.5c-0.1,0.2-0.2,0.4-0.2,0.6L547.6,659.5z
			 M551.4,648.9l-3.8,10.6C550.7,656.5,553.1,652.6,551.4,648.9z M548.7,622c-1.5-5.3-3.7-10.4-7.3-14.6
			c-5.2-6.1-12.9-9.5-20.5-11.7c-7.4-2.1-15.3-3.2-22.6-0.9c-4.7,1.5-9.4,5.1-9.7,10c-0.3,5.6,5.2,9.8,10.4,11.9
			c8.5,3.5,18.5,4.8,24.7,11.6c5.2,5.7,6.5,14.2,5.7,21.9c-0.5,5.4-1.2,12.4,3.7,14.9c3.9,2,8.5-0.8,12-3.5c0.8-0.7,1.7-1.4,2.5-2.2
			C551.7,647.5,552.2,634.2,548.7,622z M498,495.4c7.1,3.1,15.5,3.2,21.6,7.9c5.2,4,7.2,10.3,8.4,16.5c0.7,3.4-0.6,14.6,3.2,16.5
			c6.8,3.4,11.9-10.8,13.1-15.4c8-29.2-20.8-45.6-46.1-39.9c-2.5,0.6-5.2,1.4-6.4,3.6c-1.2,2-0.7,4.7,0.6,6.6
			C493.7,493.2,495.8,494.4,498,495.4z M604.6,541.3c2.4,2.1,5.8,2.5,9,2.7c6,0.2,12.5-0.4,17.4,2.9c4.2,2.8,6.3,7.7,8.2,12.4
			c2.1,5.2,4.3,10.5,6.4,15.7c0.7,1.8,1.6,3.7,3.1,4.9c3,2.2,7.6,0.6,9.8-2.5c2.2-3.1,2.5-7,2.6-10.8c1.3-34.5-23.6-40.9-53.3-35.3
			c-1.5,0.3-3,0.6-4.2,1.7C601.4,535.1,602.2,539.3,604.6,541.3z M526.3,385.5c4.6,7.3,2.7,23.2,8.3,28.2c3,2.7,8.3,1.1,10.6-2.2
			c2.3-3.4,2.5-7.7,2.2-11.8c-0.5-8.3-2.3-16.6-5.3-24.4c-1.3-3.4-2.9-6.8-5.4-9.4c-4.7-4.8-12-6-18.7-5.8c-2.7,0.1-5.4,0.4-7.8,1.6
			c-2.4,1.2-4.3,3.6-4.4,6.2C505.4,376.8,521.8,378.5,526.3,385.5z M457.8,249.2c-5.1-3.8-12.8-2.6-18.6-1.4c-2.6,0.5-6,2.1-5.4,4.7
			c0.8,3.2,6.6,3.3,8.9,4.8c3.2,2.1,4,4.8,6.5,7.3c3.3,3.4,6.4,7.9,11.6,2.5C465.7,262.3,462.6,252.7,457.8,249.2z M637.5,435.8
			c5.3,6.4,5.9,15.8,12.9,21.1c1,0.8,2.2,1.5,3.5,1.5c4,0.2,5.8-4.9,5.9-8.9c0.1-10.8-19.9-49.1-31.4-26.6
			C624.4,430.6,632.9,430.2,637.5,435.8z M727.3,476.9c4.8,3.7,12.7,2.1,17.9,5.6c5.5,3.6,6.1,9,9,14.4c3.7,6.8,12.1,11.3,13.6,0
			c1.2-9.3-4.1-18.7-11.8-24.1c-7.7-5.4-17.4-7.3-26.8-7.2C721.4,465.6,722.5,473.2,727.3,476.9z M853.4,536.4
			c11.1,6.5,13.2,16.7,19.7,26.7c0.4,0.6,0.9,1.1,1.5,1.1c0.6,0,1-0.5,1.4-1c5.2-7.2,3.4-17.7-1.9-24.9
			c-5.3-7.2-13.3-11.7-21.3-15.6c-3.1-1.6-6.4-3.1-9.9-3.5c-3.5-0.4-7.3,0.5-9.6,3.1C827.9,528.5,849.4,534.2,853.4,536.4z
			 M960.4,573.3c-13.8-8.4-16.8,12.2-3.8,19.4c3.6,2,7.3,3.7,10.2,6.6c3.5,3.6,5.2,8.5,8,12.8c1.2,1.9,2.8,3.7,4.9,4.5
			c2.1,0.8,4.9,0.1,5.8-1.9c1.1-2.3-0.5-4.9-0.7-7.5c-1.3-11.2-5.1-11.8-12.9-19.8C968.1,583.4,965.1,576.1,960.4,573.3z
			 M1074.4,652.7c-0.2,0.1-0.3,0.2-0.4,0.4c0.2,0.5,0.5,1,0.7,1.5L1074.4,652.7z M1059.3,648.9c2.7,1.4,3.7,4.8,5.5,7.3
			c1.8,2.5,6,4.1,7.6,1.5c0.9-1.4,0.6-3.5,1.6-4.6c-2.9-5.6-7.9-10.2-13.8-12.4c-2.1-0.8-4.4-1.3-6.5-0.5c-2.1,0.8-3.6,3.3-2.6,5.3
			C1052.5,648.1,1056.6,647.5,1059.3,648.9z M1138.9,697.3c2.1,1.7,2.7,5.1,5.3,5.8c1.8,0.5,3.4-0.5,5-1.6c-0.5-2.9-1.4-5.8-2.8-8.4
			c-1.7-3.1-4.5-6-8-6.1c-3.5-0.1-6.8,4.3-4.6,7.1C1135.1,695.7,1137.4,696,1138.9,697.3z M1152.8,699.8c-1.3,0.3-2.4,1-3.5,1.7
			c0.1,0.5,0.2,1,0.2,1.6L1152.8,699.8z M1217.4,743.1l0.1,2.9C1217.6,745.1,1217.5,744.1,1217.4,743.1z M1217.5,746
			c0,0.1,0,0.1,0,0.2c0,0,0,0,0,0L1217.5,746z M1203.8,744.2c2.1,0.6,4.4,0.9,6,2.4c1.3,1.2,2,3.2,3.7,3.6c1.5,0.4,3.1-0.8,3.7-2.3
			c0.2-0.5,0.3-1.1,0.3-1.6c-2.3-3.7-5.7-6.8-9.6-8.7c-1.5-0.7-3.2-1.3-4.9-1s-3.3,1.6-3.4,3.3
			C1199.5,742,1201.7,743.6,1203.8,744.2z M1248.3,785.8c2.5,2,5.1,3.9,7.6,5.9c3.2,2.5,8.1,5,11,2.1c0.7-0.7,1.1-1.5,1.4-2.4
			c0.2-4.5-2.6-9.1-6.8-10.8C1256.6,778.7,1250.4,781.1,1248.3,785.8z M1270.3,784.6c-1.4,1.9-1.3,4.5-2,6.7c0,0.6-0.1,1.3-0.2,1.9
			L1270.3,784.6z M1255.8,672.7c2.1-1.1,2.6-4.7,0.5-5.8l-0.7,3.4c-0.1-4.4-5.6-7.6-9.4-5.5c0.7,2.3,1.5,4.6,3.1,6.3
			C1251,672.9,1253.7,673.8,1255.8,672.7z M1030.4,526.3c0.8,1,1.6,2.1,2.8,2.7c1.2,0.6,2.8,0.4,3.5-0.7c0.9-1.4,0.3-3.7,1.8-4.3
			l1.1,1.5c-0.5-3.3-3.4-5.5-6.1-7.4c-0.7-0.5-1.4-0.9-2.2-1.1c-2-0.3-3.5,1.9-3.4,3.9C1028,523,1029.2,524.7,1030.4,526.3z
			 M933.8,467.5c0.1,2.5,1.9,4.2,4.2,5.6c1.6,1,3.5,1.9,5.1,2.8c5.1,2.9,17.7,25.1,20.9,22.9c5.1-3.6-2.8-21.9-5.5-24.9
			C952.6,467.3,942.6,467.2,933.8,467.5z M847.8,425.9l-0.8,2.6c5.3,4.2,9.5,9.8,11.9,16.1c0.5,1.4,1.2,2.9,2.6,3.4
			c2.4,0.8,4.3-2.2,4.7-4.7c1.3-7.7-1.6-15.9-7.2-21.2c-5.7-5.3-14.1-7.5-21.7-5.8c-1.8,2.8-1.3,6.9,1.2,9.2
			C841,427.8,845.1,428,847.8,425.9z M947.3,401.6c-1.9-6.4-4.5-12.5-7.8-18.4l-3.4-1.5c-2.4-3.9-6.9-6.3-11.4-6.1
			c3.9,8.4,9.6,15.8,15.2,23.1C941.8,401.1,945.2,403.7,947.3,401.6z M860.2,340.8c0.4-8-5.7-15.8-13.6-17.2l1,0.1
			c-0.4-1.1-2.3-0.8-2.7,0.4c-0.4,1.1,0.2,2.3,0.9,3.3C849.3,333.1,854.4,337.7,860.2,340.8z M741.1,368.5c2.5,2.2,5.7,3.8,7.7,6.5
			c2.6,3.6,2.7,8.7,5.9,11.7c2.3,2.2,5.7,2.9,8.9,3.1c0.7,0,1.5,0,2.1-0.4c0.5-0.4,0.6-1,0.8-1.5c1.4-5.5-1-11.4-4.7-15.7
			c-3.5-4-10-9.4-15.1-11.3C739.3,358.1,733.6,361.8,741.1,368.5z M646,325.8c3.2,1.9,5.9,4.7,7.7,8c1.1,2,1.9,4.3,3.6,5.9
			c1.7,1.6,4.8,2.1,6.2,0.2c0.6-0.8,0.8-1.9,0.9-2.9c0.8-8.9-4.2-18.2-12.2-22.3l3.1,1c-4.1-2.1-8.7-3.1-13.3-2.9
			c-1.1,0-2.3,0.2-3.3,0.8c-2.4,1.6-1.9,5.4,0,7.5C640.7,323.3,643.5,324.3,646,325.8z M546.5,274.7
			C546.5,274.7,546.5,274.7,546.5,274.7c1,0.4,1.9,0.6,2.8,0.7L546.5,274.7z M546.5,274.7c-2.4-0.8-4.6-2.1-7-2.9
			c-3.3-1.1-7.5-1.1-9.6,1.7c-2.7,3.6,0.1,8.8,3.7,11.5c3.6,2.7,8.2,4.3,10.7,8c1.4,2,2,4.4,3.2,6.5c1.2,2.1,3.4,4,5.8,3.7
			c2.9-0.4,4.5-3.7,4.9-6.6C559.5,287.7,554.5,278.5,546.5,274.7z M655.7,233.4l3.9,1.7c-3.2-0.1-6.4,0.3-9.5,1.2
			c-1.3,2.1,0.9,4.7,3.3,5.5c2.3,0.8,5.1,0.7,7,2.2c3.1,2.5,3.5,8.4,7.5,8.5c3.5,0.1,4.7-4.7,3.9-8
			C670.1,237.4,662.7,231,655.7,233.4z M755.2,288.4c0.6,1.2,0.9,2.7,2,3.5c1.9,1.5,5,0,5.7-2.3c0.7-2.3-0.2-4.8-1.4-6.9
			c-2.4-4.1-6.1-7.5-10.3-9.7c0,0-0.1,0-0.1,0c-0.9,0-1.8,0-2.6,0.3c-3,1.3-2.3,5.9-0.1,8.2S753.7,285.5,755.2,288.4z M749,271.9
			c0.8,0.3,1.5,0.7,2.2,1.1c2.8,0,5.5,0,8.3,0L749,271.9z M552.3,201.2c0.5-0.1,1-0.1,1.4-0.1c1.7-0.9,3.4-1.7,5.1-2.3L552.3,201.2z
			 M553.7,201c-1.5,0.8-2.9,1.6-4.3,2.6c0,2.7,2.7,4.6,5.3,5.5c2.6,0.9,5.4,1.3,7.4,3.2c2.2,2.1,2.6,5.4,4.2,8
			c1.5,2.6,5.7,4.2,7.4,1.7c0.6-0.9,0.6-2,0.5-3.1C573.4,208.8,563.7,200.5,553.7,201z M490.3,200.1c1.4-2.5,0-5.8-2.3-7.5
			c-2.3-1.7-5.3-2-8.2-2.1l7.9-1.6c-4.3,0.3-8.7,0.6-13,0.9c-2.4,0.2-5.5,1-5.6,3.4c-0.1,1.7,1.4,2.9,2.8,3.8
			c2.1,1.4,4.3,2.6,6.5,3.7c2,1,4,1.9,6.3,2C486.9,203,489.2,202.1,490.3,200.1z M579.1,154.1l0.5-0.2c-1.9,0-3.8-0.1-5.7-0.1
			c-0.5,0-1.1,0-1.5,0.3c-0.4,0.3-0.6,0.9-0.7,1.4c-0.7,3.7,1.2,7.9,4.7,9.3c3.5,1.4,8.1-0.8,8.8-4.5
			C585.8,156.9,582.3,153.5,579.1,154.1z M673.7,178.6c-2.2-1.2-4.9-1.5-6.8-3.2l0.7-0.4c-2.4-0.1-4.8,0.5-6.9,1.7
			c-1.4,2.8,0.3,6.4,3,8c2.7,1.6,6,1.7,9.2,1.3c1.1-0.1,2.3-0.4,3.1-1.2C677.6,182.9,675.9,179.8,673.7,178.6z"/>
	</g>
</g>
</svg>
