<?xml version="1.0" encoding="utf-8" ?>
<svg xmlns="http://www.w3.org/2000/svg" xmlns:xlink="http://www.w3.org/1999/xlink" width="24" height="33">
	<path fill="rgb(50,205,50)" stroke="none" d="M22.6968 2.80567L19.3303 0L16.2896 2.13765L11.9457 13.7611L5.75566 21.9109L0 25.7854L0.108597 27.3887L2.49774 31.5304L7.05882 33L17.267 19.7733L21.9367 9.61943L22.6968 2.80567Z"/>
	<path fill="none" stroke="rgb(0,0,0)" stroke-width="1" stroke-miterlimit="4" d="M22.6968 2.80567L19.3303 0L16.2896 2.13765L11.9457 13.7611L5.75566 21.9109L0 25.7854L0.108597 27.3887L2.49774 31.5304L7.05882 33L17.267 19.7733L21.9367 9.61943L22.6968 2.80567Z"/>
	<path fill="rgb(0,0,255)" stroke="none" d="M15.5294 1.87045L14.552 5.07692L16.181 8.68421L18.1357 7.61538L21.0679 10.2874L19.9819 12.6923L22.914 12.9595L24 9.48583L22.4796 7.21458L21.3937 8.81781L18.6787 5.87854L18.5701 3.87449L16.724 1.60324L15.5294 1.87045Z"/>
	<path fill="rgb(0,0,255)" stroke="none" d="M6.19005 20.0405L5.32127 24.0486L8.90498 24.583L10.5339 26.4534L9.88235 28.8583L11.9457 30.996L14.552 28.3239L13.1403 25.251L11.2941 25.5182L9.88235 23.1134L9.44796 19.6397L6.84163 19.6397L6.19005 20.0405Z"/>
</svg>
