<?xml version="1.0" encoding="utf-8" ?>
<svg xmlns="http://www.w3.org/2000/svg" xmlns:xlink="http://www.w3.org/1999/xlink" width="24" height="33">
	<path fill="rgb(173,216,230)" stroke="none" d="M0 30.6L0 2.4Q0 2.2821 0.0115567 2.16476Q0.0231133 2.04742 0.0461153 1.93178Q0.0691173 1.81614 0.103343 1.70332Q0.137569 1.59049 0.182689 1.48156Q0.227809 1.37263 0.283389 1.26865Q0.338969 1.16467 0.404473 1.06663Q0.469977 0.968597 0.544775 0.877456Q0.619573 0.786315 0.702944 0.702944Q0.786315 0.619573 0.877456 0.544775Q0.968597 0.469977 1.06663 0.404473Q1.16467 0.338969 1.26865 0.283389Q1.37263 0.227809 1.48156 0.182689Q1.59049 0.137569 1.70332 0.103343Q1.81614 0.0691173 1.93178 0.0461153Q2.04742 0.0231133 2.16476 0.0115567Q2.2821 0 2.4 0L21.6 0Q21.7179 0 21.8352 0.0115567Q21.9526 0.0231133 22.0682 0.0461153Q22.1839 0.0691173 22.2967 0.103343Q22.4095 0.137569 22.5184 0.182689Q22.6274 0.227809 22.7314 0.283389Q22.8353 0.338969 22.9334 0.404473Q23.0314 0.469977 23.1225 0.544775Q23.2137 0.619573 23.2971 0.702944Q23.3804 0.786315 23.4552 0.877456Q23.53 0.968597 23.5955 1.06663Q23.661 1.16467 23.7166 1.26865Q23.7722 1.37263 23.8173 1.48156Q23.8624 1.59049 23.8967 1.70332Q23.9309 1.81614 23.9539 1.93178Q23.9769 2.04742 23.9884 2.16476Q24 2.2821 24 2.4L24 30.6Q24 30.7179 23.9884 30.8352Q23.9769 30.9526 23.9539 31.0682Q23.9309 31.1839 23.8967 31.2967Q23.8624 31.4095 23.8173 31.5184Q23.7722 31.6274 23.7166 31.7313Q23.661 31.8353 23.5955 31.9334Q23.53 32.0314 23.4552 32.1225Q23.3804 32.2137 23.2971 32.2971Q23.2137 32.3804 23.1225 32.4552Q23.0314 32.53 22.9334 32.5955Q22.8353 32.661 22.7314 32.7166Q22.6274 32.7722 22.5184 32.8173Q22.4095 32.8624 22.2967 32.8967Q22.1839 32.9309 22.0682 32.9539Q21.9526 32.9769 21.8352 32.9884Q21.7179 33 21.6 33L2.4 33Q2.2821 33 2.16476 32.9884Q2.04742 32.9769 1.93178 32.9539Q1.81614 32.9309 1.70332 32.8967Q1.59049 32.8624 1.48156 32.8173Q1.37263 32.7722 1.26865 32.7166Q1.16467 32.661 1.06663 32.5955Q0.968597 32.53 0.877456 32.4552Q0.786315 32.3804 0.702944 32.2971Q0.619573 32.2137 0.544775 32.1225Q0.469977 32.0314 0.404473 31.9334Q0.338969 31.8353 0.283389 31.7313Q0.227809 31.6274 0.182689 31.5184Q0.137569 31.4095 0.103343 31.2967Q0.0691173 31.1839 0.0461153 31.0682Q0.0231133 30.9526 0.0115567 30.8352Q0 30.7179 0 30.6Z"/>
	<path fill="none" stroke="rgb(192,192,192)" stroke-width="1.2" stroke-miterlimit="4" d="M0 30.6L0 2.4Q0 2.2821 0.0115567 2.16476Q0.0231133 2.04742 0.0461153 1.93178Q0.0691173 1.81614 0.103343 1.70332Q0.137569 1.59049 0.182689 1.48156Q0.227809 1.37263 0.283389 1.26865Q0.338969 1.16467 0.404473 1.06663Q0.469977 0.968597 0.544775 0.877456Q0.619573 0.786315 0.702944 0.702944Q0.786315 0.619573 0.877456 0.544775Q0.968597 0.469977 1.06663 0.404473Q1.16467 0.338969 1.26865 0.283389Q1.37263 0.227809 1.48156 0.182689Q1.59049 0.137569 1.70332 0.103343Q1.81614 0.0691173 1.93178 0.0461153Q2.04742 0.0231133 2.16476 0.0115567Q2.2821 0 2.4 0L21.6 0Q21.7179 0 21.8352 0.0115567Q21.9526 0.0231133 22.0682 0.0461153Q22.1839 0.0691173 22.2967 0.103343Q22.4095 0.137569 22.5184 0.182689Q22.6274 0.227809 22.7314 0.283389Q22.8353 0.338969 22.9334 0.404473Q23.0314 0.469977 23.1225 0.544775Q23.2137 0.619573 23.2971 0.702944Q23.3804 0.786315 23.4552 0.877456Q23.53 0.968597 23.5955 1.06663Q23.661 1.16467 23.7166 1.26865Q23.7722 1.37263 23.8173 1.48156Q23.8624 1.59049 23.8967 1.70332Q23.9309 1.81614 23.9539 1.93178Q23.9769 2.04742 23.9884 2.16476Q24 2.2821 24 2.4L24 30.6Q24 30.7179 23.9884 30.8352Q23.9769 30.9526 23.9539 31.0682Q23.9309 31.1839 23.8967 31.2967Q23.8624 31.4095 23.8173 31.5184Q23.7722 31.6274 23.7166 31.7313Q23.661 31.8353 23.5955 31.9334Q23.53 32.0314 23.4552 32.1225Q23.3804 32.2137 23.2971 32.2971Q23.2137 32.3804 23.1225 32.4552Q23.0314 32.53 22.9334 32.5955Q22.8353 32.661 22.7314 32.7166Q22.6274 32.7722 22.5184 32.8173Q22.4095 32.8624 22.2967 32.8967Q22.1839 32.9309 22.0682 32.9539Q21.9526 32.9769 21.8352 32.9884Q21.7179 33 21.6 33L2.4 33Q2.2821 33 2.16476 32.9884Q2.04742 32.9769 1.93178 32.9539Q1.81614 32.9309 1.70332 32.8967Q1.59049 32.8624 1.48156 32.8173Q1.37263 32.7722 1.26865 32.7166Q1.16467 32.661 1.06663 32.5955Q0.968597 32.53 0.877456 32.4552Q0.786315 32.3804 0.702944 32.2971Q0.619573 32.2137 0.544775 32.1225Q0.469977 32.0314 0.404473 31.9334Q0.338969 31.8353 0.283389 31.7313Q0.227809 31.6274 0.182689 31.5184Q0.137569 31.4095 0.103343 31.2967Q0.0691173 31.1839 0.0461153 31.0682Q0.0231133 30.9526 0.0115567 30.8352Q0 30.7179 0 30.6Z"/>
	<path fill="rgb(255,218,185)" stroke="none" d="M8.4 3.72353L8.8 6.97059L9.2 9.93529L9.26733 14.5941L10.2178 22.6412L13.3069 9.79412L12.5941 3.3L8.4 3.72353Z"/>
	<path fill="none" stroke="rgb(192,192,192)" stroke-width="1.2" stroke-miterlimit="4" d="M8.4 3.72353L8.8 6.97059L9.2 9.93529L9.26733 14.5941L10.2178 22.6412L13.3069 9.79412L12.5941 3.3L8.4 3.72353Z"/>
	<path fill="rgb(255,255,255)" stroke="none" d="M13.2277 5.41765L16 10.2176L15.9208 13.1824L12.5149 19.9588L10.8515 29.2765L9.50495 29.7L8.23762 29.1353L8 21.6529L9.74257 18.5471L12.8317 5.55882L13.2277 5.41765Z"/>
	<path fill="none" stroke="rgb(192,192,192)" stroke-width="1.2" stroke-miterlimit="4" d="M13.2277 5.41765L16 10.2176L15.9208 13.1824L12.5149 19.9588L10.8515 29.2765L9.50495 29.7L8.23762 29.1353L8 21.6529L9.74257 18.5471L12.8317 5.55882L13.2277 5.41765Z"/>
</svg>
