<?xml version="1.0" encoding="utf-8" ?>
<svg xmlns="http://www.w3.org/2000/svg" xmlns:xlink="http://www.w3.org/1999/xlink" width="24" height="33">
	<path fill="rgb(112,128,144)" stroke="none" d="M12 0L7.2 9.9L7.2 23.1L2.4 26.4L2.4 33L7.2 28.05L10.8 28.05L12 33L13.2 28.05L16.8 28.05L21.6 33L21.6 26.4L16.8 23.1L16.8 9.9L12 0Z"/>
	<path fill="none" stroke="rgb(0,0,0)" stroke-width="1" stroke-miterlimit="4" d="M12 0L7.2 9.9L7.2 23.1L2.4 26.4L2.4 33L7.2 28.05L10.8 28.05L12 33L13.2 28.05L16.8 28.05L21.6 33L21.6 26.4L16.8 23.1L16.8 9.9L12 0Z"/>
	<path fill="rgb(173,216,230)" stroke="none" d="M12 6.6L9.6 13.2L9.6 13.2L14.4 13.2L12 6.6Z"/>
</svg>
