<?xml version="1.0" encoding="utf-8" ?>
<svg xmlns="http://www.w3.org/2000/svg" xmlns:xlink="http://www.w3.org/1999/xlink" width="24" height="33">
	<rect fill="rgb(0,0,255)" stroke="none" width="24" height="33"/>
	<rect fill="rgb(184,134,11)" stroke="none" x="9.6000004" y="13.2" width="10.799999" height="16.5"/>
	<defs>
		<linearGradient id="gradient_0" gradientUnits="userSpaceOnUse" x1="9.6000004" y1="14.849999" x2="9.6000004" y2="29.699999">
			<stop offset="0" stop-color="rgb(255,255,224)"/>
			<stop offset="1" stop-color="rgb(255,215,0)"/>
		</linearGradient>
	</defs>
	<rect fill="url(#gradient_0)" stroke="none" x="9.6000004" y="14.849999" width="9.6000004" height="14.849999"/>
	<path fill="none" stroke="rgb(192,192,192)" stroke-width="1.6" stroke-miterlimit="4" d="M12 14.85L12 8.25M12 8.25Q12 8.08788 12.0116 7.92654Q12.0231 7.7652 12.0461 7.6062Q12.0691 7.4472 12.1033 7.29206Q12.1376 7.13692 12.1827 6.98714Q12.2278 6.83737 12.2834 6.69439Q12.339 6.55141 12.4045 6.41662Q12.47 6.28182 12.5448 6.1565Q12.6196 6.03118 12.7029 5.91655Q12.7863 5.80191 12.8775 5.69906Q12.9686 5.59622 13.0666 5.50615Q13.1647 5.41608 13.2686 5.33966Q13.3726 5.26324 13.4816 5.2012Q13.5905 5.13916 13.7033 5.0921Q13.8161 5.04504 13.9318 5.01341Q14.0474 4.98178 14.1648 4.96589Q14.2821 4.95 14.4 4.95Q14.5179 4.95 14.6352 4.96589Q14.7526 4.98178 14.8682 5.01341Q14.9839 5.04504 15.0967 5.0921Q15.2095 5.13916 15.3184 5.2012Q15.4274 5.26324 15.5314 5.33966Q15.6353 5.41608 15.7334 5.50615Q15.8314 5.59622 15.9225 5.69906Q16.0137 5.80191 16.0971 5.91655Q16.1804 6.03118 16.2552 6.1565Q16.33 6.28182 16.3955 6.41662Q16.461 6.55141 16.5166 6.69439Q16.5722 6.83737 16.6173 6.98714Q16.6624 7.13692 16.6967 7.29206Q16.7309 7.4472 16.7539 7.6062Q16.7769 7.7652 16.7884 7.92654Q16.8 8.08788 16.8 8.25L16.8 8.25L16.8 14.85"/>
	<path fill="rgb(192,192,192)" stroke="none" d="M5.00339 15.2915L7.07797 12.3518L7.2 8.51725L3.90508 6.6L0.854237 8.64507L0 12.0961L2.19661 15.0359L2.31864 15.5472L2.31864 16.4419L1.46441 16.9532L1.46441 17.9757L2.19661 18.2313L2.31864 19.3817L1.46441 20.0208L1.34237 20.9155L2.31864 21.1711L2.31864 22.1937L1.46441 22.5771L1.46441 23.5996L2.07458 23.344L2.68475 24.75L4.51525 24.1109L5.00339 22.9606L5.00339 15.2915Z"/>
	<path fill="none" stroke="rgb(0,0,0)" stroke-width="1" stroke-miterlimit="4" d="M5.00339 15.2915L7.07797 12.3518L7.2 8.51725L3.90508 6.6L0.854237 8.64507L0 12.0961L2.19661 15.0359L2.31864 15.5472L2.31864 16.4419L1.46441 16.9532L1.46441 17.9757L2.19661 18.2313L2.31864 19.3817L1.46441 20.0208L1.34237 20.9155L2.31864 21.1711L2.31864 22.1937L1.46441 22.5771L1.46441 23.5996L2.07458 23.344L2.68475 24.75L4.51525 24.1109L5.00339 22.9606L5.00339 15.2915Z"/>
	<ellipse fill="rgb(0,0,0)" stroke="none" cx="3.6000001" cy="9.1350002" rx="0.72000003" ry="0.71999979"/>
	<path fill="rgb(192,192,192)" stroke="none" d="M8.60339 21.8915L10.678 18.9518L10.8 15.1173L7.50508 13.2L4.45424 15.2451L3.6 18.6961L5.79661 21.6359L5.91864 22.1472L5.91864 23.0419L5.06441 23.5532L5.06441 24.5757L5.79661 24.8313L5.91864 25.9817L5.06441 26.6208L4.94237 27.5155L5.91864 27.7711L5.91864 28.7937L5.06441 29.1771L5.06441 30.1996L5.67458 29.944L6.28475 31.35L8.11525 30.7109L8.60339 29.5606L8.60339 21.8915Z"/>
	<path fill="none" stroke="rgb(0,0,0)" stroke-width="1" stroke-miterlimit="4" d="M8.60339 21.8915L10.678 18.9518L10.8 15.1173L7.50508 13.2L4.45424 15.2451L3.6 18.6961L5.79661 21.6359L5.91864 22.1472L5.91864 23.0419L5.06441 23.5532L5.06441 24.5757L5.79661 24.8313L5.91864 25.9817L5.06441 26.6208L4.94237 27.5155L5.91864 27.7711L5.91864 28.7937L5.06441 29.1771L5.06441 30.1996L5.67458 29.944L6.28475 31.35L8.11525 30.7109L8.60339 29.5606L8.60339 21.8915Z"/>
	<ellipse fill="rgb(0,0,0)" stroke="none" cx="7.1999998" cy="15.735" rx="0.72000003" ry="0.72000027"/>
</svg>
