<?xml version="1.0" encoding="utf-8" ?>
<svg xmlns="http://www.w3.org/2000/svg" xmlns:xlink="http://www.w3.org/1999/xlink" width="24" height="33">
	<path fill="rgb(0,128,0)" stroke="none" d="M24 24.583L12.2553 25.7854L3.57447 33L3.57447 32.1984L24 33L24 24.583Z"/>
	<path fill="rgb(250,128,114)" stroke="none" d="M7.14894 0L3.57447 2.27126L2.38298 4.40891L4.25532 6.41296L4.08511 10.2874L5.78723 9.75304L6.6383 10.8219L6.6383 11.6235L9.02128 11.4899L10.2128 14.4292L9.87234 19.2389L8.17021 19.2389L7.65957 16.7004L6.6383 16.166L5.2766 14.6964L3.74468 15.8988L1.53191 16.2996L0.510638 18.7045L4.25532 21.7773L3.91489 24.3158L3.74468 30.7287L0 30.996L0.510638 33L7.65957 32.332L7.31915 30.0607L7.65957 25.251L10.383 26.7206L14.9787 27.6559L18.383 24.4494L17.5319 16.7004L13.7872 13.8947L12.4255 10.4211L13.9574 8.1498L13.2766 5.61134L12.0851 4.54251L12.4255 2.93927L9.87234 1.60324L9.70213 0.801619L7.14894 0Z"/>
</svg>
