<?xml version="1.0" encoding="utf-8" ?>
<svg xmlns="http://www.w3.org/2000/svg" xmlns:xlink="http://www.w3.org/1999/xlink" width="24" height="33">
	<path fill="rgb(0,0,255)" stroke="none" d="M8.60589 19.8941L15.3941 13.1059L27.0614 24.7731L20.2732 31.5614L8.60589 19.8941Z"/>
	<path fill="rgb(255,215,0)" stroke="none" d="M4.78751 14.3787L9.87868 9.28751L14.5456 13.9544L9.45442 19.0456L4.78751 14.3787Z"/>
	<path fill="rgb(255,0,0)" stroke="none" d="M-0.197592 7.69652L3.19652 4.30241L9.03015 10.136L5.63604 13.5302L-0.197592 7.69652Z"/>
	<path fill="rgb(139,0,0)" stroke="none" d="M3.81769 5.3783Q3.83867 5.4566 3.84838 5.53751Q3.8581 5.61842 3.85646 5.70116Q3.85482 5.78391 3.84183 5.8677Q3.82885 5.95148 3.80465 6.03549Q3.78045 6.11951 3.74526 6.20295Q3.71008 6.28638 3.66425 6.36844Q3.61842 6.4505 3.56239 6.53038Q3.50636 6.61026 3.44067 6.6872Q3.37497 6.76415 3.30024 6.83741Q3.22552 6.91067 3.14248 6.97954Q3.05944 7.04841 2.96889 7.11224Q2.87834 7.17606 2.78115 7.23421Q2.68396 7.29237 2.58107 7.3443Q2.47818 7.39623 2.37057 7.44143Q2.26297 7.48664 2.15168 7.52468Q2.0404 7.56273 1.92652 7.59324Q1.81263 7.62376 1.69723 7.64645Q1.58184 7.66915 1.46605 7.6838Q1.35026 7.69846 1.23518 7.70493Q1.12011 7.7114 1.00686 7.70963Q0.893616 7.70786 0.783288 7.69787Q0.672958 7.68787 0.566609 7.66974Q0.46026 7.65162 0.358915 7.62554Q0.25757 7.59945 0.162204 7.56567Q0.0668394 7.53188 -0.0216272 7.49071Q-0.110094 7.44955 -0.19081 7.4014Q-0.271526 7.35325 -0.343714 7.29859Q-0.415903 7.24392 -0.478868 7.18326Q-0.541833 7.1226 -0.594969 7.05653Q-0.648105 6.99046 -0.6909 6.91963Q-0.733695 6.84879 -0.765736 6.77386Q-0.797778 6.69893 -0.818758 6.62063Q-0.839737 6.54233 -0.849453 6.46142Q-0.859169 6.38051 -0.857527 6.29776Q-0.855886 6.21502 -0.842902 6.13123Q-0.829919 6.04745 -0.805719 5.96343Q-0.781519 5.87942 -0.746335 5.79598Q-0.711152 5.71254 -0.665324 5.63049Q-0.619495 5.54843 -0.563464 5.46855Q-0.507432 5.38867 -0.441737 5.31172Q-0.376042 5.23478 -0.301315 5.16152Q-0.226589 5.08826 -0.143551 5.01939Q-0.060513 4.95052 0.0300366 4.88669Q0.120586 4.82287 0.217775 4.76472Q0.314965 4.70656 0.417858 4.65463Q0.520751 4.6027 0.628356 4.55749Q0.735962 4.51229 0.847244 4.47425Q0.958527 4.4362 1.07241 4.40569Q1.1863 4.37517 1.3017 4.35248Q1.41709 4.32978 1.53288 4.31513Q1.64867 4.30047 1.76375 4.294Q1.87882 4.28753 1.99207 4.2893Q2.10531 4.29107 2.21564 4.30106Q2.32597 4.31106 2.43232 4.32919Q2.53867 4.34731 2.64001 4.37339Q2.74136 4.39948 2.83672 4.43326Q2.93209 4.46705 3.02056 4.50821Q3.10902 4.54938 3.18974 4.59753Q3.27045 4.64568 3.34264 4.70034Q3.41483 4.75501 3.4778 4.81567Q3.54076 4.87633 3.5939 4.9424Q3.64703 5.00846 3.68983 5.0793Q3.73262 5.15014 3.76467 5.22507Q3.79671 5.3 3.81769 5.3783Z"/>
</svg>
