<?xml version="1.0" encoding="utf-8" ?>
<svg xmlns="http://www.w3.org/2000/svg" xmlns:xlink="http://www.w3.org/1999/xlink" width="24" height="33">
	<path fill="rgb(255,255,255)" stroke="none" d="M24 30.0989L23.8017 17.4066L22.3636 13.4176L19.7851 13.0549L17.8512 0.725275L4.5124 0L2.92562 14.1429L1.19008 14.5055L0 23.2088L0 33L23.9504 31.9121L24 30.0989Z"/>
	<path fill="none" stroke="rgb(192,192,192)" stroke-width="1" stroke-miterlimit="4" d="M24 30.0989L23.8017 17.4066L22.3636 13.4176L19.7851 13.0549L17.8512 0.725275L4.5124 0L2.92562 14.1429L1.19008 14.5055L0 23.2088L0 33L23.9504 31.9121L24 30.0989Z"/>
	<path fill="rgb(0,0,0)" stroke="none" d="M5.40496 5.8022L7.98347 5.8022L7.8843 11.967L4.66116 12.3297L5.40496 5.8022Z"/>
	<path fill="rgb(0,0,0)" stroke="none" d="M8.57851 5.43956L8.52892 11.967L14.3306 12.3297L14.3306 5.8022L8.57851 5.43956Z"/>
	<path fill="rgb(0,0,0)" stroke="none" d="M15.3223 5.8022L15.3223 12.3297L17.4545 11.967L16.5124 6.16484L15.3223 5.8022Z"/>
	<ellipse fill="rgb(0,0,0)" stroke="none" cx="10.927687" cy="33.471428" rx="8.25" ry="9.9000006"/>
	<ellipse fill="rgb(255,255,255)" stroke="none" cx="10.927686" cy="33.471428" rx="4.125" ry="4.9499998"/>
	<ellipse fill="rgb(0,0,0)" stroke="none" cx="28.035126" cy="33.108791" rx="8.250001" ry="9.9000006"/>
	<ellipse fill="rgb(255,255,255)" stroke="none" cx="28.035126" cy="33.108791" rx="4.125001" ry="4.9499998"/>
</svg>
