<?xml version="1.0" encoding="utf-8" ?>
<svg xmlns="http://www.w3.org/2000/svg" xmlns:xlink="http://www.w3.org/1999/xlink" width="24" height="33">
	<defs>
		<linearGradient id="gradient_0" gradientUnits="userSpaceOnUse" x1="0" y1="0" x2="0" y2="13.75">
			<stop offset="0" stop-color="rgb(222,184,135)"/>
			<stop offset="1" stop-color="rgb(165,42,42)"/>
		</linearGradient>
	</defs>
	<path fill="url(#gradient_0)" stroke="none" d="M0 5.5Q0 5.36498 0.0144545 5.23013Q0.028909 5.09527 0.0577833 4.96091Q0.0866575 4.82654 0.129882 4.69298Q0.173106 4.55943 0.230577 4.427Q0.288047 4.29458 0.359625 4.16361Q0.431203 4.03264 0.516716 3.90343Q0.602229 3.77423 0.701471 3.64711Q0.800713 3.51998 0.913446 3.39524Q1.02618 3.2705 1.15213 3.14845Q1.27808 3.02639 1.41694 2.90732Q1.55581 2.78824 1.70726 2.67243Q1.8587 2.55663 2.02236 2.44436Q2.18603 2.3321 2.36151 2.22365Q2.53699 2.11521 2.72387 2.01084Q2.91076 1.90647 3.10859 1.80643Q3.30642 1.70638 3.51472 1.61091Q3.72302 1.51544 3.94129 1.42477Q4.15956 1.3341 4.38728 1.24844Q4.615 1.16279 4.85161 1.08236Q5.08822 1.00193 5.33316 0.926917Q5.57809 0.851905 5.83077 0.782493Q6.08344 0.71308 6.34324 0.649433Q6.60304 0.585786 6.86934 0.528059Q7.13564 0.470331 7.4078 0.418662Q7.67996 0.366994 7.95732 0.321508Q8.23468 0.276022 8.51658 0.236828Q8.79848 0.197635 9.08424 0.164828Q9.36999 0.132022 9.65892 0.105681Q9.94784 0.0793403 10.2392 0.0595292Q10.5306 0.039718 10.8238 0.026484Q11.117 0.01325 11.4112 0.00662499Q11.7054 0 12 0Q12.2946 0 12.5888 0.00662499Q12.883 0.01325 13.1762 0.026484Q13.4694 0.039718 13.7608 0.0595292Q14.0522 0.0793403 14.3411 0.105681Q14.63 0.132022 14.9158 0.164828Q15.2015 0.197635 15.4834 0.236828Q15.7653 0.276022 16.0427 0.321508Q16.32 0.366994 16.5922 0.418662Q16.8644 0.470331 17.1307 0.528059Q17.397 0.585786 17.6568 0.649433Q17.9166 0.71308 18.1692 0.782493Q18.4219 0.851905 18.6668 0.926917Q18.9118 1.00193 19.1484 1.08236Q19.385 1.16279 19.6127 1.24844Q19.8404 1.3341 20.0587 1.42477Q20.277 1.51544 20.4853 1.61091Q20.6936 1.70638 20.8914 1.80643Q21.0892 1.90647 21.2761 2.01084Q21.463 2.11521 21.6385 2.22365Q21.814 2.3321 21.9776 2.44436Q22.1413 2.55663 22.2927 2.67243Q22.4442 2.78824 22.5831 2.90732Q22.7219 3.02639 22.8479 3.14845Q22.9738 3.2705 23.0866 3.39524Q23.1993 3.51998 23.2985 3.64711Q23.3978 3.77423 23.4833 3.90343Q23.5688 4.03264 23.6404 4.16361Q23.712 4.29458 23.7694 4.427Q23.8269 4.55943 23.8701 4.69298Q23.9133 4.82654 23.9422 4.96091Q23.9711 5.09527 23.9855 5.23013Q24 5.36498 24 5.5L24 13.75L0 13.75L0 5.5Z"/>
	<defs>
		<linearGradient id="gradient_1" gradientUnits="userSpaceOnUse" x1="24" y1="22" x2="0" y2="22">
			<stop offset="0" stop-color="rgb(165,42,42)"/>
			<stop offset="1" stop-color="rgb(222,184,135)"/>
		</linearGradient>
	</defs>
	<path fill="url(#gradient_1)" stroke="none" d="M0 26.125Q0 26.2263 0.0144545 26.3274Q0.028909 26.4285 0.0577833 26.5293Q0.0866575 26.6301 0.129882 26.7303Q0.173106 26.8304 0.230577 26.9297Q0.288047 27.0291 0.359625 27.1273Q0.431203 27.2255 0.516716 27.3224Q0.602229 27.4193 0.701471 27.5147Q0.800713 27.61 0.913446 27.7036Q1.02618 27.7971 1.15213 27.8887Q1.27808 27.9802 1.41694 28.0695Q1.55581 28.1588 1.70726 28.2457Q1.8587 28.3325 2.02236 28.4167Q2.18603 28.5009 2.36151 28.5823Q2.53699 28.6636 2.72387 28.7419Q2.91076 28.8201 3.10859 28.8952Q3.30642 28.9702 3.51472 29.0418Q3.72302 29.1134 3.94129 29.1814Q4.15956 29.2494 4.38728 29.3137Q4.615 29.3779 4.85161 29.4382Q5.08822 29.4985 5.33316 29.5548Q5.57809 29.6111 5.83077 29.6631Q6.08344 29.7152 6.34324 29.7629Q6.60304 29.8107 6.86934 29.854Q7.13564 29.8972 7.4078 29.936Q7.67996 29.9748 7.95732 30.0089Q8.23468 30.043 8.51658 30.0724Q8.79848 30.1018 9.08424 30.1264Q9.36999 30.151 9.65892 30.1707Q9.94784 30.1905 10.2392 30.2054Q10.5306 30.2202 10.8238 30.2301Q11.117 30.2401 11.4112 30.245Q11.7054 30.25 12 30.25Q12.2946 30.25 12.5888 30.245Q12.883 30.2401 13.1762 30.2301Q13.4694 30.2202 13.7608 30.2054Q14.0522 30.1905 14.3411 30.1707Q14.63 30.151 14.9158 30.1264Q15.2015 30.1018 15.4834 30.0724Q15.7653 30.043 16.0427 30.0089Q16.32 29.9748 16.5922 29.936Q16.8644 29.8972 17.1307 29.854Q17.397 29.8107 17.6568 29.7629Q17.9166 29.7152 18.1692 29.6631Q18.4219 29.6111 18.6668 29.5548Q18.9118 29.4986 19.1484 29.4382Q19.385 29.3779 19.6127 29.3137Q19.8404 29.2494 20.0587 29.1814Q20.277 29.1134 20.4853 29.0418Q20.6936 28.9702 20.8914 28.8952Q21.0892 28.8201 21.2761 28.7419Q21.463 28.6636 21.6385 28.5823Q21.814 28.5009 21.9776 28.4167Q22.1413 28.3325 22.2927 28.2457Q22.4442 28.1588 22.5831 28.0695Q22.7219 27.9802 22.8479 27.8887Q22.9738 27.7971 23.0866 27.7036Q23.1993 27.61 23.2985 27.5147Q23.3978 27.4193 23.4833 27.3224Q23.5688 27.2255 23.6404 27.1273Q23.712 27.0291 23.7694 26.9297Q23.8269 26.8304 23.8701 26.7303Q23.9133 26.6301 23.9422 26.5293Q23.9711 26.4285 23.9855 26.3274Q24 26.2263 24 26.125L24 22L0 22"/>
	<rect fill="rgb(50,205,50)" stroke="none" y="13.75" width="24" height="1.833333"/>
	<rect fill="rgb(255,0,0)" stroke="none" x="2.4000001" y="15.583333" width="19.200001" height="1.833333"/>
	<rect fill="rgb(255,255,0)" stroke="none" y="17.416666" width="24" height="1.833334"/>
	<rect fill="rgb(139,0,0)" stroke="none" y="19.25" width="24" height="5.5"/>
</svg>
