<?xml version="1.0" encoding="utf-8" ?>
<svg xmlns="http://www.w3.org/2000/svg" xmlns:xlink="http://www.w3.org/1999/xlink" width="24" height="33">
	<path fill="rgb(165,42,42)" stroke="none" d="M24 16.5L22.1191 14.1087L16.1755 13.2717L13.3166 0.358696L10.232 0L10.1567 13.2717L4.2884 13.2717L2.55799 8.84783L0.30094 8.72826L0.827586 16.8587L0 24.5109L2.85893 24.3913L4.13793 19.9674L10.1567 19.7283L10.232 32.8804L12.9404 33L15.9498 19.6087L21.9687 19.0109L24 16.5Z"/>
	<path fill="none" stroke="rgb(0,0,0)" stroke-width="1" stroke-miterlimit="4" d="M24 16.5L22.1191 14.1087L16.1755 13.2717L13.3166 0.358696L10.232 0L10.1567 13.2717L4.2884 13.2717L2.55799 8.84783L0.30094 8.72826L0.827586 16.8587L0 24.5109L2.85893 24.3913L4.13793 19.9674L10.1567 19.7283L10.232 32.8804L12.9404 33L15.9498 19.6087L21.9687 19.0109L24 16.5Z"/>
</svg>
