<?xml version="1.0" encoding="utf-8" ?>
<svg xmlns="http://www.w3.org/2000/svg" xmlns:xlink="http://www.w3.org/1999/xlink" width="24" height="33">
	<defs>
		<linearGradient id="gradient_0" gradientUnits="userSpaceOnUse" x1="0" y1="0" x2="13.200001" y2="18.15">
			<stop offset="0" stop-color="rgb(255,255,0)"/>
			<stop offset="1" stop-color="rgb(255,215,0)"/>
		</linearGradient>
	</defs>
	<ellipse fill="url(#gradient_0)" stroke="none" cx="6.6000004" cy="9.0749998" rx="6.6000004" ry="9.0749998"/>
	<defs>
		<linearGradient id="gradient_1" gradientUnits="userSpaceOnUse" x1="2.6400003" y1="11.7975" x2="10.56" y2="11.7975">
			<stop offset="0" stop-color="rgb(0,0,0)"/>
			<stop offset="1" stop-color="rgb(255,0,0)"/>
		</linearGradient>
	</defs>
	<path fill="url(#gradient_1)" stroke="none" d="M10.56 11.7975Q10.56 11.9089 10.5552 12.0201Q10.5505 12.1314 10.5409 12.2423Q10.5314 12.3531 10.5171 12.4633Q10.5029 12.5735 10.4839 12.6827Q10.4649 12.792 10.4413 12.9Q10.4177 13.0081 10.3895 13.1147Q10.3613 13.2213 10.3285 13.3261Q10.2958 13.431 10.2586 13.5339Q10.2214 13.6368 10.1798 13.7375Q10.1382 13.8382 10.0924 13.9365Q10.0466 14.0347 9.9966 14.1302Q9.94663 14.2258 9.89262 14.3184Q9.83861 14.411 9.7807 14.5005Q9.72279 14.59 9.66112 14.6761Q9.59945 14.7622 9.53417 14.8447Q9.46888 14.9272 9.40014 15.006Q9.3314 15.0848 9.25937 15.1596Q9.18734 15.2344 9.1122 15.305Q9.03705 15.3757 8.95897 15.4421Q8.88089 15.5084 8.80006 15.5703Q8.71923 15.6322 8.63585 15.6894Q8.55246 15.7467 8.46673 15.7992Q8.381 15.8517 8.29312 15.8993Q8.20524 15.947 8.11543 15.9896Q8.02561 16.0322 7.93408 16.0698Q7.84255 16.1073 7.74953 16.1396Q7.6565 16.1719 7.5622 16.199Q7.4679 16.2261 7.37256 16.2478Q7.27721 16.2695 7.18105 16.2859Q7.08489 16.3022 6.98815 16.3132Q6.8914 16.3241 6.79431 16.3295Q6.69721 16.335 6.6 16.335Q6.50279 16.335 6.40569 16.3295Q6.3086 16.3241 6.21185 16.3132Q6.11511 16.3022 6.01895 16.2859Q5.92279 16.2695 5.82744 16.2478Q5.7321 16.2261 5.6378 16.199Q5.5435 16.1719 5.45047 16.1396Q5.35745 16.1073 5.26592 16.0698Q5.17439 16.0322 5.08457 15.9896Q4.99476 15.947 4.90688 15.8993Q4.819 15.8517 4.73327 15.7992Q4.64754 15.7467 4.56415 15.6894Q4.48077 15.6322 4.39994 15.5703Q4.31911 15.5084 4.24103 15.4421Q4.16295 15.3757 4.0878 15.305Q4.01266 15.2344 3.94063 15.1596Q3.8686 15.0848 3.79986 15.006Q3.73112 14.9272 3.66583 14.8447Q3.60055 14.7622 3.53888 14.6761Q3.47721 14.59 3.4193 14.5005Q3.36139 14.411 3.30738 14.3184Q3.25337 14.2258 3.20339 14.1302Q3.15342 14.0347 3.10759 13.9365Q3.06177 13.8382 3.0202 13.7375Q2.97864 13.6368 2.94144 13.5339Q2.90424 13.431 2.87149 13.3261Q2.83874 13.2213 2.81052 13.1147Q2.7823 13.0081 2.75868 12.9Q2.73506 12.792 2.71609 12.6827Q2.69713 12.5735 2.68286 12.4633Q2.6686 12.3531 2.65907 12.2423Q2.64954 12.1314 2.64477 12.0201Q2.64 11.9089 2.64 11.7975L10.56 11.7975Z"/>
	<path fill="none" stroke="rgb(0,0,0)" stroke-width="1" stroke-miterlimit="4" d="M2.64 7.26Q2.64 7.08167 2.64636 6.9042Q2.65271 6.72673 2.66536 6.55182Q2.67801 6.37692 2.69684 6.20626Q2.71566 6.03561 2.74048 5.87086Q2.7653 5.7061 2.79586 5.54883Q2.82643 5.39156 2.86246 5.24328Q2.89849 5.095 2.93963 4.95715Q2.98077 4.8193 3.02662 4.6932Q3.07247 4.5671 3.1226 4.45397Q3.17273 4.34084 3.22665 4.24176Q3.28057 4.14269 3.33776 4.05863Q3.39495 3.97456 3.45486 3.90632Q3.51477 3.83807 3.57682 3.78631Q3.63888 3.73454 3.70248 3.69975Q3.76608 3.66496 3.83062 3.64748Q3.89515 3.63 3.96 3.63Q4.02485 3.63 4.08938 3.64748Q4.15392 3.66496 4.21752 3.69975Q4.28112 3.73454 4.34317 3.78631Q4.40523 3.83807 4.46514 3.90632Q4.52505 3.97456 4.58224 4.05863Q4.63943 4.14269 4.69335 4.24177Q4.74727 4.34084 4.7974 4.45397Q4.84753 4.5671 4.89338 4.6932Q4.93924 4.8193 4.98037 4.95715Q5.02151 5.095 5.05754 5.24328Q5.09357 5.39156 5.12414 5.54883Q5.15471 5.7061 5.17952 5.87086Q5.20434 6.03561 5.22316 6.20627Q5.24199 6.37692 5.25464 6.55182Q5.26729 6.72673 5.27364 6.9042Q5.28 7.08167 5.28 7.26"/>
	<path fill="none" stroke="rgb(0,0,0)" stroke-width="1" stroke-miterlimit="4" d="M7.92 7.26Q7.92 7.08167 7.92636 6.9042Q7.93271 6.72673 7.94536 6.55182Q7.95802 6.37692 7.97684 6.20626Q7.99566 6.03561 8.02048 5.87086Q8.0453 5.7061 8.07586 5.54883Q8.10643 5.39156 8.14246 5.24328Q8.17849 5.095 8.21963 4.95715Q8.26077 4.8193 8.30662 4.6932Q8.35247 4.5671 8.4026 4.45397Q8.45273 4.34084 8.50665 4.24176Q8.56057 4.14269 8.61776 4.05863Q8.67495 3.97456 8.73486 3.90632Q8.79477 3.83807 8.85682 3.78631Q8.91888 3.73454 8.98248 3.69975Q9.04608 3.66496 9.11062 3.64748Q9.17515 3.63 9.24 3.63Q9.30485 3.63 9.36938 3.64748Q9.43392 3.66496 9.49752 3.69975Q9.56112 3.73454 9.62318 3.78631Q9.68523 3.83807 9.74514 3.90632Q9.80505 3.97456 9.86225 4.05863Q9.91943 4.14269 9.97335 4.24177Q10.0273 4.34084 10.0774 4.45397Q10.1275 4.5671 10.1734 4.6932Q10.2192 4.8193 10.2604 4.95715Q10.3015 5.095 10.3375 5.24328Q10.3736 5.39156 10.4041 5.54883Q10.4347 5.7061 10.4595 5.87086Q10.4843 6.03561 10.5032 6.20627Q10.522 6.37692 10.5346 6.55182Q10.5473 6.72673 10.5536 6.9042Q10.56 7.08167 10.56 7.26"/>
	<defs>
		<linearGradient id="gradient_2" gradientUnits="userSpaceOnUse" x1="14.400001" y1="0" x2="27.600002" y2="18.15">
			<stop offset="0" stop-color="rgb(255,255,0)"/>
			<stop offset="1" stop-color="rgb(255,215,0)"/>
		</linearGradient>
	</defs>
	<ellipse fill="url(#gradient_2)" stroke="none" cx="21.000002" cy="9.0749998" rx="6.6000009" ry="9.0749998"/>
	<defs>
		<linearGradient id="gradient_3" gradientUnits="userSpaceOnUse" x1="17.040001" y1="11.7975" x2="24.960003" y2="11.7975">
			<stop offset="0" stop-color="rgb(0,0,0)"/>
			<stop offset="1" stop-color="rgb(255,0,0)"/>
		</linearGradient>
	</defs>
	<path fill="url(#gradient_3)" stroke="none" d="M24.96 11.7975Q24.96 11.9089 24.9552 12.0201Q24.9505 12.1314 24.9409 12.2423Q24.9314 12.3531 24.9171 12.4633Q24.9029 12.5735 24.8839 12.6827Q24.8649 12.792 24.8413 12.9Q24.8177 13.0081 24.7895 13.1147Q24.7613 13.2213 24.7285 13.3261Q24.6958 13.431 24.6586 13.5339Q24.6214 13.6368 24.5798 13.7375Q24.5382 13.8382 24.4924 13.9365Q24.4466 14.0347 24.3966 14.1302Q24.3466 14.2258 24.2926 14.3184Q24.2386 14.411 24.1807 14.5005Q24.1228 14.59 24.0611 14.6761Q23.9995 14.7622 23.9342 14.8447Q23.8689 14.9272 23.8001 15.006Q23.7314 15.0848 23.6594 15.1596Q23.5873 15.2344 23.5122 15.305Q23.4371 15.3757 23.359 15.4421Q23.2809 15.5084 23.2001 15.5703Q23.1192 15.6322 23.0358 15.6894Q22.9525 15.7467 22.8667 15.7992Q22.781 15.8517 22.6931 15.8993Q22.6052 15.947 22.5154 15.9896Q22.4256 16.0322 22.3341 16.0698Q22.2426 16.1073 22.1495 16.1396Q22.0565 16.1719 21.9622 16.199Q21.8679 16.2261 21.7726 16.2478Q21.6772 16.2695 21.5811 16.2859Q21.4849 16.3022 21.3881 16.3132Q21.2914 16.3241 21.1943 16.3295Q21.0972 16.335 21 16.335Q20.9028 16.335 20.8057 16.3295Q20.7086 16.3241 20.6119 16.3132Q20.5151 16.3022 20.4189 16.2859Q20.3228 16.2695 20.2274 16.2478Q20.1321 16.2261 20.0378 16.199Q19.9435 16.1719 19.8505 16.1396Q19.7574 16.1073 19.6659 16.0698Q19.5744 16.0322 19.4846 15.9896Q19.3948 15.947 19.3069 15.8993Q19.219 15.8517 19.1333 15.7992Q19.0475 15.7467 18.9642 15.6894Q18.8808 15.6322 18.7999 15.5703Q18.7191 15.5084 18.641 15.4421Q18.5629 15.3757 18.4878 15.305Q18.4127 15.2344 18.3406 15.1596Q18.2686 15.0848 18.1999 15.006Q18.1311 14.9272 18.0658 14.8447Q18.0005 14.7622 17.9389 14.6761Q17.8772 14.59 17.8193 14.5005Q17.7614 14.411 17.7074 14.3184Q17.6534 14.2258 17.6034 14.1302Q17.5534 14.0347 17.5076 13.9365Q17.4618 13.8382 17.4202 13.7375Q17.3786 13.6368 17.3414 13.5339Q17.3042 13.431 17.2715 13.3261Q17.2387 13.2213 17.2105 13.1147Q17.1823 13.0081 17.1587 12.9Q17.1351 12.792 17.1161 12.6827Q17.0971 12.5735 17.0829 12.4633Q17.0686 12.3531 17.0591 12.2423Q17.0495 12.1314 17.0448 12.0201Q17.04 11.9089 17.04 11.7975L24.96 11.7975Z"/>
	<path fill="none" stroke="rgb(0,0,0)" stroke-width="1" stroke-miterlimit="4" d="M17.04 7.26Q17.04 7.08167 17.0464 6.9042Q17.0527 6.72673 17.0654 6.55182Q17.078 6.37692 17.0968 6.20626Q17.1157 6.03561 17.1405 5.87086Q17.1653 5.7061 17.1959 5.54883Q17.2264 5.39156 17.2625 5.24328Q17.2985 5.095 17.3396 4.95715Q17.3808 4.8193 17.4266 4.6932Q17.4725 4.5671 17.5226 4.45397Q17.5727 4.34084 17.6266 4.24176Q17.6806 4.14269 17.7378 4.05863Q17.7949 3.97456 17.8549 3.90632Q17.9148 3.83807 17.9768 3.78631Q18.0389 3.73454 18.1025 3.69975Q18.1661 3.66496 18.2306 3.64748Q18.2952 3.63 18.36 3.63Q18.4248 3.63 18.4894 3.64748Q18.5539 3.66496 18.6175 3.69975Q18.6811 3.73454 18.7432 3.78631Q18.8052 3.83807 18.8651 3.90632Q18.9251 3.97456 18.9822 4.05863Q19.0394 4.14269 19.0933 4.24177Q19.1473 4.34084 19.1974 4.45397Q19.2475 4.5671 19.2934 4.6932Q19.3392 4.8193 19.3804 4.95715Q19.4215 5.095 19.4575 5.24328Q19.4936 5.39156 19.5241 5.54883Q19.5547 5.7061 19.5795 5.87086Q19.6043 6.03561 19.6232 6.20627Q19.642 6.37692 19.6546 6.55182Q19.6673 6.72673 19.6736 6.9042Q19.68 7.08167 19.68 7.26"/>
	<path fill="none" stroke="rgb(0,0,0)" stroke-width="1" stroke-miterlimit="4" d="M22.32 7.26Q22.32 7.08167 22.3264 6.9042Q22.3327 6.72673 22.3454 6.55182Q22.358 6.37692 22.3768 6.20626Q22.3957 6.03561 22.4205 5.87086Q22.4453 5.7061 22.4759 5.54883Q22.5064 5.39156 22.5425 5.24328Q22.5785 5.095 22.6196 4.95715Q22.6608 4.8193 22.7066 4.6932Q22.7525 4.5671 22.8026 4.45397Q22.8527 4.34084 22.9066 4.24176Q22.9606 4.14269 23.0178 4.05863Q23.0749 3.97456 23.1349 3.90632Q23.1948 3.83807 23.2568 3.78631Q23.3189 3.73454 23.3825 3.69975Q23.4461 3.66496 23.5106 3.64748Q23.5752 3.63 23.64 3.63Q23.7049 3.63 23.7694 3.64748Q23.8339 3.66496 23.8975 3.69975Q23.9611 3.73454 24.0232 3.78631Q24.0852 3.83807 24.1451 3.90632Q24.2051 3.97456 24.2622 4.05863Q24.3194 4.14269 24.3734 4.24177Q24.4273 4.34084 24.4774 4.45397Q24.5275 4.5671 24.5734 4.6932Q24.6192 4.8193 24.6604 4.95715Q24.7015 5.095 24.7375 5.24328Q24.7736 5.39156 24.8041 5.54883Q24.8347 5.7061 24.8595 5.87086Q24.8843 6.03561 24.9032 6.20627Q24.922 6.37692 24.9346 6.55182Q24.9473 6.72673 24.9536 6.9042Q24.96 7.08167 24.96 7.26"/>
	<defs>
		<linearGradient id="gradient_4" gradientUnits="userSpaceOnUse" x1="7.2000003" y1="13.2" x2="20.400002" y2="31.349998">
			<stop offset="0" stop-color="rgb(255,255,0)"/>
			<stop offset="1" stop-color="rgb(255,215,0)"/>
		</linearGradient>
	</defs>
	<ellipse fill="url(#gradient_4)" stroke="none" cx="13.800001" cy="22.275" rx="6.6000004" ry="9.0749989"/>
	<defs>
		<linearGradient id="gradient_5" gradientUnits="userSpaceOnUse" x1="9.8400002" y1="24.997498" x2="17.76" y2="24.997498">
			<stop offset="0" stop-color="rgb(0,0,0)"/>
			<stop offset="1" stop-color="rgb(255,0,0)"/>
		</linearGradient>
	</defs>
	<path fill="url(#gradient_5)" stroke="none" d="M17.76 24.9975Q17.76 25.1089 17.7552 25.2201Q17.7505 25.3314 17.7409 25.4422Q17.7314 25.5531 17.7171 25.6633Q17.7029 25.7735 17.6839 25.8827Q17.6649 25.992 17.6413 26.1Q17.6177 26.2081 17.5895 26.3147Q17.5613 26.4213 17.5285 26.5261Q17.4958 26.631 17.4586 26.7339Q17.4214 26.8368 17.3798 26.9375Q17.3382 27.0382 17.2924 27.1365Q17.2466 27.2347 17.1966 27.3302Q17.1466 27.4258 17.0926 27.5184Q17.0386 27.611 16.9807 27.7005Q16.9228 27.7899 16.8611 27.8761Q16.7994 27.9622 16.7342 28.0447Q16.6689 28.1272 16.6001 28.206Q16.5314 28.2848 16.4594 28.3596Q16.3873 28.4344 16.3122 28.505Q16.237 28.5757 16.159 28.642Q16.0809 28.7084 16.0001 28.7703Q15.9192 28.8322 15.8358 28.8894Q15.7525 28.9467 15.6667 28.9992Q15.581 29.0517 15.4931 29.0993Q15.4052 29.147 15.3154 29.1896Q15.2256 29.2322 15.1341 29.2697Q15.0426 29.3073 14.9495 29.3396Q14.8565 29.3719 14.7622 29.399Q14.6679 29.4261 14.5726 29.4478Q14.4772 29.4695 14.3811 29.4859Q14.2849 29.5022 14.1881 29.5131Q14.0914 29.5241 13.9943 29.5295Q13.8972 29.535 13.8 29.535Q13.7028 29.535 13.6057 29.5295Q13.5086 29.5241 13.4119 29.5131Q13.3151 29.5022 13.2189 29.4859Q13.1228 29.4695 13.0274 29.4478Q12.9321 29.4261 12.8378 29.399Q12.7435 29.3719 12.6505 29.3396Q12.5574 29.3073 12.4659 29.2698Q12.3744 29.2322 12.2846 29.1896Q12.1948 29.147 12.1069 29.0993Q12.019 29.0517 11.9333 28.9992Q11.8475 28.9467 11.7642 28.8894Q11.6808 28.8322 11.5999 28.7703Q11.5191 28.7084 11.441 28.642Q11.3629 28.5757 11.2878 28.505Q11.2127 28.4344 11.1406 28.3596Q11.0686 28.2848 10.9999 28.206Q10.9311 28.1272 10.8658 28.0447Q10.8005 27.9622 10.7389 27.8761Q10.6772 27.7899 10.6193 27.7005Q10.5614 27.611 10.5074 27.5184Q10.4534 27.4258 10.4034 27.3302Q10.3534 27.2347 10.3076 27.1365Q10.2618 27.0382 10.2202 26.9375Q10.1786 26.8368 10.1414 26.7339Q10.1042 26.631 10.0715 26.5261Q10.0387 26.4213 10.0105 26.3147Q9.9823 26.2081 9.95868 26.1Q9.93505 25.992 9.91609 25.8827Q9.89712 25.7735 9.88286 25.6633Q9.8686 25.5531 9.85907 25.4422Q9.84954 25.3314 9.84477 25.2201Q9.84 25.1089 9.84 24.9975L17.76 24.9975Z"/>
	<path fill="none" stroke="rgb(0,0,0)" stroke-width="1" stroke-miterlimit="4" d="M9.84 20.46Q9.84 20.2817 9.84636 20.1042Q9.85271 19.9267 9.86536 19.7518Q9.87801 19.5769 9.89684 19.4063Q9.91566 19.2356 9.94048 19.0709Q9.96529 18.9061 9.99586 18.7488Q10.0264 18.5916 10.0625 18.4433Q10.0985 18.295 10.1396 18.1572Q10.1808 18.0193 10.2266 17.8932Q10.2725 17.7671 10.3226 17.654Q10.3727 17.5408 10.4266 17.4418Q10.4806 17.3427 10.5378 17.2586Q10.5949 17.1746 10.6549 17.1063Q10.7148 17.0381 10.7768 16.9863Q10.8389 16.9345 10.9025 16.8997Q10.9661 16.865 11.0306 16.8475Q11.0952 16.83 11.16 16.83Q11.2248 16.83 11.2894 16.8475Q11.3539 16.865 11.4175 16.8997Q11.4811 16.9345 11.5432 16.9863Q11.6052 17.0381 11.6651 17.1063Q11.7251 17.1746 11.7822 17.2586Q11.8394 17.3427 11.8934 17.4418Q11.9473 17.5408 11.9974 17.654Q12.0475 17.7671 12.0934 17.8932Q12.1392 18.0193 12.1804 18.1572Q12.2215 18.295 12.2575 18.4433Q12.2936 18.5916 12.3241 18.7488Q12.3547 18.9061 12.3795 19.0709Q12.4043 19.2356 12.4232 19.4063Q12.442 19.5769 12.4546 19.7518Q12.4673 19.9267 12.4736 20.1042Q12.48 20.2817 12.48 20.46"/>
	<path fill="none" stroke="rgb(0,0,0)" stroke-width="1" stroke-miterlimit="4" d="M15.12 20.46Q15.12 20.2817 15.1264 20.1042Q15.1327 19.9267 15.1454 19.7518Q15.158 19.5769 15.1768 19.4063Q15.1957 19.2356 15.2205 19.0709Q15.2453 18.9061 15.2759 18.7488Q15.3064 18.5916 15.3425 18.4433Q15.3785 18.295 15.4196 18.1572Q15.4608 18.0193 15.5066 17.8932Q15.5525 17.7671 15.6026 17.654Q15.6527 17.5408 15.7066 17.4418Q15.7606 17.3427 15.8178 17.2586Q15.8749 17.1746 15.9349 17.1063Q15.9948 17.0381 16.0568 16.9863Q16.1189 16.9345 16.1825 16.8997Q16.2461 16.865 16.3106 16.8475Q16.3752 16.83 16.44 16.83Q16.5048 16.83 16.5694 16.8475Q16.6339 16.865 16.6975 16.8997Q16.7611 16.9345 16.8232 16.9863Q16.8852 17.0381 16.9451 17.1063Q17.0051 17.1746 17.0622 17.2586Q17.1194 17.3427 17.1733 17.4418Q17.2273 17.5408 17.2774 17.654Q17.3275 17.7671 17.3734 17.8932Q17.4192 18.0193 17.4604 18.1572Q17.5015 18.295 17.5375 18.4433Q17.5736 18.5916 17.6041 18.7488Q17.6347 18.9061 17.6595 19.0709Q17.6843 19.2356 17.7032 19.4063Q17.722 19.5769 17.7346 19.7518Q17.7473 19.9267 17.7536 20.1042Q17.76 20.2817 17.76 20.46"/>
</svg>
