<?xml version="1.0" encoding="utf-8" ?>
<svg xmlns="http://www.w3.org/2000/svg" xmlns:xlink="http://www.w3.org/1999/xlink" width="24" height="33">
	<path fill="rgb(112,128,144)" stroke="none" d="M4.68837 14.4913L4.57674 5.02174L6.36279 0L8.14884 5.16522L10.2698 4.44783L12.1674 5.3087L14.0651 4.01739L16.4093 6.45652L17.8605 0L19.6465 4.44783L19.2 11.7652L18.7535 14.3478L24 20.5174L21.5442 27.5478L11.7209 33L2.56744 29.987L0 23.1L1.00465 18.2217L4.68837 14.4913Z"/>
	<path fill="rgb(0,255,255)" stroke="none" d="M7.03256 17.3609L5.5814 12.6261L8.26046 7.03044L11.4977 9.18261L14.2884 6.45652L17.1907 10.0435L16.4093 16.6435L12.2791 17.2174L11.386 15.7826L10.8279 16.9304L8.37209 17.0739L7.03256 17.3609Z"/>
	<ellipse fill="rgb(0,0,0)" stroke="none" cx="10.32" cy="14.07" rx="1.2000003" ry="1.2000003"/>
	<ellipse fill="rgb(0,0,0)" stroke="none" cx="13.367441" cy="15.117392" rx="1.2000003" ry="1.2000003"/>
	<path fill="rgb(255,255,255)" stroke="none" d="M3.68372 26.8304L5.46977 27.1174L5.69302 29.987L3.90698 29.7L3.68372 26.8304Z"/>
	<path fill="none" stroke="rgb(0,0,0)" stroke-width="1" stroke-miterlimit="4" d="M3.68372 26.8304L5.46977 27.1174L5.69302 29.987L3.90698 29.7L3.68372 26.8304Z"/>
	<path fill="rgb(255,255,255)" stroke="none" d="M17.414 27.6913L17.5256 29.5565L18.9767 29.2696L19.0884 27.6913L17.414 27.6913Z"/>
	<path fill="none" stroke="rgb(0,0,0)" stroke-width="1" stroke-miterlimit="4" d="M17.414 27.6913L17.5256 29.5565L18.9767 29.2696L19.0884 27.6913L17.414 27.6913Z"/>
	<path fill="none" stroke="rgb(0,0,0)" stroke-width="0.82499999" stroke-miterlimit="4" d="M17.414 27.6913L17.5256 29.5565L18.9767 29.2696L19.0884 27.6913L17.414 27.6913ZM2.23256 25.1087L12.1674 28.9826L21.7674 23.8174"/>
</svg>
