<?xml version="1.0" encoding="utf-8" ?>
<svg xmlns="http://www.w3.org/2000/svg" xmlns:xlink="http://www.w3.org/1999/xlink" width="120" height="85">
	<text fill="rgb(255,0,0)" stroke="none" font-size="7.6500001" font-family="Tahoma" x="22.322018" y="11">
			Save Threatened Species
	</text>
	<text fill="rgb(255,0,0)" stroke="none" font-size="9.3500004" font-family="Tahoma" x="14.404919" y="66.25">
			Give $400
	</text>
	<path fill="rgb(255,218,185)" stroke="none" d="M87 22.2949L89.2345 21.9466L92.4 24.9071L90.7241 24.2105L86.4414 24.9071L87 22.2949Z"/>
	<path fill="none" stroke="rgb(0,0,0)" stroke-width="1" stroke-miterlimit="4" d="M87 22.2949L89.2345 21.9466L92.4 24.9071L90.7241 24.2105L86.4414 24.9071L87 22.2949Z"/>
	<path fill="rgb(165,42,42)" stroke="none" d="M77.8759 48.7651L78.8069 52.0739L76.3862 51.3773L73.2207 52.5963L68.1931 56.2534L70.0552 56.0793L75.4552 54.1637L74.5241 56.4276L75.6414 54.3378L79.5517 54.512L79.7379 56.4276L83.8345 56.95L84.9517 52.7705L87.3724 52.9446L89.7931 48.7651L86.6276 49.4617L85.6965 47.8944L83.4621 47.1978L81.2276 43.3666L80.1103 46.1529L81.6 49.9841L79.1793 47.7202L81.9724 26.3002L77.8759 48.7651Z"/>
	<path fill="rgb(0,0,0)" stroke="none" d="M87.7448 22.2949L85.1379 17.68L81.7862 21.25L81.6 27.3451L74.8966 29.7832L60 48.7651L66.8897 48.2427L73.0345 46.1529L77.5034 50.5066L83.6483 45.4563L83.0897 43.0183L88.3035 37.4456L90.1655 32.0471L87.3724 27.8676L87.7448 22.2949Z"/>
	<path fill="rgb(255,255,255)" stroke="none" d="M81.0414 23.1656L84.3931 21.4241L87.1862 22.1207L87 27.171L84.3931 27.171L81.0414 23.1656Z"/>
	<path fill="none" stroke="rgb(0,0,0)" stroke-width="1" stroke-miterlimit="4" d="M87.7448 22.2949L85.1379 17.68L81.7862 21.25L81.6 27.3451L74.8966 29.7832L60 48.7651L66.8897 48.2427L73.0345 46.1529L77.5034 50.5066L83.6483 45.4563L83.0897 43.0183L88.3035 37.4456L90.1655 32.0471L87.3724 27.8676L87.7448 22.2949Z"/>
	<defs>
		<linearGradient id="gradient_0" gradientUnits="userSpaceOnUse" x1="87" y1="51" x2="114" y2="80.75">
			<stop offset="0" stop-color="rgb(173,216,230)"/>
			<stop offset="1" stop-color="rgb(0,0,255)"/>
		</linearGradient>
	</defs>
	<ellipse fill="url(#gradient_0)" stroke="none" cx="100.5" cy="65.875" rx="13.5" ry="14.875"/>
	<defs>
		<linearGradient id="gradient_1" gradientUnits="userSpaceOnUse" x1="91.242859" y1="53.955299" x2="107.44286" y2="75.824501">
			<stop offset="0" stop-color="rgb(255,255,255)"/>
			<stop offset="1" stop-color="rgb(165,42,42)"/>
		</linearGradient>
	</defs>
	<path fill="url(#gradient_1)" stroke="none" d="M91.2429 58.2897L93.5571 61.048L95.6786 63.0182L95.6786 65.7765L97.9929 64.7914L99.7286 66.3675L99.7286 68.9288L102.814 71.096L103.971 73.8543L106.286 75.8245L105.514 73.0662L107.443 70.505L106.479 67.9437L102.814 66.3675L101.85 66.9586L100.5 65.1854L98.5714 64.0033L96.8357 64.3974L96.8357 62.4272L98.1857 61.8361L100.114 63.2152L100.114 60.851L102.429 58.8808L100.307 56.9106L97.2214 53.9553L92.9786 55.3344L91.2429 58.2897Z"/>
	<path fill="none" stroke="rgb(0,0,0)" stroke-width="1" stroke-miterlimit="4" d="M91.2429 58.2897L93.5571 61.048L95.6786 63.0182L95.6786 65.7765L97.9929 64.7914L99.7286 66.3675L99.7286 68.9288L102.814 71.096L103.971 73.8543L106.286 75.8245L105.514 73.0662L107.443 70.505L106.479 67.9437L102.814 66.3675L101.85 66.9586L100.5 65.1854L98.5714 64.0033L96.8357 64.3974L96.8357 62.4272L98.1857 61.8361L100.114 63.2152L100.114 60.851L102.429 58.8808L100.307 56.9106L97.2214 53.9553L92.9786 55.3344L91.2429 58.2897Z"/>
	<ellipse fill="none" stroke="rgb(0,0,0)" stroke-width="1" stroke-miterlimit="4" cx="100.5" cy="65.875" rx="13.5" ry="14.875"/>
</svg>
