<?xml version="1.0" encoding="utf-8" ?>
<svg xmlns="http://www.w3.org/2000/svg" xmlns:xlink="http://www.w3.org/1999/xlink" width="120" height="85">
	<text fill="rgb(255,0,0)" stroke="none" font-size="7.6500001" font-family="Tahoma" x="35.858932" y="11">
			Scholarship Drive
	</text>
	<text fill="rgb(255,0,0)" stroke="none" font-size="9.3500004" font-family="Tahoma" x="3.7332268" y="66.75">
			$400 to charity
	</text>
	<path fill="rgb(255,255,224)" stroke="none" d="M76.7101 39.9373L70.9055 23.2925L83.57 34.2537L88.1433 17L92.8925 33.6448L105.381 25.5254L98.6971 40.5463L114 42.5761L100.28 48.6657L104.678 65.9194L91.3094 56.3791L65.101 61.4537L76.5342 50.0866L60 42.3731L77.0619 40.5463L76.7101 39.9373Z"/>
	<path fill="rgb(192,192,192)" stroke="none" d="M76.1824 59.0179L83.7459 56.9881L90.43 62.8746L92.5407 62.2657L95.5309 58.003L101.863 60.4388L100.104 54.9582L99.4007 47.6507L80.4039 46.8388L76.1824 59.0179Z"/>
	<path fill="none" stroke="rgb(0,0,0)" stroke-width="1" stroke-miterlimit="4" d="M76.1824 59.0179L83.7459 56.9881L90.43 62.8746L92.5407 62.2657L95.5309 58.003L101.863 60.4388L100.104 54.9582L99.4007 47.6507L80.4039 46.8388L76.1824 59.0179Z"/>
	<defs>
		<linearGradient id="gradient_0" gradientUnits="userSpaceOnUse" x1="67.73941" y1="37.704475" x2="67.73941" y2="53.131344">
			<stop offset="0" stop-color="rgb(0,0,0)"/>
			<stop offset="1" stop-color="rgb(192,192,192)"/>
		</linearGradient>
	</defs>
	<path fill="url(#gradient_0)" stroke="none" d="M67.7394 44.809L79.3485 42.9821L90.2541 37.7045L91.4853 40.1403L98.1694 44.809L108.195 46.2299L104.853 47.4478L90.2541 53.1313L84.9772 52.7254L70.0261 46.2299L67.7394 44.809Z"/>
	<path fill="none" stroke="rgb(0,0,0)" stroke-width="1" stroke-miterlimit="4" d="M67.7394 44.809L79.3485 42.9821L90.2541 37.7045L91.4853 40.1403L98.1694 44.809L108.195 46.2299L104.853 47.4478L90.2541 53.1313L84.9772 52.7254L70.0261 46.2299L67.7394 44.809Z"/>
	<path fill="rgb(192,192,192)" stroke="none" d="M99.5765 56.1761L104.15 55.9731L104.326 60.0328L86.912 79.3164L80.7557 72.4149L99.5765 56.1761Z"/>
	<path fill="none" stroke="rgb(0,0,0)" stroke-width="1" stroke-miterlimit="4" d="M99.5765 56.1761L104.15 55.9731L104.326 60.0328L86.912 79.3164L80.7557 72.4149L99.5765 56.1761Z"/>
	<path fill="rgb(192,192,192)" stroke="none" d="M82.8664 79.9254L79.3485 76.0687L81.2834 70.994L86.7362 72.6179L87.4397 78.0985L82.8664 79.9254Z"/>
	<path fill="none" stroke="rgb(0,0,0)" stroke-width="1" stroke-miterlimit="4" d="M82.8664 79.9254L79.3485 76.0687L81.2834 70.994L86.7362 72.6179L87.4397 78.0985L82.8664 79.9254Z"/>
	<path fill="rgb(255,0,0)" stroke="none" d="M89.9023 63.4836L95.1792 65.3104L95.355 71.197L102.391 72.009L103.094 69.1672L99.5765 69.1672L103.27 66.5284L99.5765 66.1224L96.5863 61.4537L92.1889 61.4537L89.9023 63.4836Z"/>
	<path fill="none" stroke="rgb(0,0,0)" stroke-width="1" stroke-miterlimit="4" d="M85.5049 79.7224L83.3941 77.4895L85.6808 75.0537L85.8567 77.2866"/>
</svg>
