<?xml version="1.0" encoding="utf-8" ?>
<svg xmlns="http://www.w3.org/2000/svg" xmlns:xlink="http://www.w3.org/1999/xlink" width="120" height="85">
	<text fill="rgb(255,0,0)" stroke="none" font-size="7.6500001" font-family="Tahoma" x="25.052563" y="11">
			Support Local Recycling
	</text>
	<text fill="rgb(255,0,0)" stroke="none" font-size="9.3500004" font-family="Tahoma" x="14.404919" y="66.25">
			Give $200
	</text>
	<rect fill="rgb(0,0,0)" stroke="none" x="72" y="25.500002" width="42" height="51.000008"/>
	<path fill="rgb(50,205,50)" stroke="none" d="M80.3665 39.9409L84.8845 30.9839L94.9243 30.9839L88.0637 45.4247L80.3665 39.9409Z"/>
	<path fill="rgb(50,205,50)" stroke="none" d="M108.894 45.5887L114.392 53.9798L109.372 62.6746L100.296 49.5127L108.894 45.5887Z"/>
	<path fill="rgb(50,205,50)" stroke="none" d="M89.7392 67.4705L79.7233 68.0363L74.7034 59.3416L90.6398 58.0626L89.7392 67.4705Z"/>
	<path fill="rgb(50,205,50)" stroke="none" d="M86.7 30.0699L90.48 34.6398L93 39.78L88.8 45.9L101.283 45.9L101.283 45.9L105.6 30.6M100.56 35.1882L98.46 31.5323L96.36 29.1559L100.56 35.1882Z"/>
	<path fill="none" stroke="rgb(0,0,0)" stroke-width="1" stroke-miterlimit="4" d="M86.7 30.0699L90.48 34.6398L93 39.78L88.8 45.9L101.283 45.9L101.283 45.9L105.6 30.6M100.56 35.1882L98.46 31.5323L96.36 29.1559L100.56 35.1882Z"/>
	<path fill="rgb(50,205,50)" stroke="none" d="M114.276 56.0091L108.428 56.9977L102.717 56.61L99.5167 49.9127L93.2753 60.7232L93.2753 60.7232L104.367 72.1119M102.913 65.4531L107.13 65.4624L110.238 64.8319L102.913 65.4531Z"/>
	<path fill="none" stroke="rgb(0,0,0)" stroke-width="1" stroke-miterlimit="4" d="M114.276 56.0091L108.428 56.9977L102.717 56.61L99.5167 49.9127L93.2753 60.7232L93.2753 60.7232L104.367 72.1119M102.913 65.4531L107.13 65.4624L110.238 64.8319L102.913 65.4531Z"/>
	<path fill="rgb(50,205,50)" stroke="none" d="M78.024 66.921L80.0916 61.3625L83.2832 56.61L90.6833 57.1873L84.4418 46.3768L84.4418 46.3768L69.0331 50.2881M75.5265 52.3588L73.4104 56.0054L72.4025 59.0122L75.5265 52.3588Z"/>
	<path fill="none" stroke="rgb(0,0,0)" stroke-width="1" stroke-miterlimit="4" d="M78.024 66.921L80.0916 61.3625L83.2832 56.61L90.6833 57.1873L84.4418 46.3768L84.4418 46.3768L69.0331 50.2881M75.5265 52.3588L73.4104 56.0054L72.4025 59.0122L75.5265 52.3588Z"/>
	<rect fill="none" stroke="rgb(0,128,0)" stroke-width="4" stroke-miterlimit="4" x="72" y="25.500002" width="42" height="51.000008"/>
</svg>
