<?xml version="1.0" encoding="utf-8" ?>
<svg xmlns="http://www.w3.org/2000/svg" xmlns:xlink="http://www.w3.org/1999/xlink" width="120" height="85">
	<text fill="rgb(255,0,0)" stroke="none" font-size="7.6500001" font-family="Tahoma" x="30.275375" y="11">
			Whale Rescue Patrol
	</text>
	<text fill="rgb(255,0,0)" stroke="none" font-size="9.3500004" font-family="Tahoma" x="14.404919" y="66.25">
			Give $400
	</text>
	<defs>
		<linearGradient id="gradient_0" gradientUnits="userSpaceOnUse" x1="60" y1="21.25" x2="114" y2="21.25">
			<stop offset="0" stop-color="rgb(0,0,255)"/>
			<stop offset="1" stop-color="rgb(0,0,139)"/>
		</linearGradient>
	</defs>
	<rect fill="url(#gradient_0)" stroke="none" x="60" y="21.25" width="54" height="59.5"/>
	<path fill="rgb(0,0,0)" stroke="none" d="M98.5714 45.7591L106.489 50.2909L110.346 45.9749L113.797 44.4642L114 47.0539L110.955 53.3122L110.752 58.7073L114 63.4549L110.346 62.8075L106.083 57.844L100.398 58.0598L89.0301 59.5705L81.5188 60.4337L82.5338 63.8865L81.7218 68.85L76.6466 64.7497L75.8346 60.4337L65.6842 57.844L60 51.5858L65.4812 44.4642L72.7895 44.2484L79.0827 44.0326L85.1729 30.0054L89.0301 27.2L88.218 35.4005L89.8421 43.601L93.2932 45.7591L98.5714 45.7591Z"/>
	<path fill="rgb(255,255,255)" stroke="none" d="M69.5414 50.0751L72.5865 47.0539L77.0526 47.4855L74.8195 48.1329L72.7895 50.9383L69.5414 50.0751Z"/>
	<path fill="rgb(255,255,255)" stroke="none" d="M63.2481 54.8228L66.2932 52.449L72.7895 55.2544L76.0376 59.5705L67.3083 57.6282L63.2481 54.8228Z"/>
	<path fill="rgb(255,255,255)" stroke="none" d="M81.3158 59.5705L82.7368 56.765L87.203 55.9018L92.0752 51.1541L101.211 52.6648L97.1504 54.3912L86.594 58.9231L81.3158 59.5705Z"/>
	<defs>
		<linearGradient id="gradient_1" gradientUnits="userSpaceOnUse" x1="89.699997" y1="61.75" x2="100.5" y2="70.675003">
			<stop offset="0" stop-color="rgb(173,216,230)"/>
			<stop offset="1" stop-color="rgb(0,0,255)"/>
		</linearGradient>
	</defs>
	<path fill="url(#gradient_1)" stroke="none" d="M89.7 62.0578L89.82 69.444L92.34 67.7513L95.82 70.675L100.5 67.1358L97.14 61.75L92.82 64.0582L89.7 62.0578Z"/>
	<defs>
		<linearGradient id="gradient_2" gradientUnits="userSpaceOnUse" x1="100.5" y1="67.150002" x2="111.3" y2="76.075005">
			<stop offset="0" stop-color="rgb(173,216,230)"/>
			<stop offset="1" stop-color="rgb(0,0,255)"/>
		</linearGradient>
	</defs>
	<path fill="url(#gradient_2)" stroke="none" d="M100.5 67.4578L100.62 74.844L103.14 73.1513L106.62 76.075L111.3 72.5358L107.94 67.15L103.62 69.4582L100.5 67.4578Z"/>
	<rect fill="none" stroke="rgb(0,0,0)" stroke-width="3" stroke-miterlimit="4" x="60" y="21.25" width="54" height="59.5"/>
</svg>
