<?xml version="1.0" encoding="utf-8" ?>
<svg xmlns="http://www.w3.org/2000/svg" xmlns:xlink="http://www.w3.org/1999/xlink" width="120" height="85">
	<text fill="rgb(255,0,0)" stroke="none" font-size="7.6500001" font-family="Tahoma" x="10.495361" y="12">
			Citizens for a clean environment
	</text>
	<text fill="rgb(255,0,0)" stroke="none" font-size="9.3500004" font-family="Tahoma" x="14.404919" y="66.25">
			Give $300
	</text>
	<defs>
		<linearGradient id="gradient_0" gradientUnits="userSpaceOnUse" x1="72" y1="42.5" x2="114" y2="42.5">
			<stop offset="0" stop-color="rgb(135,206,235)"/>
			<stop offset="1" stop-color="rgb(218,112,214)"/>
		</linearGradient>
	</defs>
	<rect fill="url(#gradient_0)" stroke="none" x="72" y="42.5" width="42" height="38.25"/>
	<rect fill="rgb(255,255,0)" stroke="none" x="86" y="57.799999" width="14" height="14.000004"/>
	<defs>
		<linearGradient id="gradient_1" gradientUnits="userSpaceOnUse" x1="72" y1="65.449997" x2="114" y2="65.449997">
			<stop offset="0" stop-color="rgb(255,255,255)"/>
			<stop offset="1" stop-color="rgb(0,128,0)"/>
		</linearGradient>
	</defs>
	<path fill="url(#gradient_1)" stroke="none" d="M72 65.45L78.2358 65.8703L82.0873 68.1121L87.4061 67.4115L92.1747 70.9143L101.712 66.0104L108.131 70.2137L114 70.2137L114 78.2L72 78.2"/>
	<path fill="none" stroke="rgb(0,128,0)" stroke-width="1" stroke-miterlimit="4" d="M72 65.45L78.2358 65.8703L82.0873 68.1121L87.4061 67.4115L92.1747 70.9143L101.712 66.0104L108.131 70.2137L114 70.2137L114 78.2L72 78.2"/>
	<rect fill="none" stroke="rgb(112,128,144)" stroke-width="3" stroke-miterlimit="4" x="72" y="42.5" width="42" height="38.25"/>
</svg>
