<?xml version="1.0" encoding="utf-8"?>
<!-- Generator: Adobe Illustrator 22.0.1, SVG Export Plug-In . SVG Version: 6.00 Build 0)  -->
<svg version="1.1" id="Layer_1" xmlns="http://www.w3.org/2000/svg" xmlns:xlink="http://www.w3.org/1999/xlink" x="0px" y="0px"
	 viewBox="0 0 2000 2000"  xml:space="preserve">
<g>
	<path style="fill: SaddleBrown;" d="M51.8,1079.8c4.4,29.9,30.1,51.6,54.4,69.6c226.7,167.7,495.7,272.5,717.5,446.5c27.7,21.8,56.4,45.4,91.2,51.3
		c49.4,8.4,96.6-20.8,138-49.1c255.2-174.3,506-364.4,797.5-467.1c15.3-5.4,33.3-13.5,35.4-29.7c1-7.9-2.3-15.7-5.5-23
		c-32.6-73.2-65.2-146.3-97.8-219.5c-4.1-9.2-8.4-18.7-16.3-25c-8.7-7-20.2-8.9-30.7-12.5c-65.4-22.9-81.8-107.2-128.5-158.4
		c-39.8-43.6-99.9-61-156.6-77.7c-115.8-34.2-246.6-70.1-347.6-138.4c-38.1-25.8-58.6-48.6-107.9-42.3c-62.4,7.9-123,36.7-180,61.8
		c0,0,0,0,0,0C646.6,540.6,478.2,615,310.6,691.1c-15.5,7-31.2,14.3-43.7,25.8c-17.4,16.1-26.6,38.9-36.3,60.6
		c-33.2,74.4-77.6,143.8-131.2,205.1C74.8,1010.6,46.3,1042.8,51.8,1079.8z M1410,698.6c-208.1,90.3-392.3,228.6-612.5,293.3
		c2.8,7.7,5.2,15.8,7.5,23.5c10.9,36.5,16.3,76.6,44.1,104.9c7.7,7.8-2,19.9-11.5,15c-29.4-15.4-47.1-40-61.7-69.3
		c-8.3-16.6-15.5-34-25.5-49.7c-3.6-5.7-7.4-10.3-10.8-14.8c-56.3-19.2-107.8-61.1-156.7-94.2c-64.1-43.3-121.6-90.7-182.9-136.9
		c-6.1-4.6-1.1-13.7,6.1-10.4C479,793.5,551.4,826.7,624,862c46.3,22.5,103.4,28.5,140.9,62.3c121.4-36.2,240.4-63,357.3-114.8
		c94.4-41.9,185.4-88.3,284.7-118.2C1411.1,690,1414.2,696.7,1410,698.6z M270.4,922.5c94.7,63,193.7,121.7,296.3,170.8
		c94.8,45.4,199.1,72,284.2,131.9c146.4-48.1,281-107.9,417.8-179.1c60.5-31.5,121.1-62.7,183.4-90.3c66.6-29.5,138-50.2,196.3-95.3
		c5.1-4,10.3-5,16.3-2.1c1.5,0.7,3,1.5,4.5,2.2c11.3,5.5,6.4,20.4-3.2,24.2c-1.6,0.6-3.1,1.2-4.7,1.8c-1.9,0.7-3.6,0.9-5.3,0.7
		c-12,9.3-57.9,41.9-60.9,43.5c-29,15.4-59.7,27.6-89.4,41.4c-73.3,34-143.7,73.8-213.7,113.9c-128.2,73.6-259.3,149.9-399.3,199.6
		c-0.1,3.3-0.4,6.8-1.2,10.7c-6.3,31,12.5,75.4,17.5,105.9c5.3,32.7,4,65.3,3.8,98.3c-0.1,9.3-14.4,14.5-18.7,5.1
		c-13.2-29.3-28.2-58.1-37.5-88.9c-7.9-26.4-11.6-70.7-26.9-96.2c-8.9,0.6-18.6-2.1-28.2-9.2c-19.4-14.3-28.4-30.4-45.8-46.7
		c-21.9-20.5-54.5-35.8-80.2-51.1c-47.8-28.5-96.9-54.2-145.9-80.5c-100.4-53.7-194.7-109.1-271.4-194.9
		C251.1,930.2,260.5,915.9,270.4,922.5z"/>
</g>
</svg>
