<?xml version="1.0" encoding="utf-8"?>
<!DOCTYPE svg PUBLIC "-//W3C//DTD SVG 1.1//EN" "http://www.w3.org/Graphics/SVG/1.1/DTD/svg11.dtd">
<!-- exported from Silhouette Studio® Business Edition V4.3.356ssbe -->
<svg version="1.1" xmlns="http://www.w3.org/2000/svg" xmlns:xlink="http://www.w3.org/1999/xlink" width="177.8mm" height="177.8mm" viewBox="0 0 177.8 177.8">
<defs/>
<path d="M 122.1199 170.7145 C 118.8743 170.3186 114.3033 169.149 112.026 168.1319 C 111.7088 167.9901 111.3577 167.8743 111.2457 167.8743 C 111.1337 167.8743 110.8991 167.7948 110.7243 167.6978 C 110.5495 167.6007 109.9947 167.3469 109.4914 167.1338 C 108.5686 166.7431 106.7017 165.8155 97.49951 161.1756 C 92.85733 158.835 91.17018 158.0154 86.88812 156.0208 C 83.74638 154.5574 82.85895 154.1539 82.78241 154.1539 C 82.73938 154.1539 82.14247 153.9018 81.45598 153.5935 C 79.63576 152.7762 79.62372 152.771 77.82852 152.0419 C 76.92255 151.674 76.01659 151.2993 75.81526 151.2093 C 75.09689 150.8881 69.93408 148.9846 68.58588 148.5439 C 67.83093 148.2971 67.04849 148.0261 66.84718 147.9416 C 66.40346 147.7555 64.47568 147.1662 61.44801 146.2912 C 60.69305 146.073 59.86943 145.8244 59.61778 145.7387 C 59.36613 145.6531 58.54254 145.4061 57.78758 145.1899 C 56.2887 144.7607 55.6962 144.5583 54.58469 144.0958 C 54.18204 143.9282 53.48198 143.6372 53.02901 143.4492 C 51.78367 142.9321 47.20438 140.5612 45.84657 139.7305 C 38.72914 135.3761 32.52466 129.5129 28.68333 123.5113 C 27.51473 121.6854 27.52938 121.7118 26.39691 119.3956 C 25.83118 118.2385 25.29142 117.1489 25.19745 116.9742 C 25.10348 116.7994 25.02659 116.5649 25.02659 116.453 C 25.02659 116.3411 24.91119 115.9901 24.77013 115.673 C 23.42267 112.6441 22.28548 106.2831 22.27962 101.7421 C 22.27674 99.51019 22.46976 97.34683 23.1202 92.32071 C 23.46187 89.68076 23.89672 86.96289 24.13004 86.00937 C 24.22851 85.6069 24.38513 84.866 24.47809 84.36292 C 24.79634 82.64035 25.56625 79.71118 26.20909 77.77713 C 26.76067 76.11761 26.74736 76.15009 27.76909 73.97903 C 28.58868 72.23758 28.77145 72.06445 30.52995 71.36423 C 31.17728 71.10648 31.96643 70.77689 32.28363 70.63187 C 32.60082 70.48682 32.94144 70.36816 33.04055 70.36816 C 33.13966 70.36816 33.45665 70.24515 33.74497 70.09488 C 34.43063 69.73746 34.90979 69.74594 34.90979 70.11551 C 34.90979 70.27847 34.6315 70.87527 34.29136 71.44183 C 33.78895 72.27866 31.94762 75.98178 31.23217 77.59421 C 30.53906 79.15625 29.60098 81.95477 28.84061 84.72876 C 28.25719 86.85724 28.23873 87.03262 28.23418 90.49136 C 28.22945 94.07379 28.25304 94.27673 29.08455 97.8089 C 29.47631 99.47308 30.94462 104.0946 31.24876 104.6208 C 31.34975 104.7956 31.43236 105.0265 31.43236 105.134 C 31.43236 105.2415 31.60158 105.7159 31.8084 106.1884 C 32.01522 106.6608 32.25111 107.2119 32.3326 107.4131 C 32.41408 107.6144 32.64631 108.1495 32.84864 108.6023 C 33.05098 109.055 33.41135 109.8782 33.64948 110.4316 C 34.07684 111.4249 34.45628 112.1765 37.34296 117.7491 C 38.15082 119.3087 38.93934 120.8523 39.0952 121.1793 C 39.67497 122.3956 39.9538 121.7235 40.32452 118.2162 C 41.36245 108.3964 42.16185 103.292 43.31994 99.08945 C 44.45515 94.96994 44.66833 94.34732 45.77672 91.91406 C 46.64012 90.01868 47.04446 89.45731 48.95786 87.49768 C 50.9742 85.43265 52.40108 83.54718 54.0863 80.72125 L 55.38522 78.54309 L 55.78065 79.4407 C 57.09644 82.42719 57.19838 82.58621 59.51697 85.26935 C 61.4577 87.51514 63.15469 89.26639 70.51385 96.61765 C 79.19649 105.291 83.16646 109.151 83.40434 109.151 C 83.66394 109.151 83.6425 108.5453 83.33315 107.1388 C 83.08252 105.9994 82.8304 104.7136 82.21208 101.4219 C 82.05617 100.5919 81.85471 99.54221 81.76437 99.08945 C 81.67403 98.63672 81.56093 98.01929 81.51303 97.71744 C 81.41011 97.0686 80.96507 94.54718 80.65741 92.86954 C 80.53748 92.21552 80.36885 91.14536 80.28267 90.49136 C 80.19649 89.83737 80.00519 88.47906 79.85756 87.4729 C 79.70993 86.46674 79.49953 84.94373 79.38997 84.0885 C 79.28041 83.23328 79.10915 81.91269 79.00935 81.15381 C 78.90956 80.39496 78.70735 78.06204 78.56 75.96957 C 78.30557 72.3569 78.31035 72.02252 78.65511 69.33871 C 79.08865 65.96359 79.10562 64.50839 78.74118 61.95297 C 78.41188 59.64404 77.99716 57.85437 77.25511 55.54004 C 77.19164 55.3421 77.45995 55.09225 78.1368 54.71893 C 79.49016 53.97256 81.58327 53.06802 83.02139 52.60809 C 83.68848 52.39474 84.39903 52.14771 84.60036 52.05905 C 85.1945 51.79747 88.16716 51.11058 90.09102 50.79028 C 90.69499 50.68973 91.6833 50.52444 92.28728 50.42299 C 92.89125 50.32153 94.99144 50.1604 96.95435 50.06496 C 101.0262 49.86696 103.9539 49.59868 105.2819 49.30194 C 108.3994 48.60529 110.4688 47.9313 112.8479 46.83772 C 113.5866 46.49815 114.2205 46.22031 114.2565 46.22031 C 114.2925 46.22031 115.3353 45.60782 116.5737 44.8593 C 120.966 42.20459 125.0668 38.41808 126.1947 35.97574 C 126.4038 35.52295 126.9109 34.42403 127.3215 33.53363 C 127.7322 32.64325 128.0682 31.84064 128.0682 31.75 C 128.0682 31.40936 128.8247 31.60365 129.3856 32.0883 C 131.443 33.86624 132.9732 35.36516 134.2918 36.89424 C 134.507 37.14368 134.8626 37.55359 135.0821 37.80511 C 135.3016 38.05664 135.9784 38.96222 136.586 39.81743 C 141.5431 46.79486 144.8579 55.93204 146.2757 66.52643 C 146.9886 71.85406 147.1031 74.04248 147.1028 82.34262 C 147.1025 90.815 147.1556 91.65158 147.9518 95.70511 C 148.2904 97.42886 148.5796 98.52905 149.3462 101.0103 C 150.0431 103.2661 150.3774 104.0909 151.7932 107.0473 C 152.5467 108.6208 153.8309 110.9828 154.4289 111.8951 C 154.5278 112.0461 154.6599 112.293 154.7223 112.444 C 154.7848 112.5949 155.03 113.1426 155.2672 113.6612 C 158.3138 120.3199 159.3741 132.5505 157.7946 142.8117 C 157.2672 146.2373 156.9366 148.0384 156.6886 148.8355 C 156.55 149.2811 156.4366 149.7757 156.4366 149.9346 C 156.4366 150.4313 155.2171 154.0511 154.6813 155.145 C 154.2312 156.0637 151.6435 159.1451 149.6493 161.137 C 148.7494 162.0357 146.6393 163.8375 145.3638 164.7961 C 144.3715 165.5419 140.6226 167.8743 140.4162 167.8743 C 140.3697 167.8743 139.8167 168.1133 139.1873 168.4056 C 134.4543 170.603 128.1722 171.4528 122.1199 170.7145 Z M 141.5317 162.8258 C 142.2656 162.4777 142.419 162.0965 142.3958 160.6779 C 142.3645 158.7642 140.6885 156.0236 138.8626 154.9006 C 137.649 154.1543 136.6878 154.0847 136.0368 154.696 C 135.6245 155.0832 135.5721 155.2776 135.5721 156.4218 C 135.5721 157.5435 135.6611 157.8905 136.256 159.0883 C 137.2335 161.0563 138.6646 162.4286 140.3307 162.9956 C 140.7771 163.1475 140.886 163.1321 141.5317 162.8258 Z M 124.8736 162.12 C 126.7199 160.2746 122.4171 154.7119 119.1375 154.7045 C 116.6825 154.6989 116.9078 157.8234 119.553 160.4674 C 121.5371 162.4506 123.8303 163.1629 124.8736 162.12 Z M 100.0883 151.5714 C 100.9408 150.4633 100.1986 148.2664 98.32732 146.3588 C 97.02159 145.0277 95.61972 144.2797 94.42575 144.277 C 93.42323 144.2747 92.95889 144.5253 92.66325 145.2281 C 91.94531 146.9348 94.09055 150.1945 96.86285 151.6094 C 98.22891 152.3066 99.53455 152.2912 100.0883 151.5714 Z M 143.1826 144.0521 C 143.7521 143.7928 144.3571 142.541 144.3571 141.6222 C 144.3571 139.7759 143.1273 137.0086 141.7378 135.7284 C 140.4749 134.5649 139.2723 134.5221 138.5558 135.6152 C 138.105 136.3029 138.1139 138.794 138.5711 139.9142 C 139.3971 141.9383 140.6107 143.5226 141.7034 144.0036 C 142.4124 144.3158 142.5908 144.3217 143.1826 144.0521 Z M 120.4892 141.6341 C 121.3912 141.377 121.6439 139.6325 121.0209 137.9639 C 120.5127 136.6028 119.644 135.322 118.5808 134.3666 C 116.9147 132.8693 115.4464 132.6981 114.653 133.9084 C 113.8483 135.136 114.6786 137.881 116.4508 139.8511 C 117.4801 140.9955 118.2195 141.5412 118.9838 141.7208 C 119.5539 141.8548 119.7559 141.8431 120.4892 141.6341 Z M 57.32182 139.954 C 57.70425 139.8073 58.15363 138.9358 58.15363 138.3408 C 58.15363 137.579 57.49489 136.0787 56.77481 135.2003 C 55.26259 133.3557 53.82077 132.4206 52.23698 132.2572 C 51.38719 132.1696 51.2049 132.2136 50.73116 132.6209 C 50.28486 133.0046 50.19359 133.2208 50.20057 133.8777 C 50.22711 136.3749 53.78645 140.0677 56.16701 140.0677 C 56.63921 140.0677 57.15887 140.0165 57.32182 139.954 Z M 72.1888 139.6699 C 72.7178 139.1732 72.76472 137.8852 72.29211 136.8344 C 71.91216 135.9896 70.80647 134.4549 70.20399 133.936 C 68.09239 132.1173 65.67044 131.67 64.9958 132.974 C 64.04634 134.8092 66.24144 138.251 69.31178 139.7413 C 70.26071 140.2019 71.65921 140.1672 72.1888 139.6699 Z M 152.1171 131.4068 C 152.6726 130.7188 152.6846 130.6623 152.6834 128.7542 C 152.6821 126.6854 152.4231 125.668 151.5582 124.3349 C 150.6721 122.9692 150.0508 122.5056 149.1069 122.5056 C 148.292 122.5056 147.8008 122.9931 147.3955 124.2042 C 147.0237 125.315 147.0249 126.289 147.4 127.7841 C 148.3401 131.5309 150.6096 133.274 152.1171 131.4068 Z M 88.06866 129.7208 C 88.60176 129.3716 89.0844 128.223 89.0844 127.3034 C 89.0844 126.3581 88.4675 124.2926 87.87915 123.2682 C 86.4335 120.7508 84.30092 119.8677 83.29385 121.3693 C 82.88483 121.9792 82.84038 124.4821 83.22144 125.4469 C 84.12675 127.739 84.78227 128.6872 86.04431 129.5304 C 86.85849 130.0744 87.44458 130.1295 88.06866 129.7208 Z M 133.0443 126.9563 C 133.9824 126.1077 133.9241 123.4259 132.9209 121.2847 C 132.15 119.6393 130.79 118.1958 129.8434 118.0183 C 128.7984 117.8224 128.218 118.2176 127.8203 119.396 C 127.5212 120.2823 127.507 120.5431 127.7006 121.5909 C 128.1269 123.8984 129.3483 125.9948 130.8086 126.9254 C 131.712 127.5013 132.431 127.5111 133.0443 126.9563 Z M 52.93973 126.0445 C 54.03911 124.9456 53.44897 122.8117 51.48114 120.7703 C 49.57573 118.7937 47.0576 117.9666 46.0397 118.9832 C 45.22095 119.8009 45.66772 122.0547 46.91508 123.3994 C 47.1572 123.6603 47.3553 123.9338 47.3553 124.007 C 47.3553 124.1706 49.16015 125.5448 49.96803 125.9964 C 50.75371 126.4355 52.51988 126.4641 52.93973 126.0445 Z M 108.9682 124.7802 C 109.8474 123.7574 109.7432 121.1816 108.7394 119.1212 C 107.7306 117.0504 106.4895 115.9198 105.2252 115.9198 C 104.3573 115.9198 103.9828 116.2886 103.6167 117.5032 C 103.3772 118.2979 103.3822 118.54 103.6646 119.8473 C 103.9846 121.3291 104.7304 122.9754 105.4392 123.7652 C 106.7697 125.2476 108.2102 125.6618 108.9682 124.7802 Z M 31.37759 117.7034 C 31.92375 117.1041 32.10201 116.6714 32.22552 115.6454 C 32.66689 111.979 29.96544 107.5228 27.96763 108.6217 C 26.81081 109.258 26.38396 111.4423 26.96439 113.7555 C 27.25211 114.9022 28.0999 116.6351 28.6438 117.1882 C 29.62141 118.1826 30.74762 118.3948 31.37759 117.7034 Z M 67.89488 117.6119 C 68.79593 116.5848 68.99545 115.1646 68.47482 113.4845 C 67.5464 110.4881 65.90245 108.6023 64.21887 108.6023 C 62.04265 108.6023 62.1205 113.301 64.34558 116.2506 C 65.42824 117.6857 67.22546 118.3751 67.89488 117.6119 Z M 117.1516 105.4096 C 117.418 105.1628 117.6395 104.8953 117.6439 104.815 C 117.6483 104.7348 117.7188 104.3236 117.8005 103.9014 C 118.1473 102.1108 117.0375 99.02637 115.5139 97.54623 C 113.6644 95.74948 111.7803 96.45428 111.7794 98.94324 C 111.7781 103.0412 115.2269 107.1925 117.1516 105.4096 Z M 140.73 103.2513 C 141.0888 102.7486 141.1543 102.4308 141.1543 101.1932 C 141.1543 99.45541 140.7464 98.10358 139.796 96.69107 C 138.2353 94.37146 136.3173 93.83813 135.4469 95.48181 C 135.0134 96.30066 135.0607 98.33682 135.5426 99.59985 C 136.5444 102.2253 138.047 103.8176 139.5404 103.8363 C 140.2 103.8445 140.3644 103.7637 140.73 103.2513 Z M 59.57489 100.6901 C 60.15999 100.0675 60.39079 98.75262 60.16399 97.33353 C 60.05914 96.67743 59.89993 96.00153 59.81027 95.83142 C 59.7206 95.66135 59.47102 95.16037 59.25565 94.71829 C 58.06647 92.2771 55.94101 91.03271 54.92606 92.1835 C 53.77681 93.48657 53.86678 95.4541 55.19908 98.15366 C 56.08467 99.94803 57.35254 101.1017 58.43886 101.1017 C 58.97908 101.1017 59.29582 100.987 59.57489 100.6901 Z M 95.80693 100.6901 C 96.48779 99.95374 96.67911 98.8992 96.40451 97.39648 C 95.68082 93.43625 92.56975 90.49667 91.03349 92.32162 C 90.76219 92.64383 90.51743 93.22672 90.44185 93.73035 C 90.25168 94.99805 90.73972 97.18246 91.47572 98.35773 C 91.57024 98.50867 91.72305 98.80511 91.81531 99.01654 C 91.90755 99.22797 92.42068 99.78363 92.9556 100.2514 C 93.77339 100.9665 94.04742 101.1017 94.67729 101.1017 C 95.21935 101.1017 95.53154 100.988 95.80693 100.6901 Z M 128.5316 90.66815 C 128.9924 90.18738 129.0731 89.94421 129.135 88.84854 C 129.2594 86.64713 128.186 84.13565 126.4785 82.63336 C 125.7736 82.01315 125.5096 81.89328 124.8488 81.89328 C 124.1613 81.89328 123.9971 81.97601 123.567 82.53973 C 123.1455 83.09204 123.0732 83.36511 123.0706 84.41479 C 123.065 86.62079 124.0369 88.85117 125.6434 90.31866 C 126.8847 91.45264 127.6867 91.54971 128.5316 90.66815 Z M 108.8937 81.35895 L 109.4914 80.82468 L 109.4836 79.02649 C 109.4778 77.70859 109.3923 77.06204 109.1633 76.60568 C 108.9914 76.26324 108.8508 75.90674 108.8508 75.81345 C 108.8508 75.72021 108.5553 75.19897 108.1942 74.65515 C 106.3958 71.9469 104.1488 71.73755 103.5744 74.22467 C 103.1987 75.85156 103.9845 78.46881 105.3777 80.23044 C 106.1321 81.18448 107.1733 81.87106 107.887 81.88516 C 108.1119 81.88965 108.5649 81.65286 108.8937 81.35895 Z M 141.2059 78.09158 C 141.6539 77.50452 141.7027 77.29291 141.6972 75.96201 C 141.6853 73.08939 139.945 70.21994 137.8611 69.63675 C 137.1456 69.43652 136.9828 69.45032 136.4495 69.75626 C 136.1113 69.95026 135.6597 70.46173 135.4207 70.92114 C 135.0618 71.61148 135.0093 71.9281 135.0865 72.93585 C 135.1369 73.59344 135.2762 74.37546 135.396 74.67371 C 136.3432 77.03223 137.461 78.39062 138.8083 78.8204 C 139.9104 79.172 140.5237 78.98557 141.2059 78.09158 Z M 88.06866 70.63168 C 88.59203 70.28891 89.0844 69.13843 89.0844 68.25833 C 89.0844 67.35486 88.48697 65.31802 87.90578 64.23972 C 87.6346 63.73663 86.99078 62.93399 86.47502 62.45605 C 85.63039 61.67337 85.45111 61.5871 84.66946 61.5871 C 83.89948 61.5871 83.75388 61.65411 83.37741 62.18167 C 83.01541 62.68896 82.95486 62.99097 82.96484 64.23972 C 82.9848 66.74274 84.18204 69.16104 86.02153 70.41388 C 86.85867 70.98404 87.43675 71.04556 88.06866 70.63168 Z M 122.7057 68.85889 C 123.3282 68.17584 123.4927 67.69904 123.4906 66.58423 C 123.4868 64.51532 122.525 62.29254 121.0167 60.86667 C 120.146 60.04352 119.9479 59.94064 119.2345 59.94064 C 118.6076 59.94064 118.3346 60.04428 117.9881 60.41367 C 117.5772 60.85165 117.545 61.0242 117.5529 62.74612 C 117.5606 64.44321 117.6112 64.70944 118.1327 65.79471 C 119.4787 68.59589 121.6311 70.03818 122.7057 68.85889 Z M 133.1353 62.39899 C 134.6669 60.71783 133.0424 55.4519 130.54 53.98611 C 129.6338 53.45529 129.3095 53.43259 128.6015 53.85062 C 128.2079 54.08304 127.9962 54.42352 127.7772 55.17642 C 127.5063 56.10794 127.5063 56.29764 127.7779 57.5329 C 128.1791 59.35809 128.8429 60.68689 129.8903 61.76172 C 131.1832 63.08847 132.3062 63.30902 133.1353 62.39899 Z M 106.6821 61.93823 C 107.188 61.66763 107.7437 60.37537 107.7486 59.45859 C 107.7563 58.02173 107.0311 56.09415 105.8902 54.51913 C 105.0439 53.35065 104.193 52.80606 103.2137 52.80606 C 102.5836 52.80606 102.4051 52.89697 102.0457 53.40063 C 101.6846 53.90668 101.6227 54.21301 101.6299 55.45868 C 101.6418 57.52652 102.36 59.40222 103.6634 60.77029 C 104.9145 62.08347 105.7827 62.41934 106.6821 61.93823 Z M 130.8983 48.9718 C 131.3059 48.52158 131.4503 47.26883 131.2049 46.31177 C 131.1017 45.9093 130.9431 45.29187 130.8523 44.93973 C 130.5377 43.71913 129.676 42.17319 128.7519 41.17169 C 127.8892 40.23679 127.7712 40.16922 127.0906 40.22006 C 126.4003 40.27164 126.3421 40.32233 126.0852 41.09558 C 125.841 41.8306 125.8436 42.06409 126.11 43.33057 C 126.9365 47.26031 129.6033 50.4021 130.8983 48.9718 Z" fill="#FF0000" fill-opacity="1" stroke="#FF0000" stroke-opacity="1" stroke-width="0.1" stroke-linecap="round" stroke-linejoin="round"/>
<path d="M 37.42634 111.8397 C 37.27731 111.6123 36.97019 111.0155 36.74384 110.5134 C 36.51747 110.0112 36.14598 109.1888 35.9183 108.6857 C 35.69063 108.1826 35.31295 107.2771 35.07902 106.6734 C 34.84507 106.0697 34.58777 105.4976 34.50723 105.4019 C 34.42669 105.3064 34.36079 105.113 34.36079 104.9723 C 34.36079 104.8315 34.24482 104.4569 34.10306 104.1399 C 33.79319 103.4468 32.86388 100.6617 32.47623 99.26434 C 31.85021 97.00772 31.6334 95.95068 31.32129 93.63361 C 31.00676 91.29858 31.00682 91.1282 31.32263 89.24313 C 31.61848 87.47714 31.82554 86.62149 32.61625 83.89752 C 33.74287 80.01633 36.66794 74.01367 39.22559 70.33423 C 40.68784 68.23059 42.57346 66.1228 43.89262 65.11725 C 44.37856 64.74683 44.72901 64.36755 44.67142 64.27438 C 44.55585 64.08755 43.89935 64.17239 43.05434 64.48343 C 42.75235 64.59454 40.89926 65.21844 38.93635 65.86981 C 36.97343 66.52118 34.91442 67.22787 34.36079 67.44025 C 33.80715 67.65262 33.14826 67.89639 32.89661 67.98193 C 32.64494 68.06747 31.98606 68.31442 31.43243 68.53073 C 30.87878 68.74704 30.21428 68.99011 29.95573 69.07092 C 29.69718 69.15176 29.32657 69.29813 29.13213 69.39615 C 28.9377 69.49423 28.49034 69.70093 28.13802 69.8555 C 26.18932 70.71039 24.70599 71.47934 22.73886 72.65448 C 19.6339 74.50931 13.49588 78.66635 10.16243 81.172 C 8.419876 82.48184 8.167076 82.4574 8.477341 81.00916 C 8.733589 79.81308 9.211548 77.9837 9.443352 77.3118 C 9.530136 77.06027 9.745316 76.3605 9.921524 75.75681 C 10.09775 75.15311 10.35642 74.35043 10.49639 73.97311 C 10.63635 73.59579 10.86625 72.97839 11.00727 72.60107 C 11.43137 71.4664 13.00143 67.72089 13.13528 67.52454 C 13.20388 67.42392 13.572 66.76535 13.95335 66.06104 C 15.96761 62.34088 18.62283 59.2623 21.5532 57.24942 C 22.41759 56.65564 25.18817 54.99326 25.31339 54.99326 C 25.3538 54.99326 25.89692 54.74631 26.52033 54.44446 C 27.14375 54.14264 27.72973 53.89566 27.8225 53.89566 C 27.91528 53.89566 28.25072 53.77863 28.56792 53.63556 C 29.06911 53.40952 30.27193 53.01733 32.25602 52.43301 C 32.55801 52.3441 33.13452 52.21828 33.53719 52.15341 C 33.93983 52.08855 34.51894 51.95963 34.82407 51.86694 C 35.12923 51.77425 35.99298 51.63713 36.74354 51.56223 C 38.27148 51.4097 38.49432 51.17212 37.82462 50.40967 C 36.77115 49.21034 35.06481 46.81616 34.24638 45.38902 C 32.71597 42.72037 30.51732 37.62643 30.51732 36.74936 C 30.51732 36.34993 30.57777 36.33357 32.05559 36.33357 C 33.32745 36.33357 38.44025 36.81439 38.4784 36.93758 C 38.48459 36.95753 38.63133 37.28537 38.80451 37.66609 C 38.97768 38.04681 39.11937 38.44598 39.11937 38.55313 C 39.11937 38.66028 39.23172 39.00737 39.36905 39.32443 C 39.50636 39.64149 39.76801 40.27132 39.95048 40.72409 C 40.35847 41.73645 40.76383 42.70168 41.33338 44.017 C 41.87065 45.25777 44.04681 49.54868 44.5806 50.41983 C 44.79639 50.77197 45.02716 51.18359 45.09344 51.33453 C 45.19078 51.5562 46.18749 53.22055 47.81522 55.87964 C 48.39729 56.83051 49.82897 58.88031 50.5204 59.75275 L 51.32027 60.76208 L 53.04401 61.08139 C 56.15398 61.65759 59.42287 61.42142 60.89903 60.51389 C 62.49742 59.53125 63.27834 58.26086 63.27834 56.64337 C 63.27834 55.35687 62.85696 54.54156 61.60471 53.40518 C 57.7636 49.91943 55.37558 46.54861 53.20432 41.54733 C 52.44154 39.79039 52.30908 38.97815 52.64622 38.12582 C 52.73766 37.8947 52.98979 37.12935 53.20653 36.42503 C 53.42326 35.72073 53.66922 34.97986 53.75304 34.77863 C 53.83687 34.57739 54.04813 34.00113 54.22253 33.49805 C 54.83089 31.74316 56.42618 28.31567 57.36731 26.74147 C 58.82727 24.29948 60.11147 23.00327 63.82739 20.22095 C 64.07904 20.03252 64.73792 19.52641 65.29158 19.09625 C 65.84523 18.66609 67.25594 17.57327 68.42654 16.66772 C 69.59714 15.76218 71.76953 14.07457 73.2541 12.91748 C 74.73868 11.76039 76.08701 10.73138 76.2504 10.63077 C 76.41377 10.53015 76.60797 10.36551 76.68192 10.26489 C 76.75752 10.16203 76.81758 10.22469 76.81917 10.40799 C 76.82069 10.58731 76.45987 11.28705 76.01724 11.96294 C 72.56441 17.23573 70.16789 22.414 69.79912 25.39871 C 69.64487 26.64731 69.89664 27.11249 70.46968 26.63757 C 71.49124 25.79099 75.56955 23.1555 77.70424 21.96242 C 78.07463 21.75543 78.87186 21.30893 79.47583 20.97025 C 81.04019 20.09302 83.43587 18.92996 85.88162 17.86032 C 86.76689 17.47314 88.793 16.73216 90.82321 16.05312 C 92.03117 15.64909 93.47243 15.14256 94.02609 14.92752 C 94.57974 14.71245 95.23863 14.46887 95.49028 14.3862 C 97.94568 13.57956 105.3605 9.766052 107.7015 8.105927 C 108.3562 7.641586 108.5178 7.594788 108.7632 7.798386 C 108.9947 7.990402 109.0276 8.243301 108.9272 9.060226 C 108.8097 10.01683 108.3223 11.81363 107.9554 12.64308 C 105.7391 17.65288 102.9506 21.36916 99.42528 24.01146 C 96.81989 25.96422 95.12608 26.80466 91.37228 28.00719 C 90.26501 28.36191 89.19431 28.73174 88.99298 28.82904 C 88.79166 28.92635 88.20599 29.16718 87.69153 29.3642 C 86.42094 29.85077 83.90665 31.16716 82.62973 32.01434 C 80.33168 33.53899 78.5248 35.56876 77.40048 37.88857 C 76.33627 40.08437 75.89491 41.16078 75.97412 41.36711 C 76.0372 41.5314 76.50757 41.37959 77.60487 40.8409 C 79.45375 39.93323 79.73698 39.81863 81.8551 39.12138 C 85.04556 38.07112 86.73265 37.7294 91.09773 37.24921 C 95.92389 36.71826 95.91768 36.71799 110.2236 38.16312 C 111.2302 38.2648 113.248 38.34746 114.7076 38.34679 C 117.6756 38.34546 119.5069 38.04822 121.0539 37.31671 C 121.5926 37.06195 122.1191 36.88206 122.2239 36.91699 C 122.4776 37.00153 120.7095 38.79581 118.8888 40.30138 C 115.1593 43.38544 110.6115 45.67142 105.9225 46.81897 C 103.7969 47.33919 101.134 47.65245 98.0526 47.74471 C 94.87592 47.83981 92.58171 48.06171 89.9996 48.52367 C 88.17668 48.84981 85.38382 49.45503 84.60046 49.69366 C 83.07201 50.15929 81.63312 50.63033 81.30603 50.77217 C 81.10471 50.85947 80.48701 51.11328 79.93335 51.33623 C 77.33607 52.38211 73.64568 54.42188 73.45575 54.9165 C 73.40067 55.06003 73.54774 55.65051 73.78264 56.2287 C 75.58682 60.66983 76.36943 66.13498 75.63602 69.17102 C 75.27362 70.67108 75.27042 76.80905 75.63026 80.14728 C 76.21974 85.61594 77.30669 92.98203 78.39191 98.8624 C 78.58998 99.93573 78.64185 100.6284 78.53235 100.7379 C 78.3149 100.9552 66.01669 88.76453 62.63774 84.98218 C 59.11876 81.043 58.80811 80.4054 58.23203 75.93973 C 57.93184 73.61267 57.93694 72.62079 58.27051 68.48499 C 58.33487 67.68704 58.3132 67.0672 58.22096 67.0672 C 58.13083 67.0672 57.85832 67.49942 57.61534 68.02765 C 56.83734 69.71921 53.4606 76.45947 52.9642 77.3118 C 52.70049 77.76456 52.42688 78.25848 52.35619 78.40939 C 52.15419 78.84058 50.66283 81.27988 49.96711 82.31699 C 48.99287 83.76935 48.33524 84.55283 46.25724 86.73654 C 44.60421 88.47369 44.20219 89.0239 43.38214 90.6716 C 42.24391 92.95856 41.86469 93.83505 41.86469 94.17889 C 41.86469 94.31964 41.78708 94.513 41.69218 94.60858 C 41.59729 94.70419 41.43597 95.11166 41.3337 95.5141 C 41.23145 95.91653 41.01447 96.69861 40.85155 97.25201 C 40.07154 99.90146 39.31689 103.2039 38.84495 106.0331 C 38.6855 106.9889 38.47362 108.1791 38.3741 108.6779 C 38.27459 109.1768 38.1424 110.1852 38.08035 110.9189 C 38.0183 111.6526 37.90672 112.253 37.8324 112.253 C 37.75809 112.253 37.57536 112.067 37.42634 111.8397 Z M 54.38838 58.12106 C 53.77705 58.04453 53.18327 57.92407 53.06889 57.85345 C 52.72536 57.64117 49.04353 52.10683 48.64677 51.20622 C 48.54918 50.98473 48.25904 50.47052 48.00201 50.06355 C 46.74941 48.08023 44.66518 43.90269 43.41382 40.86728 C 43.15321 40.23514 42.83202 39.47099 42.70007 39.16914 C 42.56813 38.86729 42.31748 38.20869 42.14308 37.70561 C 41.96869 37.20253 41.75815 36.62627 41.67524 36.42503 C 41.59232 36.22383 41.34782 35.44174 41.13191 34.68713 C 40.916 33.93253 40.6717 33.10928 40.58902 32.85776 C 39.72727 30.23592 38.73881 23.80562 38.76423 20.98697 C 38.78656 18.51149 38.94115 18.08662 40.28104 16.81778 C 41.81273 15.36728 42.65836 14.92981 43.93027 14.92981 C 44.71449 14.92981 44.9885 15.0127 45.29077 15.34143 C 45.64488 15.72649 45.67526 16.03029 45.76178 20.05206 C 45.85055 24.17853 45.9535 25.35674 46.56094 29.19899 C 47.3067 33.91626 48.75243 39.16534 50.2895 42.73642 C 51.03857 44.47676 52.78038 47.84886 53.12935 48.23427 C 53.27553 48.39571 53.39511 48.58702 53.39511 48.65942 C 53.39511 49.04042 56.46426 52.7565 58.18636 54.4606 C 59.27568 55.53854 60.16695 56.50427 60.16695 56.60666 C 60.16695 57.03796 59.91066 57.38687 59.33067 57.74515 C 58.62378 58.18182 56.29132 58.35922 54.38838 58.12106 Z M 111.0472 35.06398 C 108.3127 34.87103 104.9323 34.52774 103.5433 34.30191 C 101.5196 33.97292 96.0984 33.79861 92.83595 33.95767 C 89.75151 34.10805 88.2674 34.2886 85.97311 34.79263 C 85.3188 34.93637 84.57759 35.05077 84.32591 35.04689 L 83.86838 35.03986 L 84.41742 34.58543 C 85.02974 34.07863 88.5415 32.30408 89.81657 31.85715 C 90.26956 31.69838 91.58734 31.24829 92.74496 30.85696 C 96.047 29.74074 96.56525 29.51266 98.87621 28.15865 C 99.78218 27.62784 100.849 26.91156 101.2469 26.56693 C 102.1951 25.74561 105.0087 25.02017 107.8787 24.85704 C 110.5595 24.70467 116.6711 25.97591 119.5854 27.29208 C 119.9026 27.43533 120.22 27.55255 120.2906 27.55255 C 120.5495 27.55255 124.5974 29.64891 125.3016 30.14774 C 125.8773 30.55554 125.7268 30.86589 124.6527 31.48573 C 124.1657 31.76672 123.1084 32.4249 122.3031 32.94827 C 121.4978 33.47165 120.2784 34.16568 119.5934 34.49059 C 118.3924 35.06024 118.2518 35.08345 115.6584 35.14044 C 114.1792 35.17296 112.1042 35.13855 111.0472 35.06398 Z" fill="#1B8252" fill-opacity="1" stroke="#1B8252" stroke-opacity="1" stroke-width="0.1" stroke-linecap="round" stroke-linejoin="round"/>
</svg>