<svg xmlns="http://www.w3.org/2000/svg" viewBox="0 0 55 72" preserveAspectRatio="xMinYMin meet" >
	<g >
		<svg width="51" height="28" xmlns="http://www.w3.org/2000/svg" x="2" y="2" >
			<text x="50%" y="55%" width="100%" height="100%" fill="#000000" font-size="14" font-weight="bold" text-anchor="middle" dominant-baseline="middle" >Hotel</text>
		</svg> 
		<rect x="15" y="30" width="25" height="35" fill="#FF0000" />
		<rect x="16.25" y="33.5" width="4.1666665" height="5.8333335" fill="#FFFFFF" />
		<rect x="21.25" y="33.5" width="4.1666665" height="5.8333335" fill="#FFFFFF" />
		<rect x="33.75" y="33.5" width="4.1666665" height="5.8333335" fill="#FFFFFF" />
		<rect x="28.75" y="33.5" width="4.1666665" height="5.8333335" fill="#FFFFFF" />
		<rect x="16.25" y="40.5" width="4.1666665" height="5.8333335" fill="#FFFFFF" />
		<rect x="21.25" y="40.5" width="4.1666665" height="5.8333335" fill="#FFFFFF" />
		<rect x="33.75" y="40.5" width="4.1666665" height="5.8333335" fill="#FFFFFF" />
		<rect x="28.75" y="40.5" width="4.1666665" height="5.8333335" fill="#FFFFFF" />
		<rect x="16.25" y="47.5" width="4.1666665" height="5.8333335" fill="#FFFFFF" />
		<rect x="21.25" y="47.5" width="4.1666665" height="5.8333335" fill="#FFFFFF" />
		<rect x="33.75" y="47.5" width="4.1666665" height="5.8333335" fill="#FFFFFF" />
		<rect x="28.75" y="47.5" width="4.1666665" height="5.8333335" fill="#FFFFFF" />
		<rect x="25" y="58" width="5" height="7" fill="#FFFFFF" />
	</g> 
</svg> 