<?xml version="1.0" encoding="utf-8" ?>
<svg xmlns="http://www.w3.org/2000/svg" xmlns:xlink="http://www.w3.org/1999/xlink" width="34" height="34">
	<rect fill="rgb(0,0,0)" fill-opacity="0" stroke="none" width="34" height="34"/>
	<path fill="rgb(255,255,255)" stroke="none" d="M0 32L0 2Q0 1.90175 0.00963055 1.80397Q0.0192611 1.70619 0.0384294 1.60982Q0.0575978 1.51345 0.0861193 1.41943Q0.114641 1.32541 0.152241 1.23463Q0.189841 1.14386 0.236157 1.05721Q0.282474 0.970554 0.337061 0.888859Q0.391648 0.807164 0.453979 0.731213Q0.516311 0.655262 0.585786 0.585786Q0.655262 0.516311 0.731213 0.453979Q0.807164 0.391648 0.888859 0.337061Q0.970554 0.282474 1.05721 0.236157Q1.14386 0.189841 1.23463 0.152241Q1.32541 0.114641 1.41943 0.0861193Q1.51345 0.0575978 1.60982 0.0384294Q1.70619 0.0192611 1.80397 0.00963055Q1.90175 0 2 0L32 0Q32.0983 0 32.196 0.00963055Q32.2938 0.0192611 32.3902 0.0384294Q32.4865 0.0575978 32.5806 0.0861193Q32.6746 0.114641 32.7654 0.152241Q32.8561 0.189841 32.9428 0.236157Q33.0294 0.282474 33.1111 0.337061Q33.1928 0.391648 33.2688 0.453979Q33.3447 0.516311 33.4142 0.585786Q33.4837 0.655262 33.546 0.731213Q33.6083 0.807164 33.6629 0.888859Q33.7175 0.970554 33.7638 1.05721Q33.8102 1.14386 33.8478 1.23463Q33.8854 1.32541 33.9139 1.41943Q33.9424 1.51345 33.9616 1.60982Q33.9807 1.70619 33.9904 1.80397Q34 1.90175 34 2L34 32Q34 32.0983 33.9904 32.196Q33.9807 32.2938 33.9616 32.3902Q33.9424 32.4865 33.9139 32.5806Q33.8854 32.6746 33.8478 32.7654Q33.8102 32.8561 33.7638 32.9428Q33.7175 33.0294 33.6629 33.1111Q33.6083 33.1928 33.546 33.2688Q33.4837 33.3447 33.4142 33.4142Q33.3447 33.4837 33.2688 33.546Q33.1928 33.6083 33.1111 33.6629Q33.0294 33.7175 32.9428 33.7638Q32.8561 33.8102 32.7654 33.8478Q32.6746 33.8854 32.5806 33.9139Q32.4865 33.9424 32.3902 33.9616Q32.2938 33.9807 32.196 33.9904Q32.0983 34 32 34L2 34Q1.90175 34 1.80397 33.9904Q1.70619 33.9807 1.60982 33.9616Q1.51345 33.9424 1.41943 33.9139Q1.32541 33.8854 1.23463 33.8478Q1.14386 33.8102 1.05721 33.7638Q0.970554 33.7175 0.888859 33.6629Q0.807164 33.6083 0.731213 33.546Q0.655262 33.4837 0.585786 33.4142Q0.516311 33.3447 0.453979 33.2688Q0.391648 33.1928 0.337061 33.1111Q0.282474 33.0294 0.236157 32.9428Q0.189841 32.8561 0.152241 32.7654Q0.114641 32.6746 0.0861193 32.5806Q0.0575978 32.4865 0.0384294 32.3902Q0.0192611 32.2938 0.00963055 32.196Q0 32.0983 0 32Z"/>
	<path fill="none" stroke="rgb(0,0,0)" stroke-width="2" stroke-miterlimit="4" d="M0 32L0 2Q0 1.90175 0.00963055 1.80397Q0.0192611 1.70619 0.0384294 1.60982Q0.0575978 1.51345 0.0861193 1.41943Q0.114641 1.32541 0.152241 1.23463Q0.189841 1.14386 0.236157 1.05721Q0.282474 0.970554 0.337061 0.888859Q0.391648 0.807164 0.453979 0.731213Q0.516311 0.655262 0.585786 0.585786Q0.655262 0.516311 0.731213 0.453979Q0.807164 0.391648 0.888859 0.337061Q0.970554 0.282474 1.05721 0.236157Q1.14386 0.189841 1.23463 0.152241Q1.32541 0.114641 1.41943 0.0861193Q1.51345 0.0575978 1.60982 0.0384294Q1.70619 0.0192611 1.80397 0.00963055Q1.90175 0 2 0L32 0Q32.0983 0 32.196 0.00963055Q32.2938 0.0192611 32.3902 0.0384294Q32.4865 0.0575978 32.5806 0.0861193Q32.6746 0.114641 32.7654 0.152241Q32.8561 0.189841 32.9428 0.236157Q33.0294 0.282474 33.1111 0.337061Q33.1928 0.391648 33.2688 0.453979Q33.3447 0.516311 33.4142 0.585786Q33.4837 0.655262 33.546 0.731213Q33.6083 0.807164 33.6629 0.888859Q33.7175 0.970554 33.7638 1.05721Q33.8102 1.14386 33.8478 1.23463Q33.8854 1.32541 33.9139 1.41943Q33.9424 1.51345 33.9616 1.60982Q33.9807 1.70619 33.9904 1.80397Q34 1.90175 34 2L34 32Q34 32.0983 33.9904 32.196Q33.9807 32.2938 33.9616 32.3902Q33.9424 32.4865 33.9139 32.5806Q33.8854 32.6746 33.8478 32.7654Q33.8102 32.8561 33.7638 32.9428Q33.7175 33.0294 33.6629 33.1111Q33.6083 33.1928 33.546 33.2688Q33.4837 33.3447 33.4142 33.4142Q33.3447 33.4837 33.2688 33.546Q33.1928 33.6083 33.1111 33.6629Q33.0294 33.7175 32.9428 33.7638Q32.8561 33.8102 32.7654 33.8478Q32.6746 33.8854 32.5806 33.9139Q32.4865 33.9424 32.3902 33.9616Q32.2938 33.9807 32.196 33.9904Q32.0983 34 32 34L2 34Q1.90175 34 1.80397 33.9904Q1.70619 33.9807 1.60982 33.9616Q1.51345 33.9424 1.41943 33.9139Q1.32541 33.8854 1.23463 33.8478Q1.14386 33.8102 1.05721 33.7638Q0.970554 33.7175 0.888859 33.6629Q0.807164 33.6083 0.731213 33.546Q0.655262 33.4837 0.585786 33.4142Q0.516311 33.3447 0.453979 33.2688Q0.391648 33.1928 0.337061 33.1111Q0.282474 33.0294 0.236157 32.9428Q0.189841 32.8561 0.152241 32.7654Q0.114641 32.6746 0.0861193 32.5806Q0.0575978 32.4865 0.0384294 32.3902Q0.0192611 32.2938 0.00963055 32.196Q0 32.0983 0 32Z"/>
	<ellipse fill="rgb(0,0,0)" stroke="none" cx="17" cy="17" rx="3.3999996" ry="3.3999996"/>
</svg>
