<?xml version="1.0" encoding="utf-8"?>
<!-- Generator: Adobe Illustrator 22.0.1, SVG Export Plug-In . SVG Version: 6.00 Build 0)  -->
<svg version="1.1" id="Layer_1" xmlns="http://www.w3.org/2000/svg" xmlns:xlink="http://www.w3.org/1999/xlink" x="0px" y="0px"
	 viewBox="0 0 2000 2000" style="enable-background:new 0 0 2000 2000;" xml:space="preserve">
<style type="text/css">
	.st0{fill:#F5D25E;}
	.st1{fill:#FE9A10;}
	.st2{fill:none;stroke:#603813;stroke-miterlimit:10;}
	.st3{fill:#FD360D;}
	.st4{fill:#C1272D;}
</style>
<g>
	<path class="st0" d="M1143.5,1685.8c15.2-30.4,45.6-53.2,45.6-91.2c-38,22.8-91.2,15.2-106.4,60.8c7.6-30.4,45.6-53.2,22.8-68.4
		c-15.2-15.2-45.6,0-76,7.6c60.8-68.4,174.8-91.2,212.8-182.4c-91.2,76-205.2,91.2-311.6,83.6c45.6-45.6,114-98.8,106.4-174.8
		c-22.8,30.4-45.6,60.8-91.2,68.4c45.6-15.2,38-76,38-114c-68.4,129.2-235.6,220.4-129.2,387.6c-45.6-15.2-53.2-53.2-76-83.6
		c5.8,75.3,38.2,137.4,90.2,186.2c49.6,6.4,99.8,9,149.7,8c43.5-0.8,87.3-4.2,130.2-11.6c16.1-33.7,27.6-69.3,32.6-106.6
		C1173.9,1670.6,1151.1,1670.6,1143.5,1685.8z"/>
	<path class="st1" d="M1346.7,1446.1c-48.1,35.2-96.1,70.3-144.2,105.5c56-58.4,114-120.4,134.6-198.6c16.4-62.3,7-128.2-2.8-191.9
		c-13,59.5-49,112.1-92.8,154.5s-95.2,75.9-146.4,109.1c55.6-92.1,74.4-205.7,51.5-310.8c-19.8,46.2-54.3,86-97.2,112.2
		c43.3-87.4,39.3-196.7-10.4-280.7c-21.3-35.9-49.9-67-72.3-102.2C944.3,808,927.9,766,935.5,725c-34.8,52-25.5,121.5-7,181.3
		c18.5,59.8,45.2,119.6,40.9,182c-4.9,71.4-49.7,133.9-99.8,185c-49.2,50.2-107.3,97.1-129.1,163.9
		c12.8-129.7-63.8-263.5-182.2-318.1c54.9,92.1,110.8,187.1,127.1,293c10.1,65.6,5.4,136.1,38.3,193.8
		c-40.2-11.3-77.4-33.1-107-62.6c13.6,77.4,59.1,147.6,121.5,195c42.6,12.7,86.4,21.5,130.6,27.3c-52.1-48.8-84.4-110.9-90.2-186.2
		c22.8,30.4,30.4,68.4,76,83.6c-106.4-167.2,60.8-258.4,129.2-387.6c0,38,7.6,98.8-38,114c45.6-7.6,68.4-38,91.2-68.4
		c7.6,76-60.8,129.2-106.4,174.8c106.4,7.6,220.4-7.6,311.6-83.6c-38,91.2-152,114-212.8,182.4c30.4-7.6,60.8-22.8,76-7.6
		c22.8,15.2-15.2,38-22.8,68.4c15.2-45.6,68.4-38,106.4-60.8c0,38-30.4,60.8-45.6,91.2c7.6-15.2,30.4-15.2,38-30.4
		c-5,37.3-16.5,72.9-32.6,106.6c17.4-3,34.6-6.5,51.6-10.9c31.4-59.5,74.8-112.1,113-167.6
		C1341.5,1542.7,1367.5,1490.9,1346.7,1446.1z"/>
	<path class="st2" d="M490.5,1367c-0.2-2.7-0.4-5.3-0.5-8C489.9,1361.8,490.1,1364.5,490.5,1367z"/>
	<path class="st2" d="M1371.5,925.8c0,12.2,0.4,24,0.9,35.6C1373.2,950.1,1373,938.3,1371.5,925.8z"/>
	<path class="st3" d="M1447.5,1359c0,0-38,15.2-60.8,15.2c0-91.2,22.8-182.4,0-281.2c-6.1-42.5-12.1-85.1-14.3-131.6
		c-7.3,105.6-105.6,163.2-160.5,245.6c7.6-83.6-15.2-167.2-30.4-250.8c0,22.8-22.8,45.6-30.4,68.4
		C1135.9,903,1029.5,819.4,991.5,713c-15.2-45.6-30.4-91.2-22.8-136.8c-152,114-205.2,296.4-129.2,486.4
		c22.8,68.4-30.4,136.8-68.4,205.2c0-129.2-144.4-182.4-250.8-220.4c-45.6-22.8-76-68.4-83.6-121.6c0,38-7.6,76,7.6,106.4
		c45.6,136.8,91.2,266,98.8,410.4c-21.1-28.2-48.7-43.3-52.7-75.6c8.5,126,73.5,228.4,141.6,330.3c4.9,2.4,9.8,4.8,14.7,7
		c29.8,13.5,60.4,24.7,91.5,34c-62.4-47.4-108-117.6-121.5-195c29.5,29.5,66.8,51.3,107,62.6c-32.9-57.6-28.2-128.2-38.3-193.8
		c-16.3-105.9-72.3-200.9-127.1-293c118.4,54.6,195,188.4,182.2,318.1c21.8-66.8,79.9-113.7,129.1-163.9
		c50.1-51.1,94.9-113.6,99.8-185c4.3-62.5-22.4-122.2-40.9-182c-18.5-59.8-27.8-129.3,7-181.3c-7.6,41,8.8,83,31.2,118.2
		c22.4,35.2,51.1,66.2,72.3,102.2c49.7,84,53.7,193.2,10.4,280.7c42.9-26.2,77.4-66,97.2-112.2c22.9,105.1,4.1,218.7-51.5,310.8
		c51.1-33.2,102.6-66.6,146.4-109.1s79.7-95,92.8-154.5c9.8,63.7,19.2,129.6,2.8,191.9c-20.5,78.2-78.6,140.2-134.6,198.6
		c48.1-35.2,96.1-70.3,144.2-105.5c20.8,44.8-5.3,96.7-33.2,137.4c-38.2,55.6-81.5,108.1-113,167.6c26.4-6.8,52.3-15.4,77.4-26.3
		c31.4-13.5,61.3-30.6,89.1-50.6C1401.5,1570.2,1456.3,1464.6,1447.5,1359z"/>
	<path class="st4" d="M1514.5,1020.1c18.1,69.1-6.3,147.8-60.1,193.8c32.2-80.2,16.9-172.2-11.4-254c-28.4-81.7-69.3-159.2-89-243.5
		c-19.8-84.3-14.9-181,40.1-247.2c-85.3,47.9-149.4,133.3-172.4,229.6c-23,96.3-4.6,202.2,49.5,284.6
		c-79.4-88.8-161.9-183.6-185.6-301.2c-11.8-58.6-8.2-119.6-19.2-178.4c-22.9-122.3-113-247.1-208.2-322.9
		C844,197.5,885.4,284.6,880,319.2c-8.8,56.8-45.5,104.3-78.3,151.2C735.1,565.8,679.4,672.2,662.5,788
		c-16.9,115.7,9.7,242.1,89.2,326.5C646.2,1048,540.7,951.1,535,824.8c-3.3-72.4,27.5-143.1,23.8-215.5
		c-3.4-64.5-35.8-126.8-86.4-165.8c17.1,58.8,33.9,124.1,7.9,179.5c-14.8,31.5-41.6,55.2-66.3,79.5
		c-43.8,43.1-83.2,91.8-109.2,147.9c-75.4,162.8-13,378.3,137.1,473.4c-44.2,16.3-96.8,5.9-131.8-26.1
		c16.8,51.6,33.7,103.6,58.6,151.7c56.7,109.6,153.3,194.7,263.2,247.9C564,1595.5,498.9,1493,490.5,1367c-0.3-2.6-0.5-5.2-0.5-8
		c0.1,2.7,0.3,5.3,0.5,8c4,32.3,31.6,47.4,52.7,75.6c-7.6-144.4-53.2-273.6-98.8-410.4c-15.2-30.4-7.6-68.4-7.6-106.4
		c7.6,53.2,38,98.8,83.6,121.6c106.4,38,250.8,91.2,250.8,220.4c38-68.4,91.2-136.8,68.4-205.2c-76-190-22.8-372.4,129.2-486.4
		c-7.6,45.6,7.6,91.2,22.8,136.8c38,106.4,144.4,190,159.6,311.6c7.6-22.8,30.4-45.6,30.4-68.4c15.2,83.6,38,167.2,30.4,250.8
		c54.9-82.4,153.2-140,160.5-245.6c-0.5-11.6-0.9-23.4-0.9-35.6c1.5,12.5,1.7,24.3,0.9,35.6c2.2,46.4,8.2,89,14.3,131.6
		c22.8,98.8,0,190,0,281.2c22.8,0,60.8-15.2,60.8-15.2c8.8,105.6-46,211.1-80.5,315.2c84.5-60.6,150.4-148.3,183.9-247.9
		C1595.4,1293.8,1581.8,1142.2,1514.5,1020.1z"/>
</g>
</svg>
