<svg id="color_copy_Image" data-name="color copy Image" xmlns="http://www.w3.org/2000/svg" viewBox="0 0 817.35 360.65"><path d="M640,508.62c-1-4.31,1.76-4.67,4.27-6.75,5.9-5,11.66,2.78,11.5,8.77,19,1,37.89,3.68,56.91,5.29,1.69-10.11,13.72-5.27,20.77-4.77,7.14-.08,1.58-5.24,16.31-3.11s30.37-1.67,43.44,6.85c5.29,1.24,3.67,9.05-1.18,9.73-1.46.66-1.6,1.79-.6,3,2.48,3.55,7,.83,9.9,3.45,2.52,2.21-1,5.48-1.16,8.13-3.64,7.94,3.42,12.78,6.17,19.34,1.17,3.42,5.91,3.38,8.78,2.2,2.25-.59,4.95,1.62,7.16,1.9,5,.32,6.67,4,5.54,8.49-8.14,3.43-43.38,4-45.2,10.37,1,7.61-26.78-5.83-31.48-6.09-5.55-2.58-12.27.83-17.37-3.7-2.75-1-5.57-1.76-8-3.56-9-1.27-7-2.39-13.51-7.7-9.2-3.61-.94-18.83-13.13-18-46.58-2-93.38-1.09-139.71-1.76-10.37,1.21-21.18-1.1-31.49-.31-.58,1.83-1,3.78-2.92,5.45,1.72,2.85.71,8,.85,11.77-1.33,1-3.76,1.32-3.42,3.71.25,1.68-1.19,3.73,1,4.94-.07,6.87-4.21,5.34-6.05,11.61,3.77,1.47.49,9.84-2.86,9.09l-2.06,3.49c2.61,2.46-1.47,6-2.14,8.73-1.76,2.08-4.54,3.17-4.16,6.44-1.07,2.93-3.41,6.24-6.91,6.91-1.22.19-1.89.67-1.51,1.83.67,3.47-3.15,5.71-4.85,8.31-7,2-9.24,10.57-16.23,12.71-22.32,6.49-46.17,4.85-69.13,1.69-23.18.2-39-19.21-50.17-37.16,3.7-4-3.19-9.23-3-14.09,1.78-5.44-3.14-5.12-3.75-11.53a4.08,4.08,0,0,1,.72-4c3.66-5.58-4.44-2.68-2.76-11.84-4.84-1.35-8.77,1.53-13.41.14-7.11-.8-15.24-4.17-22.13-2.3-.8.75-.24,1.78.28,2.63.34,2.33-3,6-5.63,6.18-3.9-.23-1.62,2.71-2.26,4.9a63.12,63.12,0,0,1-16.24,12.56c-1.59.64-2.6,1.62-2,3.46-18.66,8.28-42.64,10-62.4,4.12-11.93-5.82-26.15-11.56-33.67-22.7-1.11-3.85-5.56-5.55-6.92-9.49-.41-1.94-.17-3.81-2-5.07-2.16-1.94-4.55-5-3.31-7.9.65-3.22-3.41-6.78-4.16-10.31-.3-2.32,3.26-4,.36-6-6.32-7.76,2-10.58-1.89-14.8-4.36-6.66,1-6,1.53-9.94,1.13-4.53-3.21-3.53-.66-10.17,6.69-3.36,1.34-10.24,3-16.07l3.41,1.81c1.06-3.48-3.18-5.93-.21-9.15,1.43-2.71,4.69-2.13,6.62-4.52a1.47,1.47,0,0,0,.31-2.14c-1.15-4.44,4.4-7.16,7.62-9.27-1.38-2.8,1.78-4.13,3.3-5.84s3-.41,5-1.34c-3.27-1.76,1.7-5.54,3.34-7.21,2.06-2.2,5.57-2.13,7-5,1.3-1,2.9-2.27,4.32-3.26,3.74-.87,7-2.93,10.39-4.31,1.77-.71,4.81-.33,5.1-2.74,4.68-27.69-19-25.5-38.39-30.57-6.65-1.82-13.49-2.63-20.08-4.59-3.5.06-9.51-5.62-11.55-1.45-.08,10.28-35.22-8.81-50.57-3.47-.43-1.82-1.43-3.24-.82-4.87,4-8.66,5.43-18.4,6.3-27.85,5.28-10.2,39.07,4.3,49.47,5.57l.87-2c-7.89-2.74-16.21-4.14-24.27-6.5-1.91-.33-3.58-.7-4.92-2.46-3.12-3.08-8.28-3.25-12.34-4.5-36.85-11-74-21.62-111.3-31.9-10.72-2.21-1.47-35,8.37-30.61,42.67,12.19,85.15,25,128.4,34.91l.08-1.72c4-.21,7.6,2.3,12.07,1.19-7.77-3.66-17.69-3-24.89-8.11-4.75-8.78.16-26.1,11.27-25.74,8.21,2.82,16.73,4.77,24.67,8.33,6.73-.07,17.62-.67,21.44,6,12,5.37,26.18,8.05,39,12.46,15,4.46,31,13,46.72,12.27,8.11.27,13.41,7.19,21.24,8.62,14.37,2.77,27.17,10.3,41.36,13.5,9.91,2.92,19.93,6.28,30,8.67,3.52-.42,6.81-2.16,10,.38,4,2.18,6.15,6.18,9.5,9,4.67,2.68,2.29,8,1.65,12.23-.36,2.48,3,6.48,4.71,3.16,2.35-4.19,8.29-2,8.75-4.91,1.58-5.07,3.81-16.92,10.3-16.46,3,.51,3.47,3.54,3,6.18,4.6,1.9,8.36.2,11.59-3.14,4.11-2.77,8.6,1.5,12.74,2.42,12.7,4.4,10.72,14,4.46,23.31,10.23.33,6.17,10.82,5.73,17.43.25,10.23-4.51,28.63-.38,36.74,23.92,3.79,21.54,5.78,33.35,24.14,1.34-2.34-.95-4.22-.43-6.72,3.75,4.24,6.72,8.37,8.31,13.81.26.67.67,1.26,1.38.94,2.66-1.86-.81-5.46-1.23-7.86-2.14-7.54-9.62-9.72-13.12-16.35,20,7.82,40.4,13.71,61.43,19.06-2.63,23.17-13.71,19.67,9.66,36.36,4.08-6,7.41,3.54,12.76,2.29C593,502.77,616.5,507.79,640,508.62ZM378.72,539.28c.3.93-.53,2.08.76,2.58.12,0,.21.49.13.65-.92,1.64.45,1.71,1.39,2,4.36.93,7.54,1.63,11.5-.86,2.29.4,3.31-2.93,2.53-4.72-2.16-10.78,4.9-20.27,7.84-30.38,1.54-4,14.16-20,18.58-18.21,2.3.6,3.1-2.07,4.95-2.57,6.07-3.42,10.53-8.92,16.82-12.24,3.85-3.42,6.83-4.24,11.27-2.29-1.56-4.38-6-8.31-1-12.29,2.6,3.31,3.19,8.09,6.49,10.57,0-2.44.2-4.57,2.65-5.55,2.11,4.42,1.21,6.63,6.48,8.86,7.71-13.15,3.46-1.32,8.55.21,4.82,1,8.46,5.16,13.37,6.46,9.9.82,14.15,9.11,14.53,18.27,3.12.77,4.15,8.89,5.32,12.06,1.71-.78,2.79-.08,3.91,1.2-1.38,2.75,2.2,6.75.44,9.61-1.9,1-.25,2.55-.53,4-2,6.27,2.23,10.67,7.27,13a2.43,2.43,0,0,0,3-2.27c.49-3.46-3.66-3.13-5.9-4.37,1-2.58,4.21-2.64,4.94-5.08.26-3-.6-7.84-3.57-9,4.32-4.38,1-9.69-2.23-13.91,5.83-1.71-2.7-10.2-4.69-13.24,2.15-5.18-6.59-6.85-6.67-12.28-.75-3.77-4.95-2.82-6.57-5.69-1-1.44-1.72-3.41-4-3.7,0-4.28-3.22-.73-4.58-3.39a34.56,34.56,0,0,0-8-4.51c-1.12-.16-1.61-2.22-3.29-1.31a13.52,13.52,0,0,0-1.64-1.49l-1.22,1.39c-6.44-8.5-3.23-2-7.88-5.15-1.71-1.46-2.28.73-4.84-1.33l-2.86,3.8c-1.44-2.31-2.39-4.66-5-5.51L455.75,455l-4.85-1c-1.21,5.29-3.47,1.61-6.36-.27L443,456.08c-2.55-2.41-3.37,1.32-6-.71.44,1.4.72,2.3,1.19,3.77l-5.87-3.47-2.33,2.66c-2.33-1.44-3.45,1.44-5.46,1.46.95,4.12,5.22,3.47,4,8.06-2.38-2.31-3.86-5.6-7.36-6.07-1.78,2.39-1.78,2.39-1.63,4-2.1.41-4.14,1-5.38,3.15l2.77,3.54c-1.36,1.24-2.87-1.65-4.15-2.06-1.94,1.22-4.5,1.24-3.45,4l-2.64,1.18c1.72,2.39.61,2.37-2,2.7,2.5,3.2,5.55,5.44,7.44,8.58l-.39.37-10.13-8.66c-5,3.87-3.65,3.29-.77,7l-3,.15c.08.79.15,1.42.21,2l-.34.12-.75-1.66-2.1,2.95c2.7,2.41,6.1,4,8.19,6.91l-.36.34c-4.6-4.38-21-10.83-10.34.89-3-.09-3.44,1.79-4.67,4.24,2.54,2.77,6.48,3.34,8.94,6.08-5.28-.55-10.87-6.55-15.69-2.35.27,3,2.92,3.79,5.51,5-3.43,1.05-2.17,3.41-4.45,5.49,3.08,2,6.88,1.86,9.68,4-5.53.22-10.32-2.83-16.14-1.73-.14,3.93,1.95,5,5.29,6.4-.74,1.92-1.44,3.72-2.14,5.55,3.24,2,8,1,10.65,3.73l-.22.5c-6-.85-12-2.24-18.17-.08C372.88,537.65,375.05,538.82,378.72,539.28Zm51.71,92c9.13-2.17,8-1.7,12.35-9.93,3.37-8.69-22.56-10.92-28.1-20.26-21.11-16.17-10.13-62.3-23.5-42.16-2.5-2.67-1.08-6.06-2.07-9.19-5.06-.77-18-5.43-17.29,3.33,2.35.75,5.74-.44,7.64,2.52-1.6,1.39-3.06,2.23-2.19,4.43,2.44,1.3,7.62-1.61,8.65.94-3.4,1.32-8.67-.12-10.67,3.46,1.18,2.75,2.53,3.91,5.2,4a5.46,5.46,0,0,0,3.61.87c4.84-1.48,9.76,3.32,3.13,5.1-3.32,1.16-7.61,1.72-10,4.44,3.19,4.71,9.82-4,12,.88-1.65.88-10.58,6.42-4.17,5.8,1.86-.82,3.83-2.45,5.95-1.87,5.45,3.31-10.17,6.26-11.19,10.81,4.87,4.85,15.84-6.54,21.63,0,2.23,6.15,4.87,2.54,8.79,6.51.19,1.69.4,3.6,1.41,4.94a9,9,0,0,0-.95,2.35c-2.59,6.3-5.65-.8-8.09,1-3.7,2.22-6.95,4.93-7.16,9.83,2.45,1.1,3-2.14,5.4-1.6,2.61-.48,4.85-2.26,6.7.7-.54.89-1,1.76-1.58,2.64,1.68.71,3.22.4,3,2.71,1.3,4.12,7.51.2,9.44,4.46-2,3.1.06,2.25,2.05,1.18,2.8-.29,5.85-.48,8.59-.84C429.61,629.49,430.07,630.48,430.43,631.26ZM380.94,393.78c-13.07,22.23-22.49-14.94-2.9-8.53-.44-4.53-.21-6.83,5-6.07-2.14-3.93-1.62-8.45-3.91-11.92-8.33,6.94-14.71,15.39-20.36,24.86-1-7.74-.39-10.28,3.87-16.78,1.2-2.24,1-3-1-4.71-3.54-4.76.25-13.24-3.67-19.9,6.23,1.43,11.19,4.42,17.18,6.58l1.19-3.35c-27.37-9.41-56.19-15.34-82.9-26.93-1.17,10.15,18.43,8.49,25.47,12.91,8.54,2.79,17,6.24,25.67,8.8,10.32,2.57,14.1,5.23,13.13,16.21-.5,11.83-2,23.66-2.43,35.63-.19,2.37-.93,11.15,3,6.67,7.17-8,15.07,5,9,11.19,3.88,3.76,11.09,13.37,12.68,2.69C380.43,412.26,384.62,402.25,380.94,393.78Zm-103.55-32c.83-15.81-8.25-10.49-19.6-15.08-19.39-5.2-38.74-10.31-58.26-15.18-11.93-4.16-1.51-12.44-18.2-11.89.93-2.78-2-7.61-4.5-9.4.59,4.14-.33,9,2.67,12.23-4.45,4.4,5.26,19.83,9,11.81l2.52.42c-.07,2.72,2.88,6.85-2,5.46-1.71-.32-1.7-.38-2.58,1.43,1.41,3.44,6.32,3,9.31,4.43-.86-2.74-1.84-4.64-2-7.49l.89-.46c4.1,3.18,7.43,5,11,9,2.55-3,3.6-5.72,7.07-7.86C217.1,349.91,262.72,353.85,277.39,361.8ZM225,508.81c1-5.84-1.54-5.16-1.92-9,.9-5.63-3-7.43-3.26-.68-9.8-5.82.11-14.81,3-21.8,1.28-9.2-1.9-18.72-9-24.48-2.46-2.18-5,2-3.12,4.05,2.45,2.39,3.81,4.15,2.06,7.11-.3,1-.83,1.25-1.78.75-2.19-1-4.73-3.07-6.24.09-8.18,0,6.09,7,7.58,8.41l-1.57,4.57c-6.32-3-12.62-5-3.53,2.53-1.64,1.78-2.91,3.47-2.56,6.24-5.63-4.61-10.05-9.12-16.53-12.14-3.47,4,2.64,4.52,2.57,8,.75,5.47,7.86,8.31,11.26,12.38,2.54,1.89,2,5.14,2.65,7.88,4.86,5.9,10.79,11.2,13.23,19h2.92c.38-2.54,1.5-11-1.41-11.71,1.82,7.19-4,4.75-4.27-.77-2.67-4.51-9.3-4.92-7.87-11.43C212.74,497.18,218.83,507,225,508.81ZM100.16,311.72c1.2,3.69,6.81,9.43,10.53,6.2,1.19-1.17,2.78-2.86,4.61-2.36,10.09,5.54,5.47.36,14-1.31,1.81-1.18.27-3.16-1.56-2.84-35.32-7-69.48-19.9-104.29-29.51A35.64,35.64,0,0,1,15,308c6.93-2.46,7.24-12.4,11.59-16.91,1.83.44,2.48-2.86,4-1.42-.22.92-.82,2-.57,2.71,1.29,2.67-1.61,7.7,3.11,6.76,3.88-1,6,3.59,11.28,3.81,1.15-2.73.89-5.74,2.45-8.19,4.57,4.48,4.46,2.83,10.19,1.94-1.84,5.24,5.14,8.43,7.33,2.87,1.75.91,3.38,2.1,5.61.68,1.87,3.87,6.21,3.17,9.86,4.24V308l.4-.27c4.66,5.48,6.75,3.28,5.72-3.17l3.18-.81c-.29,5.32,7.81,1.24,8.83,5A2.57,2.57,0,0,0,100.16,311.72ZM236.61,533.8l-.12.49c36.68,12.34,75.73,20.43,114.71,16.62-6.23-9.18,5.36-10.86-15.05-7.46,3.61,2.93-.85,5.39-3.53,2.85-3.46-2-7.74-1.69-11.43-3-10.3-3.57-20.68,1.43-31.06-.46-8.67-2.26-19.51.32-26.27-6.52,9.52-1.42,18.56-2.1,27.62-5.2C273.27,528.1,255,534,236.61,533.8Zm244.3,76.39c-7-.42-12.42,2.86-19,4.31-4.91,1.9-12.33-1.28-15.74,2.72,2.17.43,2.65,2.45,3.9,3.73,2.95,2.66.68,6.19,2.25,9.3,4.17-1.09,7.47-5.78,12-3.36,17.49-.31,29.58-16.07,37.37-30.24-2.16-1.94-3.36-8-6.31-6.79C489.7,595.94,482.59,601.8,480.91,610.19Zm9.43-34.77c-15.81,28.34-41,38.08-68.57,18.67,8.12,6.66,17.85,11.69,28.45,12.19,1,0,1.67.82,1.22,1.5-12,3.49-24.9-6.65-33.87-14-9.34-7.42-11.38-20.2-14.46-31.09C399,591,432.53,617.86,460.8,611c24-5.82,39.26-31.5,41.7-54.76.42-3.49,3.25-12.72-.85-13.81-.94,23.37-9.68,50-31.37,62.22-2.19.27-9.74,6.66-9.41,2.19C473.46,600.2,487.85,590.79,490.34,575.42Zm-293.78-275c-.26,3.84-1,6,3.45,6.49,9.49.12,25.21,13.48,32.19,9.8,2.2-2,4.16-.19,6.25.81,14.6,3.78,28.41,10.09,43.22,13.53,0-2.58.73-5.92-2.57-6.61q-15.33-4.31-30.63-8.77C231.29,309.87,213.93,305.82,196.56,300.46ZM759,518.17c-5.84,2.92-11.37-2.78-17-4.14l-.23.44c10,7.2,23.09,8.41,35.13,11-12,.24-24.56,1.75-36.27-.6-2.66-1.2-2-5.37-5.81-5-4.87.28-8.94-2.26-13.85-1.47-.21-1.29-.36-2.25-.6-3.71-2.15,2-1.05,4.09-1.73,5.81,2.73.81,5.41.45,5.37,3.79.81,4.87,6.17,6.74,8.2,11.06,1.14,3.24,4.44,3.9,7.43,4.61,3.19-.38.78-5.56,1.15-7.8-5.35-.2-10.5-1-13-6.23,18.25,5.46,36.82,2.89,55.71,1.76.52-7-19.72-5.35-25.64-11.75C757.39,516.72,758.59,517.32,759,518.17ZM293.47,392.53c-19.58-2.36-39.72-13.1-58.76-13.41.06,1.71,2.6,1.85,3.85,2.41,6,1.06,11.68,3.6,17.72,4.84,14.61,3.24,28.15,10.73,43,12.75,15,3.19,34.43.51,45.83,12.15,4.54-15-38.56-13.56-48.08-16C297,392.94,295.6,389,293.47,392.53ZM550.11,509.61a62.46,62.46,0,0,1,19.32,3.78,1.74,1.74,0,0,0,2.14-2.7c-8-5.14-19.62-4.44-28.87-7.29-3.59-.71-3.61-.6-4.16,3.23l4.59,1.45c1.24,6.7-3.6,17.44,3,21.75,2.27.81,2.79-1.29,3-3.18l3.89-.24c.6,4.81,5.68,7.87,10.25,8,5.94,2.63,5.94-15.13,1.56-13.87a1.57,1.57,0,0,0-.78,2c.77,2.75-.5,5.34-.45,8-4.92,1.3-6.12-5-7.49-8.31-1-2.35-3.59-.66-5.59-1C549.8,517.31,548.89,513.51,550.11,509.61ZM272.89,344.3c-25.74-6.92-50.81-15.71-76.53-22.25-10.91,6.3,21.17,9.26,24.42,12.27C226.27,334.76,278.19,353.27,272.89,344.3Zm48.28,149.55c-.47,1-2.67,4-.49,4,4.78-.54,7.67,5.84,12.39,6.17,8.43,3,12.77,13.78,20.05,19.19,1.18,1,3.22.26,2.17-1.51-2-3.56.77-7.92-1-11.14-5.65-5.67-10.29-12.64-17.19-16.79-3.58-2.28-9.1-14.83-12.21-6.88,2.41,2.25,17.94,15.68,7.24,13.2C328.4,497.86,325.87,494.38,321.17,493.85ZM506.62,593c7-14.08,13.67-29.13,11.52-45.34,2.82-7.69-1.67-3.19-4.62-6.77-5.21,1.93-4.17,7.76-4.53,12.19,3.33,3.81,8.71,10.68.48,12.36-3.49.42-4,4.87-3.32,7.66.72,1.58,2.76,2,2.73,3.91-1.76,1.84-2.65,5.52-5.78,4.55C501.3,584.11,502.3,591.71,506.62,593ZM148.6,345.5c4.15.59,5.86-6.47,8.45-9.12,2.44-3.09,3.41.74,6.17-4.2,1.34,2,1.95,4.39,4.32,1.62,7.67,4.41,8.68-3.43,6.65-9-.4-2.41.29-6-3-6.39-4.8-1.55-9.88-2.87-15-2.45C160.94,326.35,154.31,337,148.6,345.5ZM492.73,536.09c-8.17-56.65-66.47-49-78.22,1.41l.49.18c6.31-12,10.28-26.22,23.16-32.81.52,2.52,11.38,11.2,9.6,4.25,2-.54,5.26-.89,4.5-3.76-2.69-3.1-8.29,1.33-12-1.17C468.55,489.13,485.21,510.26,492.73,536.09Zm-94.22-84.78c11.24-9.51,20.14-16.72,35.38-18.23-2.18-3.42-7.24-1.94-10.65-1.71-.14-12.24.42-24.27-1-36.6l-3.24.86a11.28,11.28,0,0,1,.65,7c-1.56-.83-2.22-.33-3.2.86,1,1.17,1.85,1.2,3.35.75v15.46c-1.36-.53-2.5-.4-3.31.91,1,1.49,2.21.3,3.41.49,2,6.88-1.16,11-7,13.72C407.42,439.68,401.62,444.4,398.51,451.31ZM772.84,543.7c4.28-4.33,9.25-6.14,15.2-4.92,3-.53,3.77,3.11,6.68,2.7.28-.9.56-1.79.88-2.78-4.71-4-10.83-3.61-16.65-4-1,5-7.26,7.1-11.71,8.43-5.93,1.43-15.22-1.27-19.6,2.6,3.67,1.65,8-.35,11.36,2,3.9,2.2,8.66.15,12.92.57,5.94-.93,18,2.36,22.05-.74-2-1.43-4.4-.35-6.48-1.11-3.3-1.48-4.74-5.64-8.59-3C777.08,544.86,775.2,544.44,772.84,543.7ZM172.42,363.36c12.44,3.89,24.87,6.55,37.38,10.07,1.27.27,3.06.79,3.73-.74-4.65-5-13.42-5-20-7.7,2.19-1.66,2.43-3.21,1.73-5.64,2-.51,2.64-1.62,1.44-2.72-1.94-.23-2.74-.72-2.39-2.85,0-2.17,1.33-4.62-.1-6.52-3.13,2.44-2,7.91-2.83,11.49-4.67.49-2,3.11-2.19,6A92.26,92.26,0,0,1,175.3,361c.07-3.08,4.15-10.25-.87-10.45C174.84,354.84,174.79,359.11,172.42,363.36ZM297,481c-21.57,7-19.1.57-14.44,23.95a2,2,0,0,0,2.16,1.61c.53-.22,1.24-1.06,1.16-1.51-1.9-23.59-5.28-15.72,17-22.5-7.39-8.64-15.35-15.62-25.9-19.54.14,1.87.08,2,1.39,2.76C285.32,470,291.07,475.46,297,481Zm19.06-120.7c-8.13-1.75-16.18-5.38-24.4-5.11-2.72,13.49,7.95,4.87,23.44,16.49C315.62,367.78,317,364.32,316.07,360.3Zm-38,22.1c1.46-.68,5.9-1,4.41-3.73a1.46,1.46,0,0,0-2.1-.48,6.05,6.05,0,0,1-4.44.32c-21.12-4.24-43.35-12.95-63.56-16.36,2.12,4.63,17.94,7.29,23.44,9.33C250.48,373.51,263.52,380.09,278.11,382.4ZM130,324.55c8.3-4,14.36,1.33,21.39,4.58,3.78.64,2.73-4.06,3.24-6.38,1.2-8.44-14.65-6.77-20.4-8.8C132.93,317.56,130.65,320.53,130,324.55ZM480,579.76C454.9,602,431.39,602,415.44,569.91,420.91,601.82,464,608,480,579.76ZM370.23,468c-1.65-2.35-4.19-3.65-5.69-6.17-2.55-2.68-3.36.14-1.48,2.38a8.44,8.44,0,0,0-6.37.77c3.05-.24,14.06,3.05,7.11,5.36-3.69-.83-7.35-.57-11.45-.42,1.38,1.9,1.59,4.46,4.29,4.17,7.68-.73,15.57.93,23.14-.68C387.3,466.51,374.53,468.11,370.23,468Zm361.13,74.29c-4-9.76-4.73-10.15-14.41-13.23-2.7,11.43-.45,7-9,12.07.49,1.22,1.5,1.12,2.45,1.1C717.47,541.63,724.35,543.52,731.36,542.33ZM417,370.66c3.77-15.42-3.27-7.59-3.17,1.3.9,5.33-1.43,11.27,6.63,10.66,6.17-1-2-9.27,2.33-13.41,1.71,2.3.88,5.07,2.32,7.43,3.63,2.13,2.19-4,2-5.78,7.21-2.9-2.88-4.49-5.76-4.67-3.39-.8-2.18,2.45-2.88,4.47Zm-7.14,157,.52.09c7-19.42,26.93-34.44,47.44-36.33,1.68.11,1.79-.25,1.57-2.37C437.06,487.69,414.63,506.36,409.82,527.66Zm-29.27-70.73c-3.46-6.66-2.41-14.68-5.8-21-1,.39-.74,1.63-1.14,2.47-7.16-4.6-12.76-12.38-20.55-16,9.59,11.26,22.54,21.31,25.5,36.51-1.15.47-2.75,1.64-1.56,2.68,4.53,4.75,5.18-.86,5.9-5A9.78,9.78,0,0,1,380.55,456.93Zm-216.22-82c-4-3.21-2.75,2.85-6.16,2.6-3.22.15-2.79,4-3.51,6.22l-20.49-5-.67,2.42c8.48,3.72,17.5,5,26.23,7.6C161.74,384.07,163.79,379.74,164.33,374.93Zm-22.66-69.87c9.67-1.27,10.35-17.81,15.57-16.06,1.58,1.53,3.39,1.78,5.38,1.95,1.18,1.42,3.23.7,4.7,1.75,1.74.48,6.79,4,6.12,0-4.19-7.6-16.05-6.06-22.78-10.92-.73,2.31,1.72,5.12.83,7.38C149.72,295.37,145,300.2,141.67,305.06Zm637.66,271.8c-3-9.23-8.28-18.35-12.42-26.71-3.95,3.24,3.08,20.74,5.16,25.51C773.14,578.28,779.49,582.13,779.33,576.86ZM285.41,367c-.26-6.8,1.65-17.81-3.37-22.34-.93.56-1.09,2.08-.77,3.1,2,6.84,1.79,14.15.76,21.12-1.64,4.09,11.56,4,14.4,8.47C305.55,382.81,298.55,368.28,285.41,367Zm43.18,151.06c-.06-2.54-2.72-12.71-4.31-5.51-2.57,3.74-5.35,8.17-2,11.89,2.1,3.43,6.32,1.45,9.45,1.14,3.3-.38,1.67-5.28,1.27-7.52ZM253,479.75c-5.77,1.28-13.19,5.57-13.81,11.85l3-.63c-.16,1.65.42,5.6,2.6,3.62,2.11-2.48,4.67.64,7.26-1.18C251.55,488.69,252.33,484.51,253,479.75Zm543.49,86.94c2.38-.49,31.8,5.31,28.35.21-4.29-1.55-9.3-1.25-13.84-1.81-5.36-.9-9.7-4.32-15.32-4.89C795,562.69,796,564.62,796.51,566.69Zm-392.95,38c-.52-4.36-3.76-2.55-5.33-4.86-3.79-4.1-15.82,7.09-5.48,7.31C388.67,620.21,398.8,605.12,403.56,604.66ZM133.23,350.57c-8.15,3.5-.5,14.58-8.79,18.87-1,1.3-1.08,3-1.76,4.71,3.34-.45,2.83,3.7,5.66,3.68C131.47,369.53,132.26,359.69,133.23,350.57Zm217.32,96c-1.93,12.65,3.32,11.91,13.63,11.81,3.95-.74-.75-6.32-3.54-4.77-1.43.9-2.3-.9-3.32-1C353.82,452.32,353.65,448,350.55,446.61ZM464.46,555.29c-1.41,8.89-13.36,8-17,14.1.75,2,3.23-.14,3.33,2.74,3,5.93,7.62-.45,3.5-4.65C458.87,566.07,469.35,561,464.46,555.29ZM357,482c2.14,7.51-9.08,2.57-9.43,8.49,4.1-1.59,11.7.38,13.32-4,2.14-11-9-9.53-13.05-2.37Zm106.83,7.24c.65,1.18.66,1.16,1.67,1.4,5.82.75,10.59,4.21,15.36,7.35a41.66,41.66,0,0,1,12.46,14.21c.33.58.66,1.13,1.75.56C490.27,500.57,477.4,489.25,463.87,489.28ZM194.54,298.14c-.19-1.86-.18-4.66-2.68-5.07-2.34-.35-8.84-4.27-7.84.75.92,2.28.48,5.74,3.56,6.1C190.18,300.08,195.06,303,194.54,298.14Zm253.78,76.57.06-.25c4.43.72,4.76-5.64.43-4.87-3.82,0-2.36-4.47-7.73-3.32C433,371.35,444,373.63,448.32,374.71Zm-146,90.42c1.8-2.29,1.56-8.41-1.8-8.71C285.82,453,295.4,462,302.3,465.13Zm147.78,52.42c-6.92-2.43-24.85,24.32-13.12,14.32C439.46,525.42,449.58,521.57,450.08,517.55Zm-249.38,13c8.14.74,15.09,5.83,22,8.5C224.33,534,202.91,526,200.7,530.53Zm-8.43-14.95c6.3,2.39,17.17-1.51,15.56,9.83l2.33-1.2c1.69,1.38,3.33,0,1.69-1.74C206.13,514.36,201.22,510.75,192.27,515.58Zm265,25c-3.61-4.86-10-.13-9.88,4.92C452.52,547.58,453.86,546.91,457.32,540.61ZM283.7,447.23c-4.76-11.56-6.63-2.26-5.22,4.58C280.87,457.73,283.44,450.33,283.7,447.23Zm154.68-69.6c-2.45,8.05,8.25,8.45,10.12,1.77ZM686.3,522.94c-5.76,3,7.94,4.6,9.24,8.06C704.42,532.35,690.22,521.7,686.3,522.94ZM183.13,296.66c-.36-2.23-1.1-8.93-4.94-6.36-2.51,1.44.13,5.15.16,7.42C178.71,300.47,183.66,300,183.13,296.66ZM483.06,560.53c.12-1.07.1-2-.9-2.63-2.31,4.17-2.18,10.25-6.28,13.89-.56.56-.73,1.39,0,1.83C480.48,573.23,482.5,564.69,483.06,560.53ZM471.34,543.2a4.71,4.71,0,0,0,7.87-.51C478,538.18,472,537.91,471.34,543.2Zm-240.2-6.14-.39.42c2.82,3.35,5.16,7.17,9.32,9.55C240.31,540.9,235.79,538.78,231.14,537.06Zm212.39,18.46c.47-2.66-3.83-5.35-5.1-2.37C436,558,442.41,561.56,443.53,555.52Zm21.68-30.7c-3.58-.27-5.28,5.71-1.1,6C467.58,531.3,469.37,525.09,465.21,524.82Zm248,2c0-4.45-4.47-7.67-8.45-6.11C708.18,522.54,708.8,527.79,713.24,526.79Zm-428-203.23c1.78,3.18,2.36,6.24,1.06,9.69C290.08,338.4,290.42,321.16,285.21,323.56ZM248.84,472.62c-2.65-4.07-15.16,6.19-8.26,5.94C242.25,475,245.3,474.05,248.84,472.62Zm-127.17-93.9,0-.22c-2.1.72-6-.25-6.81,2.27C115.77,384.13,130.53,379.41,121.67,378.72ZM473,566.86c1-2.93-2-6-4.41-3.37C466.76,567.36,470,568.77,473,566.86Zm-106.31-69.7c-2.17-3.48-5.7,9-4.13,9.58C365.54,505.25,365.2,500.09,366.64,497.16ZM194.06,527.45l7-3v-2.19C198.29,522.62,193.25,524,194.06,527.45ZM699,519.69c-1.62.31-3.06,1.91-1.75,3.5C700.44,525.13,705.89,519.75,699,519.69Zm92.25-.55h0c-.62,4.23,4.23,1.77,3.15-1.12C793.29,515.74,790.59,516.49,791.21,519.14ZM651.28,508.38a6.11,6.11,0,0,0-2.93-3C646.62,508.56,648.39,510.72,651.28,508.38ZM416.73,588.05l-.4.37,4.55,4.76.42-.39Z" transform="translate(-10.79 -279.18)"/><path d="M416,613c1.76.09,2.84,1.24,3.93,2.23,3.53,3.59,12.16.8,13.69,6.64-2,2.36-8.47,2.75-11.23,2.32C419.27,621.42,414.84,617.5,416,613Z" transform="translate(-10.79 -279.18)"/></svg>