<?xml version="1.0" encoding="utf-8"?>
<!-- Generator: Adobe Illustrator 23.0.1, SVG Export Plug-In . SVG Version: 6.00 Build 0)  -->
<svg version="1.1" id="katman_1" xmlns="http://www.w3.org/2000/svg" xmlns:xlink="http://www.w3.org/1999/xlink" x="0px" y="0px"
	 viewBox="0 0 841.9 595.3" style="enable-background:new 0 0 841.9 595.3;" xml:space="preserve">
<path d="M634,491.2c-12.8-5.5-19.1-16.9-18.6-22.7c0.1-1.2,0.5-2.6,2.1-3c7.2-1.7,5.9-12.1,5.8-12.5l-0.1-0.7l-0.7,0
	c-10.9,0.7-28.3-11.2-28.9-13.2c0,0,0-0.1,0-0.1c0.9-1.5,7.8-3.3,11.8-4.1l1.1-0.2l-0.6-0.9c-5.5-7.7-19.9-9.2-26.1-9.4
	c5-3.3,6.8-9.5,6.9-9.8l0.3-1.2l-1.2,0.3c-9.8,2.2-29.4,0.3-31.3-1.3c1.3-1.9,6.7-4.2,8.8-5l1.8-0.6l-1.7-0.7
	c-16.2-6.4-28.1,2.8-30.8,5.2l-10.2-11.7c-3.9-3.9-7.3-7-10.7-9.5c1.8-4.5,3.1-10.3,2.3-14.5c-0.8-4.2-6-7.4-10.2-10
	c-2-1.2-4.9-3.1-5-3.8c0,0,0-0.1,0.3-0.2c2.8-2,5.2-6.7,5.7-11.4c0.4-4.2-0.6-7.8-2.9-10.3c-4.3-4.6-1.1-9.8-0.4-10.9
	c9.7-4.1,13.1-14.2,16.1-23.2c1.3-3.9,2.5-7.5,4.2-10.5c5.6-10.1,4.5-28.2,0.6-32.9c-2.4-2.9-6.6-10.2-9.2-14.6
	c-1.1-1.9-1.6-2.7-1.9-3.2c0.2-0.8,1.4-2.9,2.6-4.9c2.5,1.9,8.8,6.5,13,5.8c1.3-0.2,2.3-0.9,3-2c2.1-3.5-1.9-8.3-5.8-12.9
	c-2.5-2.9-5.8-6.9-4.8-8.1c2.8-3.2,6.2-10.1,5.2-13c-0.3-0.8-0.8-1.3-1.6-1.5c-0.7-0.2-3.3-2.4-5.4-4.1c-8-6.7-14.3-11.6-17-8.4
	c-2.7,3.2-9.1,8.4-11.1,10c-5.9-3.7-10.7-5.1-14.7-4.2c-2.9,0.7-5.3,2.5-7.1,5.6c-0.7,1.2-0.9,2.6-0.4,3.9
	c1.7,4.7,10.5,8.5,13.8,9.9l-4.3,8.1c-2-0.7-6.9-2.1-11.5-1.7c-3.9,0.4-17.1-3.1-24.9-5.2c-3.1-0.8-5.5-1.5-6.8-1.7
	c-4.9-1-25.8-6.4-31-9.5c-3.6-2.2-4.2-4.6-4.9-7.4c-0.3-1.1-0.5-2.2-1-3.4c-1.4-3.3-6.4-5.9-8.4-6.9l21.1-70c4.2,0,24.5,0,36.9-0.1
	c6.7,0,13.3,3.1,20.3,6.5c6.9,3.3,14.1,6.7,21.6,6.9c9.5,0.3,19.6-1.6,20.2-5.2c0.4-2.5-3.4-3.7-4.7-4.1
	c-9.3-2.8-23.6-30.2-22.7-37.3c0.6-4.9,26.8-16.9,43.1-23.3L526,66l-1.4-1.1c-1.1-0.9-27.6-23-43.1-19.1
	C468.2,49,439.1,35,433.9,32.4l2.8-9c5.7-5,7.1-8.1,5.6-13.4c-0.5-1.9-3.5-5.9-8.8-5.4c-2.6,0.3-5.2,2.6-6.2,4.5
	c-2.3,4.6,0,11.8,1,13.6c-18.8,65.7-47.8,164-52.2,169.9c-4.7,0.2-8,2.6-11.4,8.3c-3.5,5.9,3.1,15.9,4.6,18l-1.5,2.2
	c-10.9-0.5-15.8,5-18.8,8.4c-2,2.2-2.7,2.9-3.7,2.3c-3.7-2.4-12.8-7.6-15.5-9.1c-0.4-0.2-0.8-0.2-1.1,0.1c-0.3,0.3-0.4,0.8-0.2,1.1
	l7.5,13.8c-4.3,2.6-8.3,14.5-11.9,27.1c-0.6,2-1,3.5-1.3,4.1c-1.2,3.1-11,26.7-12.8,29.3c-1.7,2.4-1.2,13.1,2.1,16.9
	c1.3,1.5,2.9,1.9,4.7,1c3.8-1.9,5.2-2,5.6-2c0.6,2.3,1.6,3.8,3.1,4.3c2.5,0.9,5.1-1.1,5.2-1.1c5.4-3.4,5.3-8.6,5.1-10.4
	c7.8-3.5,12.8-10.8,13.8-12.3c6.9-0.9,11.7-5.4,13.3-7.2c0.2,0.5,0.3,1.1,0.2,1.8c0,1.6-0.5,3.1-1.3,4.6c-5,8.8-12.7,30.8-14.4,36.8
	c-1.4,4.8-2.2,5.9-2.3,6.1c-10.2,4.2-14.1,12.1-16.2,16.3c-0.6,1.3-1.4,2.8-1.8,2.9c0,0,0,0-0.1,0c-3-2-15-3.2-19.1-3.4
	c-3.6-0.2-16.7-4.5-23-6.5l-2-0.6c-4.9-1.6-11.8-0.5-18.5,2.8c-5.5,2.7-29.5,7.9-33.9,8.1c-4.7,0.2-7.7,1.6-8.2,3.8
	c-0.3,1.3-2.7,4.2-6.1,6.7c-2.6,1.9-12.8,14.1-11.6,16.1c0.2,0.4,0.7,0.6,1.8,0.9c4.4,1,19.1,1.7,22-0.3c1.3-0.9,2.1-2.5,2.3-4.5
	c0.2-2-0.3-4.3-1-5c-0.2-0.2-0.4-1.2-0.3-2.5c0.1-0.9,0.3-1.3,0.4-1.5c0.3,0.1,0.8,0.7,1.1,1.1c0.9,1,1.9,2.1,3.1,2.2
	c1.6,0.1,11.7-2.9,24.8-6.8c1.6-0.5,3.1-0.9,4.4-1.3c9.1-2.8,11.4-1.9,19.2,1l0.1,0c7.2,2.7,21.1,9.5,30.3,14.1c4,2,7.1,3.5,8.8,4.3
	c1.9,0.9,3.7,1.5,5.3,2c1.6,0.5,3.4,1.2,3.9,1.7c-1,0.7-6.4,1.6-12.5,1.7l-0.9,0c-6.1,0.1-20.3,0.3-25.9,1.9
	c-6.4,1.8-8.1,15.1-7.4,20.4c0.7,5.1-3.8,25.7-4.1,27c-0.3,0.7-2.8,7.1-2,12c0.8,4.7,7.4,12.5,12.8,18.2c0.5,0.5,1,1.1,1.6,1.7
	c3.9,4.3,8.4,9.2,13.1,7.2c5.8-2.5,2.4-22.4,2.4-22.6c-0.3-1-1.9-3-4-3.9c-1.8-0.8-3.8-0.8-5.6,0.1c-2.9,1.4-5.4,1.1-5.9,0.7
	c0.1-0.1,0.2-0.2,0.5-0.4c3-1.8,4.8-9.1,4-11.9c-0.4-1.4,0.7-8.7,1.6-14.5c0.6-4,1.2-7.8,1.3-9.8c0.2-3.4,1.8-6.8,3.7-7.8
	c0.9-0.5,1.7-0.4,2.6,0.1c1.7,1,7.7,2,17.3,3.5c10.5,1.7,22.4,3.6,26.4,5.7c6.2,3.2,10.7,1.9,12.3,1.2c14.4,22.2,31.1,35.7,49.7,40
	c15.3,3.6,27.8,0.1,34.5-1.7c1.5-0.4,2.6-0.7,3.4-0.8c5-0.8,5.7,2,6.5,6.7c0.2,1.4,0.5,2.9,0.9,4.2l0.3,0.7
	c1.8,5.1,4.5,12.7,13.8,25c8.1,10.5,5.5,13.9,4,16c-0.3,0.4-0.5,0.7-0.7,1.1c-0.9,1.8-19.2,15.7-24.2,17.1c0,0-0.1,0-0.1,0
	c-4.7,1.2-6.5,2.4-9.3,4.3l-0.2,0.1c-3.2,2.1-10.3,18.6-10.4,19.5c0,0.1-0.1,0.3-0.1,0.6c-1.9,9.9-1.7,14.5,0.6,15.1
	c3.2,0.9,13.6-6.6,17.9-9.8c1.3-1,1.9-2.4,1.6-4.2c-0.4-2.3-2.3-4.8-3.6-5.3c-0.3-0.1-1-1.2-1.2-2.3c-0.1-0.6,0-0.9,0.1-1
	c0,0,0.4-0.2,1.5,0.3c4.6,2.2,7.7-1.2,10.1-4l0.2-0.3c1.2-1.3,7.8-5.6,14.8-10.2c7.8-5.1,16.7-10.9,21-14.5c8.4-7,7-9.5,3.5-15.6
	l-0.4-0.8c-2.9-5.1-3.9-18.3-4.2-23.4c2,2,5.6,5,8.9,7.6c1.7,1.4,3.3,2.7,4.5,3.7c4.2,3.6,21.6,17.2,27.9,21.4
	c6,4,8.7,8.3,11.6,14.9c1.8,4.1,2.1,15.9,2.2,23.7c0.1,4.1,0.2,7.1,0.4,8.1c0.6,2.6-1.1,8.3-1.6,9.3c-0.1,0.2-0.8,0.9-1.5,1.7
	c-2.2,2.3-5.8,6.1-8.5,10.9c-3.3,5.6-3.2,10.8-2.4,12.9c0.3,0.8,0.7,1.2,1.2,1.4c1.2,0.4,7.2-0.9,12.7-2.4c3.6-1,6.9-2.2,8.5-3.2
	c1.5-0.9,2.4-2.2,2.5-3.8c0.3-2.7-1.6-5.7-3.1-7c-0.6-0.5-0.7-2-0.2-3.5c0.5-1.3,1.5-2.8,3-2.8c2.1-0.1,4.2-1.2,5.5-3
	c1-1.4,1.8-3.8,0.6-7.4c-1.4-4-2.1-15.5-2.7-24.8c-0.3-4.3-0.5-8.1-0.8-10.3c-0.2-1.9-0.1-4.4,0-6.9c0.3-6.6,0.5-14.2-4.5-16.9
	c-6.3-3.4-13.5-12.7-13.6-12.8l-0.1-0.1c-5.6-5.4-8-11.4-9.1-15.5c-0.4-1.8-0.3-3.7,0.5-5.5c6.6-14.8,5.7-30.7,4.8-37.7
	c2.2,2.4,5.4,3.7,6.5,4.1c3,14.9,16.2,12.9,16.3,12.8l0.4-0.1l0.2-0.4c0.5-1.2,2.5-2.1,5.1-2.4c3.3-0.4,6.3,0.3,7.3,1.7
	c0.6,0.8,0.6,1.7,0.1,2.9c-3.4,7.8,7.1,13.1,7.2,13.1l0.7,0.3l0.3-0.7c0.4-1,1.1-1.6,2-1.9c0,0,0,0,0,0c3.1-0.9,8.2,2,10,3.1
	c-1.4,2.2-4.5,9.8,5,26.4c3.1,5.4,7.4,8.8,12.6,10.1c10.5,2.6,21.1-4.2,21.6-4.5l1.1-0.7L634,491.2z M399.6,238.8
	c-0.6-0.5-0.8-1-0.6-1.7c0.7-2.2,2.7-4,5-5.4c2.7,1.3,5.2,3.1,7.6,4.8c1.8,1.3,3.5,2.5,5.2,3.5C410.3,241,402.2,240.8,399.6,238.8z
	 M422,326.3c-3.7-4.3-6.6-11-8-17.5c-1.5-6.7-1-10-0.3-10.3c0.1-0.1,0.7,0.1,1.9,1.5c5.7,7,15,7.8,21.3,7.4l3.1,11.9
	C436.1,319,428,323,422,326.3z M460.4,256c-0.6,1.4-6.1,13.9-8.2,20c-2.1,6.4-2.7,8.7-2.7,8.7l0,0c-5-3.3-10.4-7.3-14-10.7
	c6.2,1.7,11.5,4.2,11.6,4.3l1.5,0.7l-0.5-1.6c-6-19.4-22.6-23.6-27.9-24.5c3.8-3.4,5.1-7.1,5.4-9.9c3.7,1,8,2.3,12.1,3.7
	c5.3,1.7,10.2,3.3,13.9,4C459,252.2,460.4,255.9,460.4,256L460.4,256z"/>
</svg>
