<?xml version="1.0" encoding="utf-8" ?>
<svg xmlns="http://www.w3.org/2000/svg" xmlns:xlink="http://www.w3.org/1999/xlink" width="20" height="20">
	<rect fill="rgb(255,0,0)" stroke="none" width="20" height="20"/>
	<path fill="rgb(255,255,255)" stroke="none" d="M10 19L10.5 18L13 19L13 17.5L11 16L11.5 13L18 14L18 12L11.5 9L11.5 5Q11.4149 4.67263 11.3269 4.38305Q11.2388 4.09347 11.1481 3.84292Q11.0573 3.59236 10.9643 3.38191Q10.8713 3.17145 10.7765 3.00199Q10.6816 2.83254 10.5853 2.7048Q10.4889 2.57707 10.3916 2.49161Q10.2942 2.40615 10.1962 2.36333Q10.0982 2.32051 10 2.32051Q9.90179 2.32051 9.80379 2.36333Q9.70579 2.40615 9.60842 2.49161Q9.51105 2.57707 9.41473 2.7048Q9.31841 2.83254 9.22354 3.00199Q9.12868 3.17145 9.03568 3.38191Q8.94269 3.59236 8.85195 3.84292Q8.76122 4.09347 8.67313 4.38305Q8.58505 4.67263 8.5 5L8.5 5L8.5 9L2 12L2 14L8.5 13L9 16L7 17.5L7 19L9.5 18L10 19Z"/>
	<path fill="none" stroke="rgb(0,0,0)" stroke-width="0.40000001" stroke-miterlimit="4" d="M10 19L10.5 18L13 19L13 17.5L11 16L11.5 13L18 14L18 12L11.5 9L11.5 5Q11.4149 4.67263 11.3269 4.38305Q11.2388 4.09347 11.1481 3.84292Q11.0573 3.59236 10.9643 3.38191Q10.8713 3.17145 10.7765 3.00199Q10.6816 2.83254 10.5853 2.7048Q10.4889 2.57707 10.3916 2.49161Q10.2942 2.40615 10.1962 2.36333Q10.0982 2.32051 10 2.32051Q9.90179 2.32051 9.80379 2.36333Q9.70579 2.40615 9.60842 2.49161Q9.51105 2.57707 9.41473 2.7048Q9.31841 2.83254 9.22354 3.00199Q9.12868 3.17145 9.03568 3.38191Q8.94269 3.59236 8.85195 3.84292Q8.76122 4.09347 8.67313 4.38305Q8.58505 4.67263 8.5 5L8.5 5L8.5 9L2 12L2 14L8.5 13L9 16L7 17.5L7 19L9.5 18L10 19Z"/>
</svg>
