<?xml version="1.0" encoding="utf-8" ?>
<svg xmlns="http://www.w3.org/2000/svg" xmlns:xlink="http://www.w3.org/1999/xlink" width="20" height="20">
	<rect fill="rgb(255,0,0)" stroke="none" width="20" height="20"/>
	<defs>
		<linearGradient id="gradient_0" gradientUnits="userSpaceOnUse" x1="0" y1="0" x2="20" y2="20">
			<stop offset="0" stop-color="rgb(255,255,255)"/>
			<stop offset="1" stop-color="rgb(211,211,211)"/>
		</linearGradient>
	</defs>
	<path fill="url(#gradient_0)" stroke="none" d="M3.33333 2Q3.12303 2.10185 2.929 2.23205Q2.73497 2.36225 2.56099 2.51824Q2.38702 2.67423 2.23652 2.85297Q2.08601 3.03171 1.96191 3.2297Q1.83781 3.42769 1.74255 3.64106Q1.64729 3.85443 1.58273 4.079Q1.51817 4.30357 1.48557 4.53495Q1.45297 4.76633 1.45297 5Q1.45297 5.23367 1.48557 5.46505Q1.51817 5.69643 1.58273 5.921Q1.64729 6.14557 1.74255 6.35894Q1.83781 6.57231 1.96191 6.77029Q2.08601 6.96828 2.23652 7.14702Q2.38702 7.32576 2.56099 7.48176Q2.73497 7.63775 2.929 7.76795Q3.12303 7.89815 3.33333 8L16.6667 18Q16.877 17.8981 17.071 17.768Q17.265 17.6378 17.439 17.4818Q17.613 17.3258 17.7635 17.147Q17.914 16.9683 18.0381 16.7703Q18.1622 16.5723 18.2574 16.3589Q18.3527 16.1456 18.4173 15.921Q18.4818 15.6964 18.5144 15.465Q18.547 15.2337 18.547 15Q18.547 14.7663 18.5144 14.535Q18.4818 14.3036 18.4173 14.079Q18.3527 13.8544 18.2574 13.6411Q18.1622 13.4277 18.0381 13.2297Q17.914 13.0317 17.7635 12.853Q17.613 12.6742 17.439 12.5182Q17.265 12.3622 17.071 12.232Q16.877 12.1019 16.6667 12L3.33333 2Z"/>
	<path fill="none" stroke="rgb(0,0,0)" stroke-width="0.2" stroke-miterlimit="4" d="M3.33333 2Q3.12303 2.10185 2.929 2.23205Q2.73497 2.36225 2.56099 2.51824Q2.38702 2.67423 2.23652 2.85297Q2.08601 3.03171 1.96191 3.2297Q1.83781 3.42769 1.74255 3.64106Q1.64729 3.85443 1.58273 4.079Q1.51817 4.30357 1.48557 4.53495Q1.45297 4.76633 1.45297 5Q1.45297 5.23367 1.48557 5.46505Q1.51817 5.69643 1.58273 5.921Q1.64729 6.14557 1.74255 6.35894Q1.83781 6.57231 1.96191 6.77029Q2.08601 6.96828 2.23652 7.14702Q2.38702 7.32576 2.56099 7.48176Q2.73497 7.63775 2.929 7.76795Q3.12303 7.89815 3.33333 8L16.6667 18Q16.877 17.8981 17.071 17.768Q17.265 17.6378 17.439 17.4818Q17.613 17.3258 17.7635 17.147Q17.914 16.9683 18.0381 16.7703Q18.1622 16.5723 18.2574 16.3589Q18.3527 16.1456 18.4173 15.921Q18.4818 15.6964 18.5144 15.465Q18.547 15.2337 18.547 15Q18.547 14.7663 18.5144 14.535Q18.4818 14.3036 18.4173 14.079Q18.3527 13.8544 18.2574 13.6411Q18.1622 13.4277 18.0381 13.2297Q17.914 13.0317 17.7635 12.853Q17.613 12.6742 17.439 12.5182Q17.265 12.3622 17.071 12.232Q16.877 12.1019 16.6667 12L3.33333 2Z"/>
	<path fill="none" stroke="rgb(0,0,0)" stroke-width="0.2" stroke-miterlimit="4" d="M1.6 6L16.6667 17"/>
	<defs>
		<linearGradient id="gradient_1" gradientUnits="userSpaceOnUse" x1="0" y1="0" x2="20" y2="20">
			<stop offset="0" stop-color="rgb(0,0,0)"/>
			<stop offset="1" stop-color="rgb(211,211,211)"/>
		</linearGradient>
	</defs>
	<path fill="url(#gradient_1)" stroke="none" d="M16.6667 18Q16.877 17.8981 17.071 17.768Q17.265 17.6378 17.439 17.4818Q17.613 17.3258 17.7635 17.147Q17.914 16.9683 18.0381 16.7703Q18.1622 16.5723 18.2574 16.3589Q18.3527 16.1456 18.4173 15.921Q18.4818 15.6964 18.5144 15.465Q18.547 15.2337 18.547 15Q18.547 14.7663 18.5144 14.535Q18.4818 14.3036 18.4173 14.079Q18.3527 13.8544 18.2574 13.6411Q18.1622 13.4277 18.0381 13.2297Q17.914 13.0317 17.7635 12.853Q17.613 12.6742 17.439 12.5182Q17.265 12.3622 17.071 12.232Q16.877 12.1019 16.6667 12Q16.4564 12.1019 16.2623 12.232Q16.0683 12.3622 15.8943 12.5182Q15.7204 12.6742 15.5698 12.853Q15.4193 13.0317 15.2952 13.2297Q15.1711 13.4277 15.0759 13.6411Q14.9806 13.8544 14.9161 14.079Q14.8515 14.3036 14.8189 14.535Q14.7863 14.7663 14.7863 15Q14.7863 15.2337 14.8189 15.465Q14.8515 15.6964 14.9161 15.921Q14.9806 16.1456 15.0759 16.3589Q15.1711 16.5723 15.2952 16.7703Q15.4193 16.9683 15.5698 17.147Q15.7204 17.3258 15.8943 17.4818Q16.0683 17.6378 16.2623 17.768Q16.4564 17.8981 16.6667 18"/>
	<defs>
		<linearGradient id="gradient_2" gradientUnits="userSpaceOnUse" x1="20" y1="0" x2="0" y2="0">
			<stop offset="0" stop-color="rgb(255,0,0)"/>
			<stop offset="1" stop-color="rgb(139,0,0)"/>
		</linearGradient>
	</defs>
	<path fill="none" stroke="url(#gradient_2)" stroke-width="1" stroke-linecap="round" stroke-miterlimit="4" d="M10 7Q9.74107 7.19185 9.50892 7.41535Q9.27676 7.63884 9.07522 7.8903Q8.87368 8.14175 8.70608 8.41699Q8.53848 8.69223 8.4076 8.98671Q8.27672 9.28119 8.18472 9.59003Q8.09273 9.89888 8.04114 10.217Q7.98955 10.5351 7.97922 10.8572Q7.9689 11.1792 8 11.5"/>
	<defs>
		<linearGradient id="gradient_3" gradientUnits="userSpaceOnUse" x1="20" y1="0" x2="0" y2="0">
			<stop offset="0" stop-color="rgb(255,0,0)"/>
			<stop offset="1" stop-color="rgb(139,0,0)"/>
		</linearGradient>
	</defs>
	<path fill="none" stroke="url(#gradient_3)" stroke-width="1" stroke-linecap="round" stroke-miterlimit="4" d="M10 7Q10.2901 7 10.5783 6.96645Q10.8664 6.9329 11.1488 6.86625Q11.4311 6.79959 11.7039 6.70073Q11.9766 6.60188 12.2361 6.47214Q12.4955 6.3424 12.7383 6.18352Q12.981 6.02464 13.2037 5.83876Q13.4265 5.65288 13.6262 5.44248Q13.8259 5.23208 14 5"/>
	<defs>
		<linearGradient id="gradient_4" gradientUnits="userSpaceOnUse" x1="20" y1="0" x2="0" y2="0">
			<stop offset="0" stop-color="rgb(255,0,0)"/>
			<stop offset="1" stop-color="rgb(139,0,0)"/>
		</linearGradient>
	</defs>
	<path fill="none" stroke="url(#gradient_4)" stroke-width="1" stroke-linecap="round" stroke-miterlimit="4" d="M10 7Q10.1145 6.63597 10.1724 6.25879Q10.2303 5.8816 10.2303 5.5Q10.2303 5.1184 10.1724 4.74121Q10.1145 4.36403 10 4"/>
</svg>
