<?xml version="1.0" encoding="utf-8" ?>
<svg xmlns="http://www.w3.org/2000/svg" xmlns:xlink="http://www.w3.org/1999/xlink" width="20" height="20">
	<rect fill="rgb(255,0,0)" stroke="none" width="20" height="20"/>
	<path fill="rgb(255,255,255)" stroke="none" d="M10 2L18 10L16 10L10 4L4 10L2 10L10 2Z"/>
	<path fill="none" stroke="rgb(0,0,0)" stroke-width="0.40000001" stroke-miterlimit="4" d="M10 2L18 10L16 10L10 4L4 10L2 10L10 2Z"/>
	<path fill="rgb(255,255,255)" stroke="none" d="M10 5L15 10L15 18L12 18L12 12L8 12L8 18L5 18L5 10L10 5Z"/>
	<path fill="none" stroke="rgb(0,0,0)" stroke-width="0.40000001" stroke-miterlimit="4" d="M10 5L15 10L15 18L12 18L12 12L8 12L8 18L5 18L5 10L10 5Z"/>
</svg>
