<?xml version="1.0" encoding="utf-8" ?>
<svg xmlns="http://www.w3.org/2000/svg" xmlns:xlink="http://www.w3.org/1999/xlink" width="20" height="20">
	<rect fill="rgb(255,0,0)" stroke="none" width="20" height="20"/>
	<path fill="rgb(255,255,255)" stroke="none" d="M9.5 0.666667L9 5.66667L8.5 0.666667L9.5 0.666667Z"/>
	<path fill="none" stroke="rgb(255,255,255)" stroke-width="0.2" stroke-miterlimit="4" d="M9.5 0.666667L9 5.66667L8.5 0.666667L9.5 0.666667Z"/>
	<path fill="rgb(255,255,255)" stroke="none" d="M9.5 0.666667L9 5.66667L10.5 0.818182L9.5 0.666667Z"/>
	<path fill="none" stroke="rgb(255,255,255)" stroke-width="0.2" stroke-miterlimit="4" d="M9.5 0.666667L9 5.66667L10.5 0.818182L9.5 0.666667Z"/>
	<path fill="rgb(255,255,255)" stroke="none" d="M8.5 0.666667L9 5.66667L7.5 0.818182L8.5 0.666667Z"/>
	<path fill="none" stroke="rgb(255,255,255)" stroke-width="0.2" stroke-miterlimit="4" d="M8.5 0.666667L9 5.66667L7.5 0.818182L8.5 0.666667Z"/>
	<path fill="rgb(255,255,255)" stroke="none" d="M10.5 0.818182L9 5.66667L11.5 1L10.5 0.818182Z"/>
	<path fill="none" stroke="rgb(255,255,255)" stroke-width="0.2" stroke-miterlimit="4" d="M10.5 0.818182L9 5.66667L11.5 1L10.5 0.818182Z"/>
	<path fill="rgb(255,255,255)" stroke="none" d="M7.5 0.818182L9 5.66667L6.5 1L7.5 0.818182Z"/>
	<path fill="none" stroke="rgb(255,255,255)" stroke-width="0.2" stroke-miterlimit="4" d="M7.5 0.818182L9 5.66667L6.5 1L7.5 0.818182Z"/>
	<ellipse fill="none" stroke="rgb(255,255,255)" stroke-width="2" stroke-miterlimit="4" cx="9" cy="12.333333" rx="6.666666" ry="6.666667"/>
</svg>
