<?xml version="1.0" encoding="utf-8" ?>
<svg xmlns="http://www.w3.org/2000/svg" xmlns:xlink="http://www.w3.org/1999/xlink" width="20" height="20">
	<rect fill="rgb(255,0,0)" stroke="none" width="20" height="20"/>
	<path fill="rgb(255,255,255)" stroke="none" d="M3.33333 15.5L3.33333 4.5Q3.33333 4.40175 3.34296 4.30397Q3.35259 4.20618 3.37176 4.10982Q3.39093 4.01345 3.41945 3.91943Q3.44797 3.82541 3.48557 3.73463Q3.52317 3.64386 3.56949 3.55721Q3.61581 3.47055 3.67039 3.38886Q3.72498 3.30716 3.78731 3.23121Q3.84964 3.15526 3.91912 3.08579Q3.9886 3.01631 4.06455 2.95398Q4.1405 2.89165 4.22219 2.83706Q4.30389 2.78247 4.39054 2.73616Q4.47719 2.68984 4.56797 2.65224Q4.65874 2.61464 4.75276 2.58612Q4.84679 2.5576 4.94315 2.53843Q5.03952 2.51926 5.1373 2.50963Q5.23508 2.5 5.33333 2.5L15.1111 2.5Q15.2094 2.5 15.3071 2.50963Q15.4049 2.51926 15.5013 2.53843Q15.5977 2.5576 15.6917 2.58612Q15.7857 2.61464 15.8765 2.65224Q15.9673 2.68984 16.0539 2.73616Q16.1406 2.78247 16.2222 2.83706Q16.3039 2.89165 16.3799 2.95398Q16.4559 3.01631 16.5253 3.08579Q16.5948 3.15526 16.6571 3.23121Q16.7195 3.30716 16.774 3.38886Q16.8286 3.47055 16.875 3.55721Q16.9213 3.64386 16.9589 3.73463Q16.9965 3.82541 17.025 3.91943Q17.0535 4.01345 17.0727 4.10982Q17.0919 4.20618 17.1015 4.30397Q17.1111 4.40175 17.1111 4.5L17.1111 15.5Q17.1111 15.5983 17.1015 15.696Q17.0919 15.7938 17.0727 15.8902Q17.0535 15.9865 17.025 16.0806Q16.9965 16.1746 16.9589 16.2654Q16.9213 16.3561 16.875 16.4428Q16.8286 16.5294 16.774 16.6111Q16.7195 16.6928 16.6571 16.7688Q16.5948 16.8447 16.5253 16.9142Q16.4559 16.9837 16.3799 17.046Q16.3039 17.1084 16.2223 17.1629Q16.1406 17.2175 16.0539 17.2638Q15.9673 17.3102 15.8765 17.3478Q15.7857 17.3854 15.6917 17.4139Q15.5977 17.4424 15.5013 17.4616Q15.4049 17.4807 15.3071 17.4904Q15.2094 17.5 15.1111 17.5L5.33333 17.5Q5.23508 17.5 5.1373 17.4904Q5.03952 17.4807 4.94315 17.4616Q4.84679 17.4424 4.75276 17.4139Q4.65874 17.3854 4.56797 17.3478Q4.47719 17.3102 4.39054 17.2638Q4.30389 17.2175 4.22219 17.1629Q4.1405 17.1084 4.06455 17.046Q3.9886 16.9837 3.91912 16.9142Q3.84964 16.8447 3.78731 16.7688Q3.72498 16.6928 3.67039 16.6111Q3.61581 16.5294 3.56949 16.4428Q3.52317 16.3561 3.48557 16.2654Q3.44797 16.1746 3.41945 16.0806Q3.39093 15.9865 3.37176 15.8902Q3.35259 15.7938 3.34296 15.696Q3.33333 15.5983 3.33333 15.5Z"/>
	<path fill="none" stroke="rgb(0,0,0)" stroke-width="0.40000001" stroke-miterlimit="4" d="M3.33333 15.5L3.33333 4.5Q3.33333 4.40175 3.34296 4.30397Q3.35259 4.20618 3.37176 4.10982Q3.39093 4.01345 3.41945 3.91943Q3.44797 3.82541 3.48557 3.73463Q3.52317 3.64386 3.56949 3.55721Q3.61581 3.47055 3.67039 3.38886Q3.72498 3.30716 3.78731 3.23121Q3.84964 3.15526 3.91912 3.08579Q3.9886 3.01631 4.06455 2.95398Q4.1405 2.89165 4.22219 2.83706Q4.30389 2.78247 4.39054 2.73616Q4.47719 2.68984 4.56797 2.65224Q4.65874 2.61464 4.75276 2.58612Q4.84679 2.5576 4.94315 2.53843Q5.03952 2.51926 5.1373 2.50963Q5.23508 2.5 5.33333 2.5L15.1111 2.5Q15.2094 2.5 15.3071 2.50963Q15.4049 2.51926 15.5013 2.53843Q15.5977 2.5576 15.6917 2.58612Q15.7857 2.61464 15.8765 2.65224Q15.9673 2.68984 16.0539 2.73616Q16.1406 2.78247 16.2222 2.83706Q16.3039 2.89165 16.3799 2.95398Q16.4559 3.01631 16.5253 3.08579Q16.5948 3.15526 16.6571 3.23121Q16.7195 3.30716 16.774 3.38886Q16.8286 3.47055 16.875 3.55721Q16.9213 3.64386 16.9589 3.73463Q16.9965 3.82541 17.025 3.91943Q17.0535 4.01345 17.0727 4.10982Q17.0919 4.20618 17.1015 4.30397Q17.1111 4.40175 17.1111 4.5L17.1111 15.5Q17.1111 15.5983 17.1015 15.696Q17.0919 15.7938 17.0727 15.8902Q17.0535 15.9865 17.025 16.0806Q16.9965 16.1746 16.9589 16.2654Q16.9213 16.3561 16.875 16.4428Q16.8286 16.5294 16.774 16.6111Q16.7195 16.6928 16.6571 16.7688Q16.5948 16.8447 16.5253 16.9142Q16.4559 16.9837 16.3799 17.046Q16.3039 17.1084 16.2223 17.1629Q16.1406 17.2175 16.0539 17.2638Q15.9673 17.3102 15.8765 17.3478Q15.7857 17.3854 15.6917 17.4139Q15.5977 17.4424 15.5013 17.4616Q15.4049 17.4807 15.3071 17.4904Q15.2094 17.5 15.1111 17.5L5.33333 17.5Q5.23508 17.5 5.1373 17.4904Q5.03952 17.4807 4.94315 17.4616Q4.84679 17.4424 4.75276 17.4139Q4.65874 17.3854 4.56797 17.3478Q4.47719 17.3102 4.39054 17.2638Q4.30389 17.2175 4.22219 17.1629Q4.1405 17.1084 4.06455 17.046Q3.9886 16.9837 3.91912 16.9142Q3.84964 16.8447 3.78731 16.7688Q3.72498 16.6928 3.67039 16.6111Q3.61581 16.5294 3.56949 16.4428Q3.52317 16.3561 3.48557 16.2654Q3.44797 16.1746 3.41945 16.0806Q3.39093 15.9865 3.37176 15.8902Q3.35259 15.7938 3.34296 15.696Q3.33333 15.5983 3.33333 15.5Z"/>
	<path fill="rgb(255,255,255)" stroke="none" d="M3.33333 15.5L3.33333 4.5Q3.33333 4.40175 3.34296 4.30397Q3.35259 4.20618 3.37176 4.10982Q3.39093 4.01345 3.41945 3.91943Q3.44797 3.82541 3.48557 3.73463Q3.52317 3.64386 3.56949 3.55721Q3.61581 3.47055 3.67039 3.38886Q3.72498 3.30716 3.78731 3.23121Q3.84964 3.15526 3.91912 3.08579Q3.9886 3.01631 4.06455 2.95398Q4.1405 2.89165 4.22219 2.83706Q4.30389 2.78247 4.39054 2.73616Q4.47719 2.68984 4.56797 2.65224Q4.65874 2.61464 4.75276 2.58612Q4.84679 2.5576 4.94315 2.53843Q5.03952 2.51926 5.1373 2.50963Q5.23508 2.5 5.33333 2.5L14.6667 2.5Q14.7649 2.5 14.8627 2.50963Q14.9605 2.51926 15.0568 2.53843Q15.1532 2.5576 15.2472 2.58612Q15.3413 2.61464 15.432 2.65224Q15.5228 2.68984 15.6095 2.73616Q15.6961 2.78247 15.7778 2.83706Q15.8595 2.89165 15.9355 2.95398Q16.0114 3.01631 16.0809 3.08579Q16.1504 3.15526 16.2127 3.23121Q16.275 3.30716 16.3296 3.38886Q16.3842 3.47055 16.4305 3.55721Q16.4768 3.64386 16.5144 3.73463Q16.552 3.82541 16.5805 3.91943Q16.6091 4.01345 16.6282 4.10982Q16.6474 4.20618 16.657 4.30397Q16.6667 4.40175 16.6667 4.5L16.6667 15.5Q16.6667 15.5983 16.657 15.696Q16.6474 15.7938 16.6282 15.8902Q16.6091 15.9865 16.5805 16.0806Q16.552 16.1746 16.5144 16.2654Q16.4768 16.3561 16.4305 16.4428Q16.3842 16.5294 16.3296 16.6111Q16.275 16.6928 16.2127 16.7688Q16.1504 16.8447 16.0809 16.9142Q16.0114 16.9837 15.9355 17.046Q15.8595 17.1084 15.7778 17.1629Q15.6961 17.2175 15.6095 17.2638Q15.5228 17.3102 15.432 17.3478Q15.3413 17.3854 15.2472 17.4139Q15.1532 17.4424 15.0568 17.4616Q14.9605 17.4807 14.8627 17.4904Q14.7649 17.5 14.6667 17.5L5.33333 17.5Q5.23508 17.5 5.1373 17.4904Q5.03952 17.4807 4.94315 17.4616Q4.84679 17.4424 4.75276 17.4139Q4.65874 17.3854 4.56797 17.3478Q4.47719 17.3102 4.39054 17.2638Q4.30389 17.2175 4.22219 17.1629Q4.1405 17.1084 4.06455 17.046Q3.9886 16.9837 3.91912 16.9142Q3.84964 16.8447 3.78731 16.7688Q3.72498 16.6928 3.67039 16.6111Q3.61581 16.5294 3.56949 16.4428Q3.52317 16.3561 3.48557 16.2654Q3.44797 16.1746 3.41945 16.0806Q3.39093 15.9865 3.37176 15.8902Q3.35259 15.7938 3.34296 15.696Q3.33333 15.5983 3.33333 15.5Z"/>
	<path fill="none" stroke="rgb(0,0,0)" stroke-width="0.40000001" stroke-miterlimit="4" d="M3.33333 15.5L3.33333 4.5Q3.33333 4.40175 3.34296 4.30397Q3.35259 4.20618 3.37176 4.10982Q3.39093 4.01345 3.41945 3.91943Q3.44797 3.82541 3.48557 3.73463Q3.52317 3.64386 3.56949 3.55721Q3.61581 3.47055 3.67039 3.38886Q3.72498 3.30716 3.78731 3.23121Q3.84964 3.15526 3.91912 3.08579Q3.9886 3.01631 4.06455 2.95398Q4.1405 2.89165 4.22219 2.83706Q4.30389 2.78247 4.39054 2.73616Q4.47719 2.68984 4.56797 2.65224Q4.65874 2.61464 4.75276 2.58612Q4.84679 2.5576 4.94315 2.53843Q5.03952 2.51926 5.1373 2.50963Q5.23508 2.5 5.33333 2.5L14.6667 2.5Q14.7649 2.5 14.8627 2.50963Q14.9605 2.51926 15.0568 2.53843Q15.1532 2.5576 15.2472 2.58612Q15.3413 2.61464 15.432 2.65224Q15.5228 2.68984 15.6095 2.73616Q15.6961 2.78247 15.7778 2.83706Q15.8595 2.89165 15.9355 2.95398Q16.0114 3.01631 16.0809 3.08579Q16.1504 3.15526 16.2127 3.23121Q16.275 3.30716 16.3296 3.38886Q16.3842 3.47055 16.4305 3.55721Q16.4768 3.64386 16.5144 3.73463Q16.552 3.82541 16.5805 3.91943Q16.6091 4.01345 16.6282 4.10982Q16.6474 4.20618 16.657 4.30397Q16.6667 4.40175 16.6667 4.5L16.6667 15.5Q16.6667 15.5983 16.657 15.696Q16.6474 15.7938 16.6282 15.8902Q16.6091 15.9865 16.5805 16.0806Q16.552 16.1746 16.5144 16.2654Q16.4768 16.3561 16.4305 16.4428Q16.3842 16.5294 16.3296 16.6111Q16.275 16.6928 16.2127 16.7688Q16.1504 16.8447 16.0809 16.9142Q16.0114 16.9837 15.9355 17.046Q15.8595 17.1084 15.7778 17.1629Q15.6961 17.2175 15.6095 17.2638Q15.5228 17.3102 15.432 17.3478Q15.3413 17.3854 15.2472 17.4139Q15.1532 17.4424 15.0568 17.4616Q14.9605 17.4807 14.8627 17.4904Q14.7649 17.5 14.6667 17.5L5.33333 17.5Q5.23508 17.5 5.1373 17.4904Q5.03952 17.4807 4.94315 17.4616Q4.84679 17.4424 4.75276 17.4139Q4.65874 17.3854 4.56797 17.3478Q4.47719 17.3102 4.39054 17.2638Q4.30389 17.2175 4.22219 17.1629Q4.1405 17.1084 4.06455 17.046Q3.9886 16.9837 3.91912 16.9142Q3.84964 16.8447 3.78731 16.7688Q3.72498 16.6928 3.67039 16.6111Q3.61581 16.5294 3.56949 16.4428Q3.52317 16.3561 3.48557 16.2654Q3.44797 16.1746 3.41945 16.0806Q3.39093 15.9865 3.37176 15.8902Q3.35259 15.7938 3.34296 15.696Q3.33333 15.5983 3.33333 15.5Z"/>
	<path fill="rgb(255,255,255)" stroke="none" d="M6.66667 8.125L6.66667 8.125Q6.66667 8.03289 6.6757 7.94122Q6.68472 7.84955 6.70269 7.75921Q6.72066 7.66886 6.7474 7.58072Q6.77414 7.49257 6.80939 7.40747Q6.84464 7.32237 6.88806 7.24113Q6.93149 7.15989 6.98266 7.0833Q7.03384 7.00672 7.09227 6.93551Q7.15071 6.86431 7.21584 6.79917Q7.28097 6.73404 7.35218 6.67561Q7.42338 6.61717 7.49997 6.56599Q7.57656 6.51482 7.6578 6.4714Q7.73903 6.42798 7.82413 6.39272Q7.90924 6.35748 7.99738 6.33074Q8.08553 6.304 8.17587 6.28603Q8.26621 6.26806 8.35788 6.25903Q8.44955 6.25 8.54167 6.25L11.4583 6.25Q11.5504 6.25 11.6421 6.25903Q11.7338 6.26806 11.8241 6.28603Q11.9145 6.304 12.0026 6.33074Q12.0908 6.35748 12.1759 6.39272Q12.261 6.42798 12.3422 6.4714Q12.4234 6.51482 12.5 6.56599Q12.5766 6.61717 12.6478 6.67561Q12.719 6.73404 12.7842 6.79917Q12.8493 6.86431 12.9077 6.93551Q12.9662 7.00672 13.0173 7.0833Q13.0685 7.15989 13.1119 7.24113Q13.1554 7.32237 13.1906 7.40747Q13.2259 7.49257 13.2526 7.58072Q13.2793 7.66886 13.2973 7.75921Q13.3153 7.84955 13.3243 7.94122Q13.3333 8.03289 13.3333 8.125L13.3333 8.125Q13.3333 8.21711 13.3243 8.30878Q13.3153 8.40045 13.2973 8.49079Q13.2793 8.58114 13.2526 8.66928Q13.2259 8.75743 13.1906 8.84253Q13.1554 8.92763 13.1119 9.00887Q13.0685 9.0901 13.0173 9.16669Q12.9662 9.24328 12.9077 9.31449Q12.8493 9.38569 12.7842 9.45082Q12.719 9.51596 12.6478 9.57439Q12.5766 9.63283 12.5 9.684Q12.4234 9.73518 12.3422 9.7786Q12.261 9.82202 12.1759 9.85727Q12.0908 9.89252 12.0026 9.91926Q11.9145 9.946 11.8241 9.96397Q11.7338 9.98194 11.6421 9.99097Q11.5504 10 11.4583 10L8.54167 10Q8.44955 10 8.35788 9.99097Q8.26621 9.98194 8.17587 9.96397Q8.08553 9.946 7.99738 9.91926Q7.90924 9.89252 7.82413 9.85727Q7.73903 9.82202 7.6578 9.7786Q7.57656 9.73518 7.49997 9.684Q7.42338 9.63283 7.35218 9.57439Q7.28097 9.51596 7.21584 9.45082Q7.15071 9.38569 7.09227 9.31449Q7.03384 9.24328 6.98266 9.16669Q6.93149 9.0901 6.88806 9.00887Q6.84464 8.92763 6.80939 8.84253Q6.77414 8.75743 6.7474 8.66928Q6.72066 8.58114 6.70269 8.49079Q6.68472 8.40045 6.67569 8.30878Q6.66667 8.21711 6.66667 8.125Z"/>
	<path fill="none" stroke="rgb(0,0,0)" stroke-width="0.40000001" stroke-miterlimit="4" d="M6.66667 8.125L6.66667 8.125Q6.66667 8.03289 6.6757 7.94122Q6.68472 7.84955 6.70269 7.75921Q6.72066 7.66886 6.7474 7.58072Q6.77414 7.49257 6.80939 7.40747Q6.84464 7.32237 6.88806 7.24113Q6.93149 7.15989 6.98266 7.0833Q7.03384 7.00672 7.09227 6.93551Q7.15071 6.86431 7.21584 6.79917Q7.28097 6.73404 7.35218 6.67561Q7.42338 6.61717 7.49997 6.56599Q7.57656 6.51482 7.6578 6.4714Q7.73903 6.42798 7.82413 6.39272Q7.90924 6.35748 7.99738 6.33074Q8.08553 6.304 8.17587 6.28603Q8.26621 6.26806 8.35788 6.25903Q8.44955 6.25 8.54167 6.25L11.4583 6.25Q11.5504 6.25 11.6421 6.25903Q11.7338 6.26806 11.8241 6.28603Q11.9145 6.304 12.0026 6.33074Q12.0908 6.35748 12.1759 6.39272Q12.261 6.42798 12.3422 6.4714Q12.4234 6.51482 12.5 6.56599Q12.5766 6.61717 12.6478 6.67561Q12.719 6.73404 12.7842 6.79917Q12.8493 6.86431 12.9077 6.93551Q12.9662 7.00672 13.0173 7.0833Q13.0685 7.15989 13.1119 7.24113Q13.1554 7.32237 13.1906 7.40747Q13.2259 7.49257 13.2526 7.58072Q13.2793 7.66886 13.2973 7.75921Q13.3153 7.84955 13.3243 7.94122Q13.3333 8.03289 13.3333 8.125L13.3333 8.125Q13.3333 8.21711 13.3243 8.30878Q13.3153 8.40045 13.2973 8.49079Q13.2793 8.58114 13.2526 8.66928Q13.2259 8.75743 13.1906 8.84253Q13.1554 8.92763 13.1119 9.00887Q13.0685 9.0901 13.0173 9.16669Q12.9662 9.24328 12.9077 9.31449Q12.8493 9.38569 12.7842 9.45082Q12.719 9.51596 12.6478 9.57439Q12.5766 9.63283 12.5 9.684Q12.4234 9.73518 12.3422 9.7786Q12.261 9.82202 12.1759 9.85727Q12.0908 9.89252 12.0026 9.91926Q11.9145 9.946 11.8241 9.96397Q11.7338 9.98194 11.6421 9.99097Q11.5504 10 11.4583 10L8.54167 10Q8.44955 10 8.35788 9.99097Q8.26621 9.98194 8.17587 9.96397Q8.08553 9.946 7.99738 9.91926Q7.90924 9.89252 7.82413 9.85727Q7.73903 9.82202 7.6578 9.7786Q7.57656 9.73518 7.49997 9.684Q7.42338 9.63283 7.35218 9.57439Q7.28097 9.51596 7.21584 9.45082Q7.15071 9.38569 7.09227 9.31449Q7.03384 9.24328 6.98266 9.16669Q6.93149 9.0901 6.88806 9.00887Q6.84464 8.92763 6.80939 8.84253Q6.77414 8.75743 6.7474 8.66928Q6.72066 8.58114 6.70269 8.49079Q6.68472 8.40045 6.67569 8.30878Q6.66667 8.21711 6.66667 8.125Z"/>
	<ellipse fill="rgb(0,0,139)" stroke="none" cx="10.138888" cy="8.125" rx="1.25" ry="1.25"/>
</svg>
